0
SECTION
2
HEADER
9
$INSUNITS
70
4
9
$ACADVER
1
AC1014
9
$HANDSEED
5
FFFF
0
ENDSEC
0
SECTION
2
TABLES
0
TABLE
2
VPORT
5
8
100
AcDbSymbolTable
0
ENDTAB
0
TABLE
2
LTYPE
5
5
100
AcDbSymbolTable
0
LTYPE
5
14
100
AcDbSymbolTableRecord
100
AcDbLinetypeTableRecord
2
BYBLOCK
70
0
0
LTYPE
5
15
100
AcDbSymbolTableRecord
100
AcDbLinetypeTableRecord
2
BYLAYER
70
0
0
ENDTAB
0
TABLE
2
LAYER
5
2
100
AcDbSymbolTable
70
2
0
LAYER
5
50
100
AcDbSymbolTableRecord
100
AcDbLayerTableRecord
2
0
70
0
6
CONTINUOUS
0
ENDTAB
0
TABLE
2
STYLE
5
3
100
AcDbSymbolTable
70
1
0
STYLE
5
11
100
AcDbSymbolTableRecord
100
AcDbTextStyleTableRecord
2
STANDARD
70
0
0
ENDTAB
0
TABLE
2
VIEW
5
6
100
AcDbSymbolTable
70
0
0
ENDTAB
0
TABLE
2
UCS
5
7
100
AcDbSymbolTable
70
0
0
ENDTAB
0
TABLE
2
APPID
5
9
100
AcDbSymbolTable
70
2
0
APPID
5
12
100
AcDbSymbolTableRecord
100
AcDbRegAppTableRecord
2
ACAD
70
0
0
ENDTAB
0
TABLE
2
DIMSTYLE
5
A
100
AcDbSymbolTable
70
1
0
ENDTAB
0
TABLE
2
BLOCK_RECORD
5
1
100
AcDbSymbolTable
70
1
0
BLOCK_RECORD
5
1F
100
AcDbSymbolTableRecord
100
AcDbBlockTableRecord
2
*MODEL_SPACE
0
BLOCK_RECORD
5
1B
100
AcDbSymbolTableRecord
100
AcDbBlockTableRecord
2
*PAPER_SPACE
0
ENDTAB
0
ENDSEC
0
SECTION
2
BLOCKS
0
BLOCK
5
20
100
AcDbEntity
100
AcDbBlockBegin
2
*MODEL_SPACE
0
ENDBLK
5
21
100
AcDbEntity
100
AcDbBlockEnd
0
BLOCK
5
1C
100
AcDbEntity
100
AcDbBlockBegin
2
*PAPER_SPACE
0
ENDBLK
5
1D
100
AcDbEntity
100
AcDbBlockEnd
0
ENDSEC
0
SECTION
2
ENTITIES
0
LWPOLYLINE
5
100
100
AcDbEntity
8
0
100
AcDbPolyline
90
8
70
1
43
0.0
10
-27.49947183359394
20
-10.331476977166396
42
0.41421356237308721
10
-26.906442187818111
20
-10.716594932124391
10
-14.190523378278694
20
-8.0137429514935654
42
0.41421356237315421
10
-13.805405423320639
20
-7.4207133057177854
10
-16.508257403951468
20
5.2952055038217249
42
0.41421356237308127
10
-17.101287049727269
20
5.6803234587797498
10
-29.817205859266824
20
2.9774714781488592
42
0.41421356237306084
10
-30.202323814224904
20
2.3844418323730654
0
LWPOLYLINE
5
101
100
AcDbEntity
8
0
100
AcDbPolyline
90
8
70
1
43
0.0
10
91.39499999929032
20
-20.900288866907371
42
0.41421356237308982
10
91.894999999290334
20
-21.400288866907367
10
104.89499999929035
20
-21.400288866907378
42
0.41421356237309243
10
105.39499999929035
20
-20.900288866907381
10
105.39499999929035
20
-7.9002888669073634
42
0.41421356237311519
10
104.89499999929035
20
-7.4002888669073812
10
91.894999999290334
20
-7.4002888669073652
42
0.41421356237314577
10
91.394999999290363
20
-7.9002888669073634
0
LWPOLYLINE
5
102
100
AcDbEntity
8
0
100
AcDbPolyline
90
8
70
1
43
0.0
10
13.795405421901314
20
-7.4207133057179036
42
0.41421356237309237
10
14.180523376859284
20
-8.0137429514936862
10
26.896442186398826
20
-10.71659493212457
42
0.41421356237308998
10
27.489471832174594
20
-10.331476977166565
10
30.192323812805419
20
2.3844418323729477
42
0.41421356237307344
10
29.807205857847414
20
2.9774714781487499
10
17.091287048307962
20
5.6803234587796148
42
0.41421356237311185
10
16.498257402532161
20
5.2952055038216077
0
LWPOLYLINE
5
103
100
AcDbEntity
8
0
100
AcDbPolyline
90
8
70
1
43
0.0
10
86.544999999290326
20
11.649711133092637
42
0.41421356237307028
10
86.044999999290354
20
11.149711133092639
10
86.044999999290354
20
-1.8502888669073858
42
0.41421356237311441
10
86.544999999290354
20
-2.3502888669073729
10
99.544999999290383
20
-2.3502888669073752
42
0.41421356237314533
10
100.04499999929035
20
-1.8502888669073769
10
100.04499999929037
20
11.149711133092666
42
0.41421356237313145
10
99.544999999290383
20
11.649711133092653
0
LWPOLYLINE
5
104
100
AcDbEntity
8
0
100
AcDbPolyline
90
8
70
1
43
0.0
10
151.73499999929035
20
-23.540288866907293
42
0.41421356237309243
10
152.23499999929035
20
-23.040288866907286
10
152.23499999929035
20
-10.040288866907296
42
0.41421356237308327
10
151.73499999929038
20
-9.5402888669072912
10
138.73499999929038
20
-9.5402888669072983
42
0.41421356237310414
10
138.23499999929035
20
-10.040288866907296
10
138.23499999929038
20
-23.040288866907286
42
0.4142135623731002
10
138.73499999929035
20
-23.540288866907279
0
LWPOLYLINE
5
105
100
AcDbEntity
8
0
100
AcDbPolyline
90
8
70
1
43
0.0
10
72.992422430244915
20
-6.2018296714552879
42
0.4142135623731002
10
72.399392784469143
20
-6.5869476264133198
10
69.696540803838275
20
-19.302866435952815
42
0.41421356237311036
10
70.081658758796337
20
-19.895896081728594
10
82.797577568335782
20
-22.598748062359473
42
0.41421356237311224
10
83.390607214111526
20
-22.21363010740145
10
86.093459194742479
20
-9.4977112978619616
42
0.41421356237307688
10
85.708341239784446
20
-8.9046816520861523
0
CIRCLE
5
106
100
AcDbEntity
8
0
100
AcDbCircle
10
-39.619160860494688
20
-34.178930007843604
30
0
40
1.7500000000000071
210
0
220
-0
230
1
0
CIRCLE
5
107
100
AcDbEntity
8
0
100
AcDbCircle
10
40.000000000000284
20
-41.890881782423079
30
0
40
1.0999999999999943
210
0
220
-0
230
1
0
LWPOLYLINE
5
108
100
AcDbEntity
8
0
100
AcDbPolyline
90
8
70
1
43
0.0
10
-67.084629447224827
20
-4.9439639420077963
42
0.41421356237308143
10
-67.469747402182861
20
-5.5369935877835852
10
-64.766895421551979
20
-18.252912397323094
42
0.41421356237311113
10
-64.173865775776122
20
-18.638030352281096
10
-51.45794696623652
20
-15.935178371650194
42
0.41421356237314244
10
-51.072829011278522
20
-15.342148725874406
10
-53.775680991909468
20
-2.6262299163349567
42
0.41421356237307472
10
-54.368710637685311
20
-2.2411119613769159
0
CIRCLE
5
109
100
AcDbEntity
8
0
100
AcDbCircle
10
108.61999999929033
20
-41.700288866907371
30
0
40
1.7500000000000071
210
0
220
-0
230
1
0
CIRCLE
5
110
100
AcDbEntity
8
0
100
AcDbCircle
10
-141.40750000070992
20
-32.803331610458386
30
0
40
1.0999999999999943
210
0
220
-0
230
1
0
LWPOLYLINE
5
111
100
AcDbEntity
8
0
100
AcDbPolyline
90
8
70
1
43
0.0
10
126.82624999929034
20
-7.9002888669073457
42
0.41421356237313012
10
126.32624999929035
20
-7.400288866907367
10
113.32624999929027
20
-7.4002888669073208
42
0.41421356237307161
10
112.8262499992903
20
-7.900288866907319
10
112.8262499992903
20
-20.900288866907388
42
0.41421356237309243
10
113.32624999929031
20
-21.400288866907392
10
126.32624999929035
20
-21.400288866907378
42
0.41421356237312884
10
126.82624999929035
20
-20.900288866907381
0
CIRCLE
5
112
100
AcDbEntity
8
0
100
AcDbCircle
10
-99.390000000709705
20
-41.745450164859591
30
0
40
1.7500000000000071
210
0
220
-0
230
1
0
CIRCLE
5
113
100
AcDbEntity
8
0
100
AcDbCircle
10
150.73499999929027
20
-1.8033316104584252
30
0
40
1.0999999999999943
210
0
220
-0
230
1
0
LWPOLYLINE
5
114
100
AcDbEntity
8
0
100
AcDbPolyline
90
14
70
1
43
0.0
10
-50.242473436759447
20
21.735952771902475
42
0.41421356237308998
10
-49.649443790983653
20
21.350834816944442
10
-43.780558186580826
20
22.598304961851021
42
0.41421356237309703
10
-43.395440231622793
20
23.191334607626786
10
-46.30620390307142
20
36.885401017900072
42
0.41421356237308887
10
-46.899233548847228
20
37.270518972858113
10
-47.614014908083426
20
37.118587504793012
10
-47.71797075349231
20
37.60766130515993
42
0.41421356237309304
10
-48.311000399268096
20
37.992779260117956
10
-61.026919208807591
20
35.289927279487081
42
0.41421356237310519
10
-61.412037163765618
20
34.696897633711288
10
-58.709185183134743
20
21.980978824171828
42
0.41421356237308998
10
-58.116155537358971
20
21.595860869213812
10
-50.55434097298609
20
23.203174173003198
0
LWPOLYLINE
5
115
100
AcDbEntity
8
0
100
AcDbPolyline
90
8
70
1
43
0.0
10
-104.90500000070982
20
-7.4002888669073386
42
0.41421356237312301
10
-105.40500000070985
20
-7.9002888669073368
10
-105.40500000070983
20
-20.900288866907371
42
0.41421356237311319
10
-104.90500000070982
20
-21.400288866907342
10
-91.905000000709677
20
-21.40028886690736
42
0.41421356237312629
10
-91.405000000709691
20
-20.900288866907353
10
-91.405000000709663
20
-7.9002888669073457
42
0.41421356237312501
10
-91.905000000709677
20
-7.4002888669073279
0
CIRCLE
5
116
100
AcDbEntity
8
0
100
AcDbCircle
10
0
20
40
30
0
40
1.0999999999999943
210
0
220
-0
230
1
0
LWPOLYLINE
5
117
100
AcDbEntity
8
0
100
AcDbPolyline
90
8
70
1
43
0.0
10
-82.850607215530744
20
18.386369892598502
42
0.41421356237309248
10
-82.257577569754986
20
18.0012519376405
10
-69.541658760215569
20
20.70410391827145
42
0.41421356237309304
10
-69.156540805257492
20
21.297133564047222
10
-71.859392785888559
20
34.013052373586738
42
0.41421356237308998
10
-72.452422431664417
20
34.398170328544772
10
-85.168341241203848
20
31.69531834791405
42
0.41421356237301743
10
-85.553459196161882
20
31.102288702138274
0
LWPOLYLINE
5
118
100
AcDbEntity
8
0
100
AcDbPolyline
90
8
70
1
43
0.0
10
-100.04500000070971
20
-1.8502888669073592
42
0.41421356237302809
10
-99.545000000709763
20
-2.350288866907376
10
-86.545000000709763
20
-2.3502888669073396
42
0.41421356237312268
10
-86.045000000709734
20
-1.8502888669073414
10
-86.045000000709692
20
11.149711133092683
42
0.41421356237314966
10
-86.545000000709692
20
11.649711133092666
10
-99.545000000709734
20
11.649711133092682
42
0.41421356237302087
10
-100.04500000070975
20
11.149711133092694
0
CIRCLE
5
119
100
AcDbEntity
8
0
100
AcDbCircle
10
48.929160859075367
20
-36.158930007843715
30
0
40
1.7500000000000071
210
0
220
-0
230
1
0
LWPOLYLINE
5
120
100
AcDbEntity
8
0
100
AcDbPolyline
90
8
70
1
43
0.0
10
24.842323812805454
20
22.994441832372985
42
0.4142135623731083
10
24.457205857847431
20
23.587471478148771
10
11.741287048307978
20
26.290323458779614
42
0.41421356237305523
10
11.148257402532211
20
25.905205503821573
10
8.4454054219012598
20
13.189286694282103
42
0.41421356237311036
10
8.8305233768592828
20
12.596257048506329
10
21.546442186398718
20
9.893405067875447
42
0.41421356237310286
10
22.139471832174493
20
10.278523022833481
0
LWPOLYLINE
5
121
100
AcDbEntity
8
0
100
AcDbPolyline
90
8
70
1
43
0.0
10
126.23874999929038
20
11.149711133092648
42
0.41421356237313145
10
125.73874999929039
20
11.649711133092628
10
112.73874999929035
20
11.649711133092655
42
0.41421356237311063
10
112.23874999929035
20
11.149711133092659
10
112.23874999929038
20
-1.8502888669073858
42
0.41421356237309509
10
112.73874999929038
20
-2.3502888669073951
10
125.73874999929038
20
-2.3502888669073929
42
0.41421356237308626
10
126.23874999929035
20
-1.8502888669073947
0
CIRCLE
5
122
100
AcDbEntity
8
0
100
AcDbCircle
10
-39.999999999999773
20
-41.890881782423044
30
0
40
1.0999999999999943
210
0
220
-0
230
1
0
LWPOLYLINE
5
123
100
AcDbEntity
8
0
100
AcDbPolyline
90
8
70
1
43
0.0
10
43.47603560678445
20
19.033724122294686
42
0.41421356237308588
10
43.090917651826445
20
19.626753768070444
10
30.374998842286942
20
22.329605748701347
42
0.41421356237312773
10
29.781969196511149
20
21.944487793743335
10
27.07911721588026
20
9.228568984203811
42
0.41421356237311674
10
27.464235170838265
20
8.6355393384280248
10
40.18015398037781
20
5.9326873577971639
42
0.41421356237312329
10
40.77318362615361
20
6.3178053127551648
0
CIRCLE
5
124
100
AcDbEntity
8
0
100
AcDbCircle
10
99.115065507995084
20
26.699711133095434
30
0
40
1.0999999999999943
210
0
220
-0
230
1
0
LWPOLYLINE
5
125
100
AcDbEntity
8
0
100
AcDbPolyline
90
14
70
1
43
0.0
10
-19.778883011098351
20
29.744699701202364
10
-20.353055652729108
20
29.622655538692335
10
-20.041188116502457
20
28.155434137591612
42
-0.4142135623731007
10
-20.426306071460488
20
27.562404491815833
10
-26.295191675863315
20
26.31493434690929
42
-0.41421356237309703
10
-26.888221321639094
20
26.700052301867299
10
-27.200088857865733
20
28.167273702968025
10
-41.811657717627341
20
25.061488865532326
42
-0.41421356237309198
10
-42.40468736340312
20
25.446606820490352
10
-45.107539344034038
20
38.162525630029812
42
-0.41421356237309692
10
-44.722421389075969
20
38.755555275805648
10
-22.689646682546979
20
43.43876611147563
42
-0.4142135623731007
10
-22.096617036771207
20
43.053648156517603
10
-19.393765056140332
20
30.337729346978143
42
-0.41421356237308971
0
LWPOLYLINE
5
126
100
AcDbEntity
8
0
100
AcDbPolyline
90
20
70
1
43
0.0
10
-109.50200000070971
20
-41.9502888669073
42
0.41421356237309509
10
-109.00200000070973
20
-42.450288866907293
10
-103.00200000070973
20
-42.4502888669073
42
0.41421356237312629
10
-102.50200000070973
20
-41.9502888669073
10
-102.50200000070973
20
-40.450288866907385
10
-101.91500000070975
20
-40.450288866907385
42
0.41421356237312362
10
-101.41500000070974
20
-39.950288866907385
10
-101.41500000070975
20
-26.950288866907304
42
0.41421356237314189
10
-101.91500000070974
20
-26.450288866907332
10
-133.96500000070972
20
-26.450288866907336
42
0.41421356237308204
10
-134.46500000070972
20
-26.950288866907304
10
-134.46500000070972
20
-39.9502888669073
42
0.41421356237309509
10
-133.96500000070972
20
-40.450288866907307
10
-133.37800000070973
20
-40.4502888669073
10
-133.37800000070973
20
-41.9502888669073
42
0.41421356237308982
10
-132.87800000070973
20
-42.450288866907322
10
-126.87800000070972
20
-42.4502888669073
42
0.41421356237312629
10
-126.3780000007097
20
-41.9502888669073
10
-126.37800000070973
20
-40.4502888669073
10
-109.50200000070971
20
-40.4502888669073
0
LWPOLYLINE
5
127
100
AcDbEntity
8
0
100
AcDbPolyline
90
8
70
1
43
0.0
10
-22.139471833593998
20
10.278523022833603
42
0.41421356237307377
10
-21.546442187818204
20
9.8934050678755909
10
-8.8305233782786274
20
12.596257048506443
42
0.41421356237307638
10
-8.4454054233206222
20
13.189286694282229
10
-11.148257403951547
20
25.90520550382168
42
0.41421356237313922
10
-11.741287049727307
20
26.290323458779721
10
-24.457205859266775
20
23.587471478148867
42
0.41421356237314549
10
-24.842323814224837
20
22.994441832373084
0
LWPOLYLINE
5
128
100
AcDbEntity
8
0
100
AcDbPolyline
90
8
70
1
43
0.0
10
64.863865774356725
20
-38.268030352281187
42
0.41421356237312668
10
65.456895420132525
20
-37.882912397323167
10
68.159747400763393
20
-25.166993587783644
42
0.41421356237311591
10
67.77462944580536
20
-24.573963942007872
10
55.058710636265893
20
-21.871111961376997
42
0.41421356237310519
10
54.465680990490156
20
-22.25622991633502
10
51.762829009859281
20
-34.972148725874526
42
0.41421356237309304
10
52.147946964817308
20
-35.565178371650319
0
LWPOLYLINE
5
129
100
AcDbEntity
8
0
100
AcDbPolyline
90
8
70
1
43
0.0
10
51.062829009859257
20
-15.342148725874514
42
0.41421356237306717
10
51.447946964817305
20
-15.935178371650306
10
64.163865774356751
20
-18.638030352281163
42
0.41421356237308044
10
64.75689542013248
20
-18.252912397323129
10
67.459747400763405
20
-5.5369935877836252
42
0.41421356237313384
10
67.074629445805357
20
-4.9439639420078452
10
54.358710636265926
20
-2.2411119613769959
42
0.41421356237306634
10
53.765680990490182
20
-2.62622991633503
0
LWPOLYLINE
5
130
100
AcDbEntity
8
0
100
AcDbPolyline
90
8
70
1
43
0.0
10
124.64499999929038
20
-40.450288866907385
42
0.41421356237308726
10
125.14499999929036
20
-39.950288866907385
10
125.14499999929038
20
-26.950288866907322
42
0.41421356237313145
10
124.64499999929039
20
-26.450288866907336
10
111.64499999929035
20
-26.450288866907332
42
0.41421356237309764
10
111.14499999929035
20
-26.950288866907339
10
111.14499999929035
20
-39.950288866907343
42
0.41421356237308465
10
111.64499999929035
20
-40.450288866907336
0
LWPOLYLINE
5
131
100
AcDbEntity
8
0
100
AcDbPolyline
90
8
70
1
43
0.0
10
134.66499999929033
20
-28.590288866907283
42
0.41421356237311846
10
134.16499999929036
20
-29.090288866907272
10
134.16499999929036
20
-42.090288866907279
42
0.41421356237313667
10
134.66499999929036
20
-42.590288866907287
10
147.66499999929033
20
-42.590288866907287
42
0.4142135623731002
10
148.1649999992903
20
-42.090288866907279
10
148.16499999929027
20
-29.090288866907272
42
0.4142135623731002
10
147.6649999992903
20
-28.590288866907279
0
LWPOLYLINE
5
132
100
AcDbEntity
8
0
100
AcDbPolyline
90
8
70
1
43
0.0
10
32.429117215880282
20
-11.381431015796197
42
0.41421356237311363
10
32.814235170838316
20
-11.974460661571984
10
45.53015398037779
20
-14.67731264220288
42
0.41421356237307871
10
46.123183626153619
20
-14.292194687244857
10
48.826035606784416
20
-1.5762758777053509
42
0.41421356237309531
10
48.440917651826396
20
-0.98324623192955563
10
35.724998842286944
20
1.7196057487013316
42
0.41421356237306617
10
35.131969196511157
20
1.3344877937433042
0
LWPOLYLINE
5
133
100
AcDbEntity
8
0
100
AcDbPolyline
90
8
70
1
43
0.0
10
92.094999999290337
20
-39.950288866907385
42
0.41421356237309764
10
92.594999999290337
20
-40.450288866907385
10
105.59499999929034
20
-40.450288866907407
42
0.41421356237311063
10
106.09499999929035
20
-39.9502888669074
10
106.09499999929035
20
-26.950288866907364
42
0.41421356237309243
10
105.59499999929034
20
-26.450288866907364
10
92.594999999290323
20
-26.450288866907378
42
0.41421356237307683
10
92.094999999290337
20
-26.950288866907375
0
LWPOLYLINE
5
134
100
AcDbEntity
8
0
100
AcDbPolyline
90
20
70
1
43
0.0
10
8.6149424719541656
20
30.584157624295074
42
0.41421356237309759
10
9.0000604269121887
20
29.991127978519291
10
17.229216191885701
20
28.241966923669473
42
0.41421356237309509
10
17.822245837661477
20
28.6270848786275
10
18.134113373888123
20
30.094306279728222
10
32.281062123301169
20
27.08727949543097
10
31.969194587074519
20
25.620058094330247
42
0.4142135623731012
10
32.354312542032545
20
25.027028448554461
10
38.223198146435365
20
23.77955830364791
42
0.41421356237309809
10
38.816227792211144
20
24.164676258605937
10
39.128095328437794
20
25.631897659706652
10
39.702267970068547
20
25.50985349719663
42
0.41421356237309137
10
40.295297615844312
20
25.89497145215465
10
42.998149596475187
20
38.610890261694124
42
0.4142135623731083
10
42.613031641517168
20
39.203919907469881
10
20.580256934988199
20
43.887130743139942
42
0.41421356237311319
10
19.987227289212424
20
43.502012788181901
10
19.88327144380353
20
43.012938987814984
10
12.118735789178574
20
44.663341989526359
42
0.41421356237310025
10
11.525706143402772
20
44.278224034568332
0
LWPOLYLINE
5
135
100
AcDbEntity
8
0
100
AcDbPolyline
90
8
70
1
43
0.0
10
-64.731658760215737
20
0.71410391827139841
42
0.41421356237302892
10
-64.346540805257689
20
1.3071335640471715
10
-67.049392785888543
20
14.023052373586768
42
0.41421356237310553
10
-67.642422431664301
20
14.408170328544772
10
-80.358341241203789
20
11.705318347913849
42
0.41421356237314988
10
-80.743459196161808
20
11.112288702138066
10
-78.040607215530912
20
-1.6036301074014148
42
0.41421356237307405
10
-77.447577569755111
20
-1.9887480623594309
0
LWPOLYLINE
5
136
100
AcDbEntity
8
0
100
AcDbPolyline
90
8
70
1
43
0.0
10
49.526035606784419
20
-21.206275877705352
42
0.41421356237311896
10
49.140917651826406
20
-20.613246231929573
10
36.424998842286854
20
-17.910394251298651
42
0.41421356237310264
10
35.831969196511082
20
-18.295512206256689
10
33.129117215880264
20
-31.011431015796198
42
0.41421356237309509
10
33.51423517083829
20
-31.604460661571974
10
46.230153980377779
20
-34.307312642202881
42
0.41421356237311852
10
46.823183626153565
20
-33.922194687244854
0
LWPOLYLINE
5
137
100
AcDbEntity
8
0
100
AcDbPolyline
90
8
70
1
43
0.0
10
83.497577568335757
20
-42.2287480623595
42
0.41421356237308998
10
84.090607214111515
20
-41.843630107401466
10
86.793459194742411
20
-29.127711297861936
42
0.41421356237308427
10
86.408341239784392
20
-28.534681652086164
10
73.692422430244918
20
-25.831829671455317
42
0.41421356237312867
10
73.099392784469174
20
-26.216947626413329
10
70.396540803838278
20
-38.932866435952818
42
0.41421356237312268
10
70.781658758796283
20
-39.52589608172859
0
CIRCLE
5
138
100
AcDbEntity
8
0
100
AcDbCircle
10
-102.53719955214449
20
26.69971112902072
30
0
40
1.0999999999999943
210
0
220
-0
230
1
0
LWPOLYLINE
5
139
100
AcDbEntity
8
0
100
AcDbPolyline
90
8
70
1
43
0.0
10
30.89232381280544
20
-17.245558167627031
42
0.41421356237311774
10
30.507205857847417
20
-16.652528521851263
10
17.791287048307911
20
-13.949676541220386
42
0.41421356237310625
10
17.198257402532118
20
-14.3347944961784
10
14.495405421901282
20
-27.050713305717888
42
0.41421356237311591
10
14.880523376859287
20
-27.643742951493696
10
27.596442186398722
20
-30.346594932124553
42
0.41421356237309198
10
28.189471832174526
20
-29.961476977166548
0
LWPOLYLINE
5
140
100
AcDbEntity
8
0
100
AcDbPolyline
90
14
70
1
43
0.0
10
48.242636220482837
20
22.161031294195183
42
0.41421356237310325
10
48.62775417544087
20
21.568001648419404
10
54.496639779843704
20
20.320531503512846
42
0.41421356237309809
10
55.089669425619476
20
20.705649458470869
10
55.401536961846119
20
22.172870859571596
10
58.335979764047536
20
21.549135787118317
42
0.41421356237310014
10
58.929009409823308
20
21.934253742076333
10
61.631861390454212
20
34.650172551615803
42
0.41421356237308682
10
61.246743435496178
20
35.243202197391604
10
48.53082462595669
20
37.946054178022479
42
0.41421356237309198
10
47.937794980180897
20
37.560936223064438
10
45.234942999550043
20
24.845017413524964
42
0.4142135623731043
10
45.620060954508062
20
24.251987767749181
10
48.554503756709479
20
23.628252695295913
0
LWPOLYLINE
5
141
100
AcDbEntity
8
0
100
AcDbPolyline
90
8
70
1
43
0.0
10
-59.406895421551923
20
2.3570876026769305
42
0.41421356237315737
10
-58.813865775776137
20
1.9719696477189497
10
-46.097946966236719
20
4.6748216283497959
42
0.41421356237303081
10
-45.712829011278664
20
5.2678512741255723
10
-48.415680991909639
20
17.983770083665039
42
0.41421356237310425
10
-49.008710637685397
20
18.368888038623041
10
-61.724629447224771
20
15.666036057992152
42
0.41421356237307672
10
-62.10974740218284
20
15.073006412216367
0
LWPOLYLINE
5
142
100
AcDbEntity
8
0
100
AcDbPolyline
90
8
70
1
43
0.0
10
128.61999999929736
20
30.199711133093974
42
0.41421356237318346
10
128.11999999929736
20
30.699711133094098
10
115.11999999929735
20
30.699711133094088
42
0.41421356237303264
10
114.61999999929736
20
30.199711133094169
10
114.61999999929439
20
17.19971113309424
42
0.41421356237317175
10
115.11999999929441
20
16.699711133094105
10
128.11999999929441
20
16.699711133094119
42
0.41421356237302998
10
128.61999999929441
20
17.199711133093977
0
LWPOLYLINE
5
143
100
AcDbEntity
8
0
100
AcDbPolyline
90
26
70
1
43
0.0
10
-108.56325000070898
20
13.149711133138622
42
0.41421356237306517
10
-109.06325000070895
20
13.649711133138648
10
-115.06325000070896
20
13.649711133138638
42
0.41421356237311979
10
-115.56325000070899
20
13.149711133138641
10
-115.56325000070898
20
12.149711133092467
42
-0.41421356237312101
10
-116.06325000070896
20
11.64971113309247
10
-120.47625000070978
20
11.649711133093012
10
-129.90750000039733
20
11.649711221661267
10
-131.93924999588714
20
11.649711222293417
42
-0.41421356228188555
10
-132.4392499957315
20
12.149711222293417
10
-132.4392499957315
20
13.149711132649058
42
0.41421356237314311
10
-132.9392499957315
20
13.649711132649031
10
-138.93924999573153
20
13.649711132649047
42
0.41421356237312501
10
-139.43924999573147
20
13.14971113264906
10
-139.4392499957315
20
12.149711224782509
42
-0.41421356246417051
10
-139.93924999588705
20
11.649711224782513
10
-142.40750000055408
20
11.649711225550474
42
0.41421356246420565
10
-142.90750000070969
20
11.149711225550478
10
-142.90750000070969
20
-1.8502888669073592
42
0.41421356237305995
10
-142.40750000070972
20
-2.3502888669073241
10
-107.97625000071024
20
-2.350288866907384
42
0.41421356237318174
10
-107.47625000071032
20
-1.8502888669073858
10
-107.47625000071031
20
11.14971113309247
42
0.41421356237312101
10
-107.97625000071029
20
11.64971113309247
10
-108.06325000070899
20
11.649711133092451
42
-0.41421356237310153
10
-108.56325000070896
20
12.149711133092469
0
LWPOLYLINE
5
144
100
AcDbEntity
8
0
100
AcDbPolyline
90
8
70
1
43
0.0
10
-63.789392785888438
20
-24.236947626413262
42
0.41421356237307921
10
-64.382422431664196
20
-23.85182967145521
10
-77.098341241203855
20
-26.554681652086121
42
0.41421356237313689
10
-77.483459196161903
20
-27.147711297861903
10
-74.780607215530935
20
-39.863630107401406
42
0.41421356237312867
10
-74.187577569755149
20
-40.248748062359411
10
-61.471658760215689
20
-37.545896081728628
42
0.41421356237308682
10
-61.086540805257613
20
-36.952866435952828
0
LWPOLYLINE
5
145
100
AcDbEntity
8
0
100
AcDbPolyline
90
8
70
1
43
0.0
10
62.109747400763489
20
15.073006412216348
42
0.41421356237308588
10
61.724629445805462
20
15.666036057992159
10
49.008710636265903
20
18.36888803862303
42
0.41421356237312801
10
48.415680990490145
20
17.983770083665011
10
45.712829009859277
20
5.267851274125519
42
0.41421356237308532
10
46.097946964817268
20
4.6748216283497079
10
58.813865774356842
20
1.9719696477188273
42
0.41421356237310397
10
59.406895420132543
20
2.3570876026768328
0
LWPOLYLINE
5
146
100
AcDbEntity
8
0
100
AcDbPolyline
90
8
70
1
43
0.0
10
-96.160000000712444
20
-27.516391089958137
42
0.41421356237148738
10
-96.660000000709729
20
-28.016391089958127
10
-96.660000000709729
20
-41.016391089958148
42
0.41421356237469747
10
-96.160000000707043
20
-41.516391089958134
10
-83.160000000637226
20
-41.516391089887861
42
0.41421356237138329
10
-82.660000000709431
20
-41.016391089957658
10
-82.660000000709744
20
-28.016391089887833
42
0.41421356237467666
10
-83.160000000712415
20
-27.516391089887861
0
LWPOLYLINE
5
147
100
AcDbEntity
8
0
100
AcDbPolyline
90
8
70
1
43
0.0
10
67.642422430244892
20
14.408170328544712
42
0.41421356237308021
10
67.04939278446912
20
14.023052373586697
10
64.346540803838252
20
1.3071335640471826
42
0.41421356237306312
10
64.731658758796286
20
0.71410391827140263
10
77.447577568335774
20
-1.9887480623594644
42
0.41421356237309848
10
78.04060721411156
20
-1.6036301074014503
10
80.743459194742471
20
11.112288702138065
42
0.41421356237306622
10
80.358341239784451
20
11.705318347913821
0
LWPOLYLINE
5
148
100
AcDbEntity
8
0
100
AcDbPolyline
90
8
70
1
43
0.0
10
-37.513183627572829
20
-31.942194687244729
42
0.41421356237306856
10
-36.920153981797114
20
-32.327312642202742
10
-24.204235172257693
20
-29.624460661571916
42
0.41421356237316137
10
-23.819117217299627
20
-29.031431015796116
10
-26.521969197930542
20
-16.315512206256635
42
0.41421356237304507
10
-27.114998843706335
20
-15.930394251298576
10
-39.83091765324582
20
-18.633246231929501
42
0.41421356237307794
10
-40.21603560820391
20
-19.226275877705298
0
LWPOLYLINE
5
149
100
AcDbEntity
8
0
100
AcDbPolyline
90
8
70
1
43
0.0
10
-120.46450000070534
20
30.19971112936215
42
0.41421356237707002
10
-120.96450000071216
20
30.699711129362122
10
-133.96450000071209
20
30.699711129186085
42
0.41421356236906542
10
-134.46450000070539
20
30.199711129186078
10
-134.46450000070547
20
17.199711134766726
42
0.41421356237134949
10
-133.9645000007084
20
16.699711134766659
10
-120.96450000070854
20
16.699711134691341
42
0.41421356237481322
10
-120.46450000070553
20
17.199711134691341
0
LWPOLYLINE
5
150
100
AcDbEntity
8
0
100
AcDbPolyline
90
8
70
1
43
0.0
10
-5.5705233782786578
20
-25.663742951493607
42
0.41421356237313767
10
-5.1854054233206419
20
-25.070713305717824
10
-7.8882574039514708
20
-12.354794496178281
42
0.41421356237309404
10
-8.481287049727225
20
-11.969676541220275
10
-21.197205859266806
20
-14.672528521851156
42
0.41421356237307672
10
-21.582323814224871
20
-15.265558167626949
10
-18.879471833594028
20
-27.981476977166437
42
0.41421356237313456
10
-18.286442187818238
20
-28.366594932124471
0
LWPOLYLINE
5
151
100
AcDbEntity
8
0
100
AcDbPolyline
90
8
70
1
43
0.0
10
69.156540803838269
20
21.297133564047172
42
0.41421356237310575
10
69.541658758796288
20
20.704103918271407
10
82.257577568335762
20
18.001251937640532
42
0.41421356237309964
10
82.850607214111506
20
18.386369892598559
10
85.553459194742402
20
31.102288702138097
42
0.41421356237315626
10
85.168341239784382
20
31.69531834791389
10
72.452422430244951
20
34.398170328544744
42
0.41421356237310325
10
71.859392784469165
20
34.013052373586717
0
LWPOLYLINE
5
152
100
AcDbEntity
8
0
100
AcDbPolyline
90
8
70
1
43
0.0
10
-131.59875000070994
20
-20.900288866907353
42
0.41421356237311585
10
-131.09875000070997
20
-21.400288866907342
10
-118.09875000070983
20
-21.40028886690736
42
0.41421356237309509
10
-117.59875000070988
20
-20.90028886690736
10
-117.59875000070986
20
-7.9002888669073279
42
0.41421356237307427
10
-118.09875000070983
20
-7.4002888669073208
10
-131.09875000070991
20
-7.4002888669073208
42
0.41421356237308854
10
-131.59875000070994
20
-7.900288866907319
0
LWPOLYLINE
5
153
100
AcDbEntity
8
0
100
AcDbPolyline
90
8
70
1
43
0.0
10
-56.146895421551847
20
-35.902912397323078
42
0.41421356237308177
10
-55.553865775776089
20
-36.288030352281083
10
-42.837946966236714
20
-33.585178371650258
42
0.41421356237310014
10
-42.452829011278688
20
-32.992148725874479
10
-45.155680991909492
20
-20.276229916334945
42
0.41421356237306434
10
-45.748710637685278
20
-19.891111961376893
10
-58.464629447224979
20
-22.593963942007811
42
0.41421356237315365
10
-58.849747402182985
20
-23.186993587783618
0
LWPOLYLINE
5
154
100
AcDbEntity
8
0
100
AcDbPolyline
90
8
70
1
43
0.0
10
-43.090917653245867
20
19.626753768070504
42
0.41421356237315343
10
-43.476035608203851
20
19.033724122294718
10
-40.773183627573047
20
6.3178053127552491
42
0.41421356237307388
10
-40.180153981797289
20
5.9326873577972012
10
-27.464235172257698
20
8.6355393384281331
42
0.41421356237309043
10
-27.079117217299693
20
9.2285689842038909
10
-29.781969197930547
20
21.94448779374337
42
0.41421356237307466
10
-30.374998843706305
20
22.329605748701411
0
LWPOLYLINE
5
155
100
AcDbEntity
8
0
100
AcDbPolyline
90
8
70
1
43
0.0
10
-48.450917653245767
20
-0.9832462319295131
42
0.41421356237306545
10
-48.836035608203836
20
-1.5762758777052932
10
-46.133183627572848
20
-14.29219468724475
42
0.41421356237306695
10
-45.540153981797133
20
-14.677312642202773
10
-32.824235172257673
20
-11.974460661571893
42
0.41421356237306856
10
-32.439117217299668
20
-11.381431015796108
10
-35.141969197930592
20
1.3344877937434152
42
0.41421356237308904
10
-35.73499884370635
20
1.7196057487014138
0
LWPOLYLINE
5
156
100
AcDbEntity
8
0
100
AcDbPolyline
90
8
70
1
43
0.0
10
-83.400607215530954
20
-22.213630107401414
42
0.414213562373143
10
-82.807577569755153
20
-22.598748062359427
10
-70.09165876021568
20
-19.895896081728548
42
0.41421356237304396
10
-69.706540805257632
20
-19.302866435952772
10
-72.409392785888457
20
-6.5869476264132665
42
0.41421356237311013
10
-73.002422431664172
20
-6.2018296714552097
10
-85.718341241203845
20
-8.904681652086186
42
0.4142135623731496
10
-86.103459196161864
20
-9.4977112978619651
0
LWPOLYLINE
5
157
100
AcDbEntity
8
0
100
AcDbPolyline
90
107
70
1
43
0.0
10
-11.93462147522208
20
-45.075529470612906
42
0.82143350926497782
10
-18.604838724920363
20
-45.010595899288163
42
-0.059300373894352616
10
-18.680010134844984
20
-45.234694479724702
42
0.11097890450713976
10
-18.776157719706887
20
-45.662538857564257
10
-18.776157719706816
20
-50.890881782423065
42
-0.41421356237308982
10
-19.776157719706902
20
-51.890881782423065
10
-67.776157719706902
20
-51.890881782423023
42
-0.414213562373069
10
-68.776157719706887
20
-50.890881782423065
10
-68.776157719706887
20
-45.662538857564208
42
0.11097890450705471
10
-68.872305304568613
20
-45.234694479724752
42
-0.059300373894658663
10
-68.947476714493234
20
-45.010595899288255
42
0.82143350926498881
10
-75.617693964191645
20
-45.075529470612892
42
-0.36080805011587475
10
-76.60049874198134
20
-45.890881782423051
10
-90.407500000711167
20
-45.890881782423051
42
0.41421356237309764
10
-91.407500000711195
20
-46.890881782423044
10
-91.407500000711195
20
-47.463242898959983
42
-0.21464998187318163
10
-91.533815790184889
20
-47.743922722664678
42
0.44814088010572239
10
-91.543228345790084
20
-50.729448135714932
42
-0.26304363788366925
10
-91.425383856361165
20
-51.0791578536776
42
-0.35976491252854809
10
-92.407500000711238
20
-51.890881782423079
10
-140.40750000071114
20
-51.890881782423079
42
-0.4142135623731002
10
-141.40750000071125
20
-50.890881782423079
10
-141.40750000071125
20
-45.419845815192907
42
0.11608454528165127
10
-141.51245718782522
20
-44.973865587939379
42
-0.047996318477632333
10
-141.58107019897881
20
-44.79503223563416
42
0.31189392236997543
10
-144.54840909161857
20
-42.317410345881342
42
-0.38779458240886772
10
-145.45750000070836
20
-41.321551150416198
10
-145.45750000061088
20
32.699711129031712
42
-0.41421356237281931
10
-144.45750000061048
20
33.699711129030391
10
-142.40750000071148
20
33.699711129029666
42
0.41421356237320428
10
-141.40750000071125
20
34.69971112902968
10
-141.40750000071111
20
38.699711129024962
42
-0.414213562373069
10
-140.40750000071117
20
39.699711129024955
10
-92.407500000711238
20
39.699711129024976
42
-0.35976491252852982
10
-91.425383856361179
20
38.887987200279674
42
-0.26304363788382845
10
-91.543228345790084
20
38.538277482316957
42
0.44814088010572373
10
-91.533815790184889
20
35.552752069266731
42
-0.21464998187317141
10
-91.407500000711195
20
35.272072245562015
10
-91.407500000711195
20
34.699711129018041
42
0.41421356237311319
10
-90.407500000711167
20
33.699711129018027
10
-90.272721881573545
20
33.699711129018084
42
0.052407779282068356
10
-90.064810190759488
20
33.721563528283752
10
-70.604665631619412
20
37.85794494529938
42
0.41421356237308787
10
-69.834429721698939
20
39.044004236847996
10
-70.666076484955269
20
42.956594639786374
42
-0.41421356237308998
10
-69.895840575034811
20
44.142653931335062
10
-22.944755739774511
20
54.122415090410854
42
-0.41421356237312773
10
-21.758696448225834
20
53.35217918049036
10
-20.927049684969532
20
49.43958877755199
42
0.41421356237309093
10
-19.740990393420894
20
48.669352867631446
10
-8.8789651752572514
20
50.978147600734722
42
-0.05240777928214186
10
-8.6710534844431564
20
51.000000000000121
10
8.6710534844508835
20
50.999999999999837
42
-0.052407779283028921
10
8.8789651752686005
20
50.978147600733678
10
19.740990372794126
20
48.669352871974453
42
0.4142135623730821
10
20.927049664345638
20
49.439588781890542
10
21.758696427616677
20
53.352179184825687
42
-0.41421356237311036
10
22.944755719168199
20
54.122415094741712
10
69.895840554390929
20
44.142653935489299
42
-0.41421356237310519
10
70.666076464306954
20
42.956594643937756
10
69.83442970103593
20
39.044004241002469
42
0.41421356237308793
10
70.604665610951912
20
37.857944949450903
10
90.064810170075901
20
33.72156353236187
42
0.052407779282998841
10
90.272721860893697
20
33.69971113309569
10
96.73499999929038
20
33.699711133095519
42
0.41421356237311718
10
97.734999999290437
20
34.699711133095512
10
97.73499999929038
20
35.272072249630845
42
-0.21464998187339326
10
97.861315788764102
20
35.552752073335569
42
0.44814088010573261
10
97.870728344369326
20
38.53827748638588
42
-0.26304363788380269
10
97.752883854940393
20
38.88798720434847
42
-0.35976491252859094
10
98.734999999290409
20
39.699711133094162
10
146.73499999929044
20
39.699711133094162
42
-0.41421356237309509
10
147.73499999929047
20
38.699711133094127
10
147.73499999929044
20
34.699711133094304
42
0.41421356237306517
10
148.73499999929041
20
33.699711133094311
10
153.78499999929045
20
33.699711133094198
42
-0.4142135623731002
10
154.78499999929045
20
32.699711133094183
10
154.78499999929045
20
-41.321551150417065
42
-0.38779458240878883
10
153.87590909019951
20
-42.317410345881008
42
0.3352916954597277
10
150.84346375480567
20
-45.075529470612921
42
-0.36080805011589084
10
149.86065897701602
20
-45.890881782423065
10
148.73499999929041
20
-45.890881782423065
42
0.41421356237307427
10
147.73499999929047
20
-46.890881782423079
10
147.73499999929041
20
-50.890881782423051
42
-0.41421356237308982
10
146.73499999929044
20
-51.890881782423044
10
98.734999999290409
20
-51.890881782423051
42
-0.35976491252852077
10
97.752883854940421
20
-51.079157853677629
42
-0.26304363788392654
10
97.870728344369383
20
-50.729448135714932
42
0.44814088010573166
10
97.861315788764102
20
-47.743922722664621
42
-0.21464998187336143
10
97.734999999290437
20
-47.463242898959912
10
97.734999999290437
20
-46.890881782423065
42
0.41421356237310281
10
96.734999999290423
20
-45.890881782423065
10
76.600498741992112
20
-45.890881782423065
42
-0.36080805011589989
10
75.617693964202459
20
-45.075529470612921
42
0.82143350926498393
10
68.947476714504162
20
-45.010595899288155
42
-0.059300373894509817
10
68.872305304579498
20
-45.234694479724681
42
0.11097890450707265
10
68.776157719717673
20
-45.662538857564186
10
68.776157719717673
20
-50.890881782423051
42
-0.41421356237309509
10
67.776157719717673
20
-51.890881782423044
10
19.776157719717666
20
-51.890881782423065
42
-0.41421356237307944
10
18.776157719717652
20
-50.890881782423065
10
18.776157719717652
20
-45.662538857564208
42
0.1109789045071045
10
18.680010134855841
20
-45.234694479724659
42
-0.059300373894573988
10
18.604838724931163
20
-45.010595899288113
42
0.82143350926497904
10
11.934621475232902
20
-45.075529470612906
42
-0.36080805011589573
10
10.951816697443276
20
-45.890881782423065
10
-10.951816697432479
20
-45.89088178242303
42
-0.36080805011592931
0
ENDSEC
0
SECTION
2
OBJECTS
0
DICTIONARY
5
C
100
AcDbDictionary
3
ACAD_GROUP
350
D
3
ACAD_MLINESTYLE
350
17
0
DICTIONARY
5
D
100
AcDbDictionary
0
DICTIONARY
5
1A
330
C
100
AcDbDictionary
0
DICTIONARY
5
17
100
AcDbDictionary
0
ENDSEC
0
EOF
