0
SECTION
2
HEADER
9
$INSUNITS
70
4
9
$ACADVER
1
AC1014
9
$HANDSEED
5
FFFF
0
ENDSEC
0
SECTION
2
TABLES
0
TABLE
2
VPORT
5
8
100
AcDbSymbolTable
0
ENDTAB
0
TABLE
2
LTYPE
5
5
100
AcDbSymbolTable
0
LTYPE
5
14
100
AcDbSymbolTableRecord
100
AcDbLinetypeTableRecord
2
BYBLOCK
70
0
0
LTYPE
5
15
100
AcDbSymbolTableRecord
100
AcDbLinetypeTableRecord
2
BYLAYER
70
0
0
ENDTAB
0
TABLE
2
LAYER
5
2
100
AcDbSymbolTable
70
2
0
LAYER
5
50
100
AcDbSymbolTableRecord
100
AcDbLayerTableRecord
2
0
70
0
6
CONTINUOUS
0
ENDTAB
0
TABLE
2
STYLE
5
3
100
AcDbSymbolTable
70
1
0
STYLE
5
11
100
AcDbSymbolTableRecord
100
AcDbTextStyleTableRecord
2
STANDARD
70
0
0
ENDTAB
0
TABLE
2
VIEW
5
6
100
AcDbSymbolTable
70
0
0
ENDTAB
0
TABLE
2
UCS
5
7
100
AcDbSymbolTable
70
0
0
ENDTAB
0
TABLE
2
APPID
5
9
100
AcDbSymbolTable
70
2
0
APPID
5
12
100
AcDbSymbolTableRecord
100
AcDbRegAppTableRecord
2
ACAD
70
0
0
ENDTAB
0
TABLE
2
DIMSTYLE
5
A
100
AcDbSymbolTable
70
1
0
ENDTAB
0
TABLE
2
BLOCK_RECORD
5
1
100
AcDbSymbolTable
70
1
0
BLOCK_RECORD
5
1F
100
AcDbSymbolTableRecord
100
AcDbBlockTableRecord
2
*MODEL_SPACE
0
BLOCK_RECORD
5
1B
100
AcDbSymbolTableRecord
100
AcDbBlockTableRecord
2
*PAPER_SPACE
0
ENDTAB
0
ENDSEC
0
SECTION
2
BLOCKS
0
BLOCK
5
20
100
AcDbEntity
100
AcDbBlockBegin
2
*MODEL_SPACE
0
ENDBLK
5
21
100
AcDbEntity
100
AcDbBlockEnd
0
BLOCK
5
1C
100
AcDbEntity
100
AcDbBlockBegin
2
*PAPER_SPACE
0
ENDBLK
5
1D
100
AcDbEntity
100
AcDbBlockEnd
0
ENDSEC
0
SECTION
2
ENTITIES
0
LWPOLYLINE
5
100
100
AcDbEntity
8
0
100
AcDbPolyline
90
8
70
1
43
0.0
10
125.14499999929038
20
-26.950288866907322
42
0.41421356237311319
10
124.64499999929039
20
-26.450288866907336
10
111.64499999929035
20
-26.450288866907332
42
0.41421356237309764
10
111.14499999929035
20
-26.950288866907339
10
111.14499999929035
20
-39.950288866907343
42
0.41421356237308465
10
111.64499999929035
20
-40.450288866907336
10
124.64499999929038
20
-40.450288866907385
42
0.41421356237307944
10
125.14499999929036
20
-39.950288866907385
0
LWPOLYLINE
5
101
100
AcDbEntity
8
0
100
AcDbPolyline
90
26
70
1
43
0.0
10
-108.06325000070899
20
11.649711133092442
10
-107.97625000071029
20
11.64971113309247
42
-0.41421356237312235
10
-107.47625000071031
20
11.14971113309247
10
-107.47625000071032
20
-1.8502888669073858
42
-0.41421356237316337
10
-107.97625000071024
20
-2.350288866907384
10
-142.40750000070966
20
-2.3502888669073236
42
-0.41421356237308044
10
-142.90750000070969
20
-1.8502888669073592
10
-142.90750000070969
20
11.149711225550476
42
-0.41421356246419005
10
-142.40750000055408
20
11.649711225550474
10
-139.93924999588705
20
11.649711224782511
42
0.41421356246417051
10
-139.4392499957315
20
12.149711224782509
10
-139.43924999573147
20
13.149711132649058
42
-0.41421356237310153
10
-138.93924999573153
20
13.649711132649047
10
-132.9392499957315
20
13.649711132649035
42
-0.41421356237312884
10
-132.4392499957315
20
13.149711132649058
10
-132.4392499957315
20
12.149711222293416
42
0.41421356228190509
10
-131.93924999588711
20
11.649711222293408
10
-129.90750000039731
20
11.649711221661265
10
-120.4762500007098
20
11.64971113309301
10
-116.06325000070896
20
11.649711133092469
42
0.41421356237312101
10
-115.56325000070898
20
12.149711133092467
10
-115.56325000070899
20
13.14971113313864
42
-0.41421356237312101
10
-115.06325000070896
20
13.649711133138638
10
-109.06325000070893
20
13.649711133138654
42
-0.41421356237305734
10
-108.56325000070898
20
13.149711133138622
10
-108.56325000070896
20
12.149711133092467
42
0.4142135623731002
0
LWPOLYLINE
5
102
100
AcDbEntity
8
0
100
AcDbPolyline
90
8
70
1
43
0.0
10
128.11999999929441
20
16.699711133094119
10
115.11999999929441
20
16.699711133094102
42
-0.41421356237317303
10
114.61999999929439
20
17.19971113309424
10
114.61999999929736
20
30.199711133094169
42
-0.41421356237303264
10
115.11999999929735
20
30.699711133094088
10
128.11999999929736
20
30.699711133094102
42
-0.4142135623731652
10
128.61999999929736
20
30.199711133093974
10
128.61999999929441
20
17.199711133093977
42
-0.41421356237302609
0
LWPOLYLINE
5
103
100
AcDbEntity
8
0
100
AcDbPolyline
90
8
70
1
43
0.0
10
105.59499999929034
20
-40.450288866907407
42
0.41421356237308982
10
106.09499999929035
20
-39.9502888669074
10
106.09499999929035
20
-26.950288866907364
42
0.41421356237309243
10
105.59499999929034
20
-26.450288866907368
10
92.594999999290323
20
-26.450288866907378
42
0.41421356237308204
10
92.094999999290337
20
-26.950288866907375
10
92.094999999290337
20
-39.950288866907385
42
0.4142135623731002
10
92.594999999290337
20
-40.450288866907385
0
LWPOLYLINE
5
104
100
AcDbEntity
8
0
100
AcDbPolyline
90
14
70
1
43
0.0
10
54.496639779843704
20
20.320531503512846
42
0.41421356237309809
10
55.089669425619476
20
20.705649458470869
10
55.401536961846119
20
22.172870859571603
10
58.335979764047536
20
21.549135787118317
42
0.41421356237310231
10
58.92900940982333
20
21.934253742076333
10
61.631861390454212
20
34.650172551615803
42
0.41421356237309198
10
61.246743435496171
20
35.243202197391604
10
48.53082462595669
20
37.946054178022479
42
0.41421356237308976
10
47.937794980180911
20
37.560936223064438
10
45.234942999550043
20
24.845017413524964
42
0.41421356237310519
10
45.620060954508062
20
24.251987767749192
10
48.554503756709479
20
23.628252695295913
10
48.242636220482837
20
22.161031294195183
42
0.4142135623731043
10
48.62775417544087
20
21.568001648419397
0
CIRCLE
5
105
100
AcDbEntity
8
0
100
AcDbCircle
10
48.929160859075367
20
-36.158930007843715
30
0
40
1.7500000000000071
210
0
220
0
230
1
0
LWPOLYLINE
5
106
100
AcDbEntity
8
0
100
AcDbPolyline
90
8
70
1
43
0.0
10
112.73874999929035
20
11.649711133092655
42
0.41421356237311585
10
112.23874999929035
20
11.149711133092657
10
112.23874999929038
20
-1.8502888669073858
42
0.41421356237309648
10
112.73874999929038
20
-2.3502888669074018
10
125.73874999929038
20
-2.3502888669073929
42
0.41421356237308826
10
126.23874999929036
20
-1.8502888669073947
10
126.23874999929038
20
11.149711133092648
42
0.41421356237311457
10
125.73874999929039
20
11.649711133092637
0
LWPOLYLINE
5
107
100
AcDbEntity
8
0
100
AcDbPolyline
90
8
70
1
43
0.0
10
86.793459194742411
20
-29.127711297861936
42
0.41421356237308427
10
86.408341239784392
20
-28.534681652086164
10
73.692422430244918
20
-25.831829671455317
42
0.41421356237312978
10
73.09939278446916
20
-26.216947626413329
10
70.396540803838278
20
-38.932866435952818
42
0.41421356237311358
10
70.781658758796283
20
-39.525896081728611
10
83.497577568335757
20
-42.2287480623595
42
0.41421356237306445
10
84.090607214111515
20
-41.843630107401481
0
CIRCLE
5
108
100
AcDbEntity
8
0
100
AcDbCircle
10
-102.53719955214449
20
26.69971112902072
30
0
40
1.0999999999999943
210
0
220
0
230
1
0
LWPOLYLINE
5
109
100
AcDbEntity
8
0
100
AcDbPolyline
90
8
70
1
43
0.0
10
134.16499999929036
20
-42.090288866907279
42
0.41421356237310542
10
134.66499999929033
20
-42.590288866907287
10
147.66499999929033
20
-42.590288866907287
42
0.4142135623731002
10
148.16499999929033
20
-42.090288866907279
10
148.16499999929027
20
-29.090288866907272
42
0.41421356237309764
10
147.6649999992903
20
-28.590288866907283
10
134.66499999929033
20
-28.590288866907283
42
0.41421356237311319
10
134.16499999929036
20
-29.090288866907272
0
LWPOLYLINE
5
110
100
AcDbEntity
8
0
100
AcDbPolyline
90
14
70
1
43
0.0
10
-19.778883011098351
20
29.744699701202364
42
0.41421356237308971
10
-19.393765056140332
20
30.337729346978143
10
-22.096617036771207
20
43.053648156517603
42
0.41421356237310114
10
-22.689646682546982
20
43.438766111475644
10
-44.722421389075961
20
38.755555275805591
42
0.41421356237309614
10
-45.107539344033967
20
38.162525630029826
10
-42.40468736340312
20
25.446606820490352
42
0.41421356237308288
10
-41.811657717627355
20
25.061488865532333
10
-27.20008885786573
20
28.167273702968032
10
-26.888221321639094
20
26.700052301867299
42
0.41421356237309703
10
-26.295191675863308
20
26.314934346909283
10
-20.426306071460488
20
27.562404491815833
42
0.4142135623730992
10
-20.041188116502475
20
28.155434137591612
10
-20.353055652729104
20
29.622655538692335
0
LWPOLYLINE
5
111
100
AcDbEntity
8
0
100
AcDbPolyline
90
8
70
1
43
0.0
10
40.18015398037781
20
5.9326873577971639
10
27.464235170838265
20
8.6355393384280248
42
-0.41421356237311446
10
27.07911721588026
20
9.228568984203811
10
29.781969196511152
20
21.944487793743335
42
-0.41421356237312773
10
30.374998842286942
20
22.329605748701347
10
43.090917651826445
20
19.626753768070444
42
-0.41421356237308588
10
43.47603560678445
20
19.033724122294686
10
40.77318362615361
20
6.3178053127551621
42
-0.41421356237312457
0
CIRCLE
5
112
100
AcDbEntity
8
0
100
AcDbCircle
10
99.115065507995084
20
26.699711133095434
30
0
40
1.0999999999999943
210
0
220
0
230
1
0
CIRCLE
5
113
100
AcDbEntity
8
0
100
AcDbCircle
10
-39.999999999999773
20
-41.890881782423044
30
0
40
1.0999999999999943
210
0
220
0
230
1
0
LWPOLYLINE
5
114
100
AcDbEntity
8
0
100
AcDbPolyline
90
8
70
1
43
0.0
10
11.741287048307978
20
26.290323458779614
42
0.41421356237305934
10
11.148257402532211
20
25.905205503821573
10
8.4454054219012598
20
13.189286694282103
42
0.4142135623731098
10
8.8305233768592828
20
12.596257048506327
10
21.546442186398718
20
9.893405067875447
42
0.41421356237310325
10
22.139471832174493
20
10.278523022833479
10
24.842323812805454
20
22.994441832372985
42
0.4142135623731083
10
24.457205857847431
20
23.587471478148771
0
LWPOLYLINE
5
115
100
AcDbEntity
8
0
100
AcDbPolyline
90
8
70
1
43
0.0
10
36.424998842286854
20
-17.910394251298651
42
0.41421356237310325
10
35.831969196511075
20
-18.295512206256689
10
33.129117215880264
20
-31.011431015796198
42
0.41421356237309714
10
33.51423517083829
20
-31.604460661571991
10
46.230153980377779
20
-34.307312642202881
42
0.41421356237312357
10
46.823183626153558
20
-33.922194687244854
10
49.526035606784419
20
-21.206275877705348
42
0.41421356237310669
10
49.140917651826399
20
-20.613246231929576
0
LWPOLYLINE
5
116
100
AcDbEntity
8
0
100
AcDbPolyline
90
8
70
1
43
0.0
10
64.163865774356751
20
-18.638030352281163
42
0.41421356237308021
10
64.75689542013248
20
-18.252912397323129
10
67.459747400763405
20
-5.5369935877836252
42
0.41421356237313278
10
67.074629445805357
20
-4.9439639420078407
10
54.358710636265926
20
-2.2411119613769954
42
0.41421356237306617
10
53.765680990490175
20
-2.6262299163350278
10
51.062829009859257
20
-15.342148725874516
42
0.4142135623730665
10
51.447946964817305
20
-15.935178371650309
0
LWPOLYLINE
5
117
100
AcDbEntity
8
0
100
AcDbPolyline
90
20
70
1
43
0.0
10
-103.00200000070973
20
-42.4502888669073
42
0.41421356237310542
10
-102.50200000070973
20
-41.9502888669073
10
-102.50200000070973
20
-40.450288866907385
10
-101.91500000070975
20
-40.450288866907385
42
0.41421356237312362
10
-101.4150000007097
20
-39.950288866907385
10
-101.41500000070975
20
-26.950288866907304
42
0.41421356237312629
10
-101.91500000070974
20
-26.450288866907322
10
-133.96500000070972
20
-26.450288866907307
42
0.41421356237310542
10
-134.46500000070972
20
-26.950288866907304
10
-134.46500000070972
20
-39.9502888669073
42
0.41421356237309509
10
-133.96500000070972
20
-40.4502888669073
10
-133.3780000007097
20
-40.4502888669073
10
-133.37800000070973
20
-41.9502888669073
42
0.414213562373069
10
-132.87800000070973
20
-42.4502888669073
10
-126.87800000070972
20
-42.4502888669073
42
0.41421356237310542
10
-126.37800000070975
20
-41.9502888669073
10
-126.37800000070975
20
-40.4502888669073
10
-109.50200000070971
20
-40.450288866907378
10
-109.50200000070971
20
-41.9502888669073
42
0.41421356237308465
10
-109.00200000070974
20
-42.450288866907293
0
LWPOLYLINE
5
118
100
AcDbEntity
8
0
100
AcDbPolyline
90
8
70
1
43
0.0
10
68.159747400763393
20
-25.166993587783644
42
0.4142135623731108
10
67.774629445805374
20
-24.573963942007872
10
55.058710636265893
20
-21.871111961376997
42
0.4142135623731083
10
54.465680990490156
20
-22.25622991633502
10
51.762829009859274
20
-34.972148725874526
42
0.41421356237306128
10
52.147946964817308
20
-35.565178371650305
10
64.863865774356725
20
-38.268030352281187
42
0.41421356237311852
10
65.456895420132525
20
-37.882912397323167
0
LWPOLYLINE
5
119
100
AcDbEntity
8
0
100
AcDbPolyline
90
8
70
1
43
0.0
10
-8.8305233782786274
20
12.596257048506443
42
0.41421356237307438
10
-8.4454054233206222
20
13.189286694282227
10
-11.148257403951547
20
25.90520550382168
42
0.41421356237313178
10
-11.741287049727305
20
26.290323458779721
10
-24.457205859266775
20
23.587471478148867
42
0.4142135623731461
10
-24.842323814224834
20
22.994441832373091
10
-22.139471833593998
20
10.278523022833603
42
0.41421356237307361
10
-21.546442187818204
20
9.8934050678755892
0
LWPOLYLINE
5
120
100
AcDbEntity
8
0
100
AcDbPolyline
90
8
70
1
43
0.0
10
-61.724629447224757
20
15.66603605799215
10
-49.008710637685411
20
18.368888038623041
42
-0.41421356237310164
10
-48.415680991909639
20
17.983770083665043
10
-45.712829011278664
20
5.2678512741255705
42
-0.41421356237302964
10
-46.097946966236719
20
4.6748216283497968
10
-58.813865775776151
20
1.9719696477189421
42
-0.41421356237316331
10
-59.406895421551923
20
2.3570876026769305
10
-62.10974740218284
20
15.073006412216364
42
-0.41421356237307971
0
LWPOLYLINE
5
121
100
AcDbEntity
8
0
100
AcDbPolyline
90
8
70
1
43
0.0
10
-99.54500000070972
20
11.649711133092682
10
-86.545000000709678
20
11.649711133092669
42
-0.41421356237313406
10
-86.045000000709692
20
11.149711133092683
10
-86.045000000709734
20
-1.8502888669073414
42
-0.41421356237312201
10
-86.545000000709763
20
-2.3502888669073396
10
-99.545000000709763
20
-2.3502888669073645
42
-0.41421356237304208
10
-100.04500000070971
20
-1.8502888669073592
10
-100.04500000070975
20
11.149711133092692
42
-0.41421356237303653
0
LWPOLYLINE
5
122
100
AcDbEntity
8
0
100
AcDbPolyline
90
8
70
1
43
0.0
10
-69.541658760215569
20
20.70410391827145
42
0.41421356237309304
10
-69.156540805257492
20
21.297133564047222
10
-71.859392785888559
20
34.013052373586738
42
0.41421356237308682
10
-72.452422431664417
20
34.398170328544772
10
-85.168341241203848
20
31.69531834791405
42
0.41421356237303597
10
-85.553459196161867
20
31.102288702138274
10
-82.850607215530744
20
18.386369892598502
42
0.41421356237310214
10
-82.257577569754972
20
18.001251937640497
0
LWPOLYLINE
5
123
100
AcDbEntity
8
0
100
AcDbPolyline
90
8
70
1
43
0.0
10
27.596442186398722
20
-30.346594932124553
10
14.880523376859285
20
-27.643742951493696
42
-0.41421356237311074
10
14.495405421901282
20
-27.050713305717888
10
17.198257402532121
20
-14.3347944961784
42
-0.41421356237310625
10
17.791287048307911
20
-13.949676541220386
10
30.507205857847413
20
-16.652528521851259
42
-0.41421356237310708
10
30.89232381280544
20
-17.245558167627031
10
28.189471832174526
20
-29.961476977166548
42
-0.41421356237308793
0
LWPOLYLINE
5
124
100
AcDbEntity
8
0
100
AcDbPolyline
90
8
70
1
43
0.0
10
35.724998842286944
20
1.7196057487013316
10
48.440917651826396
20
-0.98324623192955452
42
-0.41421356237309581
10
48.826035606784416
20
-1.57627587770535
10
46.123183626153619
20
-14.292194687244857
42
-0.41421356237308327
10
45.53015398037779
20
-14.67731264220288
10
32.814235170838316
20
-11.974460661571985
42
-0.41421356237311435
10
32.429117215880282
20
-11.381431015796197
10
35.131969196511157
20
1.3344877937433028
42
-0.4142135623730645
0
LWPOLYLINE
5
125
100
AcDbEntity
8
0
100
AcDbPolyline
90
8
70
1
43
0.0
10
49.008710636265903
20
18.36888803862303
42
0.41421356237313789
10
48.415680990490145
20
17.983770083665007
10
45.712829009859277
20
5.267851274125519
42
0.41421356237308637
10
46.097946964817268
20
4.6748216283497079
10
58.813865774356842
20
1.9719696477188273
42
0.41421356237310319
10
59.406895420132557
20
2.3570876026768328
10
62.109747400763489
20
15.073006412216348
42
0.41421356237308682
10
61.724629445805462
20
15.666036057992159
0
LWPOLYLINE
5
126
100
AcDbEntity
8
0
100
AcDbPolyline
90
8
70
1
43
0.0
10
-67.049392785888543
20
14.023052373586768
42
0.41421356237309248
10
-67.642422431664301
20
14.40817032854477
10
-80.358341241203789
20
11.705318347913849
42
0.41421356237314688
10
-80.743459196161851
20
11.112288702138065
10
-78.040607215530912
20
-1.6036301074014148
42
0.41421356237308593
10
-77.447577569755097
20
-1.9887480623594334
10
-64.731658760215737
20
0.71410391827139807
42
0.41421356237305407
10
-64.346540805257675
20
1.3071335640471737
0
LWPOLYLINE
5
127
100
AcDbEntity
8
0
100
AcDbPolyline
90
20
70
1
43
0.0
10
17.229216191885701
20
28.241966923669473
42
0.41421356237309509
10
17.822245837661477
20
28.6270848786275
10
18.134113373888123
20
30.094306279728222
10
32.281062123301169
20
27.087279495430963
10
31.969194587074519
20
25.620058094330247
42
0.41421356237309809
10
32.354312542032545
20
25.027028448554461
10
38.223198146435365
20
23.77955830364791
42
0.41421356237309809
10
38.816227792211144
20
24.164676258605937
10
39.128095328437794
20
25.631897659706659
10
39.702267970068547
20
25.50985349719663
42
0.41421356237309703
10
40.295297615844312
20
25.89497145215465
10
42.998149596475187
20
38.610890261694124
42
0.41421356237310625
10
42.613031641517161
20
39.203919907469889
10
20.580256934988199
20
43.88713074313992
42
0.41421356237310736
10
19.987227289212406
20
43.502012788181901
10
19.88327144380353
20
43.012938987814984
10
12.118735789178572
20
44.663341989526373
42
0.4142135623730947
10
11.52570614340279
20
44.278224034568332
10
8.6149424719541656
20
30.584157624295074
42
0.41421356237309742
10
9.0000604269121887
20
29.991127978519287
0
LWPOLYLINE
5
128
100
AcDbEntity
8
0
100
AcDbPolyline
90
8
70
1
43
0.0
10
72.452422430244951
20
34.398170328544744
10
85.168341239784382
20
31.69531834791389
42
-0.41421356237315404
10
85.553459194742402
20
31.102288702138097
10
82.850607214111506
20
18.386369892598559
42
-0.41421356237311446
10
82.257577568335762
20
18.001251937640532
10
69.541658758796288
20
20.704103918271407
42
-0.41421356237310525
10
69.156540803838269
20
21.297133564047172
10
71.859392784469165
20
34.013052373586717
42
-0.4142135623731012
0
LWPOLYLINE
5
129
100
AcDbEntity
8
0
100
AcDbPolyline
90
8
70
1
43
0.0
10
-118.09875000070983
20
-21.40028886690736
42
0.41421356237307683
10
-117.59875000070988
20
-20.90028886690736
10
-117.59875000070986
20
-7.9002888669073279
42
0.41421356237306384
10
-118.09875000070981
20
-7.4002888669073208
10
-131.09875000070988
20
-7.4002888669073208
42
0.41421356237310608
10
-131.59875000070997
20
-7.900288866907319
10
-131.59875000070994
20
-20.900288866907353
42
0.41421356237312362
10
-131.09875000070991
20
-21.400288866907367
0
LWPOLYLINE
5
130
100
AcDbEntity
8
0
100
AcDbPolyline
90
8
70
1
43
0.0
10
-58.464629447224965
20
-22.593963942007811
10
-45.748710637685264
20
-19.89111196137689
42
-0.41421356237304902
10
-45.155680991909492
20
-20.276229916334945
10
-42.452829011278688
20
-32.992148725874479
42
-0.41421356237310092
10
-42.837946966236714
20
-33.585178371650258
10
-55.553865775776075
20
-36.288030352281083
42
-0.41421356237309509
10
-56.146895421551847
20
-35.902912397323078
10
-58.849747402182985
20
-23.186993587783618
42
-0.41421356237316348
0
LWPOLYLINE
5
131
100
AcDbEntity
8
0
100
AcDbPolyline
90
8
70
1
43
0.0
10
-40.773183627573047
20
6.3178053127552491
42
0.41421356237307244
10
-40.180153981797289
20
5.932687357797203
10
-27.464235172257698
20
8.6355393384281331
42
0.41421356237309093
10
-27.079117217299693
20
9.2285689842038909
10
-29.781969197930547
20
21.94448779374337
42
0.41421356237307161
10
-30.374998843706305
20
22.329605748701411
10
-43.090917653245867
20
19.626753768070504
42
0.41421356237316365
10
-43.476035608203816
20
19.033724122294721
0
LWPOLYLINE
5
132
100
AcDbEntity
8
0
100
AcDbPolyline
90
8
70
1
43
0.0
10
-35.141969197930592
20
1.3344877937434152
10
-32.439117217299668
20
-11.381431015796108
42
-0.41421356237307261
10
-32.824235172257673
20
-11.974460661571893
10
-45.540153981797147
20
-14.677312642202772
42
-0.41421356237306728
10
-46.133183627572848
20
-14.29219468724475
10
-48.836035608203836
20
-1.5762758777052952
42
-0.41421356237306733
10
-48.450917653245767
20
-0.98324623192951321
10
-35.734998843706336
20
1.719605748701416
42
-0.41421356237307883
0
LWPOLYLINE
5
133
100
AcDbEntity
8
0
100
AcDbPolyline
90
8
70
1
43
0.0
10
-85.718341241203859
20
-8.904681652086186
10
-73.002422431664158
20
-6.2018296714552061
42
-0.41421356237309592
10
-72.409392785888457
20
-6.5869476264132656
10
-69.706540805257632
20
-19.302866435952776
42
-0.41421356237304185
10
-70.09165876021568
20
-19.895896081728548
10
-82.807577569755153
20
-22.598748062359437
42
-0.4142135623731486
10
-83.400607215530954
20
-22.213630107401414
10
-86.103459196161879
20
-9.4977112978619669
42
-0.4142135623731289
0
LWPOLYLINE
5
134
100
AcDbEntity
8
0
100
AcDbPolyline
90
8
70
1
43
0.0
10
-77.098341241203855
20
-26.554681652086121
42
0.41421356237312612
10
-77.483459196161903
20
-27.1477112978619
10
-74.780607215530935
20
-39.863630107401406
42
0.41421356237309909
10
-74.187577569755163
20
-40.248748062359425
10
-61.471658760215689
20
-37.545896081728628
42
0.41421356237307461
10
-61.086540805257599
20
-36.952866435952828
10
-63.789392785888438
20
-24.236947626413262
42
0.41421356237308793
10
-64.38242243166421
20
-23.851829671455221
0
LWPOLYLINE
5
135
100
AcDbEntity
8
0
100
AcDbPolyline
90
8
70
1
43
0.0
10
-96.660000000709729
20
-41.016391089958148
42
0.41421356237469747
10
-96.160000000707043
20
-41.516391089958134
10
-83.160000000637226
20
-41.516391089887861
42
0.41421356237138329
10
-82.660000000709715
20
-41.016391089957658
10
-82.660000000709744
20
-28.016391089887833
42
0.41421356237467666
10
-83.160000000712415
20
-27.516391089887861
10
-96.160000000712444
20
-27.516391089958137
42
0.41421356237148738
10
-96.660000000709729
20
-28.01639108995812
0
LWPOLYLINE
5
136
100
AcDbEntity
8
0
100
AcDbPolyline
90
8
70
1
43
0.0
10
64.346540803838252
20
1.3071335640471826
42
0.41421356237306617
10
64.731658758796272
20
0.71410391827140207
10
77.447577568335774
20
-1.9887480623594644
42
0.41421356237309659
10
78.04060721411156
20
-1.6036301074014503
10
80.743459194742471
20
11.112288702138065
42
0.41421356237306861
10
80.358341239784451
20
11.705318347913831
10
67.642422430244892
20
14.408170328544712
42
0.41421356237308021
10
67.04939278446912
20
14.023052373586697
0
LWPOLYLINE
5
137
100
AcDbEntity
8
0
100
AcDbPolyline
90
8
70
1
43
0.0
10
69.696540803838275
20
-19.302866435952815
42
0.41421356237310802
10
70.081658758796337
20
-19.895896081728591
10
82.797577568335782
20
-22.598748062359473
42
0.41421356237311752
10
83.390607214111554
20
-22.21363010740145
10
86.093459194742479
20
-9.4977112978619616
42
0.41421356237308654
10
85.708341239784431
20
-8.9046816520861611
10
72.992422430244915
20
-6.2018296714552879
42
0.41421356237309931
10
72.399392784469143
20
-6.5869476264133198
0
LWPOLYLINE
5
138
100
AcDbEntity
8
0
100
AcDbPolyline
90
8
70
1
43
0.0
10
-39.830917653245805
20
-18.633246231929501
10
-27.114998843706339
20
-15.930394251298576
42
-0.41421356237304857
10
-26.521969197930542
20
-16.315512206256635
10
-23.81911721729962
20
-29.031431015796116
42
-0.41421356237315238
10
-24.20423517225769
20
-29.624460661571913
10
-36.920153981797121
20
-32.327312642202749
42
-0.4142135623730594
10
-37.513183627572829
20
-31.942194687244729
10
-40.21603560820391
20
-19.226275877705298
42
-0.41421356237309004
0
LWPOLYLINE
5
139
100
AcDbEntity
8
0
100
AcDbPolyline
90
8
70
1
43
0.0
10
-133.96450000071209
20
30.699711129186085
42
0.41421356236906287
10
-134.46450000070539
20
30.199711129186078
10
-134.46450000070547
20
17.199711134766726
42
0.41421356237134949
10
-133.9645000007084
20
16.699711134766673
10
-120.96450000070854
20
16.699711134691341
42
0.4142135623748055
10
-120.46450000070553
20
17.199711134691338
10
-120.46450000070534
20
30.19971112936215
42
0.4142135623770804
10
-120.96450000071215
20
30.699711129362122
0
LWPOLYLINE
5
140
100
AcDbEntity
8
0
100
AcDbPolyline
90
8
70
1
43
0.0
10
-7.8882574039514708
20
-12.354794496178281
42
0.4142135623730962
10
-8.481287049727225
20
-11.969676541220275
10
-21.197205859266806
20
-14.672528521851156
42
0.41421356237307971
10
-21.582323814224882
20
-15.265558167626949
10
-18.879471833594028
20
-27.981476977166437
42
0.41421356237313584
10
-18.286442187818235
20
-28.366594932124471
10
-5.5705233782786578
20
-25.663742951493607
42
0.41421356237313611
10
-5.1854054233206348
20
-25.070713305717824
0
LWPOLYLINE
5
141
100
AcDbEntity
8
0
100
AcDbPolyline
90
14
70
1
43
0.0
10
-43.780558186580826
20
22.598304961851021
42
0.41421356237309959
10
-43.395440231622793
20
23.191334607626789
10
-46.30620390307142
20
36.885401017900072
42
0.4142135623730952
10
-46.899233548847228
20
37.270518972858085
10
-47.614014908083426
20
37.118587504793012
10
-47.71797075349231
20
37.60766130515993
42
0.41421356237309198
10
-48.311000399268096
20
37.992779260117963
10
-61.026919208807591
20
35.289927279487081
42
0.41421356237310414
10
-61.412037163765625
20
34.696897633711288
10
-58.709185183134743
20
21.980978824171828
42
0.41421356237308488
10
-58.116155537358978
20
21.595860869213812
10
-50.554340972986083
20
23.203174173003198
10
-50.242473436759447
20
21.735952771902475
42
0.41421356237308488
10
-49.649443790983661
20
21.350834816944442
0
LWPOLYLINE
5
142
100
AcDbEntity
8
0
100
AcDbPolyline
90
8
70
1
43
0.0
10
91.894999999290334
20
-7.4002888669073652
10
104.89499999929035
20
-7.4002888669073812
42
-0.41421356237310153
10
105.39499999929035
20
-7.9002888669073634
10
105.39499999929035
20
-20.900288866907381
42
-0.41421356237308982
10
104.89499999929035
20
-21.400288866907378
10
91.894999999290334
20
-21.400288866907381
42
-0.41421356237307683
10
91.39499999929032
20
-20.900288866907371
10
91.394999999290363
20
-7.9002888669073634
42
-0.41421356237312884
0
LWPOLYLINE
5
143
100
AcDbEntity
8
0
100
AcDbPolyline
90
8
70
1
43
0.0
10
86.044999999290354
20
-1.8502888669073858
42
0.41421356237311485
10
86.544999999290354
20
-2.3502888669073734
10
99.544999999290383
20
-2.3502888669073752
42
0.41421356237312851
10
100.04499999929035
20
-1.8502888669073769
10
100.04499999929037
20
11.149711133092666
42
0.41421356237311457
10
99.544999999290383
20
11.649711133092655
10
86.544999999290326
20
11.649711133092637
42
0.41421356237306772
10
86.044999999290354
20
11.149711133092639
0
LWPOLYLINE
5
144
100
AcDbEntity
8
0
100
AcDbPolyline
90
8
70
1
43
0.0
10
26.896442186398826
20
-10.71659493212457
42
0.41421356237308055
10
27.489471832174594
20
-10.331476977166567
10
30.192323812805419
20
2.3844418323729499
42
0.41421356237307627
10
29.807205857847414
20
2.9774714781487521
10
17.091287048307962
20
5.6803234587796148
42
0.41421356237311208
10
16.498257402532168
20
5.2952055038216095
10
13.795405421901314
20
-7.4207133057179053
42
0.41421356237308998
10
14.180523376859284
20
-8.0137429514936898
0
LWPOLYLINE
5
145
100
AcDbEntity
8
0
100
AcDbPolyline
90
8
70
1
43
0.0
10
-53.775680991909454
20
-2.6262299163349567
10
-51.072829011278522
20
-15.342148725874408
42
-0.414213562373141
10
-51.45794696623652
20
-15.935178371650194
10
-64.173865775776136
20
-18.638030352281096
42
-0.41421356237310603
10
-64.766895421551979
20
-18.252912397323094
10
-67.469747402182861
20
-5.5369935877835914
42
-0.41421356237309154
10
-67.084629447224827
20
-4.9439639420077963
10
-54.368710637685318
20
-2.2411119613769022
42
-0.41421356237308082
0
LWPOLYLINE
5
146
100
AcDbEntity
8
0
100
AcDbPolyline
90
8
70
1
43
0.0
10
-105.40500000070983
20
-20.900288866907371
42
0.41421356237312629
10
-104.90500000070983
20
-21.400288866907342
10
-91.905000000709677
20
-21.40028886690736
42
0.41421356237315227
10
-91.405000000709691
20
-20.900288866907353
10
-91.405000000709663
20
-7.9002888669073457
42
0.41421356237313273
10
-91.905000000709691
20
-7.4002888669073208
10
-104.90500000070982
20
-7.4002888669073386
42
0.41421356237312168
10
-105.40500000070985
20
-7.9002888669073368
0
LWPOLYLINE
5
147
100
AcDbEntity
8
0
100
AcDbPolyline
90
8
70
1
43
0.0
10
138.23499999929038
20
-23.040288866907286
10
138.23499999929038
20
-10.040288866907296
42
-0.41421356237309243
10
138.73499999929038
20
-9.5402888669072983
10
151.73499999929035
20
-9.5402888669072912
42
-0.4142135623730937
10
152.23499999929035
20
-10.040288866907296
10
152.23499999929035
20
-23.040288866907286
42
-0.41421356237309243
10
151.73499999929035
20
-23.540288866907293
10
138.73499999929035
20
-23.540288866907279
42
-0.41421356237309764
0
CIRCLE
5
148
100
AcDbEntity
8
0
100
AcDbCircle
10
0
20
40
30
0
40
1.0999999999999943
210
0
220
0
230
1
0
CIRCLE
5
149
100
AcDbEntity
8
0
100
AcDbCircle
10
40.000000000000284
20
-41.890881782423079
30
0
40
1.0999999999999943
210
0
220
0
230
1
0
CIRCLE
5
150
100
AcDbEntity
8
0
100
AcDbCircle
10
-39.619160860494688
20
-34.178930007843604
30
0
40
1.7500000000000071
210
0
220
0
230
1
0
LWPOLYLINE
5
151
100
AcDbEntity
8
0
100
AcDbPolyline
90
8
70
1
43
0.0
10
-14.190523378278694
20
-8.0137429514935654
42
0.41421356237315166
10
-13.805405423320639
20
-7.4207133057177854
10
-16.508257403951468
20
5.2952055038217249
42
0.41421356237307971
10
-17.101287049727265
20
5.6803234587797524
10
-29.817205859266824
20
2.9774714781488587
42
0.41421356237306339
10
-30.202323814224918
20
2.3844418323730654
10
-27.49947183359394
20
-10.331476977166396
42
0.41421356237308682
10
-26.906442187818111
20
-10.716594932124393
0
LWPOLYLINE
5
152
100
AcDbEntity
8
0
100
AcDbPolyline
90
8
70
1
43
0.0
10
113.32624999929027
20
-7.4002888669073208
42
0.414213562373069
10
112.8262499992903
20
-7.900288866907319
10
112.8262499992903
20
-20.900288866907388
42
0.41421356237309243
10
113.32624999929031
20
-21.400288866907395
10
126.32624999929035
20
-21.400288866907378
42
0.41421356237310542
10
126.82624999929034
20
-20.900288866907381
10
126.82624999929034
20
-7.9002888669073457
42
0.41421356237311519
10
126.32624999929035
20
-7.4002888669073563
0
CIRCLE
5
153
100
AcDbEntity
8
0
100
AcDbCircle
10
108.61999999929033
20
-41.700288866907371
30
0
40
1.7500000000000071
210
0
220
0
230
1
0
CIRCLE
5
154
100
AcDbEntity
8
0
100
AcDbCircle
10
150.73499999929027
20
-1.8033316104584252
30
0
40
1.0999999999999943
210
0
220
0
230
1
0
CIRCLE
5
155
100
AcDbEntity
8
0
100
AcDbCircle
10
-99.390000000709705
20
-41.745450164859591
30
0
40
1.7500000000000071
210
0
220
0
230
1
0
CIRCLE
5
156
100
AcDbEntity
8
0
100
AcDbCircle
10
-141.40750000070992
20
-32.803331610458386
30
0
40
1.0999999999999943
210
0
220
0
230
1
0
LWPOLYLINE
5
157
100
AcDbEntity
8
0
100
AcDbPolyline
90
192
70
1
43
0.0
10
-120.22000000071152
20
33.699711129021793
10
-144.45750000061054
20
33.699711129030433
42
0.41421356237281931
10
-145.45750000061091
20
32.699711129031748
10
-145.45750000070839
20
-41.321551150416163
42
0.38779458240890124
10
-144.54840909161862
20
-42.317410345881335
42
-0.33529169545942317
10
-141.51596375622853
20
-45.075529470612814
42
0.36080805011591205
10
-140.53315897843891
20
-45.890881782422923
10
-123.7525000007097
20
-45.890881782423001
42
-0.4142135623730982
10
-122.94000000070974
20
-46.703381782422966
42
0.41421356237309509
10
-122.12750000070974
20
-47.515881782422973
10
-103.37750000070974
20
-47.515881782423044
42
-0.99999999999999989
10
-103.37750000070974
20
-48.39088178242303
10
-140.4075000007112
20
-48.39088178242303
42
0.41421356237308982
10
-141.4075000007112
20
-49.390881782423023
10
-141.40750000071122
20
-50.890881782423008
42
0.41421356237309509
10
-140.4075000007112
20
-51.890881782423065
10
-92.407500000711238
20
-51.890881782423044
42
0.32247778185592924
10
-91.459212719159467
20
-51.208295127522319
42
0.29076031298218458
10
-91.588185088090484
20
-50.687847120462749
42
-0.43221617641781063
10
-91.567500000711192
20
-47.774457560037185
42
0.20871215252204006
10
-91.40750000071121
20
-47.40785150444065
10
-91.407500000711224
20
-46.765881782423016
42
0.41421356237307427
10
-92.407500000711252
20
-45.765881782423001
10
-112.50250000070969
20
-45.765881782423037
42
-0.99999999999999989
10
-112.50250000070972
20
-44.890881782423016
10
-90.498589308963133
20
-44.890881782423023
42
-0.09034580413180282
10
-90.32226280143631
20
-44.923004701617195
10
-88.796887940496205
20
-45.497865135976483
42
-0.038816790389560332
10
-88.235293115011842
20
-45.760881782423027
42
0.12961715334180002
10
-87.742241393587065
20
-45.890881782422994
10
-76.600498741981369
20
-45.89088178242303
42
0.36080805011590739
10
-75.617693964191773
20
-45.075529470612857
42
-0.73345765344782599
10
-69.178010311251569
20
-44.302802197885605
42
0.29466912471077411
10
-68.26679048523529
20
-44.890881782423023
10
-39.21365771970693
20
-44.890881782423065
42
-0.99999999999999989
10
-39.21365771970693
20
-45.765881782423051
10
-67.776157719706944
20
-45.765881782423051
42
0.4142135623731002
10
-68.776157719706958
20
-46.765881782423051
10
-68.776157719706958
20
-50.890881782423051
42
0.41421356237310542
10
-67.77615771970693
20
-51.890881782423023
10
-19.776157719706955
20
-51.890881782423065
42
0.41421356237312629
10
-18.776157719706834
20
-50.890881782423051
10
-18.77615771970687
20
-49.390881782423044
42
0.41421356237310542
10
-19.776157719706884
20
-48.390881782423065
10
-48.338657719706944
20
-48.390881782423051
42
-0.99999999999999989
10
-48.338657719706944
20
-47.515881782423065
10
-29.588657719706912
20
-47.515881782423065
42
0.41421356237308227
10
-28.776157719706941
20
-46.703381782423037
42
-0.41421356237308865
10
-27.963657719706934
20
-45.89088178242303
10
-19.600498741981287
20
-45.89088178242303
42
0.360808050115899
10
-18.617693964191663
20
-45.075529470612892
42
-0.82961777377996182
10
-11.934621475222187
20
-45.075529470612906
42
0.36080805011590761
10
-10.951816697432477
20
-45.890881782423122
10
10.951816697443242
20
-45.890881782423065
42
0.36080805011589501
10
11.934621475232859
20
-45.075529470612906
42
-0.82961777377998358
10
18.617693964202413
20
-45.075529470613063
42
0.36080805011594463
10
19.600498741992141
20
-45.890881782423278
10
27.963657719717538
20
-45.89088178242271
42
-0.41421356237317347
10
28.776157719717617
20
-46.703381782422952
42
0.41421356237308865
10
29.588657719717624
20
-47.515881782422973
10
48.338657719717624
20
-47.515881782423079
42
-0.99999999999999989
10
48.338657719717624
20
-48.390881782423065
10
19.776157719717631
20
-48.390881782423065
42
0.41421356237309509
10
18.776157719717634
20
-49.390881782423065
10
18.776157719717617
20
-50.890881782423065
42
0.41421356237309509
10
19.776157719717631
20
-51.890881782423079
10
67.776157719717631
20
-51.890881782423065
42
0.4142135623731002
10
68.776157719717602
20
-50.890881782423065
10
68.776157719717631
20
-46.765881782423051
42
0.41421356237309509
10
67.776157719717631
20
-45.765881782423051
10
39.213657719717574
20
-45.765881782423094
42
-0.99999999999999989
10
39.213657719717574
20
-44.890881782423065
10
68.266790485245991
20
-44.890881782423065
42
0.29466912471072676
10
69.178010311262256
20
-44.302802197885647
42
-0.73345765344782854
10
75.617693964202431
20
-45.075529470612921
42
0.36080805011590233
10
76.60049874199207
20
-45.890881782423079
10
94.069741392166137
20
-45.890881782423079
42
0.12961715334182289
10
94.562793113590985
20
-45.760881782423084
42
-0.03881679038958135
10
95.124387939075746
20
-45.497865135976383
10
96.649762800015395
20
-44.923004701617273
42
-0.090345804131791732
10
96.826089307542219
20
-44.890881782423108
10
124.21749999929033
20
-44.890881782423087
42
-0.99999999999999989
10
124.21749999929035
20
-45.765881782423108
10
98.73499999929038
20
-45.765881782423094
42
0.41421356237309509
10
97.73499999929038
20
-46.765881782423087
10
97.734999999290366
20
-47.407851504440742
42
0.20871215252208961
10
97.894999999289908
20
-47.774457560037689
42
-0.43221617641786192
10
97.915685086669683
20
-50.687847120462799
42
0.29076031298220767
10
97.786712717738595
20
-51.208295127522405
42
0.32247778185593379
10
98.73499999929038
20
-51.890881782423079
10
146.73499999929041
20
-51.890881782423079
42
0.41421356237308982
10
147.73499999929038
20
-50.890881782423079
10
147.73499999929041
20
-49.390881782423079
42
0.41421356237309509
10
146.73499999929041
20
-48.390881782423079
10
113.09249999929037
20
-48.390881782423079
42
-0.99999999999999989
10
113.09249999929037
20
-47.515881782423094
10
133.84249999929037
20
-47.515881782423094
42
0.41421356237309509
10
134.65499999929037
20
-46.703381782423108
42
-0.41421356237313023
10
135.46749999929037
20
-45.890881782422994
10
149.86065897701602
20
-45.890881782422959
42
0.36080805011587502
10
150.84346375480564
20
-45.07552947061285
42
-0.33529169545971443
10
153.87590909019949
20
-42.317410345881029
42
0.38779458240879816
10
154.78499999929039
20
-41.321551150417108
10
154.78499999929039
20
32.699711133094155
42
0.41421356237309509
10
153.78499999929042
20
33.699711133094148
10
138.54749999929038
20
33.699711133094532
42
-0.4142135623730902
10
137.73499999929041
20
34.512211133094524
42
0.41421356237296053
10
136.92249999929038
20
35.324711133094162
10
116.17249999929041
20
35.324711133094254
42
-0.99999999999999989
10
116.17249999929041
20
36.19971113309424
10
146.73499999929041
20
36.199711133094254
42
0.4142135623731002
10
147.73499999929041
20
37.199711133094254
10
147.73499999929041
20
38.699711133094098
42
0.4142135623731002
10
146.73499999929041
20
39.69971113309407
10
98.73499999929038
20
39.699711133094091
42
0.3224777818560024
10
97.786712717738538
20
39.017124478193203
42
0.29076031298218402
10
97.915685086669669
20
38.496676471133682
42
-0.43221617641782056
10
97.894999999290377
20
35.583286910708054
42
0.20871215252204139
10
97.73499999929038
20
35.216680855111647
10
97.734999999290409
20
34.574711133094112
42
0.41421356237309509
10
98.73499999929038
20
33.574711133094141
10
127.29749999929035
20
33.574711133094048
42
-0.99999999999999989
10
127.29749999929039
20
32.699711133094027
10
96.826089307542134
20
32.699711133094304
42
-0.090345804131802487
10
96.649762800015409
20
32.731834052288434
10
95.124387939065272
20
33.306694486651217
42
-0.038816790389045751
10
94.562793113588768
20
33.569711133095232
42
0.12961715334200374
10
94.06974139216338
20
33.699711133095548
10
90.272721860893654
20
33.699711133095633
42
-0.052407779283048739
10
90.064810170075901
20
33.721563532361841
10
71.093739411319035
20
37.753989104041977
42
0.41421356237308488
10
70.500709765543306
20
37.368871149083937
42
-0.41421356237303952
10
69.907680119767505
20
36.983753194125924
10
38.808292892409227
20
43.594132013218726
42
-0.99999999999999989
10
38.990215621874796
20
44.450011163860722
10
68.622381448132074
20
38.151499880994507
42
0.41421356237307616
10
69.808440739683618
20
38.92173579091051
10
70.666076464306926
20
42.956594643937756
42
0.41421356237309509
10
69.895840554390915
20
44.142653935489271
10
22.944755719168199
20
54.122415094741712
42
0.41421356237310575
10
21.758696427616677
20
53.352179184825665
10
21.446828891389913
20
51.884957783724545
42
0.4142135623731108
10
22.217064801305977
20
50.69889849217298
10
48.461580666967308
20
45.120454437074606
42
-0.99999999999999989
10
48.279657937501739
20
44.264575286432546
10
29.939390423743077
20
48.162919489266201
42
0.41421356237308843
10
28.975717249357405
20
47.537102812459423
42
-0.41421356237349222
10
28.012044074971545
20
46.911286135651515
10
8.8789651752686005
20
50.978147600733678
42
0.052407779283051723
10
8.6710534844508658
20
50.999999999999858
10
-8.6710534844431919
20
51.000000000000142
42
0.05240777928205631
10
-8.8789651752572869
20
50.978147600734722
10
-33.615252339288482
20
45.720287452763131
42
-0.41421356234621748
10
-34.57892551365633
20
46.346104129500674
42
0.41421356237202123
10
-35.542598688038979
20
46.971920806308049
10
-53.882866201831746
20
43.073576603619408
42
-0.99999999999999989
10
-54.064788931294046
20
43.929455754262179
10
-22.217064821925252
20
50.698898487839763
42
0.41421356237313228
10
-21.446828912004705
20
51.884957779388508
10
-21.758696448225887
20
53.35217918049036
42
0.41421356237311335
10
-22.944755739774607
20
54.122415090410925
10
-69.895840575034853
20
44.142653931335083
42
0.41421356237308682
10
-70.666076484955354
20
42.956594639786402
10
-69.80844076033101
20
38.921735786679875
42
0.41421356237311213
10
-68.622381468782393
20
38.151499876759353
10
-44.593423886197584
20
43.259012481013634
42
-0.99999999999999989
10
-44.411501156735284
20
42.40313333037097
10
-69.90768014043806
20
36.9837531899718
42
-0.41421356237313173
10
-70.500709786212482
20
37.368871144932179
42
0.41421356237302054
10
-71.093739431986819
20
37.753989099892358
10
-87.004355247029466
20
34.372083308256748
42
0.1361681718559519
10
-87.478654845114534
20
34.125090791822757
42
-0.097905538537553544
10
-88.796887940481781
20
33.306694482583893
10
-90.322262801435357
20
32.731834048212768
42
-0.090345804132853827
10
-90.498589308964071
20
32.699711129017892
10
-108.97000000071129
20
32.699711129017892
42
-0.99999999999999989
10
-108.97000000071129
20
33.574711129017878
10
-92.407500000711167
20
33.574711129017878
42
0.41421356237308982
10
-91.407500000711167
20
34.574711129017892
10
-91.407500000711224
20
35.216680851042796
42
0.20871215252203179
10
-91.567500000711163
20
35.583286906639323
42
-0.4322161764177927
10
-91.588185088090498
20
38.496676467064823
42
0.29076031298219518
10
-91.459212719159467
20
39.017124474124486
42
0.32247778185590087
10
-92.407500000711295
20
39.69971112902499
10
-140.4075000007112
20
39.69971112902499
42
0.41421356237307944
10
-141.40750000071122
20
38.69971112902499
10
-141.40750000071131
20
37.199711129025985
42
0.41421356237308465
10
-140.40750000071131
20
36.199711129026007
10
-99.845000000711309
20
36.199711129017871
42
-0.99999999999999989
10
-99.845000000711309
20
35.324711129017885
10
-118.59500000071129
20
35.324711129017885
42
0.41421356237310142
10
-119.40750000071128
20
34.512211129017857
42
-0.41421356237174545
0
ENDSEC
0
SECTION
2
OBJECTS
0
DICTIONARY
5
C
100
AcDbDictionary
3
ACAD_GROUP
350
D
3
ACAD_MLINESTYLE
350
17
0
DICTIONARY
5
D
100
AcDbDictionary
0
DICTIONARY
5
1A
330
C
100
AcDbDictionary
0
DICTIONARY
5
17
100
AcDbDictionary
0
ENDSEC
0
EOF
