G04 #@! TF.GenerationSoftware,KiCad,Pcbnew,(5.1.4)-1*
G04 #@! TF.CreationDate,2020-06-21T21:39:22+09:00*
G04 #@! TF.ProjectId,Vision,56697369-6f6e-42e6-9b69-6361645f7063,rev?*
G04 #@! TF.SameCoordinates,Original*
G04 #@! TF.FileFunction,Copper,L1,Top*
G04 #@! TF.FilePolarity,Positive*
%FSLAX46Y46*%
G04 Gerber Fmt 4.6, Leading zero omitted, Abs format (unit mm)*
G04 Created by KiCad (PCBNEW (5.1.4)-1) date 2020-06-21 21:39:22*
%MOMM*%
%LPD*%
G04 APERTURE LIST*
%ADD10C,0.200000*%
%ADD11C,0.150000*%
%ADD12C,0.010000*%
%ADD13C,2.250000*%
%ADD14O,1.700000X1.700000*%
%ADD15R,1.700000X1.700000*%
%ADD16O,1.000000X1.600000*%
%ADD17O,1.000000X2.100000*%
%ADD18C,0.600000*%
%ADD19C,0.381000*%
%ADD20C,0.254000*%
G04 APERTURE END LIST*
D10*
X66030952Y-143331904D02*
X68530952Y-142498571D01*
X66030952Y-141665238D01*
X68530952Y-140831904D02*
X66030952Y-140831904D01*
X68411904Y-139760476D02*
X68530952Y-139403333D01*
X68530952Y-138808095D01*
X68411904Y-138570000D01*
X68292857Y-138450952D01*
X68054761Y-138331904D01*
X67816666Y-138331904D01*
X67578571Y-138450952D01*
X67459523Y-138570000D01*
X67340476Y-138808095D01*
X67221428Y-139284285D01*
X67102380Y-139522380D01*
X66983333Y-139641428D01*
X66745238Y-139760476D01*
X66507142Y-139760476D01*
X66269047Y-139641428D01*
X66150000Y-139522380D01*
X66030952Y-139284285D01*
X66030952Y-138689047D01*
X66150000Y-138331904D01*
X68530952Y-137260476D02*
X66030952Y-137260476D01*
X66030952Y-135593809D02*
X66030952Y-135117619D01*
X66150000Y-134879523D01*
X66388095Y-134641428D01*
X66864285Y-134522380D01*
X67697619Y-134522380D01*
X68173809Y-134641428D01*
X68411904Y-134879523D01*
X68530952Y-135117619D01*
X68530952Y-135593809D01*
X68411904Y-135831904D01*
X68173809Y-136070000D01*
X67697619Y-136189047D01*
X66864285Y-136189047D01*
X66388095Y-136070000D01*
X66150000Y-135831904D01*
X66030952Y-135593809D01*
X68530952Y-133450952D02*
X66030952Y-133450952D01*
X68530952Y-132022380D01*
X66030952Y-132022380D01*
D11*
X70752380Y-143364404D02*
X69752380Y-143364404D01*
X69752380Y-142983452D01*
X69800000Y-142888214D01*
X69847619Y-142840595D01*
X69942857Y-142792976D01*
X70085714Y-142792976D01*
X70180952Y-142840595D01*
X70228571Y-142888214D01*
X70276190Y-142983452D01*
X70276190Y-143364404D01*
X70657142Y-141792976D02*
X70704761Y-141840595D01*
X70752380Y-141983452D01*
X70752380Y-142078690D01*
X70704761Y-142221547D01*
X70609523Y-142316785D01*
X70514285Y-142364404D01*
X70323809Y-142412023D01*
X70180952Y-142412023D01*
X69990476Y-142364404D01*
X69895238Y-142316785D01*
X69800000Y-142221547D01*
X69752380Y-142078690D01*
X69752380Y-141983452D01*
X69800000Y-141840595D01*
X69847619Y-141792976D01*
X70228571Y-141031071D02*
X70276190Y-140888214D01*
X70323809Y-140840595D01*
X70419047Y-140792976D01*
X70561904Y-140792976D01*
X70657142Y-140840595D01*
X70704761Y-140888214D01*
X70752380Y-140983452D01*
X70752380Y-141364404D01*
X69752380Y-141364404D01*
X69752380Y-141031071D01*
X69800000Y-140935833D01*
X69847619Y-140888214D01*
X69942857Y-140840595D01*
X70038095Y-140840595D01*
X70133333Y-140888214D01*
X70180952Y-140935833D01*
X70228571Y-141031071D01*
X70228571Y-141364404D01*
X70085714Y-140459642D02*
X70752380Y-140221547D01*
X70085714Y-139983452D01*
X70752380Y-139078690D02*
X70752380Y-139650119D01*
X70752380Y-139364404D02*
X69752380Y-139364404D01*
X69895238Y-139459642D01*
X69990476Y-139554880D01*
X70038095Y-139650119D01*
X70657142Y-138650119D02*
X70704761Y-138602500D01*
X70752380Y-138650119D01*
X70704761Y-138697738D01*
X70657142Y-138650119D01*
X70752380Y-138650119D01*
X70752380Y-137650119D02*
X70752380Y-138221547D01*
X70752380Y-137935833D02*
X69752380Y-137935833D01*
X69895238Y-138031071D01*
X69990476Y-138126309D01*
X70038095Y-138221547D01*
X70752380Y-136459642D02*
X69752380Y-136459642D01*
X70133333Y-136459642D02*
X70085714Y-136364404D01*
X70085714Y-136173928D01*
X70133333Y-136078690D01*
X70180952Y-136031071D01*
X70276190Y-135983452D01*
X70561904Y-135983452D01*
X70657142Y-136031071D01*
X70704761Y-136078690D01*
X70752380Y-136173928D01*
X70752380Y-136364404D01*
X70704761Y-136459642D01*
X70085714Y-135650119D02*
X70752380Y-135412023D01*
X70085714Y-135173928D02*
X70752380Y-135412023D01*
X70990476Y-135507261D01*
X71038095Y-135554880D01*
X71085714Y-135650119D01*
X70704761Y-134078690D02*
X70752380Y-133935833D01*
X70752380Y-133697738D01*
X70704761Y-133602500D01*
X70657142Y-133554880D01*
X70561904Y-133507261D01*
X70466666Y-133507261D01*
X70371428Y-133554880D01*
X70323809Y-133602500D01*
X70276190Y-133697738D01*
X70228571Y-133888214D01*
X70180952Y-133983452D01*
X70133333Y-134031071D01*
X70038095Y-134078690D01*
X69942857Y-134078690D01*
X69847619Y-134031071D01*
X69800000Y-133983452D01*
X69752380Y-133888214D01*
X69752380Y-133650119D01*
X69800000Y-133507261D01*
X70752380Y-132650119D02*
X70228571Y-132650119D01*
X70133333Y-132697738D01*
X70085714Y-132792976D01*
X70085714Y-132983452D01*
X70133333Y-133078690D01*
X70704761Y-132650119D02*
X70752380Y-132745357D01*
X70752380Y-132983452D01*
X70704761Y-133078690D01*
X70609523Y-133126309D01*
X70514285Y-133126309D01*
X70419047Y-133078690D01*
X70371428Y-132983452D01*
X70371428Y-132745357D01*
X70323809Y-132650119D01*
X70085714Y-132316785D02*
X70085714Y-131935833D01*
X69752380Y-132173928D02*
X70609523Y-132173928D01*
X70704761Y-132126309D01*
X70752380Y-132031071D01*
X70752380Y-131935833D01*
X69752380Y-131745357D02*
X69752380Y-131173928D01*
X70752380Y-131459642D02*
X69752380Y-131459642D01*
D12*
G36*
X68844417Y-145230390D02*
G01*
X68858339Y-145231554D01*
X68894865Y-145237462D01*
X68950410Y-145247453D01*
X69021394Y-145260868D01*
X69104234Y-145277049D01*
X69175897Y-145291392D01*
X69502369Y-145357401D01*
X69803548Y-145488552D01*
X69898476Y-145530090D01*
X69974633Y-145564337D01*
X70037574Y-145594426D01*
X70092855Y-145623493D01*
X70146029Y-145654673D01*
X70202651Y-145691101D01*
X70268275Y-145735912D01*
X70348457Y-145792241D01*
X70375458Y-145811343D01*
X70459474Y-145871025D01*
X70526816Y-145919866D01*
X70582124Y-145961964D01*
X70630034Y-146001413D01*
X70675187Y-146042312D01*
X70722219Y-146088756D01*
X70775769Y-146144841D01*
X70840476Y-146214664D01*
X70876384Y-146253743D01*
X70947674Y-146331638D01*
X71004483Y-146394868D01*
X71050492Y-146448390D01*
X71089378Y-146497163D01*
X71124821Y-146546145D01*
X71160499Y-146600295D01*
X71200091Y-146664571D01*
X71247276Y-146743931D01*
X71274847Y-146790783D01*
X71327189Y-146880093D01*
X71368515Y-146952023D01*
X71401395Y-147012222D01*
X71428397Y-147066336D01*
X71452092Y-147120013D01*
X71475050Y-147178902D01*
X71499840Y-147248649D01*
X71529033Y-147334903D01*
X71547191Y-147389307D01*
X71651267Y-147701549D01*
X71689473Y-148030853D01*
X71699997Y-148123037D01*
X71709310Y-148207442D01*
X71716999Y-148280105D01*
X71722654Y-148337060D01*
X71725863Y-148374343D01*
X71726423Y-148386894D01*
X71724772Y-148407470D01*
X71720829Y-148450507D01*
X71714993Y-148511869D01*
X71707658Y-148587415D01*
X71699221Y-148673007D01*
X71694353Y-148721882D01*
X71663538Y-149030134D01*
X71563064Y-149347209D01*
X71531712Y-149445745D01*
X71505923Y-149524492D01*
X71483221Y-149589128D01*
X71461128Y-149645332D01*
X71437167Y-149698786D01*
X71408862Y-149755166D01*
X71373735Y-149820154D01*
X71329309Y-149899427D01*
X71298430Y-149953971D01*
X71246624Y-150045018D01*
X71204172Y-150117915D01*
X71167372Y-150177846D01*
X71132522Y-150229994D01*
X71095922Y-150279542D01*
X71053870Y-150331673D01*
X71002665Y-150391572D01*
X70938606Y-150464421D01*
X70914448Y-150491697D01*
X70844753Y-150570018D01*
X70787773Y-150632679D01*
X70738752Y-150684039D01*
X70692934Y-150728455D01*
X70645563Y-150770286D01*
X70591884Y-150813888D01*
X70527142Y-150863620D01*
X70446579Y-150923840D01*
X70426925Y-150938434D01*
X70343404Y-151000248D01*
X70275894Y-151049267D01*
X70219015Y-151088661D01*
X70167386Y-151121598D01*
X70115628Y-151151246D01*
X70058359Y-151180775D01*
X69990199Y-151213352D01*
X69905768Y-151252146D01*
X69855143Y-151275149D01*
X69748707Y-151322885D01*
X69660467Y-151360907D01*
X69584657Y-151391365D01*
X69515514Y-151416411D01*
X69447272Y-151438196D01*
X69374168Y-151458872D01*
X69335567Y-151469058D01*
X69263844Y-151487321D01*
X69201745Y-151502488D01*
X69153614Y-151513551D01*
X69123790Y-151519500D01*
X69116066Y-151520027D01*
X69115014Y-151504235D01*
X69117073Y-151467409D01*
X69121610Y-151414986D01*
X69127991Y-151352407D01*
X69135584Y-151285110D01*
X69143755Y-151218533D01*
X69151871Y-151158116D01*
X69159299Y-151109297D01*
X69165406Y-151077515D01*
X69168664Y-151068200D01*
X69184725Y-151060146D01*
X69222116Y-151045043D01*
X69276834Y-151024393D01*
X69344877Y-150999699D01*
X69422242Y-150972464D01*
X69440504Y-150966146D01*
X69530957Y-150934543D01*
X69603883Y-150907611D01*
X69665880Y-150882255D01*
X69723548Y-150855383D01*
X69783486Y-150823900D01*
X69852292Y-150784713D01*
X69936566Y-150734728D01*
X69945277Y-150729509D01*
X70030714Y-150677817D01*
X70099249Y-150634691D01*
X70156792Y-150595671D01*
X70209253Y-150556299D01*
X70262541Y-150512114D01*
X70322566Y-150458658D01*
X70395236Y-150391471D01*
X70403628Y-150383637D01*
X70477371Y-150314203D01*
X70536052Y-150257016D01*
X70584518Y-150206477D01*
X70627619Y-150156989D01*
X70670203Y-150102955D01*
X70717120Y-150038777D01*
X70773217Y-149958858D01*
X70779741Y-149949465D01*
X70836739Y-149866648D01*
X70881666Y-149798923D01*
X70918136Y-149739730D01*
X70949765Y-149682507D01*
X70980165Y-149620695D01*
X71012952Y-149547732D01*
X71051740Y-149457058D01*
X71054125Y-149451412D01*
X71091159Y-149363117D01*
X71119868Y-149292089D01*
X71142236Y-149231773D01*
X71160249Y-149175618D01*
X71175891Y-149117071D01*
X71191148Y-149049577D01*
X71208005Y-148966585D01*
X71220692Y-148901579D01*
X71276431Y-148614158D01*
X71267241Y-148326737D01*
X71263985Y-148230334D01*
X71260578Y-148153931D01*
X71256146Y-148090801D01*
X71249811Y-148034215D01*
X71240697Y-147977448D01*
X71227928Y-147913771D01*
X71210628Y-147836458D01*
X71194103Y-147765263D01*
X71171745Y-147670720D01*
X71152766Y-147595436D01*
X71134790Y-147532583D01*
X71115442Y-147475332D01*
X71092346Y-147416853D01*
X71063126Y-147350318D01*
X71025408Y-147268897D01*
X71010149Y-147236446D01*
X70967749Y-147147442D01*
X70931879Y-147075525D01*
X70898711Y-147014377D01*
X70864419Y-146957680D01*
X70825175Y-146899115D01*
X70777151Y-146832365D01*
X70716519Y-146751111D01*
X70714553Y-146748499D01*
X70653251Y-146667758D01*
X70602618Y-146603365D01*
X70557675Y-146549989D01*
X70513447Y-146502296D01*
X70464957Y-146454953D01*
X70407227Y-146402626D01*
X70335282Y-146339984D01*
X70325385Y-146331458D01*
X70249052Y-146266375D01*
X70185770Y-146214483D01*
X70129253Y-146171415D01*
X70073214Y-146132803D01*
X70011365Y-146094281D01*
X69937419Y-146051481D01*
X69860562Y-146008588D01*
X69773857Y-145960978D01*
X69703742Y-145923842D01*
X69643603Y-145894373D01*
X69586827Y-145869764D01*
X69526797Y-145847209D01*
X69456901Y-145823902D01*
X69370523Y-145797034D01*
X69340337Y-145787839D01*
X69253101Y-145761878D01*
X69168187Y-145737604D01*
X69091212Y-145716548D01*
X69027790Y-145700240D01*
X68983536Y-145690212D01*
X68979505Y-145689453D01*
X68887652Y-145672806D01*
X68863531Y-145454102D01*
X68855766Y-145380789D01*
X68849652Y-145317312D01*
X68845575Y-145268188D01*
X68843921Y-145237931D01*
X68844417Y-145230390D01*
X68844417Y-145230390D01*
G37*
X68844417Y-145230390D02*
X68858339Y-145231554D01*
X68894865Y-145237462D01*
X68950410Y-145247453D01*
X69021394Y-145260868D01*
X69104234Y-145277049D01*
X69175897Y-145291392D01*
X69502369Y-145357401D01*
X69803548Y-145488552D01*
X69898476Y-145530090D01*
X69974633Y-145564337D01*
X70037574Y-145594426D01*
X70092855Y-145623493D01*
X70146029Y-145654673D01*
X70202651Y-145691101D01*
X70268275Y-145735912D01*
X70348457Y-145792241D01*
X70375458Y-145811343D01*
X70459474Y-145871025D01*
X70526816Y-145919866D01*
X70582124Y-145961964D01*
X70630034Y-146001413D01*
X70675187Y-146042312D01*
X70722219Y-146088756D01*
X70775769Y-146144841D01*
X70840476Y-146214664D01*
X70876384Y-146253743D01*
X70947674Y-146331638D01*
X71004483Y-146394868D01*
X71050492Y-146448390D01*
X71089378Y-146497163D01*
X71124821Y-146546145D01*
X71160499Y-146600295D01*
X71200091Y-146664571D01*
X71247276Y-146743931D01*
X71274847Y-146790783D01*
X71327189Y-146880093D01*
X71368515Y-146952023D01*
X71401395Y-147012222D01*
X71428397Y-147066336D01*
X71452092Y-147120013D01*
X71475050Y-147178902D01*
X71499840Y-147248649D01*
X71529033Y-147334903D01*
X71547191Y-147389307D01*
X71651267Y-147701549D01*
X71689473Y-148030853D01*
X71699997Y-148123037D01*
X71709310Y-148207442D01*
X71716999Y-148280105D01*
X71722654Y-148337060D01*
X71725863Y-148374343D01*
X71726423Y-148386894D01*
X71724772Y-148407470D01*
X71720829Y-148450507D01*
X71714993Y-148511869D01*
X71707658Y-148587415D01*
X71699221Y-148673007D01*
X71694353Y-148721882D01*
X71663538Y-149030134D01*
X71563064Y-149347209D01*
X71531712Y-149445745D01*
X71505923Y-149524492D01*
X71483221Y-149589128D01*
X71461128Y-149645332D01*
X71437167Y-149698786D01*
X71408862Y-149755166D01*
X71373735Y-149820154D01*
X71329309Y-149899427D01*
X71298430Y-149953971D01*
X71246624Y-150045018D01*
X71204172Y-150117915D01*
X71167372Y-150177846D01*
X71132522Y-150229994D01*
X71095922Y-150279542D01*
X71053870Y-150331673D01*
X71002665Y-150391572D01*
X70938606Y-150464421D01*
X70914448Y-150491697D01*
X70844753Y-150570018D01*
X70787773Y-150632679D01*
X70738752Y-150684039D01*
X70692934Y-150728455D01*
X70645563Y-150770286D01*
X70591884Y-150813888D01*
X70527142Y-150863620D01*
X70446579Y-150923840D01*
X70426925Y-150938434D01*
X70343404Y-151000248D01*
X70275894Y-151049267D01*
X70219015Y-151088661D01*
X70167386Y-151121598D01*
X70115628Y-151151246D01*
X70058359Y-151180775D01*
X69990199Y-151213352D01*
X69905768Y-151252146D01*
X69855143Y-151275149D01*
X69748707Y-151322885D01*
X69660467Y-151360907D01*
X69584657Y-151391365D01*
X69515514Y-151416411D01*
X69447272Y-151438196D01*
X69374168Y-151458872D01*
X69335567Y-151469058D01*
X69263844Y-151487321D01*
X69201745Y-151502488D01*
X69153614Y-151513551D01*
X69123790Y-151519500D01*
X69116066Y-151520027D01*
X69115014Y-151504235D01*
X69117073Y-151467409D01*
X69121610Y-151414986D01*
X69127991Y-151352407D01*
X69135584Y-151285110D01*
X69143755Y-151218533D01*
X69151871Y-151158116D01*
X69159299Y-151109297D01*
X69165406Y-151077515D01*
X69168664Y-151068200D01*
X69184725Y-151060146D01*
X69222116Y-151045043D01*
X69276834Y-151024393D01*
X69344877Y-150999699D01*
X69422242Y-150972464D01*
X69440504Y-150966146D01*
X69530957Y-150934543D01*
X69603883Y-150907611D01*
X69665880Y-150882255D01*
X69723548Y-150855383D01*
X69783486Y-150823900D01*
X69852292Y-150784713D01*
X69936566Y-150734728D01*
X69945277Y-150729509D01*
X70030714Y-150677817D01*
X70099249Y-150634691D01*
X70156792Y-150595671D01*
X70209253Y-150556299D01*
X70262541Y-150512114D01*
X70322566Y-150458658D01*
X70395236Y-150391471D01*
X70403628Y-150383637D01*
X70477371Y-150314203D01*
X70536052Y-150257016D01*
X70584518Y-150206477D01*
X70627619Y-150156989D01*
X70670203Y-150102955D01*
X70717120Y-150038777D01*
X70773217Y-149958858D01*
X70779741Y-149949465D01*
X70836739Y-149866648D01*
X70881666Y-149798923D01*
X70918136Y-149739730D01*
X70949765Y-149682507D01*
X70980165Y-149620695D01*
X71012952Y-149547732D01*
X71051740Y-149457058D01*
X71054125Y-149451412D01*
X71091159Y-149363117D01*
X71119868Y-149292089D01*
X71142236Y-149231773D01*
X71160249Y-149175618D01*
X71175891Y-149117071D01*
X71191148Y-149049577D01*
X71208005Y-148966585D01*
X71220692Y-148901579D01*
X71276431Y-148614158D01*
X71267241Y-148326737D01*
X71263985Y-148230334D01*
X71260578Y-148153931D01*
X71256146Y-148090801D01*
X71249811Y-148034215D01*
X71240697Y-147977448D01*
X71227928Y-147913771D01*
X71210628Y-147836458D01*
X71194103Y-147765263D01*
X71171745Y-147670720D01*
X71152766Y-147595436D01*
X71134790Y-147532583D01*
X71115442Y-147475332D01*
X71092346Y-147416853D01*
X71063126Y-147350318D01*
X71025408Y-147268897D01*
X71010149Y-147236446D01*
X70967749Y-147147442D01*
X70931879Y-147075525D01*
X70898711Y-147014377D01*
X70864419Y-146957680D01*
X70825175Y-146899115D01*
X70777151Y-146832365D01*
X70716519Y-146751111D01*
X70714553Y-146748499D01*
X70653251Y-146667758D01*
X70602618Y-146603365D01*
X70557675Y-146549989D01*
X70513447Y-146502296D01*
X70464957Y-146454953D01*
X70407227Y-146402626D01*
X70335282Y-146339984D01*
X70325385Y-146331458D01*
X70249052Y-146266375D01*
X70185770Y-146214483D01*
X70129253Y-146171415D01*
X70073214Y-146132803D01*
X70011365Y-146094281D01*
X69937419Y-146051481D01*
X69860562Y-146008588D01*
X69773857Y-145960978D01*
X69703742Y-145923842D01*
X69643603Y-145894373D01*
X69586827Y-145869764D01*
X69526797Y-145847209D01*
X69456901Y-145823902D01*
X69370523Y-145797034D01*
X69340337Y-145787839D01*
X69253101Y-145761878D01*
X69168187Y-145737604D01*
X69091212Y-145716548D01*
X69027790Y-145700240D01*
X68983536Y-145690212D01*
X68979505Y-145689453D01*
X68887652Y-145672806D01*
X68863531Y-145454102D01*
X68855766Y-145380789D01*
X68849652Y-145317312D01*
X68845575Y-145268188D01*
X68843921Y-145237931D01*
X68844417Y-145230390D01*
G36*
X68056634Y-148607473D02*
G01*
X68064093Y-148301897D01*
X68075858Y-148006736D01*
X68092364Y-147716589D01*
X68114047Y-147426051D01*
X68141345Y-147129719D01*
X68174693Y-146822189D01*
X68214528Y-146498058D01*
X68246105Y-146261315D01*
X68262257Y-146146957D01*
X68280826Y-146021295D01*
X68301351Y-145887034D01*
X68323368Y-145746878D01*
X68346416Y-145603532D01*
X68370033Y-145459699D01*
X68393757Y-145318086D01*
X68417125Y-145181396D01*
X68439676Y-145052333D01*
X68460947Y-144933602D01*
X68480476Y-144827908D01*
X68497801Y-144737955D01*
X68512460Y-144666448D01*
X68523990Y-144616091D01*
X68531643Y-144590263D01*
X68535141Y-144593014D01*
X68537292Y-144618794D01*
X68537996Y-144663924D01*
X68537155Y-144724725D01*
X68536183Y-144758112D01*
X68533806Y-144870418D01*
X68534158Y-144988743D01*
X68537397Y-145114711D01*
X68543684Y-145249942D01*
X68553176Y-145396060D01*
X68566033Y-145554686D01*
X68582414Y-145727442D01*
X68602477Y-145915952D01*
X68626382Y-146121837D01*
X68654288Y-146346719D01*
X68686354Y-146592221D01*
X68722738Y-146859964D01*
X68763599Y-147151572D01*
X68786319Y-147310737D01*
X68819176Y-147541691D01*
X68848025Y-147749067D01*
X68873210Y-147935667D01*
X68895075Y-148104293D01*
X68913965Y-148257746D01*
X68930223Y-148398829D01*
X68944193Y-148530344D01*
X68956219Y-148655092D01*
X68966644Y-148775876D01*
X68967547Y-148787037D01*
X68973939Y-148881069D01*
X68979756Y-148994457D01*
X68984866Y-149121571D01*
X68989139Y-149256779D01*
X68992443Y-149394451D01*
X68994646Y-149528956D01*
X68995617Y-149654664D01*
X68995225Y-149765943D01*
X68993338Y-149857164D01*
X68992838Y-149870789D01*
X68981000Y-150117049D01*
X68965375Y-150358983D01*
X68946264Y-150594539D01*
X68923965Y-150821664D01*
X68898778Y-151038308D01*
X68871004Y-151242417D01*
X68840941Y-151431940D01*
X68808890Y-151604824D01*
X68775150Y-151759019D01*
X68740020Y-151892472D01*
X68703800Y-152003130D01*
X68669808Y-152082972D01*
X68632322Y-152149428D01*
X68596934Y-152191824D01*
X68560949Y-152212404D01*
X68521674Y-152213414D01*
X68514979Y-152211928D01*
X68476634Y-152189123D01*
X68438823Y-152141017D01*
X68401727Y-152069040D01*
X68365530Y-151974626D01*
X68330412Y-151859207D01*
X68296557Y-151724215D01*
X68264146Y-151571082D01*
X68233361Y-151401241D01*
X68204386Y-151216124D01*
X68177401Y-151017163D01*
X68152588Y-150805791D01*
X68130131Y-150583439D01*
X68110211Y-150351541D01*
X68093011Y-150111529D01*
X68078711Y-149864834D01*
X68067496Y-149612890D01*
X68059546Y-149357128D01*
X68055044Y-149098981D01*
X68054172Y-148839881D01*
X68056634Y-148607473D01*
X68056634Y-148607473D01*
G37*
X68056634Y-148607473D02*
X68064093Y-148301897D01*
X68075858Y-148006736D01*
X68092364Y-147716589D01*
X68114047Y-147426051D01*
X68141345Y-147129719D01*
X68174693Y-146822189D01*
X68214528Y-146498058D01*
X68246105Y-146261315D01*
X68262257Y-146146957D01*
X68280826Y-146021295D01*
X68301351Y-145887034D01*
X68323368Y-145746878D01*
X68346416Y-145603532D01*
X68370033Y-145459699D01*
X68393757Y-145318086D01*
X68417125Y-145181396D01*
X68439676Y-145052333D01*
X68460947Y-144933602D01*
X68480476Y-144827908D01*
X68497801Y-144737955D01*
X68512460Y-144666448D01*
X68523990Y-144616091D01*
X68531643Y-144590263D01*
X68535141Y-144593014D01*
X68537292Y-144618794D01*
X68537996Y-144663924D01*
X68537155Y-144724725D01*
X68536183Y-144758112D01*
X68533806Y-144870418D01*
X68534158Y-144988743D01*
X68537397Y-145114711D01*
X68543684Y-145249942D01*
X68553176Y-145396060D01*
X68566033Y-145554686D01*
X68582414Y-145727442D01*
X68602477Y-145915952D01*
X68626382Y-146121837D01*
X68654288Y-146346719D01*
X68686354Y-146592221D01*
X68722738Y-146859964D01*
X68763599Y-147151572D01*
X68786319Y-147310737D01*
X68819176Y-147541691D01*
X68848025Y-147749067D01*
X68873210Y-147935667D01*
X68895075Y-148104293D01*
X68913965Y-148257746D01*
X68930223Y-148398829D01*
X68944193Y-148530344D01*
X68956219Y-148655092D01*
X68966644Y-148775876D01*
X68967547Y-148787037D01*
X68973939Y-148881069D01*
X68979756Y-148994457D01*
X68984866Y-149121571D01*
X68989139Y-149256779D01*
X68992443Y-149394451D01*
X68994646Y-149528956D01*
X68995617Y-149654664D01*
X68995225Y-149765943D01*
X68993338Y-149857164D01*
X68992838Y-149870789D01*
X68981000Y-150117049D01*
X68965375Y-150358983D01*
X68946264Y-150594539D01*
X68923965Y-150821664D01*
X68898778Y-151038308D01*
X68871004Y-151242417D01*
X68840941Y-151431940D01*
X68808890Y-151604824D01*
X68775150Y-151759019D01*
X68740020Y-151892472D01*
X68703800Y-152003130D01*
X68669808Y-152082972D01*
X68632322Y-152149428D01*
X68596934Y-152191824D01*
X68560949Y-152212404D01*
X68521674Y-152213414D01*
X68514979Y-152211928D01*
X68476634Y-152189123D01*
X68438823Y-152141017D01*
X68401727Y-152069040D01*
X68365530Y-151974626D01*
X68330412Y-151859207D01*
X68296557Y-151724215D01*
X68264146Y-151571082D01*
X68233361Y-151401241D01*
X68204386Y-151216124D01*
X68177401Y-151017163D01*
X68152588Y-150805791D01*
X68130131Y-150583439D01*
X68110211Y-150351541D01*
X68093011Y-150111529D01*
X68078711Y-149864834D01*
X68067496Y-149612890D01*
X68059546Y-149357128D01*
X68055044Y-149098981D01*
X68054172Y-148839881D01*
X68056634Y-148607473D01*
G36*
X65422714Y-147804335D02*
G01*
X65482492Y-147489143D01*
X65609356Y-147182703D01*
X65649087Y-147087134D01*
X65681744Y-147010585D01*
X65710309Y-146947567D01*
X65737763Y-146892586D01*
X65767087Y-146840150D01*
X65801261Y-146784769D01*
X65843267Y-146720951D01*
X65896085Y-146643202D01*
X65925469Y-146600321D01*
X65984973Y-146513877D01*
X66033580Y-146444747D01*
X66075399Y-146388118D01*
X66114539Y-146339176D01*
X66155110Y-146293107D01*
X66201222Y-146245099D01*
X66256983Y-146190338D01*
X66326505Y-146124010D01*
X66355846Y-146096228D01*
X66432092Y-146024361D01*
X66494208Y-145967025D01*
X66547293Y-145920313D01*
X66596445Y-145880320D01*
X66646763Y-145843138D01*
X66703346Y-145804861D01*
X66771292Y-145761582D01*
X66855700Y-145709395D01*
X66880913Y-145693922D01*
X66968354Y-145640420D01*
X67038887Y-145598057D01*
X67097981Y-145564233D01*
X67151105Y-145536349D01*
X67203729Y-145511807D01*
X67261322Y-145488008D01*
X67329354Y-145462353D01*
X67413295Y-145432243D01*
X67484715Y-145407029D01*
X67579927Y-145374306D01*
X67674135Y-145343443D01*
X67762121Y-145316038D01*
X67838667Y-145293688D01*
X67898554Y-145277990D01*
X67924895Y-145272322D01*
X67982104Y-145261681D01*
X68032151Y-145252023D01*
X68067103Y-145244892D01*
X68075290Y-145243042D01*
X68088357Y-145240972D01*
X68097365Y-145244256D01*
X68102292Y-145256139D01*
X68103115Y-145279864D01*
X68099814Y-145318676D01*
X68092365Y-145375818D01*
X68080748Y-145454534D01*
X68073540Y-145501880D01*
X68062785Y-145569847D01*
X68052923Y-145627791D01*
X68044833Y-145670859D01*
X68039395Y-145694199D01*
X68038191Y-145696901D01*
X68024007Y-145702045D01*
X67988015Y-145713383D01*
X67934107Y-145729739D01*
X67866174Y-145749936D01*
X67788108Y-145772798D01*
X67764474Y-145779658D01*
X67673218Y-145806405D01*
X67600221Y-145829009D01*
X67539005Y-145850141D01*
X67483092Y-145872473D01*
X67426004Y-145898673D01*
X67361263Y-145931413D01*
X67282390Y-145973363D01*
X67243106Y-145994579D01*
X67153971Y-146043308D01*
X67082399Y-146084101D01*
X67022156Y-146121214D01*
X66967009Y-146158904D01*
X66910726Y-146201429D01*
X66847074Y-146253043D01*
X66771011Y-146316995D01*
X66694154Y-146382767D01*
X66632752Y-146437323D01*
X66581533Y-146486188D01*
X66535225Y-146534887D01*
X66488558Y-146588944D01*
X66436258Y-146653884D01*
X66377808Y-146729064D01*
X66316611Y-146809116D01*
X66268208Y-146874784D01*
X66228635Y-146932496D01*
X66193926Y-146988679D01*
X66160116Y-147049758D01*
X66123240Y-147122162D01*
X66079333Y-147212318D01*
X66078191Y-147214688D01*
X66036091Y-147302683D01*
X66003465Y-147373324D01*
X65977954Y-147433232D01*
X65957196Y-147489028D01*
X65938830Y-147547333D01*
X65920495Y-147614767D01*
X65899830Y-147697950D01*
X65887278Y-147750051D01*
X65865310Y-147842282D01*
X65848680Y-147915475D01*
X65836497Y-147976273D01*
X65827869Y-148031317D01*
X65821906Y-148087249D01*
X65817715Y-148150710D01*
X65814405Y-148228342D01*
X65811477Y-148314752D01*
X65802079Y-148602597D01*
X65851718Y-148875746D01*
X65868900Y-148968780D01*
X65883752Y-149043241D01*
X65898229Y-149105814D01*
X65914287Y-149163182D01*
X65933881Y-149222030D01*
X65958967Y-149289041D01*
X65991501Y-149370902D01*
X66009863Y-149416263D01*
X66047123Y-149507217D01*
X66078275Y-149580064D01*
X66106672Y-149641048D01*
X66135665Y-149696414D01*
X66168609Y-149752408D01*
X66208856Y-149815275D01*
X66259758Y-149891260D01*
X66284080Y-149927059D01*
X66341496Y-150010727D01*
X66388986Y-150077559D01*
X66431252Y-150133100D01*
X66472995Y-150182895D01*
X66518917Y-150232490D01*
X66573720Y-150287428D01*
X66642104Y-150353257D01*
X66659290Y-150369611D01*
X66733086Y-150439165D01*
X66793861Y-150494449D01*
X66847560Y-150540036D01*
X66900131Y-150580497D01*
X66957519Y-150620407D01*
X67025673Y-150664337D01*
X67110537Y-150716861D01*
X67112129Y-150717837D01*
X67196146Y-150768932D01*
X67264313Y-150808948D01*
X67323169Y-150840988D01*
X67379252Y-150868158D01*
X67439101Y-150893563D01*
X67509253Y-150920308D01*
X67596246Y-150951498D01*
X67626814Y-150962258D01*
X67707330Y-150990794D01*
X67779329Y-151016788D01*
X67838972Y-151038816D01*
X67882419Y-151055453D01*
X67905833Y-151065274D01*
X67908626Y-151066872D01*
X67913460Y-151082639D01*
X67919801Y-151119397D01*
X67927067Y-151171693D01*
X67934680Y-151234073D01*
X67942060Y-151301084D01*
X67948627Y-151367273D01*
X67953801Y-151427184D01*
X67957003Y-151475364D01*
X67957653Y-151506361D01*
X67956253Y-151514940D01*
X67941984Y-151513292D01*
X67905682Y-151504849D01*
X67850903Y-151490562D01*
X67781205Y-151471380D01*
X67700143Y-151448252D01*
X67633772Y-151428814D01*
X67535334Y-151399539D01*
X67456651Y-151375393D01*
X67391967Y-151353997D01*
X67335524Y-151332974D01*
X67281568Y-151309943D01*
X67224342Y-151282528D01*
X67158091Y-151248349D01*
X67077057Y-151205029D01*
X67027658Y-151178365D01*
X66936585Y-151128966D01*
X66863622Y-151088449D01*
X66803569Y-151053247D01*
X66751230Y-151019796D01*
X66701406Y-150984530D01*
X66648898Y-150943885D01*
X66588510Y-150894295D01*
X66515043Y-150832195D01*
X66482375Y-150804371D01*
X66402354Y-150735905D01*
X66338379Y-150680009D01*
X66286033Y-150632046D01*
X66240901Y-150587375D01*
X66198567Y-150541356D01*
X66154614Y-150489352D01*
X66104628Y-150426721D01*
X66044192Y-150348826D01*
X66024751Y-150323590D01*
X65961341Y-150240967D01*
X65910993Y-150174068D01*
X65870417Y-150117531D01*
X65836317Y-150065993D01*
X65805403Y-150014091D01*
X65774382Y-149956464D01*
X65739960Y-149887749D01*
X65698845Y-149802584D01*
X65677813Y-149758577D01*
X65534052Y-149457468D01*
X65379140Y-148814684D01*
X65371038Y-148467105D01*
X65362935Y-148119526D01*
X65422714Y-147804335D01*
X65422714Y-147804335D01*
G37*
X65422714Y-147804335D02*
X65482492Y-147489143D01*
X65609356Y-147182703D01*
X65649087Y-147087134D01*
X65681744Y-147010585D01*
X65710309Y-146947567D01*
X65737763Y-146892586D01*
X65767087Y-146840150D01*
X65801261Y-146784769D01*
X65843267Y-146720951D01*
X65896085Y-146643202D01*
X65925469Y-146600321D01*
X65984973Y-146513877D01*
X66033580Y-146444747D01*
X66075399Y-146388118D01*
X66114539Y-146339176D01*
X66155110Y-146293107D01*
X66201222Y-146245099D01*
X66256983Y-146190338D01*
X66326505Y-146124010D01*
X66355846Y-146096228D01*
X66432092Y-146024361D01*
X66494208Y-145967025D01*
X66547293Y-145920313D01*
X66596445Y-145880320D01*
X66646763Y-145843138D01*
X66703346Y-145804861D01*
X66771292Y-145761582D01*
X66855700Y-145709395D01*
X66880913Y-145693922D01*
X66968354Y-145640420D01*
X67038887Y-145598057D01*
X67097981Y-145564233D01*
X67151105Y-145536349D01*
X67203729Y-145511807D01*
X67261322Y-145488008D01*
X67329354Y-145462353D01*
X67413295Y-145432243D01*
X67484715Y-145407029D01*
X67579927Y-145374306D01*
X67674135Y-145343443D01*
X67762121Y-145316038D01*
X67838667Y-145293688D01*
X67898554Y-145277990D01*
X67924895Y-145272322D01*
X67982104Y-145261681D01*
X68032151Y-145252023D01*
X68067103Y-145244892D01*
X68075290Y-145243042D01*
X68088357Y-145240972D01*
X68097365Y-145244256D01*
X68102292Y-145256139D01*
X68103115Y-145279864D01*
X68099814Y-145318676D01*
X68092365Y-145375818D01*
X68080748Y-145454534D01*
X68073540Y-145501880D01*
X68062785Y-145569847D01*
X68052923Y-145627791D01*
X68044833Y-145670859D01*
X68039395Y-145694199D01*
X68038191Y-145696901D01*
X68024007Y-145702045D01*
X67988015Y-145713383D01*
X67934107Y-145729739D01*
X67866174Y-145749936D01*
X67788108Y-145772798D01*
X67764474Y-145779658D01*
X67673218Y-145806405D01*
X67600221Y-145829009D01*
X67539005Y-145850141D01*
X67483092Y-145872473D01*
X67426004Y-145898673D01*
X67361263Y-145931413D01*
X67282390Y-145973363D01*
X67243106Y-145994579D01*
X67153971Y-146043308D01*
X67082399Y-146084101D01*
X67022156Y-146121214D01*
X66967009Y-146158904D01*
X66910726Y-146201429D01*
X66847074Y-146253043D01*
X66771011Y-146316995D01*
X66694154Y-146382767D01*
X66632752Y-146437323D01*
X66581533Y-146486188D01*
X66535225Y-146534887D01*
X66488558Y-146588944D01*
X66436258Y-146653884D01*
X66377808Y-146729064D01*
X66316611Y-146809116D01*
X66268208Y-146874784D01*
X66228635Y-146932496D01*
X66193926Y-146988679D01*
X66160116Y-147049758D01*
X66123240Y-147122162D01*
X66079333Y-147212318D01*
X66078191Y-147214688D01*
X66036091Y-147302683D01*
X66003465Y-147373324D01*
X65977954Y-147433232D01*
X65957196Y-147489028D01*
X65938830Y-147547333D01*
X65920495Y-147614767D01*
X65899830Y-147697950D01*
X65887278Y-147750051D01*
X65865310Y-147842282D01*
X65848680Y-147915475D01*
X65836497Y-147976273D01*
X65827869Y-148031317D01*
X65821906Y-148087249D01*
X65817715Y-148150710D01*
X65814405Y-148228342D01*
X65811477Y-148314752D01*
X65802079Y-148602597D01*
X65851718Y-148875746D01*
X65868900Y-148968780D01*
X65883752Y-149043241D01*
X65898229Y-149105814D01*
X65914287Y-149163182D01*
X65933881Y-149222030D01*
X65958967Y-149289041D01*
X65991501Y-149370902D01*
X66009863Y-149416263D01*
X66047123Y-149507217D01*
X66078275Y-149580064D01*
X66106672Y-149641048D01*
X66135665Y-149696414D01*
X66168609Y-149752408D01*
X66208856Y-149815275D01*
X66259758Y-149891260D01*
X66284080Y-149927059D01*
X66341496Y-150010727D01*
X66388986Y-150077559D01*
X66431252Y-150133100D01*
X66472995Y-150182895D01*
X66518917Y-150232490D01*
X66573720Y-150287428D01*
X66642104Y-150353257D01*
X66659290Y-150369611D01*
X66733086Y-150439165D01*
X66793861Y-150494449D01*
X66847560Y-150540036D01*
X66900131Y-150580497D01*
X66957519Y-150620407D01*
X67025673Y-150664337D01*
X67110537Y-150716861D01*
X67112129Y-150717837D01*
X67196146Y-150768932D01*
X67264313Y-150808948D01*
X67323169Y-150840988D01*
X67379252Y-150868158D01*
X67439101Y-150893563D01*
X67509253Y-150920308D01*
X67596246Y-150951498D01*
X67626814Y-150962258D01*
X67707330Y-150990794D01*
X67779329Y-151016788D01*
X67838972Y-151038816D01*
X67882419Y-151055453D01*
X67905833Y-151065274D01*
X67908626Y-151066872D01*
X67913460Y-151082639D01*
X67919801Y-151119397D01*
X67927067Y-151171693D01*
X67934680Y-151234073D01*
X67942060Y-151301084D01*
X67948627Y-151367273D01*
X67953801Y-151427184D01*
X67957003Y-151475364D01*
X67957653Y-151506361D01*
X67956253Y-151514940D01*
X67941984Y-151513292D01*
X67905682Y-151504849D01*
X67850903Y-151490562D01*
X67781205Y-151471380D01*
X67700143Y-151448252D01*
X67633772Y-151428814D01*
X67535334Y-151399539D01*
X67456651Y-151375393D01*
X67391967Y-151353997D01*
X67335524Y-151332974D01*
X67281568Y-151309943D01*
X67224342Y-151282528D01*
X67158091Y-151248349D01*
X67077057Y-151205029D01*
X67027658Y-151178365D01*
X66936585Y-151128966D01*
X66863622Y-151088449D01*
X66803569Y-151053247D01*
X66751230Y-151019796D01*
X66701406Y-150984530D01*
X66648898Y-150943885D01*
X66588510Y-150894295D01*
X66515043Y-150832195D01*
X66482375Y-150804371D01*
X66402354Y-150735905D01*
X66338379Y-150680009D01*
X66286033Y-150632046D01*
X66240901Y-150587375D01*
X66198567Y-150541356D01*
X66154614Y-150489352D01*
X66104628Y-150426721D01*
X66044192Y-150348826D01*
X66024751Y-150323590D01*
X65961341Y-150240967D01*
X65910993Y-150174068D01*
X65870417Y-150117531D01*
X65836317Y-150065993D01*
X65805403Y-150014091D01*
X65774382Y-149956464D01*
X65739960Y-149887749D01*
X65698845Y-149802584D01*
X65677813Y-149758577D01*
X65534052Y-149457468D01*
X65379140Y-148814684D01*
X65371038Y-148467105D01*
X65362935Y-148119526D01*
X65422714Y-147804335D01*
D13*
X327016251Y-130410592D03*
X320666251Y-132950592D03*
X178263110Y-140531133D03*
X171523777Y-141695389D03*
X196896822Y-144491851D03*
X190157489Y-145656107D03*
X113445000Y-92310592D03*
X107095000Y-94850592D03*
X239020529Y-160584101D03*
X233337387Y-164388836D03*
X119495000Y-130410592D03*
X113145000Y-132950592D03*
X224812169Y-105175660D03*
X219129027Y-108980395D03*
X140995686Y-132609698D03*
X134256353Y-133773954D03*
X257654240Y-156623383D03*
X251971098Y-160428118D03*
X195045494Y-163573927D03*
X188306161Y-164738183D03*
X264641882Y-155138114D03*
X258958740Y-158942849D03*
X197374708Y-164069017D03*
X190635375Y-165233273D03*
X134945687Y-92369698D03*
X128206354Y-93533954D03*
X243445881Y-101214942D03*
X237762739Y-105019677D03*
X92713751Y-111360593D03*
X86363751Y-113900593D03*
X190846822Y-104251852D03*
X184107489Y-105416108D03*
X232032887Y-162069370D03*
X226349745Y-165874105D03*
X167094922Y-157632849D03*
X160355589Y-158797105D03*
X169424136Y-158127939D03*
X162684803Y-159292195D03*
X336541251Y-130410592D03*
X330191251Y-132950592D03*
X93301251Y-130410592D03*
X86951251Y-132950592D03*
X135645685Y-111999699D03*
X128906352Y-113163955D03*
X172213110Y-100291134D03*
X165473777Y-101455390D03*
X71375002Y-90170593D03*
X65025002Y-92710593D03*
X67305000Y-109220593D03*
X60955000Y-111760593D03*
X302325001Y-91250593D03*
X295975001Y-93790593D03*
X280713305Y-93293507D03*
X275030163Y-97098242D03*
X246705881Y-139474941D03*
X241022739Y-143279676D03*
X265339592Y-135514223D03*
X259656450Y-139318958D03*
X289333304Y-110943507D03*
X283650162Y-114748242D03*
X270699593Y-114904224D03*
X265016451Y-118708959D03*
X252065881Y-118864942D03*
X246382739Y-122669677D03*
X262079593Y-97254224D03*
X256396451Y-101058959D03*
X233432169Y-122825658D03*
X227749027Y-126630393D03*
X191546822Y-123881850D03*
X184807489Y-125046106D03*
X348447501Y-130410592D03*
X342097501Y-132950592D03*
X172913110Y-119921134D03*
X166173777Y-121085390D03*
X94395001Y-92310593D03*
X88045001Y-94850593D03*
X337138751Y-111360593D03*
X330788751Y-113900593D03*
X153579398Y-96330416D03*
X146840065Y-97494672D03*
X340005001Y-92310593D03*
X333655001Y-94850593D03*
X154279398Y-115960416D03*
X147540065Y-117124672D03*
X340004500Y-149460591D03*
X333654500Y-152000591D03*
X90920001Y-149460592D03*
X84570001Y-152000592D03*
X159629398Y-136570415D03*
X152890065Y-137734671D03*
X320955001Y-92310592D03*
X314605001Y-94850592D03*
X228072169Y-143435659D03*
X222389027Y-147240394D03*
X288783305Y-151543505D03*
X283100163Y-155348240D03*
X136185687Y-152599698D03*
X129446354Y-153763954D03*
X114145001Y-111360593D03*
X107795001Y-113900593D03*
X310945001Y-111360593D03*
X304595001Y-113900593D03*
X283973305Y-131553505D03*
X278290163Y-135358240D03*
X305585001Y-130410592D03*
X299235001Y-132950592D03*
D14*
X214315000Y-94860000D03*
X214315000Y-97400000D03*
X216855000Y-94860000D03*
X216855000Y-97400000D03*
X219395000Y-94860000D03*
X219395000Y-97400000D03*
X221935000Y-94860000D03*
X221935000Y-97400000D03*
X224475000Y-94860000D03*
D15*
X224475000Y-97400000D03*
D16*
X214320000Y-82600000D03*
X205680000Y-82600000D03*
D17*
X214320000Y-86780000D03*
X205680000Y-86780000D03*
D18*
X213225000Y-89400000D03*
X210000000Y-93250000D03*
X205550000Y-90450000D03*
X209275041Y-102424959D03*
X200400000Y-114300000D03*
X202100000Y-109400000D03*
X204400000Y-152800000D03*
X204400000Y-173349999D03*
X208100000Y-113600000D03*
X215000000Y-113600000D03*
X200200000Y-133200000D03*
X219300000Y-129525000D03*
X212450000Y-90250000D03*
X207549992Y-90250000D03*
X218375000Y-135025002D03*
X209500000Y-94099996D03*
X211250000Y-95800006D03*
X212812500Y-139550000D03*
X201800000Y-126100000D03*
X205612500Y-111050000D03*
X206000000Y-139550000D03*
X215900000Y-136462500D03*
X218499999Y-126400000D03*
X216500000Y-105400000D03*
X215650000Y-128450000D03*
X210800000Y-142687500D03*
X203400000Y-91000000D03*
X208400000Y-89200000D03*
X211750000Y-89200000D03*
X201400000Y-91000000D03*
D19*
X210424264Y-93250000D02*
X210000000Y-93250000D01*
X211550000Y-93250000D02*
X210424264Y-93250000D01*
X213225000Y-89400000D02*
X213225000Y-91575000D01*
X213225000Y-91575000D02*
X211550000Y-93250000D01*
X208350000Y-93250000D02*
X205550000Y-90450000D01*
X210000000Y-93250000D02*
X208350000Y-93250000D01*
X209290041Y-102424959D02*
X209275041Y-102424959D01*
X214315000Y-97400000D02*
X209290041Y-102424959D01*
X200400000Y-114300000D02*
X200400000Y-111100000D01*
X200400000Y-111100000D02*
X202100000Y-109400000D01*
D19*
X204400000Y-152800000D02*
X204400000Y-173349999D01*
X208100000Y-113600000D02*
X215000000Y-113600000D01*
X218875736Y-129525000D02*
X219300000Y-129525000D01*
X203875000Y-129525000D02*
X218875736Y-129525000D01*
X200200000Y-133200000D02*
X203875000Y-129525000D01*
X196879618Y-163573927D02*
X197374708Y-164069017D01*
D19*
X212450000Y-90250000D02*
X207549992Y-90250000D01*
D20*
X265016451Y-117117969D02*
X265016451Y-118708959D01*
X265016451Y-111269949D02*
X265016451Y-117117969D01*
X257550000Y-103803498D02*
X265016451Y-111269949D01*
X257550000Y-102500000D02*
X257550000Y-103803498D01*
X256396451Y-101058959D02*
X256396451Y-101346451D01*
X256396451Y-101346451D02*
X257550000Y-102500000D01*
X259656450Y-137727968D02*
X259656450Y-139318958D01*
X266200000Y-131184418D02*
X259656450Y-137727968D01*
X265016451Y-118708959D02*
X266200000Y-119892508D01*
X266200000Y-119892508D02*
X266200000Y-131184418D01*
X253456367Y-158942849D02*
X258958740Y-158942849D01*
X251971098Y-160428118D02*
X253456367Y-158942849D01*
X251971098Y-154278902D02*
X251971098Y-160428118D01*
X260950000Y-145300000D02*
X251971098Y-154278902D01*
X259656450Y-139318958D02*
X260950000Y-140612508D01*
X260950000Y-140612508D02*
X260950000Y-145300000D01*
X296650000Y-105955592D02*
X304595001Y-113900593D01*
X295975001Y-93790593D02*
X296650000Y-94465592D01*
X296650000Y-94465592D02*
X296650000Y-105955592D01*
X305250000Y-126935593D02*
X299235001Y-132950592D01*
X304595001Y-113900593D02*
X305250000Y-114555592D01*
X305250000Y-114555592D02*
X305250000Y-126935593D01*
X87488750Y-112775594D02*
X86363751Y-113900593D01*
X88650000Y-111614344D02*
X87488750Y-112775594D01*
X88045001Y-94850593D02*
X88650000Y-95455592D01*
X88650000Y-95455592D02*
X88650000Y-111614344D01*
X87000000Y-132901843D02*
X86951251Y-132950592D01*
X86363751Y-113900593D02*
X87000000Y-114536842D01*
X87000000Y-114536842D02*
X87000000Y-132901843D01*
X87600000Y-148970593D02*
X84570001Y-152000592D01*
X86951251Y-132950592D02*
X87600000Y-133599341D01*
X87600000Y-133599341D02*
X87600000Y-148970593D01*
X107700000Y-113805592D02*
X107795001Y-113900593D01*
X107095000Y-94850592D02*
X107700000Y-95455592D01*
X107700000Y-95455592D02*
X107700000Y-113805592D01*
X108550000Y-114655592D02*
X107795001Y-113900593D01*
X113145000Y-132950592D02*
X108550000Y-128355592D01*
X108550000Y-128355592D02*
X108550000Y-114655592D01*
X190140285Y-164738183D02*
X190635375Y-165233273D01*
X188306161Y-164738183D02*
X190140285Y-164738183D01*
X190300000Y-145798618D02*
X190157489Y-145656107D01*
X190635375Y-165233273D02*
X190300000Y-164897898D01*
X190300000Y-164897898D02*
X190300000Y-145798618D01*
X184950000Y-140448618D02*
X190157489Y-145656107D01*
X184807489Y-125046106D02*
X184950000Y-125188617D01*
X184950000Y-125188617D02*
X184950000Y-140448618D01*
X184250000Y-124488617D02*
X184807489Y-125046106D01*
X184107489Y-105416108D02*
X184250000Y-105558619D01*
X184250000Y-105558619D02*
X184250000Y-124488617D01*
X147000000Y-116584607D02*
X147540065Y-117124672D01*
X146840065Y-97494672D02*
X147000000Y-97654607D01*
X147000000Y-97654607D02*
X147000000Y-116584607D01*
X147700000Y-132544606D02*
X152890065Y-137734671D01*
X147540065Y-117124672D02*
X147700000Y-117284607D01*
X147700000Y-117284607D02*
X147700000Y-132544606D01*
X65600000Y-107115593D02*
X60955000Y-111760593D01*
X65025002Y-92710593D02*
X65600000Y-93285591D01*
X65600000Y-93285591D02*
X65600000Y-107115593D01*
X128400000Y-112657603D02*
X128906352Y-113163955D01*
X128206354Y-93533954D02*
X128400000Y-93727600D01*
X128400000Y-93727600D02*
X128400000Y-112657603D01*
X129050000Y-128567601D02*
X134256353Y-133773954D01*
X128906352Y-113163955D02*
X129050000Y-113307603D01*
X129050000Y-113307603D02*
X129050000Y-128567601D01*
X134400000Y-148810308D02*
X129446354Y-153763954D01*
X134256353Y-133773954D02*
X134400000Y-133917601D01*
X134400000Y-133917601D02*
X134400000Y-148810308D01*
X162189713Y-158797105D02*
X162684803Y-159292195D01*
X160355589Y-158797105D02*
X162189713Y-158797105D01*
X165650000Y-120561613D02*
X166173777Y-121085390D01*
X165473777Y-101455390D02*
X165650000Y-101631613D01*
X165650000Y-101631613D02*
X165650000Y-120561613D01*
X170398778Y-140570390D02*
X171523777Y-141695389D01*
X166350000Y-136521612D02*
X170398778Y-140570390D01*
X166173777Y-121085390D02*
X166350000Y-121261613D01*
X166350000Y-121261613D02*
X166350000Y-136521612D01*
X171700000Y-150276998D02*
X162684803Y-159292195D01*
X171523777Y-141695389D02*
X171700000Y-141871612D01*
X171700000Y-141871612D02*
X171700000Y-150276998D01*
X245257740Y-121544678D02*
X246382739Y-122669677D01*
X238887738Y-115174676D02*
X245257740Y-121544678D01*
X238887738Y-106144676D02*
X238887738Y-115174676D01*
X237762739Y-105019677D02*
X238887738Y-106144676D01*
X241022739Y-138727261D02*
X241022739Y-143279676D01*
X247550000Y-132200000D02*
X241022739Y-138727261D01*
X246382739Y-122669677D02*
X247550000Y-123836938D01*
X247550000Y-123836938D02*
X247550000Y-132200000D01*
X223600000Y-163124360D02*
X226349745Y-165874105D01*
X222389027Y-147240394D02*
X223600000Y-148451367D01*
X223600000Y-148451367D02*
X223600000Y-163124360D01*
X222389027Y-145649404D02*
X222389027Y-147240394D01*
X228874026Y-139164405D02*
X222389027Y-145649404D01*
X228874026Y-127755392D02*
X228874026Y-139164405D01*
X227749027Y-126630393D02*
X228874026Y-127755392D01*
X218674999Y-134725003D02*
X218375000Y-135025002D01*
X227749027Y-126630393D02*
X226769609Y-126630393D01*
X226769609Y-126630393D02*
X218674999Y-134725003D01*
X231746397Y-164388836D02*
X233337387Y-164388836D01*
X226349745Y-165874105D02*
X227835014Y-164388836D01*
X227835014Y-164388836D02*
X231746397Y-164388836D01*
X227749027Y-125039403D02*
X227749027Y-126630393D01*
X227749027Y-119279391D02*
X227749027Y-125039403D01*
X220350000Y-111880364D02*
X227749027Y-119279391D01*
X219129027Y-108980395D02*
X220350000Y-110201368D01*
X220350000Y-110201368D02*
X220350000Y-111880364D01*
X211200010Y-95800006D02*
X211250000Y-95800006D01*
X209500000Y-94099996D02*
X211200010Y-95800006D01*
D19*
X205612500Y-122287500D02*
X201800000Y-126100000D01*
X205612500Y-111050000D02*
X205612500Y-122287500D01*
X206000000Y-139550000D02*
X212812500Y-139550000D01*
X212812500Y-139550000D02*
X215900000Y-136462500D01*
X203550000Y-139550000D02*
X206000000Y-139550000D01*
X199400000Y-135400000D02*
X203550000Y-139550000D01*
X201800000Y-126100000D02*
X199400000Y-128500000D01*
X199400000Y-128500000D02*
X199400000Y-135400000D01*
X220218702Y-132143798D02*
X220218702Y-128118703D01*
X218799998Y-126699999D02*
X218499999Y-126400000D01*
X215900000Y-136462500D02*
X220218702Y-132143798D01*
X220218702Y-128118703D02*
X218799998Y-126699999D01*
X224475000Y-97425000D02*
X224475000Y-97400000D01*
X216500000Y-105400000D02*
X224475000Y-97425000D01*
D20*
X225500000Y-93300000D02*
X226400000Y-94200000D01*
X221935000Y-94860000D02*
X223495000Y-93300000D01*
X215650000Y-128025736D02*
X215650000Y-128450000D01*
X215650000Y-109150000D02*
X215650000Y-128025736D01*
X226400000Y-98400000D02*
X215650000Y-109150000D01*
X223495000Y-93300000D02*
X225500000Y-93300000D01*
X226400000Y-94200000D02*
X226400000Y-98400000D01*
X213465001Y-95709999D02*
X214315000Y-94860000D01*
X198879290Y-110295710D02*
X213465001Y-95709999D01*
X198879290Y-135615685D02*
X198879290Y-110295710D01*
X205951105Y-142687500D02*
X198879290Y-135615685D01*
X210800000Y-142687500D02*
X205951105Y-142687500D01*
X168929046Y-157632849D02*
X169424136Y-158127939D01*
X278290163Y-131709837D02*
X278290163Y-135358240D01*
X284900000Y-125100000D02*
X278290163Y-131709837D01*
X283650162Y-114748242D02*
X284900000Y-115998080D01*
X284900000Y-115998080D02*
X284900000Y-125100000D01*
X283650162Y-113157252D02*
X283650162Y-114748242D01*
X283650162Y-107397237D02*
X283650162Y-113157252D01*
X276200000Y-99947075D02*
X283650162Y-107397237D01*
X276200000Y-98250000D02*
X276200000Y-99947075D01*
X275030163Y-97098242D02*
X275048242Y-97098242D01*
X275048242Y-97098242D02*
X276200000Y-98250000D01*
X279450000Y-151698077D02*
X283100163Y-155348240D01*
X278290163Y-135358240D02*
X279450000Y-136518077D01*
X279450000Y-136518077D02*
X279450000Y-151698077D01*
X342800000Y-133653091D02*
X342097501Y-132950592D01*
X333654500Y-152000591D02*
X342800000Y-142855091D01*
X342800000Y-142855091D02*
X342800000Y-133653091D01*
X331450000Y-122303091D02*
X342097501Y-132950592D01*
X330788751Y-113900593D02*
X331450000Y-114561842D01*
X331450000Y-114561842D02*
X331450000Y-122303091D01*
X334350000Y-110339344D02*
X330788751Y-113900593D01*
X333655001Y-94850593D02*
X334350000Y-95545592D01*
X334350000Y-95545592D02*
X334350000Y-110339344D01*
X319541252Y-131825593D02*
X320666251Y-132950592D01*
X315300000Y-127584341D02*
X319541252Y-131825593D01*
X314605001Y-94850592D02*
X315300000Y-95545591D01*
X315300000Y-95545591D02*
X315300000Y-127584341D01*
X320666251Y-132950592D02*
X330191251Y-132950592D01*
X205200000Y-89200000D02*
X208400000Y-89200000D01*
X203400000Y-91000000D02*
X205200000Y-89200000D01*
X211450001Y-88900001D02*
X211750000Y-89200000D01*
X211119799Y-88569799D02*
X211450001Y-88900001D01*
X203830201Y-88569799D02*
X211119799Y-88569799D01*
X201400000Y-91000000D02*
X203830201Y-88569799D01*
M02*
