M48
; DRILL file {KiCad (5.1.4)-1} date 2020/06/21 21:39:24
; FORMAT={-:-/ absolute / metric / decimal}
; #@! TF.CreationDate,2020-06-21T21:39:24+09:00
; #@! TF.GenerationSoftware,Kicad,Pcbnew,(5.1.4)-1
; #@! TF.FileFunction,Plated,1,2,PTH
FMAT,2
METRIC
T1C0.400
T2C0.600
T3C1.000
T4C1.470
%
G90
G05
T1
X200.2Y-133.2
X200.4Y-114.3
X201.4Y-91.0
X201.8Y-126.1
X202.1Y-109.4
X203.4Y-91.0
X204.4Y-152.8
X204.4Y-173.35
X205.55Y-90.45
X205.612Y-111.05
X206.0Y-139.55
X207.55Y-90.25
X208.1Y-113.6
X208.4Y-89.2
X209.275Y-102.425
X209.5Y-94.1
X210.0Y-93.25
X210.8Y-142.688
X211.25Y-95.8
X211.75Y-89.2
X212.45Y-90.25
X212.812Y-139.55
X213.225Y-89.4
X215.0Y-113.6
X215.65Y-128.45
X215.9Y-136.463
X216.5Y-105.4
X218.375Y-135.025
X218.5Y-126.4
X219.3Y-129.525
T3
X214.315Y-94.86
X214.315Y-97.4
X216.855Y-94.86
X216.855Y-97.4
X219.395Y-94.86
X219.395Y-97.4
X221.935Y-94.86
X221.935Y-97.4
X224.475Y-94.86
X224.475Y-97.4
T4
X86.364Y-113.901
X92.714Y-111.361
X65.025Y-92.711
X71.375Y-90.171
X134.256Y-133.774
X140.996Y-132.61
X259.656Y-139.319
X265.34Y-135.514
X330.789Y-113.901
X337.139Y-111.361
X88.045Y-94.851
X94.395Y-92.311
X107.095Y-94.851
X113.445Y-92.311
X283.1Y-155.348
X288.783Y-151.544
X171.524Y-141.695
X178.263Y-140.531
X107.795Y-113.901
X114.145Y-111.361
X190.635Y-165.233
X197.375Y-164.069
X84.57Y-152.001
X90.92Y-149.461
X333.654Y-152.001
X340.005Y-149.461
X251.971Y-160.428
X257.654Y-156.623
X283.65Y-114.748
X289.333Y-110.944
X165.474Y-101.455
X172.213Y-100.291
X160.356Y-158.797
X167.095Y-157.633
X237.763Y-105.02
X243.446Y-101.215
X278.29Y-135.358
X283.973Y-131.554
X330.191Y-132.951
X336.541Y-130.411
X233.337Y-164.389
X239.021Y-160.584
X86.951Y-132.951
X93.301Y-130.411
X320.666Y-132.951
X327.016Y-130.411
X227.749Y-126.63
X233.432Y-122.826
X128.906Y-113.164
X135.646Y-112.0
X314.605Y-94.851
X320.955Y-92.311
X258.959Y-158.943
X264.642Y-155.138
X265.016Y-118.709
X270.7Y-114.904
X147.54Y-117.125
X154.279Y-115.96
X275.03Y-97.098
X280.713Y-93.294
X299.235Y-132.951
X305.585Y-130.411
X246.383Y-122.67
X252.066Y-118.865
X184.107Y-105.416
X190.847Y-104.252
X295.975Y-93.791
X302.325Y-91.251
X219.129Y-108.98
X224.812Y-105.176
X128.206Y-93.534
X134.946Y-92.37
X166.174Y-121.085
X172.913Y-119.921
X184.807Y-125.046
X191.547Y-123.882
X146.84Y-97.495
X153.579Y-96.33
X113.145Y-132.951
X119.495Y-130.411
X129.446Y-153.764
X136.186Y-152.6
X256.396Y-101.059
X262.08Y-97.254
X342.098Y-132.951
X348.448Y-130.411
X60.955Y-111.761
X67.305Y-109.221
X190.157Y-145.656
X196.897Y-144.492
X226.35Y-165.874
X232.033Y-162.069
X304.595Y-113.901
X310.945Y-111.361
X152.89Y-137.735
X159.629Y-136.57
X241.023Y-143.28
X246.706Y-139.475
X333.655Y-94.851
X340.005Y-92.311
X162.685Y-159.292
X169.424Y-158.128
X222.389Y-147.24
X228.072Y-143.436
X188.306Y-164.738
X195.045Y-163.574
T2
G00X205.68Y-82.3
M15
G01X205.68Y-82.9
M16
G05
G00X205.68Y-86.23
M15
G01X205.68Y-87.33
M16
G05
G00X214.32Y-82.3
M15
G01X214.32Y-82.9
M16
G05
G00X214.32Y-86.23
M15
G01X214.32Y-87.33
M16
G05
T0
M30
