M48
; DRILL file {KiCad (5.1.4)-1} date 05/05/20 21:14:15
; FORMAT={-:-/ absolute / metric / decimal}
; #@! TF.CreationDate,2020-05-05T21:14:15+09:00
; #@! TF.GenerationSoftware,Kicad,Pcbnew,(5.1.4)-1
; #@! TF.FileFunction,NonPlated,1,2,NPTH
FMAT,2
METRIC
T1C0.650
T2C0.787
T3C1.750
T4C3.000
T5C3.048
T6C3.988
%
G90
G05
T1
X207.11Y-86.25
X212.89Y-86.25
T2
X65.725Y-85.704
X66.995Y-85.704
X68.265Y-85.704
X69.535Y-85.704
X70.805Y-85.704
X339.868Y-85.704
X341.137Y-85.704
X342.407Y-85.704
X343.678Y-85.704
X344.947Y-85.704
X256.46Y-85.704
X257.73Y-85.704
X259.0Y-85.704
X260.27Y-85.704
X261.54Y-85.704
X158.46Y-85.704
X159.73Y-85.704
X161.0Y-85.704
X162.27Y-85.704
X163.54Y-85.704
X329.868Y-163.787
X331.138Y-163.787
X332.408Y-163.787
X333.678Y-163.787
X334.948Y-163.787
X207.46Y-181.087
X208.73Y-181.087
X210.0Y-181.087
X211.27Y-181.087
X212.54Y-181.087
X147.068Y-169.623
X148.311Y-169.888
X149.553Y-170.152
X150.795Y-170.416
X152.037Y-170.68
X75.725Y-163.787
X76.995Y-163.787
X78.265Y-163.787
X79.535Y-163.787
X80.805Y-163.787
X273.608Y-169.414
X274.85Y-169.15
X276.092Y-168.886
X277.334Y-168.622
X278.577Y-168.358
T3
X319.396Y-135.491
X329.556Y-135.491
X277.576Y-138.107
X287.514Y-135.994
X258.245Y-161.691
X268.183Y-159.579
X145.77Y-119.345
X155.708Y-121.458
X258.942Y-142.067
X268.88Y-139.955
X163.703Y-103.676
X173.641Y-105.788
X164.403Y-123.306
X174.341Y-125.418
X303.325Y-116.441
X313.485Y-116.441
X332.385Y-97.391
X342.545Y-97.391
X221.675Y-149.989
X231.613Y-147.877
X111.875Y-135.491
X122.035Y-135.491
X106.525Y-116.441
X116.685Y-116.441
X169.753Y-143.916
X179.691Y-146.028
X182.337Y-107.637
X192.275Y-109.749
X245.669Y-125.418
X255.607Y-123.306
X282.936Y-117.497
X292.874Y-115.384
X160.914Y-161.513
X170.852Y-163.625
X127.136Y-115.384
X137.074Y-117.497
X59.685Y-114.301
X69.845Y-114.301
X294.705Y-96.331
X304.865Y-96.331
X340.828Y-135.491
X350.988Y-135.491
X227.035Y-129.379
X236.973Y-127.267
X105.825Y-97.391
X115.985Y-97.391
X264.302Y-121.458
X274.24Y-119.345
X329.519Y-116.441
X339.679Y-116.441
X86.775Y-97.391
X96.935Y-97.391
X188.387Y-147.877
X198.325Y-149.989
X132.486Y-135.994
X142.424Y-138.107
X237.049Y-107.768
X246.987Y-105.656
X188.865Y-167.454
X198.803Y-169.566
X332.385Y-154.541
X342.544Y-154.541
X218.415Y-111.729
X228.353Y-109.617
X83.3Y-154.541
X93.46Y-154.541
X85.681Y-135.491
X95.841Y-135.491
X240.309Y-146.028
X250.247Y-143.916
X313.335Y-97.391
X323.495Y-97.391
X183.037Y-127.267
X192.975Y-129.379
X127.676Y-155.984
X137.614Y-158.097
X63.755Y-95.251
X73.915Y-95.251
X151.12Y-139.955
X161.058Y-142.067
X255.682Y-103.808
X265.62Y-101.695
X282.386Y-158.097
X292.324Y-155.984
X126.436Y-95.754
X136.374Y-97.867
X297.965Y-135.491
X308.125Y-135.491
X85.094Y-116.441
X95.254Y-116.441
X274.316Y-99.847
X284.254Y-97.734
X232.623Y-167.137
X242.561Y-165.025
X145.07Y-99.715
X155.008Y-101.828
T4
X184.107Y-105.416
X190.847Y-104.252
X246.383Y-122.67
X252.066Y-118.865
X283.65Y-114.748
X289.333Y-110.944
X162.685Y-159.292
X169.424Y-158.128
X128.906Y-113.164
X135.646Y-112.0
X60.955Y-111.761
X67.305Y-109.221
X295.975Y-93.791
X302.325Y-91.251
X342.098Y-132.951
X348.448Y-130.411
X227.749Y-126.63
X233.432Y-122.826
X107.095Y-94.851
X113.445Y-92.311
X265.016Y-118.709
X270.7Y-114.904
X330.789Y-113.901
X337.139Y-111.361
X88.045Y-94.851
X94.395Y-92.311
X190.157Y-145.656
X196.897Y-144.492
X134.256Y-133.774
X140.996Y-132.61
X237.763Y-105.02
X243.446Y-101.215
X190.635Y-165.233
X197.375Y-164.069
X333.654Y-152.001
X340.005Y-149.461
X219.129Y-108.98
X224.812Y-105.176
X84.57Y-152.001
X90.92Y-149.461
X86.951Y-132.951
X93.301Y-130.411
X241.023Y-143.28
X246.706Y-139.475
X314.605Y-94.851
X320.955Y-92.311
X184.807Y-125.046
X191.547Y-123.882
X129.446Y-153.764
X136.186Y-152.6
X65.025Y-92.711
X71.375Y-90.171
X152.89Y-137.735
X159.629Y-136.57
X256.396Y-101.059
X262.08Y-97.254
X283.1Y-155.348
X288.783Y-151.544
X128.206Y-93.534
X134.946Y-92.37
X299.235Y-132.951
X305.585Y-130.411
X86.364Y-113.901
X92.714Y-111.361
X275.03Y-97.098
X280.713Y-93.294
X233.337Y-164.389
X239.021Y-160.584
X146.84Y-97.495
X153.579Y-96.33
X320.666Y-132.951
X327.016Y-130.411
X278.29Y-135.358
X283.973Y-131.554
X258.959Y-158.943
X264.642Y-155.138
X147.54Y-117.125
X154.279Y-115.96
X259.656Y-139.319
X265.34Y-135.514
X165.474Y-101.455
X172.213Y-100.291
X166.174Y-121.085
X172.913Y-119.921
X304.595Y-113.901
X310.945Y-111.361
X333.655Y-94.851
X340.005Y-92.311
X222.389Y-147.24
X228.072Y-143.436
X113.145Y-132.951
X119.495Y-130.411
X107.795Y-113.901
X114.145Y-111.361
X171.524Y-141.695
X178.263Y-140.531
T5
X152.754Y-166.919
X176.108Y-171.883
T6
X187.306Y-108.693
X250.638Y-124.362
X287.905Y-116.441
X155.923Y-152.012
X165.883Y-162.569
X179.277Y-156.976
X132.105Y-116.441
X64.765Y-114.301
X299.785Y-96.331
X345.908Y-135.491
X232.004Y-128.323
X110.905Y-97.391
X269.271Y-120.401
X334.599Y-116.441
X91.855Y-97.391
X193.356Y-148.933
X137.455Y-137.051
X242.018Y-106.712
X193.834Y-168.51
X337.464Y-154.541
X223.384Y-110.673
X88.38Y-154.541
X90.761Y-135.491
X245.278Y-144.972
X318.415Y-97.391
X188.006Y-128.323
X132.645Y-157.041
X68.835Y-95.251
X156.089Y-141.011
X260.651Y-102.751
X287.355Y-157.041
X131.405Y-96.811
X303.045Y-135.491
X90.174Y-116.441
X279.285Y-98.791
X237.592Y-166.081
X150.039Y-100.771
X324.476Y-135.491
X282.545Y-137.051
X263.214Y-160.635
X150.739Y-120.401
X263.911Y-141.011
X168.672Y-104.732
X169.372Y-124.362
X308.405Y-116.441
X337.465Y-97.391
X226.644Y-148.933
X116.955Y-135.491
X111.605Y-116.441
X174.722Y-144.972
T0
M30
