M48
; DRILL file {KiCad (5.1.4)-1} date 2020/06/21 22:00:18
; FORMAT={-:-/ absolute / metric / decimal}
; #@! TF.CreationDate,2020-06-21T22:00:18+09:00
; #@! TF.GenerationSoftware,Kicad,Pcbnew,(5.1.4)-1
; #@! TF.FileFunction,NonPlated,1,2,NPTH
FMAT,2
METRIC
T1C0.650
T2C0.787
T3C1.750
T4C3.048
T5C3.988
%
G90
G05
T1
X207.11Y-86.25
X212.89Y-86.25
T2
X329.417Y-163.787
X330.688Y-163.787
X331.957Y-163.787
X333.227Y-163.787
X334.498Y-163.787
X66.175Y-85.704
X67.445Y-85.704
X68.715Y-85.704
X69.985Y-85.704
X71.255Y-85.704
X207.46Y-177.087
X208.73Y-177.087
X210.0Y-177.087
X211.27Y-177.087
X212.54Y-177.087
X158.46Y-85.704
X159.73Y-85.704
X161.0Y-85.704
X162.27Y-85.704
X163.54Y-85.704
X147.349Y-169.623
X148.591Y-169.888
X149.833Y-170.152
X151.076Y-170.416
X152.318Y-170.68
X76.175Y-163.787
X77.445Y-163.787
X78.715Y-163.787
X79.985Y-163.787
X81.255Y-163.787
X339.418Y-85.704
X340.688Y-85.704
X341.958Y-85.704
X343.228Y-85.704
X344.498Y-85.704
X256.46Y-85.704
X257.73Y-85.704
X259.0Y-85.704
X260.27Y-85.704
X261.54Y-85.704
X273.355Y-169.414
X274.597Y-169.15
X275.839Y-168.886
X277.081Y-168.622
X278.324Y-168.358
T3
X232.623Y-167.137
X242.561Y-165.025
X186.536Y-166.959
X196.474Y-169.071
X332.385Y-154.541
X342.544Y-154.541
X218.415Y-111.729
X228.353Y-109.617
X106.525Y-116.441
X116.685Y-116.441
X277.576Y-138.107
X287.514Y-135.994
X188.865Y-167.454
X198.803Y-169.566
X328.921Y-135.491
X339.081Y-135.491
X86.775Y-97.391
X96.935Y-97.391
X274.316Y-99.847
X284.254Y-97.734
X332.385Y-97.391
X342.545Y-97.391
X163.703Y-103.676
X173.641Y-105.788
X282.386Y-158.097
X292.324Y-155.984
X158.585Y-161.018
X168.523Y-163.13
X183.037Y-127.267
X192.975Y-129.379
X225.636Y-168.623
X235.574Y-166.51
X282.936Y-117.497
X292.874Y-115.384
X132.486Y-135.994
X142.424Y-138.107
X111.875Y-135.491
X122.035Y-135.491
X145.07Y-99.715
X155.008Y-101.828
X258.245Y-161.691
X268.183Y-159.579
X255.682Y-103.808
X265.62Y-101.695
X85.094Y-116.441
X95.254Y-116.441
X329.519Y-116.441
X339.679Y-116.441
X237.049Y-107.768
X246.987Y-105.656
X303.325Y-116.441
X313.485Y-116.441
X319.396Y-135.491
X329.556Y-135.491
X240.309Y-146.028
X250.247Y-143.916
X83.3Y-154.541
X93.46Y-154.541
X264.302Y-121.458
X274.24Y-119.345
X151.12Y-139.955
X161.058Y-142.067
X85.681Y-135.491
X95.841Y-135.491
X145.77Y-119.345
X155.708Y-121.458
X59.685Y-114.301
X69.845Y-114.301
X294.705Y-96.331
X304.865Y-96.331
X251.257Y-163.177
X261.195Y-161.064
X313.335Y-97.391
X323.495Y-97.391
X164.403Y-123.306
X174.341Y-125.418
X126.436Y-95.754
X136.374Y-97.867
X160.914Y-161.513
X170.852Y-163.625
X227.035Y-129.379
X236.973Y-127.267
X105.825Y-97.391
X115.985Y-97.391
X63.755Y-95.251
X73.915Y-95.251
X340.828Y-135.491
X350.988Y-135.491
X297.965Y-135.491
X308.125Y-135.491
X169.753Y-143.916
X179.691Y-146.028
X258.942Y-142.067
X268.88Y-139.955
X221.675Y-149.989
X231.613Y-147.877
X245.669Y-125.418
X255.607Y-123.306
X127.676Y-155.984
X137.614Y-158.097
X127.136Y-115.384
X137.074Y-117.497
X182.337Y-107.637
X192.275Y-109.749
X188.387Y-147.877
X198.325Y-149.989
T4
X152.785Y-166.926
X176.077Y-171.877
X322.095Y-128.506
X345.908Y-128.506
T5
X237.592Y-166.081
X191.505Y-168.015
X337.464Y-154.541
X223.384Y-110.673
X111.605Y-116.441
X282.545Y-137.051
X193.834Y-168.51
X322.095Y-143.746
X334.001Y-135.491
X345.908Y-143.746
X91.855Y-97.391
X279.285Y-98.791
X337.465Y-97.391
X168.672Y-104.732
X287.355Y-157.041
X163.554Y-162.074
X188.006Y-128.323
X230.605Y-167.566
X287.905Y-116.441
X137.455Y-137.051
X116.955Y-135.491
X150.039Y-100.771
X263.214Y-160.635
X260.651Y-102.751
X90.174Y-116.441
X334.599Y-116.441
X242.018Y-106.712
X308.405Y-116.441
X324.476Y-135.491
X245.278Y-144.972
X88.38Y-154.541
X269.271Y-120.401
X156.089Y-141.011
X90.761Y-135.491
X150.739Y-120.401
X64.765Y-114.301
X299.785Y-96.331
X256.226Y-162.12
X318.415Y-97.391
X169.372Y-124.362
X131.405Y-96.811
X155.954Y-152.019
X165.883Y-162.569
X179.246Y-156.97
X232.004Y-128.323
X110.905Y-97.391
X68.835Y-95.251
X345.908Y-135.491
X303.045Y-135.491
X174.722Y-144.972
X263.911Y-141.011
X226.644Y-148.933
X250.638Y-124.362
X132.645Y-157.041
X132.105Y-116.441
X187.306Y-108.693
X193.356Y-148.933
T0
M30
