G04 #@! TF.GenerationSoftware,KiCad,Pcbnew,(5.1.4)-1*
G04 #@! TF.CreationDate,2020-05-06T12:55:02+09:00*
G04 #@! TF.ProjectId,Vision,56697369-6f6e-42e6-9b69-6361645f7063,rev?*
G04 #@! TF.SameCoordinates,Original*
G04 #@! TF.FileFunction,Profile,NP*
%FSLAX46Y46*%
G04 Gerber Fmt 4.6, Leading zero omitted, Abs format (unit mm)*
G04 Created by KiCad (PCBNEW (5.1.4)-1) date 2020-05-06 12:55:02*
%MOMM*%
%LPD*%
G04 APERTURE LIST*
%ADD10C,0.200000*%
G04 APERTURE END LIST*
D10*
X107265001Y-179340880D02*
G75*
G02X105265001Y-177340880I0J2000000D01*
G01*
X286997120Y-85450000D02*
X297561159Y-85450000D01*
X145604027Y-169507353D02*
G75*
G02X146396115Y-170485501I-207912J-978148D01*
G01*
X82265001Y-172340880D02*
X103265002Y-172340880D01*
X286033658Y-86182153D02*
G75*
G02X278518658Y-86182153I-3757500J1044603D01*
G01*
X262000000Y-79000000D02*
X262000000Y-84450000D01*
X313685131Y-157540591D02*
G75*
G03X313685131Y-157540591I-1100000J0D01*
G01*
X302853842Y-85450000D02*
X338407500Y-85450000D01*
X111297635Y-163918420D02*
G75*
G02X110818659Y-164040592I-478976J877828D01*
G01*
X286033659Y-86182153D02*
G75*
G02X286997120Y-85450000I963461J-267847D01*
G01*
X352407501Y-189340880D02*
G75*
G03X352407501Y-189340880I-2000000J0D01*
G01*
X116111342Y-164040592D02*
G75*
G02X115632366Y-163918420I0J1000000D01*
G01*
X146396115Y-178340880D02*
X146396115Y-170485501D01*
X119779830Y-164040592D02*
G75*
G02X119987742Y-164062444I1J-1000000D01*
G01*
X103130002Y-89140593D02*
G75*
G03X103130002Y-89140593I-1750000J0D01*
G01*
X211100000Y-174840880D02*
G75*
G03X211100000Y-174840880I-1100000J0D01*
G01*
X119779831Y-164040592D02*
X116111342Y-164040592D01*
X311140001Y-89095431D02*
G75*
G03X311140001Y-89095431I-1750000J0D01*
G01*
X251369161Y-96661951D02*
G75*
G03X251369161Y-96661951I-1750000J0D01*
G01*
X162820840Y-94681951D02*
G75*
G03X162820840Y-94681951I-1750000J0D01*
G01*
X107265001Y-179340880D02*
X145396115Y-179340880D01*
X338407500Y-78000000D02*
G75*
G02X339407500Y-79000000I0J-1000000D01*
G01*
X353507501Y-92037550D02*
G75*
G03X353507501Y-92037550I-1100000J0D01*
G01*
X339407500Y-84450000D02*
X339407500Y-79000000D01*
X251100000Y-88950000D02*
G75*
G03X251100000Y-88950000I-1100000J0D01*
G01*
X111984935Y-157540592D02*
G75*
G03X111984935Y-157540592I-1100000J0D01*
G01*
X297561159Y-85450000D02*
G75*
G02X298040135Y-85572172I0J-1000000D01*
G01*
X277555197Y-85450000D02*
G75*
G02X278518658Y-86182153I0J-1000000D01*
G01*
X111297634Y-163918420D02*
G75*
G02X115632366Y-163918420I2167366J-3972172D01*
G01*
X82265001Y-172340880D02*
G75*
G02X81265001Y-171340880I0J1000000D01*
G01*
X263000000Y-85450000D02*
X277555197Y-85450000D01*
X105265001Y-174340880D02*
X105265001Y-177340880D01*
X81265001Y-165040592D02*
X81265001Y-171340880D01*
X263000000Y-85450000D02*
G75*
G02X262000000Y-84450000I0J1000000D01*
G01*
X59365001Y-98037550D02*
G75*
G03X59365001Y-98037550I-1100000J0D01*
G01*
X103265002Y-172340881D02*
G75*
G02X105265001Y-174340880I0J-1999999D01*
G01*
X339407500Y-84450000D02*
G75*
G02X338407500Y-85450000I-1000000J0D01*
G01*
X338407500Y-78000000D02*
X263000000Y-78000000D01*
X62265002Y-189340880D02*
G75*
G03X62265002Y-189340880I-2000000J0D01*
G01*
X81265001Y-165040591D02*
G75*
G02X82265002Y-164040592I1000000J-1D01*
G01*
X146396115Y-178340880D02*
G75*
G02X145396115Y-179340880I-1000000J0D01*
G01*
X153265001Y-179340880D02*
X168265001Y-179340880D01*
X302374866Y-85572172D02*
G75*
G02X302853842Y-85450000I478976J-877828D01*
G01*
X145604027Y-169507353D02*
X119987742Y-164062444D01*
X171100000Y-88950000D02*
G75*
G03X171100000Y-88950000I-1100000J0D01*
G01*
X302374867Y-85572172D02*
G75*
G02X298040135Y-85572172I-2167366J3972172D01*
G01*
X262000000Y-79000000D02*
G75*
G02X263000000Y-78000000I1000000J0D01*
G01*
X110818659Y-164040592D02*
X82265002Y-164040592D01*
X273407501Y-178340880D02*
G75*
G02X272407501Y-179340880I-1000000J0D01*
G01*
X172265001Y-184340880D02*
G75*
G02X170265001Y-182340880I0J2000000D01*
G01*
X255407501Y-182340880D02*
G75*
G02X253407501Y-184340880I-2000000J0D01*
G01*
X213000000Y-182340880D02*
X213000000Y-183340880D01*
X215000000Y-81400000D02*
G75*
G02X216000000Y-82400000I0J-1000000D01*
G01*
X218618502Y-181340880D02*
X214000000Y-181340880D01*
X305407501Y-177340880D02*
X305407501Y-174340880D01*
X214000000Y-184340880D02*
G75*
G02X213000000Y-183340880I0J1000000D01*
G01*
X273407501Y-178340880D02*
X273407501Y-170952357D01*
X216000000Y-82400000D02*
X216000000Y-84450000D01*
X297180046Y-164527537D02*
G75*
G02X302374866Y-163918420I3027455J-3363054D01*
G01*
X255407501Y-181340880D02*
G75*
G02X257407501Y-179340880I2000000J0D01*
G01*
X302853842Y-164040592D02*
G75*
G02X302374866Y-163918420I0J1000001D01*
G01*
X279276386Y-169279774D02*
X279276386Y-178340880D01*
X164000000Y-79000000D02*
X164000000Y-84450000D01*
X329407501Y-171340880D02*
X329407501Y-165040591D01*
X204000000Y-82400000D02*
G75*
G02X205000000Y-81400000I1000000J0D01*
G01*
X152265001Y-172158084D02*
X152265001Y-178340880D01*
X305407501Y-177340880D02*
G75*
G02X303407501Y-179340880I-2000000J0D01*
G01*
X217000000Y-85450000D02*
G75*
G02X216000000Y-84450000I0J1000000D01*
G01*
X204000000Y-84450000D02*
X204000000Y-82400000D01*
X255000000Y-78000000D02*
G75*
G02X256000000Y-79000000I0J-1000000D01*
G01*
X170265001Y-181340880D02*
X170265001Y-182340880D01*
X62265001Y-73000000D02*
G75*
G03X62265001Y-73000000I-2000000J0D01*
G01*
X157000000Y-78000000D02*
G75*
G02X158000000Y-79000000I0J-1000000D01*
G01*
X206000000Y-181340880D02*
G75*
G02X207000000Y-182340880I0J-1000000D01*
G01*
X207000000Y-183340880D02*
G75*
G02X206000000Y-184340880I-1000000J0D01*
G01*
X153265001Y-179340880D02*
G75*
G02X152265001Y-178340880I0J1000000D01*
G01*
X152265001Y-172158085D02*
G75*
G02X153472912Y-171179936I1000000J1D01*
G01*
X201173587Y-181319028D02*
X153472912Y-171179936D01*
X328407501Y-164040591D02*
G75*
G02X329407501Y-165040591I0J-1000000D01*
G01*
X201381499Y-181340880D02*
G75*
G02X201173587Y-181319028I0J1000000D01*
G01*
X296718906Y-164762468D02*
X280068474Y-168301626D01*
X206000000Y-181340880D02*
X201381499Y-181340880D01*
X207000000Y-183340880D02*
X207000000Y-182340880D01*
X279276386Y-169279774D02*
G75*
G02X280068474Y-168301626I1000000J0D01*
G01*
X255000000Y-78000000D02*
X165000000Y-78000000D01*
X172265001Y-184340880D02*
X206000000Y-184340880D01*
X214000000Y-184340880D02*
X253407501Y-184340880D01*
X168265001Y-179340880D02*
G75*
G02X170265001Y-181340880I0J-2000000D01*
G01*
X255407501Y-182340880D02*
X255407501Y-181340880D01*
X256000000Y-84450000D02*
X256000000Y-79000000D01*
X213000000Y-182340880D02*
G75*
G02X214000000Y-181340880I1000000J0D01*
G01*
X218826414Y-181319028D02*
G75*
G02X218618502Y-181340880I-207912J978148D01*
G01*
X307407501Y-172340880D02*
X328407501Y-172340880D01*
X328407501Y-164040591D02*
X302853842Y-164040591D01*
X329407501Y-171340880D02*
G75*
G02X328407501Y-172340880I-1000000J0D01*
G01*
X257407501Y-179340880D02*
X272407501Y-179340880D01*
X305407501Y-174340880D02*
G75*
G02X307407501Y-172340880I2000000J0D01*
G01*
X280276386Y-179340880D02*
G75*
G02X279276386Y-178340880I0J1000000D01*
G01*
X204000000Y-84450000D02*
G75*
G02X203000000Y-85450000I-1000000J0D01*
G01*
X272199589Y-169974209D02*
X218826414Y-181319028D01*
X297180045Y-164527536D02*
G75*
G02X296718906Y-164762468I-669051J743216D01*
G01*
X352407500Y-73000000D02*
G75*
G03X352407500Y-73000000I-2000000J0D01*
G01*
X205000000Y-81400000D02*
X215000000Y-81400000D01*
X165000000Y-85450000D02*
G75*
G02X164000000Y-84450000I0J1000000D01*
G01*
X164000000Y-79000000D02*
G75*
G02X165000000Y-78000000I1000000J0D01*
G01*
X256000000Y-84450000D02*
G75*
G02X255000000Y-85450000I-1000000J0D01*
G01*
X165000000Y-85450000D02*
X203000000Y-85450000D01*
X217000000Y-85450000D02*
X255000000Y-85450000D01*
X272199589Y-169974209D02*
G75*
G02X273407501Y-170952357I207912J-978148D01*
G01*
X280276386Y-179340880D02*
X303407501Y-179340880D01*
X75265001Y-171340880D02*
X75265001Y-165040592D01*
X353407500Y-78000000D02*
X346407500Y-78000000D01*
X75265001Y-171340880D02*
G75*
G02X74265001Y-172340880I-1000000J0D01*
G01*
X335407501Y-165040591D02*
X335407501Y-171340880D01*
X345407500Y-79000000D02*
X345407500Y-84450000D01*
X355407501Y-174340880D02*
X355407501Y-192340880D01*
X55265002Y-174340880D02*
G75*
G02X57265002Y-172340880I2000000J0D01*
G01*
X353407501Y-194340880D02*
X57265002Y-194340880D01*
X355407501Y-192340880D02*
G75*
G02X353407501Y-194340880I-2000000J0D01*
G01*
X346407500Y-85450000D02*
G75*
G02X345407500Y-84450000I0J1000000D01*
G01*
X354499338Y-89021069D02*
G75*
G02X351100001Y-86182153I358163J3883519D01*
G01*
X355407501Y-163040591D02*
G75*
G02X354407501Y-164040591I-1000000J0D01*
G01*
X57265002Y-194340880D02*
G75*
G02X55265002Y-192340880I0J2000000D01*
G01*
X55265001Y-76000000D02*
X55265001Y-70000000D01*
X57265001Y-78000000D02*
G75*
G02X55265001Y-76000000I0J2000000D01*
G01*
X353407501Y-172340880D02*
G75*
G02X355407501Y-174340880I0J-2000000D01*
G01*
X355407501Y-90016843D02*
X355407501Y-163040591D01*
X55265001Y-90016842D02*
G75*
G02X56173165Y-89021069I1000000J-1D01*
G01*
X55265002Y-192340880D02*
X55265002Y-174340880D01*
X346407500Y-85450000D02*
X350136539Y-85450000D01*
X64265001Y-78000000D02*
X57265001Y-78000000D01*
X65265001Y-84450000D02*
X65265001Y-79000000D01*
X57265002Y-172340880D02*
X74265001Y-172340880D01*
X354407501Y-164040591D02*
X336407501Y-164040591D01*
X355407500Y-76000000D02*
G75*
G02X353407500Y-78000000I-2000000J0D01*
G01*
X64265001Y-78000000D02*
G75*
G02X65265001Y-79000000I0J-1000000D01*
G01*
X336407501Y-172340880D02*
G75*
G02X335407501Y-171340880I0J1000000D01*
G01*
X350136539Y-85449999D02*
G75*
G02X351100001Y-86182153I0J-1000001D01*
G01*
X354499338Y-89021069D02*
G75*
G02X355407501Y-90016843I-91837J-995774D01*
G01*
X65265001Y-84450000D02*
G75*
G02X64265001Y-85450000I-1000000J0D01*
G01*
X74265002Y-164040592D02*
X56265002Y-164040592D01*
X56265002Y-164040592D02*
G75*
G02X55265002Y-163040592I0J1000000D01*
G01*
X336407501Y-172340880D02*
X353407501Y-172340880D01*
X335407501Y-165040591D02*
G75*
G02X336407501Y-164040591I1000000J0D01*
G01*
X60535963Y-85450000D02*
X64265001Y-85450000D01*
X59572502Y-86182153D02*
G75*
G02X60535963Y-85450000I963461J-267847D01*
G01*
X345407500Y-79000000D02*
G75*
G02X346407500Y-78000000I1000000J0D01*
G01*
X59572501Y-86182152D02*
G75*
G02X56173165Y-89021069I-3757500J1044602D01*
G01*
X55265002Y-163040592D02*
X55265001Y-90016843D01*
X74265001Y-164040592D02*
G75*
G02X75265001Y-165040592I0J-1000000D01*
G01*
X55265001Y-70000000D02*
G75*
G02X57265001Y-68000000I2000000J0D01*
G01*
X158000000Y-84450000D02*
X158000000Y-79000000D01*
X158000000Y-84450000D02*
G75*
G02X157000000Y-85450000I-1000000J0D01*
G01*
X142444804Y-85450000D02*
X157000000Y-85450000D01*
X141481343Y-86182153D02*
G75*
G02X142444804Y-85450000I963461J-267847D01*
G01*
X57265001Y-68000000D02*
X353407500Y-68000000D01*
X353407500Y-68000000D02*
G75*
G02X355407500Y-70000000I0J-2000000D01*
G01*
X115632367Y-85572172D02*
G75*
G02X111297635Y-85572172I-2167367J3972172D01*
G01*
X72265001Y-85450000D02*
X110818659Y-85450000D01*
X157000000Y-78000000D02*
X72265001Y-78000000D01*
X72265001Y-85450000D02*
G75*
G02X71265001Y-84450000I0J1000000D01*
G01*
X110818659Y-85450000D02*
G75*
G02X111297635Y-85572172I0J-1000000D01*
G01*
X115632366Y-85572172D02*
G75*
G02X116111342Y-85450000I478976J-877828D01*
G01*
X355407500Y-70000000D02*
X355407500Y-76000000D01*
X141481343Y-86182153D02*
G75*
G02X133966343Y-86182153I-3757500J1044603D01*
G01*
X133002881Y-85449999D02*
G75*
G02X133966343Y-86182153I0J-1000001D01*
G01*
X71265001Y-79000000D02*
X71265001Y-84450000D01*
X71265001Y-79000000D02*
G75*
G02X72265001Y-78000000I1000000J0D01*
G01*
X116111342Y-85450000D02*
X133002881Y-85450000D01*
M02*
