M48
; DRILL file {KiCad (5.1.4)-1} date 2020/06/20 18:20:35
; FORMAT={-:-/ absolute / metric / decimal}
; #@! TF.CreationDate,2020-06-20T18:20:35+09:00
; #@! TF.GenerationSoftware,Kicad,Pcbnew,(5.1.4)-1
; #@! TF.FileFunction,Plated,1,2,PTH
FMAT,2
METRIC
T1C0.400
T2C0.600
T3C1.000
%
G90
G05
T1
X83.0Y-116.0
X83.7Y-135.2
X84.7Y-96.9
X103.8Y-96.9
X104.5Y-116.0
X109.9Y-135.2
X124.6Y-94.9
X125.2Y-114.7
X125.8Y-155.1
X130.7Y-135.4
X143.1Y-98.9
X143.7Y-118.7
X149.2Y-139.1
X159.2Y-160.7
X161.8Y-102.7
X162.4Y-122.7
X167.8Y-143.2
X180.4Y-106.8
X181.2Y-126.624
X186.4Y-147.1
X186.9Y-166.5
X200.2Y-133.2
X200.4Y-114.3
X201.4Y-91.0
X201.8Y-126.1
X202.1Y-109.4
X203.4Y-91.0
X204.4Y-152.8
X204.4Y-170.8
X205.55Y-90.45
X205.612Y-111.05
X206.0Y-139.55
X207.55Y-90.25
X208.1Y-113.6
X208.4Y-89.2
X209.275Y-102.425
X209.5Y-94.1
X210.0Y-93.25
X210.8Y-142.688
X211.25Y-95.8
X211.75Y-89.2
X212.45Y-90.25
X212.812Y-139.55
X213.225Y-89.4
X215.0Y-113.6
X215.65Y-128.45
X215.9Y-136.463
X216.3Y-112.0
X216.5Y-105.4
X218.375Y-135.025
X218.5Y-126.4
X219.3Y-129.525
X219.6Y-150.1
X225.0Y-129.5
X230.6Y-167.4
X234.9Y-107.8
X238.2Y-146.1
X243.6Y-125.5
X253.5Y-103.9
X256.2Y-161.8
X256.8Y-142.1
X262.2Y-121.4
X272.3Y-100.0
X275.4Y-138.1
X280.1Y-157.9
X280.9Y-117.4
X292.7Y-96.0
X295.9Y-135.2
X301.3Y-116.3
X311.3Y-97.0
X317.4Y-135.1
X327.5Y-115.9
X330.4Y-96.9
X330.4Y-154.0
X338.8Y-135.0
T3
X214.315Y-94.86
X214.315Y-97.4
X216.855Y-94.86
X216.855Y-97.4
X219.395Y-94.86
X219.395Y-97.4
X221.935Y-94.86
X221.935Y-97.4
X224.475Y-94.86
X224.475Y-97.4
T2
G00X205.68Y-82.3
M15
G01X205.68Y-82.9
M16
G05
G00X205.68Y-86.23
M15
G01X205.68Y-87.33
M16
G05
G00X214.32Y-82.3
M15
G01X214.32Y-82.9
M16
G05
G00X214.32Y-86.23
M15
G01X214.32Y-87.33
M16
G05
T0
M30
