G04 #@! TF.GenerationSoftware,KiCad,Pcbnew,(5.1.4)-1*
G04 #@! TF.CreationDate,2020-05-05T21:14:13+09:00*
G04 #@! TF.ProjectId,Vision,56697369-6f6e-42e6-9b69-6361645f7063,rev?*
G04 #@! TF.SameCoordinates,Original*
G04 #@! TF.FileFunction,Other,Fab,Top*
%FSLAX46Y46*%
G04 Gerber Fmt 4.6, Leading zero omitted, Abs format (unit mm)*
G04 Created by KiCad (PCBNEW (5.1.4)-1) date 2020-05-05 21:14:13*
%MOMM*%
%LPD*%
G04 APERTURE LIST*
%ADD10C,0.100000*%
%ADD11C,0.150000*%
%ADD12C,0.060000*%
%ADD13C,0.050000*%
G04 APERTURE END LIST*
D10*
X341907501Y-189340880D02*
G75*
G03X341907501Y-189340880I-1500000J0D01*
G01*
X76765001Y-73000000D02*
G75*
G03X76765001Y-73000000I-1500000J0D01*
G01*
X76390002Y-189340880D02*
G75*
G03X76390002Y-189340880I-1125000J0D01*
G01*
X341532500Y-73000000D02*
G75*
G03X341532500Y-73000000I-1125000J0D01*
G01*
D11*
X337717024Y-191555451D02*
X337383691Y-191555451D01*
X337383691Y-192079260D02*
X337383691Y-191079260D01*
X337859881Y-191079260D01*
X338240834Y-192079260D02*
X338240834Y-191079260D01*
X338717024Y-192079260D02*
X338717024Y-191079260D01*
X338955120Y-191079260D01*
X339097977Y-191126880D01*
X339193215Y-191222118D01*
X339240834Y-191317356D01*
X339288453Y-191507832D01*
X339288453Y-191650689D01*
X339240834Y-191841165D01*
X339193215Y-191936403D01*
X339097977Y-192031641D01*
X338955120Y-192079260D01*
X338717024Y-192079260D01*
X339717024Y-191079260D02*
X339717024Y-191888784D01*
X339764643Y-191984022D01*
X339812262Y-192031641D01*
X339907501Y-192079260D01*
X340097977Y-192079260D01*
X340193215Y-192031641D01*
X340240834Y-191984022D01*
X340288453Y-191888784D01*
X340288453Y-191079260D01*
X341336072Y-191984022D02*
X341288453Y-192031641D01*
X341145596Y-192079260D01*
X341050358Y-192079260D01*
X340907501Y-192031641D01*
X340812262Y-191936403D01*
X340764643Y-191841165D01*
X340717024Y-191650689D01*
X340717024Y-191507832D01*
X340764643Y-191317356D01*
X340812262Y-191222118D01*
X340907501Y-191126880D01*
X341050358Y-191079260D01*
X341145596Y-191079260D01*
X341288453Y-191126880D01*
X341336072Y-191174499D01*
X341764643Y-192079260D02*
X341764643Y-191079260D01*
X342193215Y-191793546D02*
X342669405Y-191793546D01*
X342097977Y-192079260D02*
X342431310Y-191079260D01*
X342764643Y-192079260D01*
X343574167Y-192079260D02*
X343097977Y-192079260D01*
X343097977Y-191079260D01*
D12*
X340102739Y-189521832D02*
X340102739Y-189121832D01*
X340102739Y-189312308D02*
X340331310Y-189312308D01*
X340331310Y-189521832D02*
X340331310Y-189121832D01*
X340693215Y-189121832D02*
X340617024Y-189121832D01*
X340578929Y-189140880D01*
X340559881Y-189159927D01*
X340521786Y-189217070D01*
X340502739Y-189293260D01*
X340502739Y-189445641D01*
X340521786Y-189483737D01*
X340540834Y-189502784D01*
X340578929Y-189521832D01*
X340655120Y-189521832D01*
X340693215Y-189502784D01*
X340712262Y-189483737D01*
X340731310Y-189445641D01*
X340731310Y-189350403D01*
X340712262Y-189312308D01*
X340693215Y-189293260D01*
X340655120Y-189274213D01*
X340578929Y-189274213D01*
X340540834Y-189293260D01*
X340521786Y-189312308D01*
X340502739Y-189350403D01*
D11*
X72574524Y-75214571D02*
X72241191Y-75214571D01*
X72241191Y-75738380D02*
X72241191Y-74738380D01*
X72717381Y-74738380D01*
X73098334Y-75738380D02*
X73098334Y-74738380D01*
X73574524Y-75738380D02*
X73574524Y-74738380D01*
X73812620Y-74738380D01*
X73955477Y-74786000D01*
X74050715Y-74881238D01*
X74098334Y-74976476D01*
X74145953Y-75166952D01*
X74145953Y-75309809D01*
X74098334Y-75500285D01*
X74050715Y-75595523D01*
X73955477Y-75690761D01*
X73812620Y-75738380D01*
X73574524Y-75738380D01*
X74574524Y-74738380D02*
X74574524Y-75547904D01*
X74622143Y-75643142D01*
X74669762Y-75690761D01*
X74765001Y-75738380D01*
X74955477Y-75738380D01*
X75050715Y-75690761D01*
X75098334Y-75643142D01*
X75145953Y-75547904D01*
X75145953Y-74738380D01*
X76193572Y-75643142D02*
X76145953Y-75690761D01*
X76003096Y-75738380D01*
X75907858Y-75738380D01*
X75765001Y-75690761D01*
X75669762Y-75595523D01*
X75622143Y-75500285D01*
X75574524Y-75309809D01*
X75574524Y-75166952D01*
X75622143Y-74976476D01*
X75669762Y-74881238D01*
X75765001Y-74786000D01*
X75907858Y-74738380D01*
X76003096Y-74738380D01*
X76145953Y-74786000D01*
X76193572Y-74833619D01*
X76622143Y-75738380D02*
X76622143Y-74738380D01*
X77050715Y-75452666D02*
X77526905Y-75452666D01*
X76955477Y-75738380D02*
X77288810Y-74738380D01*
X77622143Y-75738380D01*
X78431667Y-75738380D02*
X77955477Y-75738380D01*
X77955477Y-74738380D01*
D12*
X74960239Y-73180952D02*
X74960239Y-72780952D01*
X74960239Y-72971428D02*
X75188810Y-72971428D01*
X75188810Y-73180952D02*
X75188810Y-72780952D01*
X75569762Y-72780952D02*
X75379286Y-72780952D01*
X75360239Y-72971428D01*
X75379286Y-72952380D01*
X75417381Y-72933333D01*
X75512620Y-72933333D01*
X75550715Y-72952380D01*
X75569762Y-72971428D01*
X75588810Y-73009523D01*
X75588810Y-73104761D01*
X75569762Y-73142857D01*
X75550715Y-73161904D01*
X75512620Y-73180952D01*
X75417381Y-73180952D01*
X75379286Y-73161904D01*
X75360239Y-73142857D01*
D11*
X72574525Y-191301451D02*
X72241192Y-191301451D01*
X72241192Y-191825260D02*
X72241192Y-190825260D01*
X72717382Y-190825260D01*
X73098335Y-191825260D02*
X73098335Y-190825260D01*
X73574525Y-191825260D02*
X73574525Y-190825260D01*
X73812621Y-190825260D01*
X73955478Y-190872880D01*
X74050716Y-190968118D01*
X74098335Y-191063356D01*
X74145954Y-191253832D01*
X74145954Y-191396689D01*
X74098335Y-191587165D01*
X74050716Y-191682403D01*
X73955478Y-191777641D01*
X73812621Y-191825260D01*
X73574525Y-191825260D01*
X74574525Y-190825260D02*
X74574525Y-191634784D01*
X74622144Y-191730022D01*
X74669763Y-191777641D01*
X74765002Y-191825260D01*
X74955478Y-191825260D01*
X75050716Y-191777641D01*
X75098335Y-191730022D01*
X75145954Y-191634784D01*
X75145954Y-190825260D01*
X76193573Y-191730022D02*
X76145954Y-191777641D01*
X76003097Y-191825260D01*
X75907859Y-191825260D01*
X75765002Y-191777641D01*
X75669763Y-191682403D01*
X75622144Y-191587165D01*
X75574525Y-191396689D01*
X75574525Y-191253832D01*
X75622144Y-191063356D01*
X75669763Y-190968118D01*
X75765002Y-190872880D01*
X75907859Y-190825260D01*
X76003097Y-190825260D01*
X76145954Y-190872880D01*
X76193573Y-190920499D01*
X76622144Y-191825260D02*
X76622144Y-190825260D01*
X77050716Y-191539546D02*
X77526906Y-191539546D01*
X76955478Y-191825260D02*
X77288811Y-190825260D01*
X77622144Y-191825260D01*
X78431668Y-191825260D02*
X77955478Y-191825260D01*
X77955478Y-190825260D01*
D13*
X75036430Y-189476594D02*
X75036430Y-189176594D01*
X75036430Y-189319451D02*
X75207859Y-189319451D01*
X75207859Y-189476594D02*
X75207859Y-189176594D01*
X75479287Y-189276594D02*
X75479287Y-189476594D01*
X75407859Y-189162308D02*
X75336430Y-189376594D01*
X75522144Y-189376594D01*
D11*
X337717023Y-74960571D02*
X337383690Y-74960571D01*
X337383690Y-75484380D02*
X337383690Y-74484380D01*
X337859880Y-74484380D01*
X338240833Y-75484380D02*
X338240833Y-74484380D01*
X338717023Y-75484380D02*
X338717023Y-74484380D01*
X338955119Y-74484380D01*
X339097976Y-74532000D01*
X339193214Y-74627238D01*
X339240833Y-74722476D01*
X339288452Y-74912952D01*
X339288452Y-75055809D01*
X339240833Y-75246285D01*
X339193214Y-75341523D01*
X339097976Y-75436761D01*
X338955119Y-75484380D01*
X338717023Y-75484380D01*
X339717023Y-74484380D02*
X339717023Y-75293904D01*
X339764642Y-75389142D01*
X339812261Y-75436761D01*
X339907500Y-75484380D01*
X340097976Y-75484380D01*
X340193214Y-75436761D01*
X340240833Y-75389142D01*
X340288452Y-75293904D01*
X340288452Y-74484380D01*
X341336071Y-75389142D02*
X341288452Y-75436761D01*
X341145595Y-75484380D01*
X341050357Y-75484380D01*
X340907500Y-75436761D01*
X340812261Y-75341523D01*
X340764642Y-75246285D01*
X340717023Y-75055809D01*
X340717023Y-74912952D01*
X340764642Y-74722476D01*
X340812261Y-74627238D01*
X340907500Y-74532000D01*
X341050357Y-74484380D01*
X341145595Y-74484380D01*
X341288452Y-74532000D01*
X341336071Y-74579619D01*
X341764642Y-75484380D02*
X341764642Y-74484380D01*
X342193214Y-75198666D02*
X342669404Y-75198666D01*
X342097976Y-75484380D02*
X342431309Y-74484380D01*
X342764642Y-75484380D01*
X343574166Y-75484380D02*
X343097976Y-75484380D01*
X343097976Y-74484380D01*
D13*
X340178928Y-73135714D02*
X340178928Y-72835714D01*
X340178928Y-72978571D02*
X340350357Y-72978571D01*
X340350357Y-73135714D02*
X340350357Y-72835714D01*
X340464642Y-72835714D02*
X340650357Y-72835714D01*
X340550357Y-72950000D01*
X340593214Y-72950000D01*
X340621785Y-72964285D01*
X340636071Y-72978571D01*
X340650357Y-73007142D01*
X340650357Y-73078571D01*
X340636071Y-73107142D01*
X340621785Y-73121428D01*
X340593214Y-73135714D01*
X340507500Y-73135714D01*
X340478928Y-73121428D01*
X340464642Y-73107142D01*
M02*
