G04 #@! TF.GenerationSoftware,KiCad,Pcbnew,(6.0.11-0)*
G04 #@! TF.CreationDate,2023-07-09T18:52:30+09:00*
G04 #@! TF.ProjectId,Vision,56697369-6f6e-42e6-9b69-6361645f7063,rev?*
G04 #@! TF.SameCoordinates,Original*
G04 #@! TF.FileFunction,Profile,NP*
%FSLAX46Y46*%
G04 Gerber Fmt 4.6, Leading zero omitted, Abs format (unit mm)*
G04 Created by KiCad (PCBNEW (6.0.11-0)) date 2023-07-09 18:52:30*
%MOMM*%
%LPD*%
G01*
G04 APERTURE LIST*
G04 #@! TA.AperFunction,Profile*
%ADD10C,0.200000*%
G04 #@! TD*
G04 APERTURE END LIST*
D10*
X190251949Y-86215637D02*
G75*
G03*
X189279812Y-85450000I-972149J-234363D01*
G01*
X230720189Y-85449990D02*
G75*
G03*
X229748041Y-86215634I11J-1000010D01*
G01*
X57715001Y-170040601D02*
G75*
G03*
X55715001Y-172040592I-1J-1999999D01*
G01*
X354957508Y-172040592D02*
G75*
G03*
X352957500Y-170040592I-2000008J-8D01*
G01*
X237437022Y-177340880D02*
X214000000Y-177340880D01*
X82715001Y-170040592D02*
X103715001Y-170040592D01*
X65715001Y-84450000D02*
X65715001Y-78999999D01*
X214000000Y-177340900D02*
G75*
G03*
X213000000Y-178340880I0J-1000000D01*
G01*
X164000001Y-84450000D02*
G75*
G03*
X165000000Y-85449999I999999J0D01*
G01*
X344957500Y-84450000D02*
G75*
G03*
X345957503Y-85450000I1000000J0D01*
G01*
X146054027Y-169603004D02*
X119987742Y-164062444D01*
X279618467Y-168397244D02*
G75*
G03*
X278826387Y-169375424I207933J-978156D01*
G01*
X230720189Y-85450000D02*
X255000000Y-85450000D01*
X256957500Y-177040600D02*
G75*
G03*
X254957500Y-179040592I0J-2000000D01*
G01*
X311139999Y-89095431D02*
G75*
G03*
X311139999Y-89095431I-1749999J0D01*
G01*
X302801243Y-85450020D02*
G75*
G03*
X302329653Y-85568182I-43J-999980D01*
G01*
X353957500Y-164040591D02*
X335957500Y-164040591D01*
X165000000Y-78000000D02*
G75*
G03*
X164000000Y-79000000I0J-1000000D01*
G01*
X81715008Y-169040591D02*
G75*
G03*
X82715001Y-170040592I999992J-9D01*
G01*
X200167874Y-85449975D02*
G75*
G03*
X199195726Y-86215634I26J-1000025D01*
G01*
X205000000Y-81400000D02*
G75*
G03*
X204000000Y-82400000I0J-1000000D01*
G01*
X278826408Y-176040592D02*
G75*
G03*
X279826386Y-177040592I999992J-8D01*
G01*
X277804276Y-86215634D02*
G75*
G03*
X286748042Y-86215634I4471883J1078084D01*
G01*
X298085357Y-85568163D02*
G75*
G03*
X297613758Y-85449999I-471557J-881837D01*
G01*
X107715000Y-177040593D02*
X145846115Y-177040592D01*
X256000000Y-79000000D02*
G75*
G03*
X255000000Y-78000000I-1000000J0D01*
G01*
X57715001Y-170040592D02*
X74715001Y-170040592D01*
X306957500Y-170040592D02*
X327957500Y-170040592D01*
X111984935Y-157540592D02*
G75*
G03*
X111984935Y-157540592I-1100000J0D01*
G01*
X55715001Y-76000000D02*
X55715001Y-70000000D01*
X302801243Y-85450000D02*
X337957501Y-85450000D01*
X351957503Y-73000000D02*
G75*
G03*
X351957503Y-73000000I-2000001J0D01*
G01*
X158000000Y-79000000D02*
G75*
G03*
X157000000Y-78000000I-1000000J0D01*
G01*
X152715008Y-176040592D02*
G75*
G03*
X153715000Y-177040592I999992J-8D01*
G01*
X256957500Y-177040592D02*
X271957500Y-177040592D01*
X278826386Y-169375424D02*
X278826386Y-176040592D01*
X62715001Y-73000000D02*
G75*
G03*
X62715001Y-73000000I-2000000J0D01*
G01*
X200167874Y-85450000D02*
X203000000Y-85450000D01*
X171100000Y-88950001D02*
G75*
G03*
X171100000Y-88950001I-1100000J0D01*
G01*
X57715001Y-68000001D02*
G75*
G03*
X55715001Y-70000000I-1J-1999999D01*
G01*
X354957500Y-172040592D02*
X354957500Y-190040592D01*
X170715008Y-179040592D02*
G75*
G03*
X168715000Y-177040592I-2000008J-8D01*
G01*
X71715000Y-84450000D02*
G75*
G03*
X72715001Y-85450000I1000000J0D01*
G01*
X152715000Y-172253734D02*
X152715000Y-176040592D01*
X115587144Y-163922427D02*
G75*
G03*
X116058743Y-164040592I471556J881827D01*
G01*
X277804250Y-86215640D02*
G75*
G03*
X276832127Y-85450000I-972150J-234360D01*
G01*
X105715000Y-172040592D02*
X105715000Y-175040592D01*
X214000000Y-182040592D02*
X252957500Y-182040592D01*
X354957498Y-90664755D02*
X354957500Y-163040591D01*
X328957509Y-165040591D02*
G75*
G03*
X327957500Y-164040591I-1000009J-9D01*
G01*
X207000000Y-181040592D02*
X207000000Y-178340880D01*
X255000000Y-85450000D02*
G75*
G03*
X256000000Y-84450000I0J1000000D01*
G01*
X254957500Y-180040592D02*
X254957500Y-179040592D01*
X304957501Y-175040592D02*
X304957500Y-172040592D01*
X252957500Y-182040600D02*
G75*
G03*
X254957500Y-180040592I0J2000000D01*
G01*
X287720189Y-85449991D02*
G75*
G03*
X286748042Y-86215634I11J-1000009D01*
G01*
X190251960Y-86215634D02*
G75*
G03*
X199195726Y-86215634I4471883J1078084D01*
G01*
X72715001Y-85450000D02*
X110871258Y-85450000D01*
X162820840Y-94681951D02*
G75*
G03*
X162820840Y-94681951I-1750000J0D01*
G01*
X146846054Y-170581152D02*
G75*
G03*
X146054027Y-169603003I-999954J52D01*
G01*
X334957500Y-165040591D02*
X334957500Y-169040592D01*
X256000000Y-84450000D02*
X256000000Y-79000000D01*
X306957500Y-170040600D02*
G75*
G03*
X304957500Y-172040592I0J-2000000D01*
G01*
X172715000Y-182040592D02*
X206000000Y-182040592D01*
X352507501Y-98037550D02*
G75*
G03*
X352507501Y-98037550I-1100000J0D01*
G01*
X353957500Y-164040600D02*
G75*
G03*
X354957500Y-163040591I0J1000000D01*
G01*
X313637200Y-157540591D02*
G75*
G03*
X313637200Y-157540591I-1100000J0D01*
G01*
X206000001Y-177340880D02*
X182562979Y-177340880D01*
X143167873Y-85450071D02*
G75*
G03*
X142195725Y-86215634I-73J-999929D01*
G01*
X216000000Y-84450000D02*
G75*
G03*
X217000000Y-85450000I1000000J0D01*
G01*
X110871258Y-164040592D02*
X82715001Y-164040592D01*
X298085348Y-85568181D02*
G75*
G03*
X302329653Y-85568181I2122153J3968182D01*
G01*
X157000000Y-78000000D02*
X72715001Y-78000000D01*
X271749589Y-170069860D02*
X237644934Y-177319028D01*
X56554287Y-89677754D02*
G75*
G03*
X60286883Y-86215633I-739287J4540204D01*
G01*
X352957500Y-192040600D02*
G75*
G03*
X354957500Y-190040592I0J2000000D01*
G01*
X111342847Y-85568182D02*
G75*
G03*
X115587153Y-85568182I2122153J3968182D01*
G01*
X216000000Y-82400001D02*
G75*
G03*
X215000000Y-81400000I-1000000J1D01*
G01*
X133251961Y-86215634D02*
G75*
G03*
X142195725Y-86215634I4471882J1078085D01*
G01*
X287720189Y-85450001D02*
X297613758Y-85450000D01*
X55715008Y-190040592D02*
G75*
G03*
X57715001Y-192040592I1999992J-8D01*
G01*
X345957503Y-85450000D02*
X349413469Y-85450000D01*
X146846115Y-176040592D02*
X146846115Y-170581152D01*
X61259033Y-85450000D02*
X64715001Y-85450000D01*
X337957501Y-85450001D02*
G75*
G03*
X338957501Y-84450000I-1J1000001D01*
G01*
X335957500Y-164040600D02*
G75*
G03*
X334957500Y-165040591I0J-1000000D01*
G01*
X143167873Y-85450000D02*
X157000000Y-85450000D01*
X110871258Y-164040573D02*
G75*
G03*
X111342848Y-163922410I42J999973D01*
G01*
X116058743Y-85450000D02*
X132279812Y-85450000D01*
X302957500Y-177040601D02*
G75*
G03*
X304957501Y-175040592I0J2000001D01*
G01*
X302329652Y-163922412D02*
G75*
G03*
X297223386Y-164522350I-2122152J-3968188D01*
G01*
X216000000Y-82400001D02*
X216000000Y-84450000D01*
X74715001Y-170040601D02*
G75*
G03*
X75715001Y-169040592I-1J1000001D01*
G01*
X55715001Y-190040592D02*
X55715001Y-172040592D01*
X56554294Y-89677799D02*
G75*
G03*
X55715001Y-90664755I160706J-987001D01*
G01*
X57715001Y-68000000D02*
X352957501Y-68000000D01*
X251100000Y-88950000D02*
G75*
G03*
X251100000Y-88950000I-1100000J0D01*
G01*
X72715001Y-78000001D02*
G75*
G03*
X71715001Y-79000000I-1J-999999D01*
G01*
X74715001Y-164040592D02*
X56715001Y-164040592D01*
X263000000Y-85450000D02*
X276832127Y-85450000D01*
X81715001Y-165040592D02*
X81715001Y-169040591D01*
X71715001Y-79000000D02*
X71715001Y-84450000D01*
X352957501Y-78000001D02*
G75*
G03*
X354957501Y-75999999I-1J2000001D01*
G01*
X103130002Y-89140593D02*
G75*
G03*
X103130002Y-89140593I-1750000J0D01*
G01*
X237437022Y-177340885D02*
G75*
G03*
X237644934Y-177319028I-22J999985D01*
G01*
X170715000Y-179040592D02*
X170715000Y-180040592D01*
X302329644Y-163922427D02*
G75*
G03*
X302801243Y-164040592I471556J881827D01*
G01*
X170715008Y-180040592D02*
G75*
G03*
X172715000Y-182040592I1999992J-8D01*
G01*
X55715001Y-163040592D02*
X55715001Y-90664755D01*
X133251949Y-86215637D02*
G75*
G03*
X132279812Y-85450000I-972149J-234363D01*
G01*
X220804324Y-86215622D02*
G75*
G03*
X219832127Y-85450000I-972224J-234478D01*
G01*
X111342841Y-85568195D02*
G75*
G03*
X110871258Y-85449999I-471541J-881505D01*
G01*
X205000000Y-81400000D02*
X215000000Y-81400000D01*
X164000000Y-79000000D02*
X164000000Y-84450000D01*
X337957501Y-78000000D02*
X263000000Y-78000000D01*
X115587153Y-163922410D02*
G75*
G03*
X111342847Y-163922410I-2122153J-3968184D01*
G01*
X338957501Y-84450000D02*
X338957501Y-79000000D01*
X352957500Y-192040592D02*
X57715001Y-192040592D01*
X64715001Y-78000000D02*
X57715001Y-78000000D01*
X119779831Y-164040592D02*
X116058743Y-164040592D01*
X153715000Y-177040592D02*
X168715000Y-177040592D01*
X271957500Y-177040600D02*
G75*
G03*
X272957500Y-176040592I0J1000000D01*
G01*
X251369161Y-96661951D02*
G75*
G03*
X251369161Y-96661951I-1750000J0D01*
G01*
X296768163Y-164752009D02*
G75*
G03*
X297223386Y-164522349I-207963J978209D01*
G01*
X55715008Y-163040592D02*
G75*
G03*
X56715001Y-164040592I999992J-8D01*
G01*
X335957500Y-170040592D02*
X352957500Y-170040592D01*
X213000000Y-178340880D02*
X213000000Y-181040593D01*
X354957530Y-90664755D02*
G75*
G03*
X354118214Y-89677754I-999930J55D01*
G01*
X55715000Y-76000000D02*
G75*
G03*
X57715001Y-78000000I2000000J0D01*
G01*
X64715001Y-85450001D02*
G75*
G03*
X65715001Y-84450000I-1J1000001D01*
G01*
X75715008Y-165040592D02*
G75*
G03*
X74715001Y-164040592I-1000008J-8D01*
G01*
X262000000Y-84450000D02*
G75*
G03*
X263000000Y-85450000I1000000J0D01*
G01*
X272957500Y-176040592D02*
X272957500Y-171048007D01*
X350385654Y-86215625D02*
G75*
G03*
X354118215Y-89677755I4471846J1078025D01*
G01*
X350385648Y-86215627D02*
G75*
G03*
X349413469Y-85449999I-972148J-234373D01*
G01*
X182355067Y-177319029D02*
G75*
G03*
X182562979Y-177340880I207933J978429D01*
G01*
X328957500Y-169040592D02*
X328957500Y-165040591D01*
X75715001Y-169040592D02*
X75715001Y-165040592D01*
X211100000Y-170840880D02*
G75*
G03*
X211100000Y-170840880I-1100000J0D01*
G01*
X158000000Y-84450000D02*
X158000000Y-79000000D01*
X272957494Y-171048007D02*
G75*
G03*
X271749588Y-170069859I-999994J7D01*
G01*
X217000000Y-85450000D02*
X219832127Y-85450000D01*
X105715007Y-172040592D02*
G75*
G03*
X103715001Y-170040593I-2000007J-8D01*
G01*
X157000000Y-85450000D02*
G75*
G03*
X158000000Y-84450000I0J1000000D01*
G01*
X65715000Y-78999999D02*
G75*
G03*
X64715001Y-78000000I-1000000J-1D01*
G01*
X296768161Y-164751998D02*
X279618474Y-168397277D01*
X327957500Y-170040600D02*
G75*
G03*
X328957500Y-169040592I0J1000000D01*
G01*
X145846115Y-177040615D02*
G75*
G03*
X146846115Y-176040592I-15J1000015D01*
G01*
X62715001Y-187040592D02*
G75*
G03*
X62715001Y-187040592I-2000000J0D01*
G01*
X354957500Y-70000000D02*
G75*
G03*
X352957501Y-68000000I-2000000J0D01*
G01*
X60365006Y-129037549D02*
G75*
G03*
X60365006Y-129037549I-1100002J0D01*
G01*
X119987743Y-164062438D02*
G75*
G03*
X119779829Y-164040592I-207943J-978762D01*
G01*
X182355067Y-177319027D02*
X153922912Y-171275587D01*
X203000000Y-85450000D02*
G75*
G03*
X204000000Y-84450000I0J1000000D01*
G01*
X116058743Y-85450009D02*
G75*
G03*
X115587153Y-85568183I57J-1000291D01*
G01*
X213000008Y-181040593D02*
G75*
G03*
X214000000Y-182040592I999992J-7D01*
G01*
X82715001Y-164040601D02*
G75*
G03*
X81715001Y-165040592I-1J-999999D01*
G01*
X165000000Y-85449999D02*
X189279812Y-85450000D01*
X153922919Y-171275554D02*
G75*
G03*
X152715000Y-172253734I-207919J-978146D01*
G01*
X344957501Y-79000000D02*
X344957501Y-84450000D01*
X345957501Y-78000001D02*
G75*
G03*
X344957501Y-79000000I-1J-999999D01*
G01*
X220804275Y-86215634D02*
G75*
G03*
X229748041Y-86215634I4471883J1078083D01*
G01*
X206000000Y-182040600D02*
G75*
G03*
X207000000Y-181040592I0J1000000D01*
G01*
X263000000Y-78000000D02*
G75*
G03*
X262000000Y-79000000I0J-1000000D01*
G01*
X105715007Y-175040592D02*
G75*
G03*
X107715000Y-177040593I1999993J-8D01*
G01*
X207000020Y-178340880D02*
G75*
G03*
X206000001Y-177340880I-1000020J-20D01*
G01*
X338957500Y-79000000D02*
G75*
G03*
X337957501Y-78000000I-1000000J0D01*
G01*
X61259033Y-85450033D02*
G75*
G03*
X60286885Y-86215634I-33J-999967D01*
G01*
X262000000Y-79000000D02*
X262000000Y-84450000D01*
X352957501Y-78000000D02*
X345957501Y-78000000D01*
X354957501Y-70000000D02*
X354957501Y-75999999D01*
X351957499Y-187040592D02*
G75*
G03*
X351957499Y-187040592I-1999999J0D01*
G01*
X255000000Y-78000000D02*
X165000000Y-78000000D01*
X327957500Y-164040591D02*
X302801243Y-164040591D01*
X279826386Y-177040592D02*
X302957500Y-177040592D01*
X334957508Y-169040592D02*
G75*
G03*
X335957500Y-170040592I999992J-8D01*
G01*
X204000000Y-84450000D02*
X204000000Y-82400000D01*
M02*
