M48
; DRILL file {KiCad (6.0.11-0)} date 2023 July 09, Sunday 04:06:16
; FORMAT={-:-/ absolute / metric / decimal}
; #@! TF.CreationDate,2023-07-09T04:06:16+09:00
; #@! TF.GenerationSoftware,Kicad,Pcbnew,(6.0.11-0)
; #@! TF.FileFunction,NonPlated,1,2,NPTH
FMAT,2
METRIC
; #@! TA.AperFunction,NonPlated,NPTH,ComponentDrill
T1C0.650
; #@! TA.AperFunction,NonPlated,NPTH,ComponentDrill
T2C0.787
; #@! TA.AperFunction,NonPlated,NPTH,ComponentDrill
T3C1.750
; #@! TA.AperFunction,NonPlated,NPTH,ComponentDrill
T4C3.048
; #@! TA.AperFunction,NonPlated,NPTH,ComponentDrill
T5C3.988
%
G90
G05
T1
X207.11Y-86.25
X212.89Y-86.25
T2
X66.175Y-85.704
X67.445Y-85.704
X68.715Y-85.704
X69.985Y-85.704
X71.255Y-85.704
X76.175Y-163.787
X77.445Y-163.787
X78.715Y-163.787
X79.985Y-163.787
X81.255Y-163.787
X147.349Y-169.623
X148.591Y-169.888
X149.833Y-170.152
X151.076Y-170.416
X152.318Y-170.68
X158.46Y-85.704
X159.73Y-85.704
X161.0Y-85.704
X162.27Y-85.704
X163.54Y-85.704
X207.46Y-177.087
X208.73Y-177.087
X210.0Y-177.087
X211.27Y-177.087
X212.54Y-177.087
X256.46Y-85.704
X257.73Y-85.704
X259.0Y-85.704
X260.27Y-85.704
X261.54Y-85.704
X273.355Y-169.414
X274.597Y-169.15
X275.839Y-168.886
X277.081Y-168.622
X278.324Y-168.358
X329.418Y-163.787
X330.688Y-163.787
X331.958Y-163.787
X333.228Y-163.787
X334.498Y-163.787
X339.418Y-85.704
X340.688Y-85.704
X341.958Y-85.704
X343.228Y-85.704
X344.498Y-85.704
T3
X59.685Y-114.301
X63.755Y-95.251
X69.845Y-114.301
X73.915Y-95.251
X83.3Y-154.541
X85.094Y-116.441
X85.681Y-135.491
X86.775Y-97.391
X93.46Y-154.541
X95.254Y-116.441
X95.841Y-135.491
X96.935Y-97.391
X105.825Y-97.391
X106.525Y-116.441
X111.875Y-135.491
X115.985Y-97.391
X116.685Y-116.441
X122.035Y-135.491
X126.436Y-95.754
X127.136Y-115.384
X127.676Y-155.984
X132.486Y-135.994
X136.374Y-97.867
X137.074Y-117.497
X137.614Y-158.097
X142.424Y-138.107
X145.07Y-99.715
X145.77Y-119.345
X151.12Y-139.955
X151.598Y-159.532
X155.008Y-101.828
X155.708Y-121.458
X161.058Y-142.067
X161.536Y-161.645
X163.703Y-103.676
X164.403Y-123.306
X169.753Y-143.916
X170.231Y-163.493
X173.641Y-105.788
X174.341Y-125.418
X179.548Y-165.473
X179.691Y-146.028
X180.169Y-165.605
X182.337Y-107.637
X183.037Y-127.267
X188.387Y-147.877
X189.486Y-167.586
X192.275Y-109.749
X192.975Y-129.379
X198.325Y-149.989
X218.415Y-111.729
X221.675Y-149.989
X227.035Y-129.379
X228.353Y-109.617
X231.613Y-147.877
X232.623Y-167.137
X236.973Y-127.267
X237.049Y-107.768
X240.309Y-146.028
X241.94Y-165.157
X242.561Y-165.025
X245.669Y-125.418
X246.987Y-105.656
X250.247Y-143.916
X251.878Y-163.045
X255.607Y-123.306
X255.682Y-103.808
X258.245Y-161.691
X258.942Y-142.067
X264.302Y-121.458
X265.62Y-101.695
X268.183Y-159.579
X268.88Y-139.955
X274.24Y-119.345
X274.316Y-99.847
X277.576Y-138.107
X282.386Y-158.097
X282.936Y-117.497
X284.254Y-97.734
X287.514Y-135.994
X292.324Y-155.984
X292.874Y-115.384
X294.58Y-96.331
X297.965Y-135.491
X303.325Y-116.441
X304.74Y-96.331
X308.125Y-135.491
X313.335Y-97.391
X313.485Y-116.441
X319.396Y-135.491
X322.86Y-97.391
X323.495Y-97.391
X328.921Y-135.491
X329.519Y-116.441
X329.556Y-135.491
X332.385Y-154.541
X332.385Y-97.391
X333.02Y-97.391
X339.081Y-135.491
X339.679Y-116.441
X340.828Y-135.491
X342.544Y-154.541
X342.545Y-97.391
X350.988Y-135.491
T4
X155.114Y-167.421
X171.419Y-170.886
X192.382Y-175.342
X194.711Y-175.837
X236.715Y-173.409
X260.007Y-168.458
X316.034Y-90.406
X322.095Y-128.506
X339.846Y-90.406
X345.908Y-128.506
T5
X64.765Y-114.301
X68.835Y-95.251
X88.38Y-154.541
X90.174Y-116.441
X90.761Y-135.491
X91.855Y-97.391
X110.905Y-97.391
X111.605Y-116.441
X116.955Y-135.491
X131.405Y-96.811
X132.105Y-116.441
X132.645Y-157.041
X137.455Y-137.051
X150.039Y-100.771
X150.739Y-120.401
X156.089Y-141.011
X156.567Y-160.588
X158.283Y-152.514
X168.672Y-104.732
X169.372Y-124.362
X174.587Y-155.979
X174.722Y-144.972
X175.2Y-164.549
X184.517Y-166.53
X187.306Y-108.693
X188.006Y-128.323
X193.356Y-148.933
X195.55Y-160.435
X197.88Y-160.93
X223.384Y-110.673
X226.644Y-148.933
X232.004Y-128.323
X233.547Y-158.502
X237.592Y-166.081
X242.018Y-106.712
X245.278Y-144.972
X246.909Y-164.101
X250.638Y-124.362
X256.839Y-153.551
X260.651Y-102.751
X263.214Y-160.635
X263.911Y-141.011
X269.271Y-120.401
X279.285Y-98.791
X282.545Y-137.051
X287.355Y-157.041
X287.905Y-116.441
X299.66Y-96.331
X303.045Y-135.491
X308.405Y-116.441
X316.034Y-105.646
X318.415Y-97.391
X322.095Y-143.746
X324.476Y-135.491
X327.94Y-97.391
X334.001Y-135.491
X334.599Y-116.441
X337.464Y-154.541
X337.465Y-97.391
X339.846Y-105.646
X345.908Y-135.491
X345.908Y-143.746
T0
M30
