%TF.GenerationSoftware,KiCad,Pcbnew,(6.0.10-0)*%
%TF.CreationDate,2023-02-13T03:51:17+09:00*%
%TF.ProjectId,Vision,56697369-6f6e-42e6-9b69-6361645f7063,rev?*%
%TF.SameCoordinates,Original*%
%TF.FileFunction,Paste,Bot*%
%TF.FilePolarity,Positive*%
%FSLAX46Y46*%
G04 Gerber Fmt 4.6, Leading zero omitted, Abs format (unit mm)*
G04 Created by KiCad (PCBNEW (6.0.10-0)) date 2023-02-13 03:51:17*
%MOMM*%
%LPD*%
G01*
G04 APERTURE LIST*
G04 Aperture macros list*
%AMRoundRect*
0 Rectangle with rounded corners*
0 $1 Rounding radius*
0 $2 $3 $4 $5 $6 $7 $8 $9 X,Y pos of 4 corners*
0 Add a 4 corners polygon primitive as box body*
4,1,4,$2,$3,$4,$5,$6,$7,$8,$9,$2,$3,0*
0 Add four circle primitives for the rounded corners*
1,1,$1+$1,$2,$3*
1,1,$1+$1,$4,$5*
1,1,$1+$1,$6,$7*
1,1,$1+$1,$8,$9*
0 Add four rect primitives between the rounded corners*
20,1,$1+$1,$2,$3,$4,$5,0*
20,1,$1+$1,$4,$5,$6,$7,0*
20,1,$1+$1,$6,$7,$8,$9,0*
20,1,$1+$1,$8,$9,$2,$3,0*%
%AMRotRect*
0 Rectangle, with rotation*
0 The origin of the aperture is its center*
0 $1 length*
0 $2 width*
0 $3 Rotation angle, in degrees counterclockwise*
0 Add horizontal line*
21,1,$1,$2,0,0,$3*%
G04 Aperture macros list end*
%ADD10R,1.200000X0.900000*%
%ADD11RotRect,0.900000X1.200000X78.000000*%
%ADD12RotRect,0.900000X1.200000X102.000000*%
%ADD13RoundRect,0.250000X0.625000X-0.375000X0.625000X0.375000X-0.625000X0.375000X-0.625000X-0.375000X0*%
%ADD14RoundRect,0.218750X0.218750X0.256250X-0.218750X0.256250X-0.218750X-0.256250X0.218750X-0.256250X0*%
%ADD15R,0.600000X1.450000*%
%ADD16R,0.300000X1.450000*%
%ADD17RoundRect,0.218750X-0.218750X-0.256250X0.218750X-0.256250X0.218750X0.256250X-0.218750X0.256250X0*%
%ADD18RoundRect,0.218750X-0.256250X0.218750X-0.256250X-0.218750X0.256250X-0.218750X0.256250X0.218750X0*%
%ADD19RoundRect,0.218750X0.256250X-0.218750X0.256250X0.218750X-0.256250X0.218750X-0.256250X-0.218750X0*%
%ADD20R,0.800000X0.900000*%
%ADD21RoundRect,0.050000X0.050000X-0.232500X0.050000X0.232500X-0.050000X0.232500X-0.050000X-0.232500X0*%
%ADD22RoundRect,0.100000X0.100000X-0.182500X0.100000X0.182500X-0.100000X0.182500X-0.100000X-0.182500X0*%
%ADD23R,1.100000X1.800000*%
%ADD24RoundRect,0.075000X0.075000X-0.662500X0.075000X0.662500X-0.075000X0.662500X-0.075000X-0.662500X0*%
%ADD25RoundRect,0.075000X0.662500X-0.075000X0.662500X0.075000X-0.662500X0.075000X-0.662500X-0.075000X0*%
G04 APERTURE END LIST*
D10*
%TO.C,D16*%
X98673751Y-119590592D03*
X98673751Y-116290592D03*
%TD*%
%TO.C,D17*%
X120105001Y-119590593D03*
X120105001Y-116290593D03*
%TD*%
D11*
%TO.C,D18*%
X139764333Y-121289006D03*
X140450441Y-118061118D03*
%TD*%
%TO.C,D19*%
X158398045Y-125249724D03*
X159084153Y-122021836D03*
%TD*%
%TO.C,D20*%
X177031756Y-129210442D03*
X177717864Y-125982554D03*
%TD*%
%TO.C,D21*%
X195665469Y-133171159D03*
X196351577Y-129943271D03*
%TD*%
D12*
%TO.C,D22*%
X240973041Y-129636661D03*
X240286933Y-126408773D03*
%TD*%
%TO.C,D23*%
X259606753Y-125675944D03*
X258920645Y-122448056D03*
%TD*%
%TO.C,D24*%
X278240465Y-121715226D03*
X277554357Y-118487338D03*
%TD*%
%TO.C,D25*%
X296874176Y-117754509D03*
X296188068Y-114526621D03*
%TD*%
D10*
%TO.C,D26*%
X316905001Y-119590592D03*
X316905001Y-116290592D03*
%TD*%
%TO.C,D27*%
X343098751Y-119590593D03*
X343098751Y-116290593D03*
%TD*%
D11*
%TO.C,D31*%
X163748045Y-145859723D03*
X164434153Y-142631835D03*
%TD*%
%TO.C,D32*%
X182381757Y-149820441D03*
X183067865Y-146592553D03*
%TD*%
%TO.C,D33*%
X201015469Y-153781159D03*
X201701577Y-150553271D03*
%TD*%
D12*
%TO.C,D34*%
X235613041Y-150246661D03*
X234926933Y-147018773D03*
%TD*%
%TO.C,D35*%
X254246753Y-146285943D03*
X253560645Y-143058055D03*
%TD*%
%TO.C,D36*%
X272880465Y-142325225D03*
X272194357Y-139097337D03*
%TD*%
%TO.C,D37*%
X291514177Y-138364507D03*
X290828069Y-135136619D03*
%TD*%
D10*
%TO.C,D38*%
X311545001Y-138640592D03*
X311545001Y-135340592D03*
%TD*%
%TO.C,D39*%
X332976251Y-144640592D03*
X332976251Y-141340592D03*
%TD*%
D11*
%TO.C,D42*%
X140304334Y-161889006D03*
X140990442Y-158661118D03*
%TD*%
D13*
%TO.C,F1*%
X206335002Y-96150593D03*
X206335002Y-93350593D03*
%TD*%
D14*
%TO.C,R1*%
X207122503Y-99250593D03*
X205547503Y-99250593D03*
%TD*%
D15*
%TO.C,USB1*%
X206775000Y-87695000D03*
X207550000Y-87695000D03*
D16*
X208250000Y-87695000D03*
X208750000Y-87695000D03*
X209250000Y-87695000D03*
X209750000Y-87695000D03*
X210250000Y-87695000D03*
X210750000Y-87695000D03*
X211250000Y-87695000D03*
X211750000Y-87695000D03*
D15*
X212450000Y-87695000D03*
X213225000Y-87695000D03*
%TD*%
D10*
%TO.C,D41*%
X96880001Y-157690592D03*
X96880001Y-154390592D03*
%TD*%
D17*
%TO.C,C1*%
X205547502Y-101250593D03*
X207122502Y-101250593D03*
%TD*%
D14*
%TO.C,C5*%
X209087500Y-144400000D03*
X207512500Y-144400000D03*
%TD*%
D17*
%TO.C,C10*%
X208212500Y-139500000D03*
X209787500Y-139500000D03*
%TD*%
D18*
%TO.C,C11*%
X201835002Y-127463093D03*
X201835002Y-129038093D03*
%TD*%
D19*
%TO.C,C12*%
X216200000Y-126387500D03*
X216200000Y-124812500D03*
%TD*%
D20*
%TO.C,Q1*%
X209250000Y-148800000D03*
X207350000Y-148800000D03*
X208300000Y-146800000D03*
%TD*%
D14*
%TO.C,R2*%
X207187500Y-109200000D03*
X205612500Y-109200000D03*
%TD*%
D21*
%TO.C,U3*%
X211000000Y-91456573D03*
X210500000Y-91456573D03*
D22*
X210000000Y-91456573D03*
D21*
X209500000Y-91456573D03*
X209000000Y-91456573D03*
X209000000Y-90621573D03*
X209500000Y-90621573D03*
D22*
X210000000Y-90621573D03*
D21*
X210500000Y-90621573D03*
X211000000Y-90621573D03*
%TD*%
D17*
%TO.C,C2*%
X205612500Y-107200000D03*
X207187500Y-107200000D03*
%TD*%
D14*
%TO.C,C4*%
X214387500Y-144400000D03*
X212812500Y-144400000D03*
%TD*%
D17*
%TO.C,C6*%
X208212500Y-137750000D03*
X209787500Y-137750000D03*
%TD*%
D18*
%TO.C,C7*%
X203835003Y-127463093D03*
X203835003Y-129038093D03*
%TD*%
D10*
%TO.C,D2*%
X100355001Y-100540593D03*
X100355001Y-97240593D03*
%TD*%
%TO.C,D3*%
X119405000Y-100540592D03*
X119405000Y-97240592D03*
%TD*%
D11*
%TO.C,D4*%
X139064334Y-101659006D03*
X139750442Y-98431118D03*
%TD*%
%TO.C,D5*%
X157698045Y-105619724D03*
X158384153Y-102391836D03*
%TD*%
%TO.C,D6*%
X176331757Y-109580442D03*
X177017865Y-106352554D03*
%TD*%
%TO.C,D7*%
X194965469Y-113541160D03*
X195651577Y-110313272D03*
%TD*%
D12*
%TO.C,D8*%
X232353041Y-111986662D03*
X231666933Y-108758774D03*
%TD*%
%TO.C,D9*%
X250986753Y-108025944D03*
X250300645Y-104798056D03*
%TD*%
%TO.C,D10*%
X269620465Y-104065227D03*
X268934357Y-100837339D03*
%TD*%
%TO.C,D11*%
X288254177Y-100104509D03*
X287568069Y-96876621D03*
%TD*%
D10*
%TO.C,D12*%
X308285001Y-99480593D03*
X308285001Y-96180593D03*
%TD*%
%TO.C,D13*%
X328000000Y-105600000D03*
X328000000Y-102300000D03*
%TD*%
%TO.C,D14*%
X345965001Y-100540593D03*
X345965001Y-97240593D03*
%TD*%
%TO.C,D15*%
X73265001Y-117450593D03*
X73265001Y-114150593D03*
%TD*%
%TO.C,D28*%
X99261251Y-138640592D03*
X99261251Y-135340592D03*
%TD*%
%TO.C,D29*%
X125455000Y-138640592D03*
X125455000Y-135340592D03*
%TD*%
D11*
%TO.C,D30*%
X145114333Y-141899007D03*
X145800441Y-138671119D03*
%TD*%
%TO.C,D43*%
X163456946Y-167213944D03*
X164143054Y-163986056D03*
%TD*%
D23*
%TO.C,SW1*%
X208050000Y-158500000D03*
X208050000Y-152300000D03*
X211750000Y-152300000D03*
X211750000Y-158500000D03*
%TD*%
D20*
%TO.C,U1*%
X207350000Y-105200000D03*
X205450000Y-105200000D03*
X206400000Y-103200000D03*
%TD*%
D19*
%TO.C,R4*%
X216600000Y-89787500D03*
X216600000Y-88212500D03*
%TD*%
D18*
%TO.C,R5*%
X201400000Y-88212500D03*
X201400000Y-89787500D03*
%TD*%
D17*
%TO.C,R6*%
X212812500Y-142500000D03*
X214387500Y-142500000D03*
%TD*%
D10*
%TO.C,D1*%
X77335002Y-98400593D03*
X77335002Y-95100593D03*
%TD*%
%TO.C,D49*%
X202335002Y-102600593D03*
X202335002Y-105900593D03*
%TD*%
D11*
%TO.C,D44*%
X201493355Y-173358325D03*
X202179463Y-170130437D03*
%TD*%
D12*
%TO.C,D46*%
X272182754Y-161949115D03*
X271496646Y-158721227D03*
%TD*%
%TO.C,D47*%
X296324177Y-158354507D03*
X295638069Y-155126619D03*
%TD*%
%TO.C,D45*%
X255491845Y-165496878D03*
X254805737Y-162268990D03*
%TD*%
D10*
%TO.C,D50*%
X202835002Y-96400592D03*
X202835002Y-93100592D03*
%TD*%
%TO.C,D48*%
X345964500Y-157690592D03*
X345964500Y-154390592D03*
%TD*%
D19*
%TO.C,C3*%
X218600000Y-89787500D03*
X218600000Y-88212500D03*
%TD*%
%TO.C,C8*%
X214400000Y-126387500D03*
X214400000Y-124812500D03*
%TD*%
D18*
%TO.C,R3*%
X203399999Y-88212500D03*
X203399999Y-89787500D03*
%TD*%
D17*
%TO.C,C13*%
X212812500Y-137600000D03*
X214387500Y-137600000D03*
%TD*%
D19*
%TO.C,C9*%
X216200000Y-135337500D03*
X216200000Y-133762500D03*
%TD*%
D10*
%TO.C,D40*%
X336000000Y-144640592D03*
X336000000Y-141340592D03*
%TD*%
D24*
%TO.C,U2*%
X212750001Y-135653613D03*
X212250001Y-135653613D03*
X211750001Y-135653613D03*
X211250001Y-135653613D03*
X210750001Y-135653613D03*
X210250001Y-135653613D03*
X209750001Y-135653613D03*
X209250001Y-135653613D03*
X208750001Y-135653613D03*
X208250001Y-135653613D03*
X207750001Y-135653613D03*
X207250001Y-135653613D03*
D25*
X205837501Y-134241113D03*
X205837501Y-133741113D03*
X205837501Y-133241113D03*
X205837501Y-132741113D03*
X205837501Y-132241113D03*
X205837501Y-131741113D03*
X205837501Y-131241113D03*
X205837501Y-130741113D03*
X205837501Y-130241113D03*
X205837501Y-129741113D03*
X205837501Y-129241113D03*
X205837501Y-128741113D03*
D24*
X207250001Y-127328613D03*
X207750001Y-127328613D03*
X208250001Y-127328613D03*
X208750001Y-127328613D03*
X209250001Y-127328613D03*
X209750001Y-127328613D03*
X210250001Y-127328613D03*
X210750001Y-127328613D03*
X211250001Y-127328613D03*
X211750001Y-127328613D03*
X212250001Y-127328613D03*
X212750001Y-127328613D03*
D25*
X214162501Y-128741113D03*
X214162501Y-129241113D03*
X214162501Y-129741113D03*
X214162501Y-130241113D03*
X214162501Y-130741113D03*
X214162501Y-131241113D03*
X214162501Y-131741113D03*
X214162501Y-132241113D03*
X214162501Y-132741113D03*
X214162501Y-133241113D03*
X214162501Y-133741113D03*
X214162501Y-134241113D03*
%TD*%
D10*
%TO.C,D51*%
X212800001Y-146250000D03*
X212800001Y-149550000D03*
%TD*%
M02*
