M48
; DRILL file {KiCad (6.0.11-0)} date 2023 July 09, Sunday 18:52:24
; FORMAT={-:-/ absolute / metric / decimal}
; #@! TF.CreationDate,2023-07-09T18:52:24+09:00
; #@! TF.GenerationSoftware,Kicad,Pcbnew,(6.0.11-0)
; #@! TF.FileFunction,Plated,1,2,PTH
FMAT,2
METRIC
; #@! TA.AperFunction,Plated,PTH,ViaDrill
T1C0.400
; #@! TA.AperFunction,Plated,PTH,ComponentDrill
T2C0.600
; #@! TA.AperFunction,Plated,PTH,ComponentDrill
T3C1.000
; #@! TA.AperFunction,Plated,PTH,ComponentDrill
T4C1.470
%
G90
G05
T1
X200.2Y-133.2
X200.4Y-114.3
X201.4Y-91.0
X201.8Y-126.1
X202.1Y-109.4
X203.4Y-91.0
X204.4Y-152.8
X204.4Y-173.35
X205.55Y-90.45
X205.612Y-111.05
X206.0Y-139.55
X207.55Y-90.25
X208.1Y-113.6
X208.4Y-89.2
X209.275Y-102.425
X209.5Y-94.1
X210.0Y-93.25
X210.8Y-142.688
X211.25Y-95.8
X211.75Y-89.2
X212.45Y-90.25
X212.812Y-139.55
X213.225Y-89.4
X215.0Y-113.6
X215.65Y-128.45
X215.9Y-136.463
X216.5Y-105.4
X218.375Y-135.025
X218.5Y-126.4
X219.3Y-129.525
T3
X214.315Y-94.86
X214.315Y-97.4
X216.855Y-94.86
X216.855Y-97.4
X219.395Y-94.86
X219.395Y-97.4
X221.935Y-94.86
X221.935Y-97.4
X224.475Y-94.86
X224.475Y-97.4
T4
X60.955Y-111.761
X65.025Y-92.711
X67.305Y-109.221
X71.375Y-90.171
X84.57Y-152.001
X86.364Y-113.901
X86.951Y-132.951
X88.045Y-94.851
X90.92Y-149.461
X92.714Y-111.361
X93.301Y-130.411
X94.395Y-92.311
X107.095Y-94.851
X107.795Y-113.901
X113.145Y-132.951
X113.445Y-92.311
X114.145Y-111.361
X119.495Y-130.411
X128.206Y-93.534
X128.906Y-113.164
X129.446Y-153.764
X134.256Y-133.774
X134.946Y-92.37
X135.646Y-112.0
X136.186Y-152.6
X140.996Y-132.61
X146.84Y-97.495
X147.54Y-117.125
X152.89Y-137.735
X153.368Y-157.312
X153.579Y-96.33
X154.279Y-115.96
X159.629Y-136.57
X160.107Y-156.148
X165.474Y-101.455
X166.174Y-121.085
X171.524Y-141.695
X172.002Y-161.273
X172.213Y-100.291
X172.913Y-119.921
X178.263Y-140.531
X178.741Y-160.108
X181.319Y-163.253
X184.107Y-105.416
X184.807Y-125.046
X188.058Y-162.089
X190.157Y-145.656
X190.847Y-104.252
X191.547Y-123.882
X196.897Y-144.492
X219.129Y-108.98
X222.389Y-147.24
X224.812Y-105.176
X227.749Y-126.63
X228.072Y-143.436
X233.337Y-164.389
X233.432Y-122.826
X237.763Y-105.02
X239.021Y-160.584
X241.023Y-143.28
X242.654Y-162.408
X243.446Y-101.215
X246.383Y-122.67
X246.706Y-139.475
X248.337Y-158.604
X252.066Y-118.865
X256.396Y-101.059
X258.959Y-158.943
X259.656Y-139.319
X262.08Y-97.254
X264.642Y-155.138
X265.016Y-118.709
X265.34Y-135.514
X270.7Y-114.904
X275.03Y-97.098
X278.29Y-135.358
X280.713Y-93.294
X283.1Y-155.348
X283.65Y-114.748
X283.973Y-131.554
X288.783Y-151.544
X289.333Y-110.944
X295.85Y-93.791
X299.235Y-132.951
X302.2Y-91.251
X304.595Y-113.901
X305.585Y-130.411
X310.945Y-111.361
X314.605Y-94.851
X320.666Y-132.951
X320.955Y-92.311
X324.13Y-94.851
X327.016Y-130.411
X330.191Y-132.951
X330.48Y-92.311
X330.789Y-113.901
X333.654Y-152.001
X333.655Y-94.851
X336.541Y-130.411
X337.139Y-111.361
X340.005Y-149.461
X340.005Y-92.311
X342.098Y-132.951
X348.448Y-130.411
T2
X205.68Y-82.25G85X205.68Y-82.85
G05
X205.68Y-86.18G85X205.68Y-87.28
G05
X214.32Y-82.25G85X214.32Y-82.85
G05
X214.32Y-86.18G85X214.32Y-87.28
G05
T0
M30
