%TF.GenerationSoftware,KiCad,Pcbnew,(6.0.10-0)*%
%TF.CreationDate,2023-02-13T03:51:17+09:00*%
%TF.ProjectId,Vision,56697369-6f6e-42e6-9b69-6361645f7063,rev?*%
%TF.SameCoordinates,Original*%
%TF.FileFunction,Legend,Bot*%
%TF.FilePolarity,Positive*%
%FSLAX46Y46*%
G04 Gerber Fmt 4.6, Leading zero omitted, Abs format (unit mm)*
G04 Created by KiCad (PCBNEW (6.0.10-0)) date 2023-02-13 03:51:17*
%MOMM*%
%LPD*%
G01*
G04 APERTURE LIST*
G04 Aperture macros list*
%AMRoundRect*
0 Rectangle with rounded corners*
0 $1 Rounding radius*
0 $2 $3 $4 $5 $6 $7 $8 $9 X,Y pos of 4 corners*
0 Add a 4 corners polygon primitive as box body*
4,1,4,$2,$3,$4,$5,$6,$7,$8,$9,$2,$3,0*
0 Add four circle primitives for the rounded corners*
1,1,$1+$1,$2,$3*
1,1,$1+$1,$4,$5*
1,1,$1+$1,$6,$7*
1,1,$1+$1,$8,$9*
0 Add four rect primitives between the rounded corners*
20,1,$1+$1,$2,$3,$4,$5,0*
20,1,$1+$1,$4,$5,$6,$7,0*
20,1,$1+$1,$6,$7,$8,$9,0*
20,1,$1+$1,$8,$9,$2,$3,0*%
G04 Aperture macros list end*
%ADD10C,0.150000*%
%ADD11C,0.160000*%
%ADD12C,0.200000*%
%ADD13C,0.120000*%
%ADD14C,0.400000*%
%ADD15C,4.387800*%
%ADD16C,3.448000*%
%ADD17C,2.150000*%
%ADD18C,2.650000*%
%ADD19C,1.187400*%
%ADD20RoundRect,0.200000X0.600000X-0.450000X0.600000X0.450000X-0.600000X0.450000X-0.600000X-0.450000X0*%
%ADD21RoundRect,0.200000X0.493328X-0.564913X0.680449X0.315419X-0.493328X0.564913X-0.680449X-0.315419X0*%
%ADD22RoundRect,0.200000X0.680449X-0.315419X0.493328X0.564913X-0.680449X0.315419X-0.493328X-0.564913X0*%
%ADD23RoundRect,0.450000X0.625000X-0.375000X0.625000X0.375000X-0.625000X0.375000X-0.625000X-0.375000X0*%
%ADD24RoundRect,0.418750X0.218750X0.256250X-0.218750X0.256250X-0.218750X-0.256250X0.218750X-0.256250X0*%
%ADD25C,1.050000*%
%ADD26RoundRect,0.200000X-0.300000X-0.725000X0.300000X-0.725000X0.300000X0.725000X-0.300000X0.725000X0*%
%ADD27RoundRect,0.200000X-0.150000X-0.725000X0.150000X-0.725000X0.150000X0.725000X-0.150000X0.725000X0*%
%ADD28O,1.400000X2.000000*%
%ADD29O,1.400000X2.500000*%
%ADD30RoundRect,0.418750X-0.218750X-0.256250X0.218750X-0.256250X0.218750X0.256250X-0.218750X0.256250X0*%
%ADD31RoundRect,0.418750X-0.256250X0.218750X-0.256250X-0.218750X0.256250X-0.218750X0.256250X0.218750X0*%
%ADD32RoundRect,0.418750X0.256250X-0.218750X0.256250X0.218750X-0.256250X0.218750X-0.256250X-0.218750X0*%
%ADD33RoundRect,0.200000X0.400000X-0.450000X0.400000X0.450000X-0.400000X0.450000X-0.400000X-0.450000X0*%
%ADD34RoundRect,0.250000X0.050000X-0.232500X0.050000X0.232500X-0.050000X0.232500X-0.050000X-0.232500X0*%
%ADD35RoundRect,0.300000X0.100000X-0.182500X0.100000X0.182500X-0.100000X0.182500X-0.100000X-0.182500X0*%
%ADD36RoundRect,0.200000X0.850000X-0.850000X0.850000X0.850000X-0.850000X0.850000X-0.850000X-0.850000X0*%
%ADD37O,2.100000X2.100000*%
%ADD38RoundRect,0.200000X-0.550000X0.900000X-0.550000X-0.900000X0.550000X-0.900000X0.550000X0.900000X0*%
%ADD39RoundRect,0.200000X-0.600000X0.450000X-0.600000X-0.450000X0.600000X-0.450000X0.600000X0.450000X0*%
%ADD40C,2.250000*%
%ADD41C,3.000000*%
%ADD42RoundRect,0.275000X0.075000X-0.662500X0.075000X0.662500X-0.075000X0.662500X-0.075000X-0.662500X0*%
%ADD43RoundRect,0.275000X0.662500X-0.075000X0.662500X0.075000X-0.662500X0.075000X-0.662500X-0.075000X0*%
G04 APERTURE END LIST*
D10*
X214550000Y-135600000D02*
G75*
G03*
X214550000Y-135600000I-300000J0D01*
G01*
D11*
X222509523Y-99300000D02*
X222585714Y-99261904D01*
X222700000Y-99261904D01*
X222814285Y-99300000D01*
X222890476Y-99376190D01*
X222928571Y-99452380D01*
X222966666Y-99604761D01*
X222966666Y-99719047D01*
X222928571Y-99871428D01*
X222890476Y-99947619D01*
X222814285Y-100023809D01*
X222700000Y-100061904D01*
X222623809Y-100061904D01*
X222509523Y-100023809D01*
X222471428Y-99985714D01*
X222471428Y-99719047D01*
X222623809Y-99719047D01*
X222128571Y-100061904D02*
X222128571Y-99261904D01*
X221671428Y-100061904D01*
X221671428Y-99261904D01*
X221290476Y-100061904D02*
X221290476Y-99261904D01*
X221100000Y-99261904D01*
X220985714Y-99300000D01*
X220909523Y-99376190D01*
X220871428Y-99452380D01*
X220833333Y-99604761D01*
X220833333Y-99719047D01*
X220871428Y-99871428D01*
X220909523Y-99947619D01*
X220985714Y-100023809D01*
X221100000Y-100061904D01*
X221290476Y-100061904D01*
X220009523Y-99300000D02*
X220085714Y-99261904D01*
X220200000Y-99261904D01*
X220314285Y-99300000D01*
X220390476Y-99376190D01*
X220428571Y-99452380D01*
X220466666Y-99604761D01*
X220466666Y-99719047D01*
X220428571Y-99871428D01*
X220390476Y-99947619D01*
X220314285Y-100023809D01*
X220200000Y-100061904D01*
X220123809Y-100061904D01*
X220009523Y-100023809D01*
X219971428Y-99985714D01*
X219971428Y-99719047D01*
X220123809Y-99719047D01*
X219628571Y-100061904D02*
X219628571Y-99261904D01*
X219171428Y-100061904D01*
X219171428Y-99261904D01*
X218790476Y-100061904D02*
X218790476Y-99261904D01*
X218600000Y-99261904D01*
X218485714Y-99300000D01*
X218409523Y-99376190D01*
X218371428Y-99452380D01*
X218333333Y-99604761D01*
X218333333Y-99719047D01*
X218371428Y-99871428D01*
X218409523Y-99947619D01*
X218485714Y-100023809D01*
X218600000Y-100061904D01*
X218790476Y-100061904D01*
X214909523Y-99299999D02*
X214985714Y-99261903D01*
X215100000Y-99261903D01*
X215214285Y-99299999D01*
X215290476Y-99376189D01*
X215328571Y-99452379D01*
X215366666Y-99604760D01*
X215366666Y-99719046D01*
X215328571Y-99871427D01*
X215290476Y-99947618D01*
X215214285Y-100023808D01*
X215100000Y-100061903D01*
X215023809Y-100061903D01*
X214909523Y-100023808D01*
X214871428Y-99985713D01*
X214871428Y-99719046D01*
X215023809Y-99719046D01*
X214528571Y-100061903D02*
X214528571Y-99261903D01*
X214071428Y-100061903D01*
X214071428Y-99261903D01*
X213690476Y-100061903D02*
X213690476Y-99261903D01*
X213500000Y-99261903D01*
X213385714Y-99299999D01*
X213309523Y-99376189D01*
X213271428Y-99452379D01*
X213233333Y-99604760D01*
X213233333Y-99719046D01*
X213271428Y-99871427D01*
X213309523Y-99947618D01*
X213385714Y-100023808D01*
X213500000Y-100061903D01*
X213690476Y-100061903D01*
X215614285Y-93061904D02*
X215614285Y-92261904D01*
X215157142Y-93061904D01*
X215157142Y-92261904D01*
X214319047Y-93061904D02*
X214585714Y-92680952D01*
X214776190Y-93061904D02*
X214776190Y-92261904D01*
X214471428Y-92261904D01*
X214395238Y-92300000D01*
X214357142Y-92338095D01*
X214319047Y-92414285D01*
X214319047Y-92528571D01*
X214357142Y-92604761D01*
X214395238Y-92642857D01*
X214471428Y-92680952D01*
X214776190Y-92680952D01*
X214014285Y-93023809D02*
X213900000Y-93061904D01*
X213709523Y-93061904D01*
X213633333Y-93023809D01*
X213595238Y-92985714D01*
X213557142Y-92909523D01*
X213557142Y-92833333D01*
X213595238Y-92757142D01*
X213633333Y-92719047D01*
X213709523Y-92680952D01*
X213861904Y-92642857D01*
X213938095Y-92604761D01*
X213976190Y-92566666D01*
X214014285Y-92490476D01*
X214014285Y-92414285D01*
X213976190Y-92338095D01*
X213938095Y-92300000D01*
X213861904Y-92261904D01*
X213671428Y-92261904D01*
X213557142Y-92300000D01*
X213328571Y-92261904D02*
X212871428Y-92261904D01*
X213100000Y-93061904D02*
X213100000Y-92261904D01*
X223109523Y-93023809D02*
X222995238Y-93061904D01*
X222804761Y-93061904D01*
X222728571Y-93023809D01*
X222690476Y-92985714D01*
X222652380Y-92909523D01*
X222652380Y-92833333D01*
X222690476Y-92757142D01*
X222728571Y-92719047D01*
X222804761Y-92680952D01*
X222957142Y-92642857D01*
X223033333Y-92604761D01*
X223071428Y-92566666D01*
X223109523Y-92490476D01*
X223109523Y-92414285D01*
X223071428Y-92338095D01*
X223033333Y-92300000D01*
X222957142Y-92261904D01*
X222766666Y-92261904D01*
X222652380Y-92300000D01*
X222385714Y-92261904D02*
X222195238Y-93061904D01*
X222042857Y-92490476D01*
X221890476Y-93061904D01*
X221700000Y-92261904D01*
X220938095Y-92985714D02*
X220976190Y-93023809D01*
X221090476Y-93061904D01*
X221166666Y-93061904D01*
X221280952Y-93023809D01*
X221357142Y-92947619D01*
X221395238Y-92871428D01*
X221433333Y-92719047D01*
X221433333Y-92604761D01*
X221395238Y-92452380D01*
X221357142Y-92376190D01*
X221280952Y-92300000D01*
X221166666Y-92261904D01*
X221090476Y-92261904D01*
X220976190Y-92300000D01*
X220938095Y-92338095D01*
X220214285Y-93061904D02*
X220595238Y-93061904D01*
X220595238Y-92261904D01*
X219947619Y-93061904D02*
X219947619Y-92261904D01*
X219490476Y-93061904D02*
X219833333Y-92604761D01*
X219490476Y-92261904D02*
X219947619Y-92719047D01*
X227095238Y-93023809D02*
X226980952Y-93061904D01*
X226790476Y-93061904D01*
X226714285Y-93023809D01*
X226676190Y-92985714D01*
X226638095Y-92909523D01*
X226638095Y-92833333D01*
X226676190Y-92757142D01*
X226714285Y-92719047D01*
X226790476Y-92680952D01*
X226942857Y-92642857D01*
X227019047Y-92604761D01*
X227057142Y-92566666D01*
X227095238Y-92490476D01*
X227095238Y-92414285D01*
X227057142Y-92338095D01*
X227019047Y-92300000D01*
X226942857Y-92261904D01*
X226752380Y-92261904D01*
X226638095Y-92300000D01*
X226371428Y-92261904D02*
X226180952Y-93061904D01*
X226028571Y-92490476D01*
X225876190Y-93061904D01*
X225685714Y-92261904D01*
X225380952Y-93061904D02*
X225380952Y-92261904D01*
X225190476Y-92261904D01*
X225076190Y-92300000D01*
X225000000Y-92376190D01*
X224961904Y-92452380D01*
X224923809Y-92604761D01*
X224923809Y-92719047D01*
X224961904Y-92871428D01*
X225000000Y-92947619D01*
X225076190Y-93023809D01*
X225190476Y-93061904D01*
X225380952Y-93061904D01*
X224580952Y-93061904D02*
X224580952Y-92261904D01*
X224047619Y-92261904D02*
X223895238Y-92261904D01*
X223819047Y-92300000D01*
X223742857Y-92376190D01*
X223704761Y-92528571D01*
X223704761Y-92795238D01*
X223742857Y-92947619D01*
X223819047Y-93023809D01*
X223895238Y-93061904D01*
X224047619Y-93061904D01*
X224123809Y-93023809D01*
X224200000Y-92947619D01*
X224238095Y-92795238D01*
X224238095Y-92528571D01*
X224200000Y-92376190D01*
X224123809Y-92300000D01*
X224047619Y-92261904D01*
D12*
X326657142Y-140797380D02*
X327228571Y-140797380D01*
X326942857Y-140797380D02*
X326942857Y-139797380D01*
X327038095Y-139940238D01*
X327133333Y-140035476D01*
X327228571Y-140083095D01*
X326228571Y-140702142D02*
X326180952Y-140749761D01*
X326228571Y-140797380D01*
X326276190Y-140749761D01*
X326228571Y-140702142D01*
X326228571Y-140797380D01*
X325800000Y-139892619D02*
X325752380Y-139845000D01*
X325657142Y-139797380D01*
X325419047Y-139797380D01*
X325323809Y-139845000D01*
X325276190Y-139892619D01*
X325228571Y-139987857D01*
X325228571Y-140083095D01*
X325276190Y-140225952D01*
X325847619Y-140797380D01*
X325228571Y-140797380D01*
X324323809Y-139797380D02*
X324800000Y-139797380D01*
X324847619Y-140273571D01*
X324800000Y-140225952D01*
X324704761Y-140178333D01*
X324466666Y-140178333D01*
X324371428Y-140225952D01*
X324323809Y-140273571D01*
X324276190Y-140368809D01*
X324276190Y-140606904D01*
X324323809Y-140702142D01*
X324371428Y-140749761D01*
X324466666Y-140797380D01*
X324704761Y-140797380D01*
X324800000Y-140749761D01*
X324847619Y-140702142D01*
X323419047Y-140130714D02*
X323419047Y-140797380D01*
X323847619Y-140130714D02*
X323847619Y-140654523D01*
X323800000Y-140749761D01*
X323704761Y-140797380D01*
X323561904Y-140797380D01*
X323466666Y-140749761D01*
X323419047Y-140702142D01*
X325514285Y-141883571D02*
X325180952Y-141883571D01*
X325038095Y-142407380D02*
X325514285Y-142407380D01*
X325514285Y-141407380D01*
X325038095Y-141407380D01*
X348966666Y-140747380D02*
X349538095Y-140747380D01*
X349252380Y-140747380D02*
X349252380Y-139747380D01*
X349347619Y-139890238D01*
X349442857Y-139985476D01*
X349538095Y-140033095D01*
X348109523Y-140080714D02*
X348109523Y-140747380D01*
X348538095Y-140080714D02*
X348538095Y-140604523D01*
X348490476Y-140699761D01*
X348395238Y-140747380D01*
X348252380Y-140747380D01*
X348157142Y-140699761D01*
X348109523Y-140652142D01*
X349014285Y-141833571D02*
X348680952Y-141833571D01*
X348538095Y-142357380D02*
X349014285Y-142357380D01*
X349014285Y-141357380D01*
X348538095Y-141357380D01*
X335928570Y-126692619D02*
X335880951Y-126645000D01*
X335785713Y-126597380D01*
X335547618Y-126597380D01*
X335452379Y-126645000D01*
X335404760Y-126692619D01*
X335357141Y-126787857D01*
X335357141Y-126883095D01*
X335404760Y-127025952D01*
X335976189Y-127597380D01*
X335357141Y-127597380D01*
X334928570Y-127502142D02*
X334880951Y-127549761D01*
X334928570Y-127597380D01*
X334976189Y-127549761D01*
X334928570Y-127502142D01*
X334928570Y-127597380D01*
X334499999Y-126692619D02*
X334452379Y-126645000D01*
X334357141Y-126597380D01*
X334119046Y-126597380D01*
X334023808Y-126645000D01*
X333976189Y-126692619D01*
X333928570Y-126787857D01*
X333928570Y-126883095D01*
X333976189Y-127025952D01*
X334547618Y-127597380D01*
X333928570Y-127597380D01*
X333023808Y-126597380D02*
X333499999Y-126597380D01*
X333547618Y-127073571D01*
X333499999Y-127025952D01*
X333404760Y-126978333D01*
X333166665Y-126978333D01*
X333071427Y-127025952D01*
X333023808Y-127073571D01*
X332976189Y-127168809D01*
X332976189Y-127406904D01*
X333023808Y-127502142D01*
X333071427Y-127549761D01*
X333166665Y-127597380D01*
X333404760Y-127597380D01*
X333499999Y-127549761D01*
X333547618Y-127502142D01*
X332119046Y-126930714D02*
X332119046Y-127597380D01*
X332547618Y-126930714D02*
X332547618Y-127454523D01*
X332499999Y-127549761D01*
X332404760Y-127597380D01*
X332261903Y-127597380D01*
X332166665Y-127549761D01*
X332119046Y-127502142D01*
X333857141Y-128683571D02*
X334190475Y-128683571D01*
X334190475Y-129207380D02*
X334190475Y-128207380D01*
X333714284Y-128207380D01*
D11*
X225490476Y-99261904D02*
X224995238Y-99261904D01*
X225261904Y-99566666D01*
X225147619Y-99566666D01*
X225071428Y-99604761D01*
X225033333Y-99642857D01*
X224995238Y-99719047D01*
X224995238Y-99909523D01*
X225033333Y-99985714D01*
X225071428Y-100023809D01*
X225147619Y-100061904D01*
X225376190Y-100061904D01*
X225452380Y-100023809D01*
X225490476Y-99985714D01*
X224766666Y-99261904D02*
X224500000Y-100061904D01*
X224233333Y-99261904D01*
X224042857Y-99261904D02*
X223547619Y-99261904D01*
X223814285Y-99566666D01*
X223700000Y-99566666D01*
X223623809Y-99604761D01*
X223585714Y-99642857D01*
X223547619Y-99719047D01*
X223547619Y-99909523D01*
X223585714Y-99985714D01*
X223623809Y-100023809D01*
X223700000Y-100061904D01*
X223928571Y-100061904D01*
X224004761Y-100023809D01*
X224042857Y-99985714D01*
D10*
%TO.C,D16*%
X101126131Y-116726306D02*
X100126131Y-116726306D01*
X100126131Y-116964401D01*
X100173751Y-117107258D01*
X100268989Y-117202496D01*
X100364227Y-117250115D01*
X100554703Y-117297734D01*
X100697560Y-117297734D01*
X100888036Y-117250115D01*
X100983274Y-117202496D01*
X101078512Y-117107258D01*
X101126131Y-116964401D01*
X101126131Y-116726306D01*
X101126131Y-118250115D02*
X101126131Y-117678687D01*
X101126131Y-117964401D02*
X100126131Y-117964401D01*
X100268989Y-117869163D01*
X100364227Y-117773925D01*
X100411846Y-117678687D01*
X100126131Y-119107258D02*
X100126131Y-118916782D01*
X100173751Y-118821544D01*
X100221370Y-118773925D01*
X100364227Y-118678687D01*
X100554703Y-118631068D01*
X100935655Y-118631068D01*
X101030893Y-118678687D01*
X101078512Y-118726306D01*
X101126131Y-118821544D01*
X101126131Y-119012020D01*
X101078512Y-119107258D01*
X101030893Y-119154877D01*
X100935655Y-119202496D01*
X100697560Y-119202496D01*
X100602322Y-119154877D01*
X100554703Y-119107258D01*
X100507084Y-119012020D01*
X100507084Y-118821544D01*
X100554703Y-118726306D01*
X100602322Y-118678687D01*
X100697560Y-118631068D01*
%TO.C,D17*%
X122557381Y-116726307D02*
X121557381Y-116726307D01*
X121557381Y-116964402D01*
X121605001Y-117107259D01*
X121700239Y-117202497D01*
X121795477Y-117250116D01*
X121985953Y-117297735D01*
X122128810Y-117297735D01*
X122319286Y-117250116D01*
X122414524Y-117202497D01*
X122509762Y-117107259D01*
X122557381Y-116964402D01*
X122557381Y-116726307D01*
X122557381Y-118250116D02*
X122557381Y-117678688D01*
X122557381Y-117964402D02*
X121557381Y-117964402D01*
X121700239Y-117869164D01*
X121795477Y-117773926D01*
X121843096Y-117678688D01*
X121557381Y-118583450D02*
X121557381Y-119250116D01*
X122557381Y-118821545D01*
%TO.C,D18*%
X142758641Y-118997189D02*
X141780493Y-118789277D01*
X141730991Y-119022170D01*
X141747867Y-119171806D01*
X141821223Y-119284764D01*
X141904480Y-119351143D01*
X142080893Y-119437324D01*
X142220628Y-119467026D01*
X142416843Y-119460049D01*
X142519900Y-119433272D01*
X142632858Y-119359916D01*
X142709138Y-119230081D01*
X142758641Y-118997189D01*
X142441823Y-120487700D02*
X142560630Y-119928758D01*
X142501227Y-120208229D02*
X141523079Y-120000317D01*
X141682615Y-119936862D01*
X141795573Y-119863506D01*
X141861953Y-119780250D01*
X141764075Y-120927835D02*
X141737298Y-120824777D01*
X141700620Y-120768298D01*
X141617363Y-120701919D01*
X141570785Y-120692018D01*
X141467728Y-120718795D01*
X141411249Y-120755473D01*
X141344869Y-120838730D01*
X141305267Y-121025043D01*
X141332044Y-121128101D01*
X141368722Y-121184580D01*
X141451978Y-121250959D01*
X141498557Y-121260860D01*
X141601614Y-121234083D01*
X141658093Y-121197405D01*
X141724473Y-121114148D01*
X141764075Y-120927835D01*
X141830455Y-120844578D01*
X141886934Y-120807900D01*
X141989991Y-120781123D01*
X142176305Y-120820725D01*
X142259561Y-120887105D01*
X142296239Y-120943584D01*
X142323017Y-121046641D01*
X142283414Y-121232955D01*
X142217035Y-121316211D01*
X142160556Y-121352889D01*
X142057498Y-121379667D01*
X141871184Y-121340064D01*
X141787928Y-121273685D01*
X141751250Y-121217206D01*
X141724473Y-121114148D01*
%TO.C,D19*%
X161392353Y-122957907D02*
X160414205Y-122749995D01*
X160364703Y-122982888D01*
X160381579Y-123132524D01*
X160454935Y-123245482D01*
X160538192Y-123311861D01*
X160714605Y-123398042D01*
X160854340Y-123427744D01*
X161050555Y-123420767D01*
X161153612Y-123393990D01*
X161266570Y-123320634D01*
X161342850Y-123190799D01*
X161392353Y-122957907D01*
X161075535Y-124448418D02*
X161194342Y-123889476D01*
X161134939Y-124168947D02*
X160156791Y-123961035D01*
X160316327Y-123897580D01*
X160429285Y-123824224D01*
X160495665Y-123740968D01*
X160976530Y-124914202D02*
X160936927Y-125100516D01*
X160870548Y-125183773D01*
X160814069Y-125220450D01*
X160654532Y-125283906D01*
X160458318Y-125290882D01*
X160085690Y-125211677D01*
X160002434Y-125145298D01*
X159965756Y-125088819D01*
X159938979Y-124985761D01*
X159978581Y-124799448D01*
X160044961Y-124716191D01*
X160101440Y-124679513D01*
X160204497Y-124652736D01*
X160437389Y-124702239D01*
X160520646Y-124768618D01*
X160557324Y-124825097D01*
X160584101Y-124928155D01*
X160544499Y-125114469D01*
X160478119Y-125197725D01*
X160421640Y-125234403D01*
X160318583Y-125261180D01*
%TO.C,D20*%
X180026064Y-126918625D02*
X179047916Y-126710713D01*
X178998414Y-126943606D01*
X179015290Y-127093242D01*
X179088646Y-127206200D01*
X179171903Y-127272579D01*
X179348316Y-127358760D01*
X179488051Y-127388462D01*
X179684266Y-127381485D01*
X179787323Y-127354708D01*
X179900281Y-127281352D01*
X179976561Y-127151517D01*
X180026064Y-126918625D01*
X178943062Y-127662084D02*
X178886583Y-127698762D01*
X178820204Y-127782018D01*
X178770701Y-128014910D01*
X178797478Y-128117968D01*
X178834156Y-128174447D01*
X178917412Y-128240826D01*
X179010569Y-128260627D01*
X179160205Y-128243751D01*
X179837953Y-127803616D01*
X179709246Y-128409136D01*
X178602391Y-128806744D02*
X178582590Y-128899901D01*
X178609368Y-129002958D01*
X178646046Y-129059437D01*
X178729302Y-129125817D01*
X178905715Y-129211998D01*
X179138607Y-129261500D01*
X179334822Y-129254524D01*
X179437879Y-129227747D01*
X179494358Y-129191069D01*
X179560738Y-129107813D01*
X179580539Y-129014656D01*
X179553762Y-128911598D01*
X179517084Y-128855119D01*
X179433827Y-128788740D01*
X179257414Y-128702559D01*
X179024522Y-128653056D01*
X178828307Y-128660032D01*
X178725250Y-128686810D01*
X178668771Y-128723488D01*
X178602391Y-128806744D01*
%TO.C,D21*%
X198659777Y-130879342D02*
X197681629Y-130671430D01*
X197632127Y-130904323D01*
X197649003Y-131053959D01*
X197722359Y-131166917D01*
X197805616Y-131233296D01*
X197982029Y-131319477D01*
X198121764Y-131349179D01*
X198317979Y-131342202D01*
X198421036Y-131315425D01*
X198533994Y-131242069D01*
X198610274Y-131112234D01*
X198659777Y-130879342D01*
X197576775Y-131622801D02*
X197520296Y-131659479D01*
X197453917Y-131742735D01*
X197404414Y-131975627D01*
X197431191Y-132078685D01*
X197467869Y-132135164D01*
X197551125Y-132201543D01*
X197644282Y-132221344D01*
X197793918Y-132204468D01*
X198471666Y-131764333D01*
X198342959Y-132369853D01*
X198144948Y-133301422D02*
X198263755Y-132742480D01*
X198204351Y-133021951D02*
X197226204Y-132814039D01*
X197385740Y-132750584D01*
X197498698Y-132677228D01*
X197565078Y-132593972D01*
%TO.C,D22*%
X242776313Y-126325088D02*
X241798165Y-126532999D01*
X241847668Y-126765892D01*
X241923948Y-126895726D01*
X242036906Y-126969082D01*
X242139963Y-126995859D01*
X242336178Y-127002836D01*
X242475913Y-126973134D01*
X242652326Y-126886953D01*
X242735583Y-126820574D01*
X242808939Y-126707616D01*
X242825815Y-126557980D01*
X242776313Y-126325088D01*
X242089333Y-127444767D02*
X242052655Y-127501246D01*
X242025878Y-127604304D01*
X242075381Y-127837196D01*
X242141760Y-127920452D01*
X242198239Y-127957130D01*
X242301297Y-127983908D01*
X242394454Y-127964107D01*
X242524288Y-127887826D01*
X242964423Y-127210078D01*
X243093130Y-127815598D01*
X242287344Y-128376336D02*
X242250666Y-128432815D01*
X242223889Y-128535873D01*
X242273392Y-128768765D01*
X242339771Y-128852022D01*
X242396250Y-128888699D01*
X242499308Y-128915477D01*
X242592465Y-128895676D01*
X242722300Y-128819396D01*
X243162434Y-128141647D01*
X243291142Y-128747167D01*
%TO.C,D23*%
X261410025Y-122364371D02*
X260431877Y-122572282D01*
X260481380Y-122805175D01*
X260557660Y-122935009D01*
X260670618Y-123008365D01*
X260773675Y-123035142D01*
X260969890Y-123042119D01*
X261109625Y-123012417D01*
X261286038Y-122926236D01*
X261369295Y-122859857D01*
X261442651Y-122746899D01*
X261459527Y-122597263D01*
X261410025Y-122364371D01*
X260723045Y-123484050D02*
X260686367Y-123540529D01*
X260659590Y-123643587D01*
X260709093Y-123876479D01*
X260775472Y-123959735D01*
X260831951Y-123996413D01*
X260935009Y-124023191D01*
X261028166Y-124003390D01*
X261158000Y-123927109D01*
X261598135Y-123249361D01*
X261726842Y-123854881D01*
X260817999Y-124388842D02*
X260946706Y-124994362D01*
X261250030Y-124589108D01*
X261279731Y-124728844D01*
X261346111Y-124812100D01*
X261402590Y-124848778D01*
X261505647Y-124875555D01*
X261738540Y-124826053D01*
X261821796Y-124759673D01*
X261858474Y-124703194D01*
X261885251Y-124600136D01*
X261825848Y-124320666D01*
X261759468Y-124237409D01*
X261702989Y-124200731D01*
%TO.C,D24*%
X280043737Y-118403653D02*
X279065589Y-118611564D01*
X279115092Y-118844457D01*
X279191372Y-118974291D01*
X279304330Y-119047647D01*
X279407387Y-119074424D01*
X279603602Y-119081401D01*
X279743337Y-119051699D01*
X279919750Y-118965518D01*
X280003007Y-118899139D01*
X280076363Y-118786181D01*
X280093239Y-118636545D01*
X280043737Y-118403653D01*
X279356757Y-119523332D02*
X279320079Y-119579811D01*
X279293302Y-119682869D01*
X279342805Y-119915761D01*
X279409184Y-119999017D01*
X279465663Y-120035695D01*
X279568721Y-120062473D01*
X279661878Y-120042672D01*
X279791712Y-119966391D01*
X280231847Y-119288643D01*
X280360554Y-119894163D01*
X279886666Y-120871183D02*
X280538764Y-120732575D01*
X279464536Y-120717495D02*
X280113710Y-120336095D01*
X280242417Y-120941615D01*
%TO.C,D25*%
X298677448Y-114442936D02*
X297699300Y-114650847D01*
X297748803Y-114883740D01*
X297825083Y-115013574D01*
X297938041Y-115086930D01*
X298041098Y-115113707D01*
X298237313Y-115120684D01*
X298377048Y-115090982D01*
X298553461Y-115004801D01*
X298636718Y-114938422D01*
X298710074Y-114825464D01*
X298726950Y-114675828D01*
X298677448Y-114442936D01*
X297990468Y-115562615D02*
X297953790Y-115619094D01*
X297927013Y-115722152D01*
X297976516Y-115955044D01*
X298042895Y-116038300D01*
X298099374Y-116074978D01*
X298202432Y-116101756D01*
X298295589Y-116081955D01*
X298425423Y-116005674D01*
X298865558Y-115327926D01*
X298994265Y-115933446D01*
X298204228Y-117026349D02*
X298105223Y-116560564D01*
X298561107Y-116414980D01*
X298524429Y-116471459D01*
X298497652Y-116574516D01*
X298547154Y-116807409D01*
X298613534Y-116890665D01*
X298670013Y-116927343D01*
X298773070Y-116954120D01*
X299005963Y-116904618D01*
X299089219Y-116838238D01*
X299125897Y-116781759D01*
X299152674Y-116678701D01*
X299103172Y-116445809D01*
X299036792Y-116362553D01*
X298980313Y-116325875D01*
%TO.C,D26*%
X319357381Y-116726306D02*
X318357381Y-116726306D01*
X318357381Y-116964401D01*
X318405001Y-117107258D01*
X318500239Y-117202496D01*
X318595477Y-117250115D01*
X318785953Y-117297734D01*
X318928810Y-117297734D01*
X319119286Y-117250115D01*
X319214524Y-117202496D01*
X319309762Y-117107258D01*
X319357381Y-116964401D01*
X319357381Y-116726306D01*
X318452620Y-117678687D02*
X318405001Y-117726306D01*
X318357381Y-117821544D01*
X318357381Y-118059639D01*
X318405001Y-118154877D01*
X318452620Y-118202496D01*
X318547858Y-118250115D01*
X318643096Y-118250115D01*
X318785953Y-118202496D01*
X319357381Y-117631068D01*
X319357381Y-118250115D01*
X318357381Y-119107258D02*
X318357381Y-118916782D01*
X318405001Y-118821544D01*
X318452620Y-118773925D01*
X318595477Y-118678687D01*
X318785953Y-118631068D01*
X319166905Y-118631068D01*
X319262143Y-118678687D01*
X319309762Y-118726306D01*
X319357381Y-118821544D01*
X319357381Y-119012020D01*
X319309762Y-119107258D01*
X319262143Y-119154877D01*
X319166905Y-119202496D01*
X318928810Y-119202496D01*
X318833572Y-119154877D01*
X318785953Y-119107258D01*
X318738334Y-119012020D01*
X318738334Y-118821544D01*
X318785953Y-118726306D01*
X318833572Y-118678687D01*
X318928810Y-118631068D01*
%TO.C,D27*%
X345551131Y-116726307D02*
X344551131Y-116726307D01*
X344551131Y-116964402D01*
X344598751Y-117107259D01*
X344693989Y-117202497D01*
X344789227Y-117250116D01*
X344979703Y-117297735D01*
X345122560Y-117297735D01*
X345313036Y-117250116D01*
X345408274Y-117202497D01*
X345503512Y-117107259D01*
X345551131Y-116964402D01*
X345551131Y-116726307D01*
X344646370Y-117678688D02*
X344598751Y-117726307D01*
X344551131Y-117821545D01*
X344551131Y-118059640D01*
X344598751Y-118154878D01*
X344646370Y-118202497D01*
X344741608Y-118250116D01*
X344836846Y-118250116D01*
X344979703Y-118202497D01*
X345551131Y-117631069D01*
X345551131Y-118250116D01*
X344551131Y-118583450D02*
X344551131Y-119250116D01*
X345551131Y-118821545D01*
%TO.C,D31*%
X166742353Y-143567906D02*
X165764205Y-143359994D01*
X165714703Y-143592887D01*
X165731579Y-143742523D01*
X165804935Y-143855481D01*
X165888192Y-143921860D01*
X166064605Y-144008041D01*
X166204340Y-144037743D01*
X166400555Y-144030766D01*
X166503612Y-144003989D01*
X166616570Y-143930633D01*
X166692850Y-143800798D01*
X166742353Y-143567906D01*
X165576095Y-144244985D02*
X165447388Y-144850505D01*
X165889319Y-144603660D01*
X165859618Y-144743396D01*
X165886395Y-144846453D01*
X165923073Y-144902932D01*
X166006329Y-144969312D01*
X166239221Y-145018815D01*
X166342279Y-144992037D01*
X166398758Y-144955359D01*
X166465137Y-144872103D01*
X166524541Y-144592632D01*
X166497763Y-144489575D01*
X166461086Y-144433096D01*
X166227524Y-145989986D02*
X166346331Y-145431044D01*
X166286927Y-145710515D02*
X165308780Y-145502603D01*
X165468316Y-145439148D01*
X165581274Y-145365792D01*
X165647654Y-145282536D01*
%TO.C,D32*%
X185376065Y-147528624D02*
X184397917Y-147320712D01*
X184348415Y-147553605D01*
X184365291Y-147703241D01*
X184438647Y-147816199D01*
X184521904Y-147882578D01*
X184698317Y-147968759D01*
X184838052Y-147998461D01*
X185034267Y-147991484D01*
X185137324Y-147964707D01*
X185250282Y-147891351D01*
X185326562Y-147761516D01*
X185376065Y-147528624D01*
X184209807Y-148205703D02*
X184081100Y-148811223D01*
X184523031Y-148564378D01*
X184493330Y-148704114D01*
X184520107Y-148807171D01*
X184556785Y-148863650D01*
X184640041Y-148930030D01*
X184872933Y-148979533D01*
X184975991Y-148952755D01*
X185032470Y-148916077D01*
X185098849Y-148832821D01*
X185158253Y-148553350D01*
X185131475Y-148450293D01*
X185094798Y-148393814D01*
X184095052Y-149203652D02*
X184038573Y-149240330D01*
X183972194Y-149323586D01*
X183922691Y-149556478D01*
X183949468Y-149659536D01*
X183986146Y-149716015D01*
X184069402Y-149782394D01*
X184162559Y-149802196D01*
X184312195Y-149785319D01*
X184989943Y-149345184D01*
X184861236Y-149950704D01*
%TO.C,D33*%
X204009777Y-151489342D02*
X203031629Y-151281430D01*
X202982127Y-151514323D01*
X202999003Y-151663959D01*
X203072359Y-151776917D01*
X203155616Y-151843296D01*
X203332029Y-151929477D01*
X203471764Y-151959179D01*
X203667979Y-151952202D01*
X203771036Y-151925425D01*
X203883994Y-151852069D01*
X203960274Y-151722234D01*
X204009777Y-151489342D01*
X202843519Y-152166421D02*
X202714812Y-152771941D01*
X203156743Y-152525096D01*
X203127042Y-152664832D01*
X203153819Y-152767889D01*
X203190497Y-152824368D01*
X203273753Y-152890748D01*
X203506645Y-152940251D01*
X203609703Y-152913473D01*
X203666182Y-152876795D01*
X203732561Y-152793539D01*
X203791965Y-152514068D01*
X203765187Y-152411011D01*
X203728510Y-152354532D01*
X202645508Y-153097990D02*
X202516800Y-153703510D01*
X202958732Y-153456665D01*
X202929030Y-153596401D01*
X202955808Y-153699458D01*
X202992486Y-153755937D01*
X203075742Y-153822317D01*
X203308634Y-153871820D01*
X203411692Y-153845042D01*
X203468171Y-153808364D01*
X203534550Y-153725108D01*
X203593954Y-153445637D01*
X203567176Y-153342580D01*
X203530498Y-153286101D01*
%TO.C,D34*%
X237416313Y-146935088D02*
X236438165Y-147142999D01*
X236487668Y-147375892D01*
X236563948Y-147505726D01*
X236676906Y-147579082D01*
X236779963Y-147605859D01*
X236976178Y-147612836D01*
X237115913Y-147583134D01*
X237292326Y-147496953D01*
X237375583Y-147430574D01*
X237448939Y-147317616D01*
X237465815Y-147167980D01*
X237416313Y-146935088D01*
X236626276Y-148027990D02*
X236754983Y-148633510D01*
X237058307Y-148228256D01*
X237088008Y-148367992D01*
X237154388Y-148451248D01*
X237210867Y-148487926D01*
X237313924Y-148514703D01*
X237546817Y-148465200D01*
X237630073Y-148398821D01*
X237666751Y-148342342D01*
X237693528Y-148239284D01*
X237634125Y-147959814D01*
X237567745Y-147876557D01*
X237511266Y-147839879D01*
X237259242Y-149402618D02*
X237911340Y-149264010D01*
X236837112Y-149248930D02*
X237486286Y-148867530D01*
X237614993Y-149473050D01*
%TO.C,D35*%
X256050025Y-142974370D02*
X255071877Y-143182281D01*
X255121380Y-143415174D01*
X255197660Y-143545008D01*
X255310618Y-143618364D01*
X255413675Y-143645141D01*
X255609890Y-143652118D01*
X255749625Y-143622416D01*
X255926038Y-143536235D01*
X256009295Y-143469856D01*
X256082651Y-143356898D01*
X256099527Y-143207262D01*
X256050025Y-142974370D01*
X255259988Y-144067272D02*
X255388695Y-144672792D01*
X255692019Y-144267538D01*
X255721720Y-144407274D01*
X255788100Y-144490530D01*
X255844579Y-144527208D01*
X255947636Y-144553985D01*
X256180529Y-144504482D01*
X256263785Y-144438103D01*
X256300463Y-144381624D01*
X256327240Y-144278566D01*
X256267837Y-143999096D01*
X256201457Y-143915839D01*
X256144978Y-143879161D01*
X255576805Y-145557783D02*
X255477800Y-145091998D01*
X255933684Y-144946414D01*
X255897006Y-145002893D01*
X255870229Y-145105950D01*
X255919731Y-145338843D01*
X255986111Y-145422099D01*
X256042590Y-145458777D01*
X256145647Y-145485554D01*
X256378540Y-145436052D01*
X256461796Y-145369672D01*
X256498474Y-145313193D01*
X256525251Y-145210135D01*
X256475749Y-144977243D01*
X256409369Y-144893987D01*
X256352890Y-144857309D01*
%TO.C,D36*%
X274683737Y-139013652D02*
X273705589Y-139221563D01*
X273755092Y-139454456D01*
X273831372Y-139584290D01*
X273944330Y-139657646D01*
X274047387Y-139684423D01*
X274243602Y-139691400D01*
X274383337Y-139661698D01*
X274559750Y-139575517D01*
X274643007Y-139509138D01*
X274716363Y-139396180D01*
X274733239Y-139246544D01*
X274683737Y-139013652D01*
X273893700Y-140106554D02*
X274022407Y-140712074D01*
X274325731Y-140306820D01*
X274355432Y-140446556D01*
X274421812Y-140529812D01*
X274478291Y-140566490D01*
X274581348Y-140593267D01*
X274814241Y-140543764D01*
X274897497Y-140477385D01*
X274934175Y-140420906D01*
X274960952Y-140317848D01*
X274901549Y-140038378D01*
X274835169Y-139955121D01*
X274778690Y-139918443D01*
X274200617Y-141550486D02*
X274161015Y-141364172D01*
X274187792Y-141261115D01*
X274224470Y-141204636D01*
X274344404Y-141081777D01*
X274520817Y-140995597D01*
X274893445Y-140916392D01*
X274996503Y-140943169D01*
X275052982Y-140979847D01*
X275119361Y-141063104D01*
X275158963Y-141249417D01*
X275132186Y-141352475D01*
X275095508Y-141408954D01*
X275012252Y-141475334D01*
X274779359Y-141524836D01*
X274676302Y-141498059D01*
X274619823Y-141461381D01*
X274553443Y-141378125D01*
X274513841Y-141191811D01*
X274540619Y-141088753D01*
X274577296Y-141032274D01*
X274660553Y-140965895D01*
%TO.C,D37*%
X293317449Y-135052934D02*
X292339301Y-135260845D01*
X292388804Y-135493738D01*
X292465084Y-135623572D01*
X292578042Y-135696928D01*
X292681099Y-135723705D01*
X292877314Y-135730682D01*
X293017049Y-135700980D01*
X293193462Y-135614799D01*
X293276719Y-135548420D01*
X293350075Y-135435462D01*
X293366951Y-135285826D01*
X293317449Y-135052934D01*
X292527412Y-136145836D02*
X292656119Y-136751356D01*
X292959443Y-136346102D01*
X292989144Y-136485838D01*
X293055524Y-136569094D01*
X293112003Y-136605772D01*
X293215060Y-136632549D01*
X293447953Y-136583046D01*
X293531209Y-136516667D01*
X293567887Y-136460188D01*
X293594664Y-136357130D01*
X293535261Y-136077660D01*
X293468881Y-135994403D01*
X293412402Y-135957725D01*
X292725423Y-137077405D02*
X292864031Y-137729503D01*
X293753073Y-137102386D01*
%TO.C,D38*%
X313997381Y-135776306D02*
X312997381Y-135776306D01*
X312997381Y-136014401D01*
X313045001Y-136157258D01*
X313140239Y-136252496D01*
X313235477Y-136300115D01*
X313425953Y-136347734D01*
X313568810Y-136347734D01*
X313759286Y-136300115D01*
X313854524Y-136252496D01*
X313949762Y-136157258D01*
X313997381Y-136014401D01*
X313997381Y-135776306D01*
X312997381Y-136681068D02*
X312997381Y-137300115D01*
X313378334Y-136966782D01*
X313378334Y-137109639D01*
X313425953Y-137204877D01*
X313473572Y-137252496D01*
X313568810Y-137300115D01*
X313806905Y-137300115D01*
X313902143Y-137252496D01*
X313949762Y-137204877D01*
X313997381Y-137109639D01*
X313997381Y-136823925D01*
X313949762Y-136728687D01*
X313902143Y-136681068D01*
X313425953Y-137871544D02*
X313378334Y-137776306D01*
X313330715Y-137728687D01*
X313235477Y-137681068D01*
X313187858Y-137681068D01*
X313092620Y-137728687D01*
X313045001Y-137776306D01*
X312997381Y-137871544D01*
X312997381Y-138062020D01*
X313045001Y-138157258D01*
X313092620Y-138204877D01*
X313187858Y-138252496D01*
X313235477Y-138252496D01*
X313330715Y-138204877D01*
X313378334Y-138157258D01*
X313425953Y-138062020D01*
X313425953Y-137871544D01*
X313473572Y-137776306D01*
X313521191Y-137728687D01*
X313616429Y-137681068D01*
X313806905Y-137681068D01*
X313902143Y-137728687D01*
X313949762Y-137776306D01*
X313997381Y-137871544D01*
X313997381Y-138062020D01*
X313949762Y-138157258D01*
X313902143Y-138204877D01*
X313806905Y-138252496D01*
X313616429Y-138252496D01*
X313521191Y-138204877D01*
X313473572Y-138157258D01*
X313425953Y-138062020D01*
%TO.C,D39*%
X333452380Y-145785714D02*
X332452380Y-145785714D01*
X332452380Y-146023809D01*
X332500000Y-146166666D01*
X332595238Y-146261904D01*
X332690476Y-146309523D01*
X332880952Y-146357142D01*
X333023809Y-146357142D01*
X333214285Y-146309523D01*
X333309523Y-146261904D01*
X333404761Y-146166666D01*
X333452380Y-146023809D01*
X333452380Y-145785714D01*
X332452380Y-146690476D02*
X332452380Y-147309523D01*
X332833333Y-146976190D01*
X332833333Y-147119047D01*
X332880952Y-147214285D01*
X332928571Y-147261904D01*
X333023809Y-147309523D01*
X333261904Y-147309523D01*
X333357142Y-147261904D01*
X333404761Y-147214285D01*
X333452380Y-147119047D01*
X333452380Y-146833333D01*
X333404761Y-146738095D01*
X333357142Y-146690476D01*
X333452380Y-147785714D02*
X333452380Y-147976190D01*
X333404761Y-148071428D01*
X333357142Y-148119047D01*
X333214285Y-148214285D01*
X333023809Y-148261904D01*
X332642857Y-148261904D01*
X332547619Y-148214285D01*
X332500000Y-148166666D01*
X332452380Y-148071428D01*
X332452380Y-147880952D01*
X332500000Y-147785714D01*
X332547619Y-147738095D01*
X332642857Y-147690476D01*
X332880952Y-147690476D01*
X332976190Y-147738095D01*
X333023809Y-147785714D01*
X333071428Y-147880952D01*
X333071428Y-148071428D01*
X333023809Y-148166666D01*
X332976190Y-148214285D01*
X332880952Y-148261904D01*
%TO.C,D42*%
X143298642Y-159597189D02*
X142320494Y-159389277D01*
X142270992Y-159622170D01*
X142287868Y-159771806D01*
X142361224Y-159884764D01*
X142444481Y-159951143D01*
X142620894Y-160037324D01*
X142760629Y-160067026D01*
X142956844Y-160060049D01*
X143059901Y-160033272D01*
X143172859Y-159959916D01*
X143249139Y-159830081D01*
X143298642Y-159597189D01*
X142349527Y-160855935D02*
X143001625Y-160994543D01*
X142026402Y-160543838D02*
X142774582Y-160459454D01*
X142645874Y-161064974D01*
X142017629Y-161272217D02*
X141961150Y-161308895D01*
X141894771Y-161392151D01*
X141845268Y-161625043D01*
X141872045Y-161728101D01*
X141908723Y-161784580D01*
X141991979Y-161850959D01*
X142085136Y-161870761D01*
X142234772Y-161853884D01*
X142912520Y-161413749D01*
X142783813Y-162019269D01*
%TO.C,F1*%
X208083573Y-94417259D02*
X208083573Y-94083926D01*
X208607382Y-94083926D02*
X207607382Y-94083926D01*
X207607382Y-94560116D01*
X208607382Y-95464878D02*
X208607382Y-94893450D01*
X208607382Y-95179164D02*
X207607382Y-95179164D01*
X207750240Y-95083926D01*
X207845478Y-94988688D01*
X207893097Y-94893450D01*
%TO.C,R1*%
X208966667Y-99752380D02*
X209300001Y-99276190D01*
X209538096Y-99752380D02*
X209538096Y-98752380D01*
X209157143Y-98752380D01*
X209061905Y-98800000D01*
X209014286Y-98847619D01*
X208966667Y-98942857D01*
X208966667Y-99085714D01*
X209014286Y-99180952D01*
X209061905Y-99228571D01*
X209157143Y-99276190D01*
X209538096Y-99276190D01*
X208014286Y-99752380D02*
X208585715Y-99752380D01*
X208300001Y-99752380D02*
X208300001Y-98752380D01*
X208395239Y-98895238D01*
X208490477Y-98990476D01*
X208585715Y-99038095D01*
%TO.C,USB1*%
X211738095Y-83852380D02*
X211738095Y-84661904D01*
X211690476Y-84757142D01*
X211642857Y-84804761D01*
X211547619Y-84852380D01*
X211357142Y-84852380D01*
X211261904Y-84804761D01*
X211214285Y-84757142D01*
X211166666Y-84661904D01*
X211166666Y-83852380D01*
X210738095Y-84804761D02*
X210595238Y-84852380D01*
X210357142Y-84852380D01*
X210261904Y-84804761D01*
X210214285Y-84757142D01*
X210166666Y-84661904D01*
X210166666Y-84566666D01*
X210214285Y-84471428D01*
X210261904Y-84423809D01*
X210357142Y-84376190D01*
X210547619Y-84328571D01*
X210642857Y-84280952D01*
X210690476Y-84233333D01*
X210738095Y-84138095D01*
X210738095Y-84042857D01*
X210690476Y-83947619D01*
X210642857Y-83900000D01*
X210547619Y-83852380D01*
X210309523Y-83852380D01*
X210166666Y-83900000D01*
X209404761Y-84328571D02*
X209261904Y-84376190D01*
X209214285Y-84423809D01*
X209166666Y-84519047D01*
X209166666Y-84661904D01*
X209214285Y-84757142D01*
X209261904Y-84804761D01*
X209357142Y-84852380D01*
X209738095Y-84852380D01*
X209738095Y-83852380D01*
X209404761Y-83852380D01*
X209309523Y-83900000D01*
X209261904Y-83947619D01*
X209214285Y-84042857D01*
X209214285Y-84138095D01*
X209261904Y-84233333D01*
X209309523Y-84280952D01*
X209404761Y-84328571D01*
X209738095Y-84328571D01*
X208214285Y-84852380D02*
X208785714Y-84852380D01*
X208500000Y-84852380D02*
X208500000Y-83852380D01*
X208595238Y-83995238D01*
X208690476Y-84090476D01*
X208785714Y-84138095D01*
%TO.C,D41*%
X99332381Y-154826306D02*
X98332381Y-154826306D01*
X98332381Y-155064401D01*
X98380001Y-155207258D01*
X98475239Y-155302496D01*
X98570477Y-155350115D01*
X98760953Y-155397734D01*
X98903810Y-155397734D01*
X99094286Y-155350115D01*
X99189524Y-155302496D01*
X99284762Y-155207258D01*
X99332381Y-155064401D01*
X99332381Y-154826306D01*
X98665715Y-156254877D02*
X99332381Y-156254877D01*
X98284762Y-156016782D02*
X98999048Y-155778687D01*
X98999048Y-156397734D01*
X99332381Y-157302496D02*
X99332381Y-156731068D01*
X99332381Y-157016782D02*
X98332381Y-157016782D01*
X98475239Y-156921544D01*
X98570477Y-156826306D01*
X98618096Y-156731068D01*
%TO.C,C1*%
X208966666Y-101557142D02*
X209014285Y-101604761D01*
X209157142Y-101652380D01*
X209252380Y-101652380D01*
X209395238Y-101604761D01*
X209490476Y-101509523D01*
X209538095Y-101414285D01*
X209585714Y-101223809D01*
X209585714Y-101080952D01*
X209538095Y-100890476D01*
X209490476Y-100795238D01*
X209395238Y-100700000D01*
X209252380Y-100652380D01*
X209157142Y-100652380D01*
X209014285Y-100700000D01*
X208966666Y-100747619D01*
X208014285Y-101652380D02*
X208585714Y-101652380D01*
X208300000Y-101652380D02*
X208300000Y-100652380D01*
X208395238Y-100795238D01*
X208490476Y-100890476D01*
X208585714Y-100938095D01*
%TO.C,C5*%
X208466666Y-143327142D02*
X208514285Y-143374761D01*
X208657142Y-143422380D01*
X208752380Y-143422380D01*
X208895238Y-143374761D01*
X208990476Y-143279523D01*
X209038095Y-143184285D01*
X209085714Y-142993809D01*
X209085714Y-142850952D01*
X209038095Y-142660476D01*
X208990476Y-142565238D01*
X208895238Y-142470000D01*
X208752380Y-142422380D01*
X208657142Y-142422380D01*
X208514285Y-142470000D01*
X208466666Y-142517619D01*
X207561904Y-142422380D02*
X208038095Y-142422380D01*
X208085714Y-142898571D01*
X208038095Y-142850952D01*
X207942857Y-142803333D01*
X207704761Y-142803333D01*
X207609523Y-142850952D01*
X207561904Y-142898571D01*
X207514285Y-142993809D01*
X207514285Y-143231904D01*
X207561904Y-143327142D01*
X207609523Y-143374761D01*
X207704761Y-143422380D01*
X207942857Y-143422380D01*
X208038095Y-143374761D01*
X208085714Y-143327142D01*
%TO.C,C10*%
X209642857Y-141287142D02*
X209690476Y-141334761D01*
X209833333Y-141382380D01*
X209928571Y-141382380D01*
X210071428Y-141334761D01*
X210166666Y-141239523D01*
X210214285Y-141144285D01*
X210261904Y-140953809D01*
X210261904Y-140810952D01*
X210214285Y-140620476D01*
X210166666Y-140525238D01*
X210071428Y-140430000D01*
X209928571Y-140382380D01*
X209833333Y-140382380D01*
X209690476Y-140430000D01*
X209642857Y-140477619D01*
X208690476Y-141382380D02*
X209261904Y-141382380D01*
X208976190Y-141382380D02*
X208976190Y-140382380D01*
X209071428Y-140525238D01*
X209166666Y-140620476D01*
X209261904Y-140668095D01*
X208071428Y-140382380D02*
X207976190Y-140382380D01*
X207880952Y-140430000D01*
X207833333Y-140477619D01*
X207785714Y-140572857D01*
X207738095Y-140763333D01*
X207738095Y-141001428D01*
X207785714Y-141191904D01*
X207833333Y-141287142D01*
X207880952Y-141334761D01*
X207976190Y-141382380D01*
X208071428Y-141382380D01*
X208166666Y-141334761D01*
X208214285Y-141287142D01*
X208261904Y-141191904D01*
X208309523Y-141001428D01*
X208309523Y-140763333D01*
X208261904Y-140572857D01*
X208214285Y-140477619D01*
X208166666Y-140430000D01*
X208071428Y-140382380D01*
%TO.C,C11*%
X202207142Y-130557142D02*
X202254761Y-130509523D01*
X202302380Y-130366666D01*
X202302380Y-130271428D01*
X202254761Y-130128571D01*
X202159523Y-130033333D01*
X202064285Y-129985714D01*
X201873809Y-129938095D01*
X201730952Y-129938095D01*
X201540476Y-129985714D01*
X201445238Y-130033333D01*
X201350000Y-130128571D01*
X201302380Y-130271428D01*
X201302380Y-130366666D01*
X201350000Y-130509523D01*
X201397619Y-130557142D01*
X202302380Y-131509523D02*
X202302380Y-130938095D01*
X202302380Y-131223809D02*
X201302380Y-131223809D01*
X201445238Y-131128571D01*
X201540476Y-131033333D01*
X201588095Y-130938095D01*
X202302380Y-132461904D02*
X202302380Y-131890476D01*
X202302380Y-132176190D02*
X201302380Y-132176190D01*
X201445238Y-132080952D01*
X201540476Y-131985714D01*
X201588095Y-131890476D01*
%TO.C,C12*%
X216557142Y-121957142D02*
X216604761Y-121909523D01*
X216652380Y-121766666D01*
X216652380Y-121671428D01*
X216604761Y-121528571D01*
X216509523Y-121433333D01*
X216414285Y-121385714D01*
X216223809Y-121338095D01*
X216080952Y-121338095D01*
X215890476Y-121385714D01*
X215795238Y-121433333D01*
X215700000Y-121528571D01*
X215652380Y-121671428D01*
X215652380Y-121766666D01*
X215700000Y-121909523D01*
X215747619Y-121957142D01*
X216652380Y-122909523D02*
X216652380Y-122338095D01*
X216652380Y-122623809D02*
X215652380Y-122623809D01*
X215795238Y-122528571D01*
X215890476Y-122433333D01*
X215938095Y-122338095D01*
X215747619Y-123290476D02*
X215700000Y-123338095D01*
X215652380Y-123433333D01*
X215652380Y-123671428D01*
X215700000Y-123766666D01*
X215747619Y-123814285D01*
X215842857Y-123861904D01*
X215938095Y-123861904D01*
X216080952Y-123814285D01*
X216652380Y-123242857D01*
X216652380Y-123861904D01*
%TO.C,Q1*%
X211347619Y-147704761D02*
X211300000Y-147609523D01*
X211204761Y-147514285D01*
X211061904Y-147371428D01*
X211014285Y-147276190D01*
X211014285Y-147180952D01*
X211252380Y-147228571D02*
X211204761Y-147133333D01*
X211109523Y-147038095D01*
X210919047Y-146990476D01*
X210585714Y-146990476D01*
X210395238Y-147038095D01*
X210300000Y-147133333D01*
X210252380Y-147228571D01*
X210252380Y-147419047D01*
X210300000Y-147514285D01*
X210395238Y-147609523D01*
X210585714Y-147657142D01*
X210919047Y-147657142D01*
X211109523Y-147609523D01*
X211204761Y-147514285D01*
X211252380Y-147419047D01*
X211252380Y-147228571D01*
X211252380Y-148609523D02*
X211252380Y-148038095D01*
X211252380Y-148323809D02*
X210252380Y-148323809D01*
X210395238Y-148228571D01*
X210490476Y-148133333D01*
X210538095Y-148038095D01*
%TO.C,R2*%
X209066666Y-109652380D02*
X209400000Y-109176190D01*
X209638095Y-109652380D02*
X209638095Y-108652380D01*
X209257142Y-108652380D01*
X209161904Y-108700000D01*
X209114285Y-108747619D01*
X209066666Y-108842857D01*
X209066666Y-108985714D01*
X209114285Y-109080952D01*
X209161904Y-109128571D01*
X209257142Y-109176190D01*
X209638095Y-109176190D01*
X208685714Y-108747619D02*
X208638095Y-108700000D01*
X208542857Y-108652380D01*
X208304761Y-108652380D01*
X208209523Y-108700000D01*
X208161904Y-108747619D01*
X208114285Y-108842857D01*
X208114285Y-108938095D01*
X208161904Y-109080952D01*
X208733333Y-109652380D01*
X208114285Y-109652380D01*
%TO.C,U3*%
X213361904Y-90952380D02*
X213361904Y-91761904D01*
X213314285Y-91857142D01*
X213266666Y-91904761D01*
X213171428Y-91952380D01*
X212980952Y-91952380D01*
X212885714Y-91904761D01*
X212838095Y-91857142D01*
X212790476Y-91761904D01*
X212790476Y-90952380D01*
X212409523Y-90952380D02*
X211790476Y-90952380D01*
X212123809Y-91333333D01*
X211980952Y-91333333D01*
X211885714Y-91380952D01*
X211838095Y-91428571D01*
X211790476Y-91523809D01*
X211790476Y-91761904D01*
X211838095Y-91857142D01*
X211885714Y-91904761D01*
X211980952Y-91952380D01*
X212266666Y-91952380D01*
X212361904Y-91904761D01*
X212409523Y-91857142D01*
%TO.C,C2*%
X209066666Y-107557142D02*
X209114285Y-107604761D01*
X209257142Y-107652380D01*
X209352380Y-107652380D01*
X209495238Y-107604761D01*
X209590476Y-107509523D01*
X209638095Y-107414285D01*
X209685714Y-107223809D01*
X209685714Y-107080952D01*
X209638095Y-106890476D01*
X209590476Y-106795238D01*
X209495238Y-106700000D01*
X209352380Y-106652380D01*
X209257142Y-106652380D01*
X209114285Y-106700000D01*
X209066666Y-106747619D01*
X208685714Y-106747619D02*
X208638095Y-106700000D01*
X208542857Y-106652380D01*
X208304761Y-106652380D01*
X208209523Y-106700000D01*
X208161904Y-106747619D01*
X208114285Y-106842857D01*
X208114285Y-106938095D01*
X208161904Y-107080952D01*
X208733333Y-107652380D01*
X208114285Y-107652380D01*
%TO.C,C4*%
X216416666Y-144757142D02*
X216464285Y-144804761D01*
X216607142Y-144852380D01*
X216702380Y-144852380D01*
X216845238Y-144804761D01*
X216940476Y-144709523D01*
X216988095Y-144614285D01*
X217035714Y-144423809D01*
X217035714Y-144280952D01*
X216988095Y-144090476D01*
X216940476Y-143995238D01*
X216845238Y-143900000D01*
X216702380Y-143852380D01*
X216607142Y-143852380D01*
X216464285Y-143900000D01*
X216416666Y-143947619D01*
X215559523Y-144185714D02*
X215559523Y-144852380D01*
X215797619Y-143804761D02*
X216035714Y-144519047D01*
X215416666Y-144519047D01*
%TO.C,C6*%
X206666666Y-138157142D02*
X206714285Y-138204761D01*
X206857142Y-138252380D01*
X206952380Y-138252380D01*
X207095238Y-138204761D01*
X207190476Y-138109523D01*
X207238095Y-138014285D01*
X207285714Y-137823809D01*
X207285714Y-137680952D01*
X207238095Y-137490476D01*
X207190476Y-137395238D01*
X207095238Y-137300000D01*
X206952380Y-137252380D01*
X206857142Y-137252380D01*
X206714285Y-137300000D01*
X206666666Y-137347619D01*
X205809523Y-137252380D02*
X206000000Y-137252380D01*
X206095238Y-137300000D01*
X206142857Y-137347619D01*
X206238095Y-137490476D01*
X206285714Y-137680952D01*
X206285714Y-138061904D01*
X206238095Y-138157142D01*
X206190476Y-138204761D01*
X206095238Y-138252380D01*
X205904761Y-138252380D01*
X205809523Y-138204761D01*
X205761904Y-138157142D01*
X205714285Y-138061904D01*
X205714285Y-137823809D01*
X205761904Y-137728571D01*
X205809523Y-137680952D01*
X205904761Y-137633333D01*
X206095238Y-137633333D01*
X206190476Y-137680952D01*
X206238095Y-137728571D01*
X206285714Y-137823809D01*
%TO.C,C7*%
X204207143Y-130533333D02*
X204254762Y-130485714D01*
X204302381Y-130342857D01*
X204302381Y-130247619D01*
X204254762Y-130104761D01*
X204159524Y-130009523D01*
X204064286Y-129961904D01*
X203873810Y-129914285D01*
X203730953Y-129914285D01*
X203540477Y-129961904D01*
X203445239Y-130009523D01*
X203350001Y-130104761D01*
X203302381Y-130247619D01*
X203302381Y-130342857D01*
X203350001Y-130485714D01*
X203397620Y-130533333D01*
X203302381Y-130866666D02*
X203302381Y-131533333D01*
X204302381Y-131104761D01*
%TO.C,D2*%
X102807381Y-98152497D02*
X101807381Y-98152497D01*
X101807381Y-98390593D01*
X101855001Y-98533450D01*
X101950239Y-98628688D01*
X102045477Y-98676307D01*
X102235953Y-98723926D01*
X102378810Y-98723926D01*
X102569286Y-98676307D01*
X102664524Y-98628688D01*
X102759762Y-98533450D01*
X102807381Y-98390593D01*
X102807381Y-98152497D01*
X101902620Y-99104878D02*
X101855001Y-99152497D01*
X101807381Y-99247735D01*
X101807381Y-99485831D01*
X101855001Y-99581069D01*
X101902620Y-99628688D01*
X101997858Y-99676307D01*
X102093096Y-99676307D01*
X102235953Y-99628688D01*
X102807381Y-99057259D01*
X102807381Y-99676307D01*
%TO.C,D3*%
X121857380Y-98152496D02*
X120857380Y-98152496D01*
X120857380Y-98390592D01*
X120905000Y-98533449D01*
X121000238Y-98628687D01*
X121095476Y-98676306D01*
X121285952Y-98723925D01*
X121428809Y-98723925D01*
X121619285Y-98676306D01*
X121714523Y-98628687D01*
X121809761Y-98533449D01*
X121857380Y-98390592D01*
X121857380Y-98152496D01*
X120857380Y-99057258D02*
X120857380Y-99676306D01*
X121238333Y-99342972D01*
X121238333Y-99485830D01*
X121285952Y-99581068D01*
X121333571Y-99628687D01*
X121428809Y-99676306D01*
X121666904Y-99676306D01*
X121762142Y-99628687D01*
X121809761Y-99581068D01*
X121857380Y-99485830D01*
X121857380Y-99200115D01*
X121809761Y-99104877D01*
X121762142Y-99057258D01*
%TO.C,D4*%
X141959636Y-99832974D02*
X140981489Y-99625062D01*
X140931986Y-99857954D01*
X140948863Y-100007590D01*
X141022219Y-100120548D01*
X141105475Y-100186928D01*
X141281888Y-100273109D01*
X141421624Y-100302810D01*
X141617838Y-100295834D01*
X141720896Y-100269057D01*
X141833854Y-100195701D01*
X141910134Y-100065866D01*
X141959636Y-99832974D01*
X141010521Y-101091720D02*
X141662620Y-101230327D01*
X140687396Y-100779623D02*
X141435576Y-100695239D01*
X141306869Y-101300759D01*
%TO.C,D5*%
X160593347Y-103793692D02*
X159615200Y-103585780D01*
X159565697Y-103818672D01*
X159582574Y-103968308D01*
X159655930Y-104081266D01*
X159739186Y-104147646D01*
X159915599Y-104233827D01*
X160055335Y-104263528D01*
X160251549Y-104256552D01*
X160354607Y-104229775D01*
X160467565Y-104156419D01*
X160543845Y-104026584D01*
X160593347Y-103793692D01*
X159308283Y-105029712D02*
X159407288Y-104563928D01*
X159882973Y-104616355D01*
X159826494Y-104653033D01*
X159760115Y-104736289D01*
X159710612Y-104969181D01*
X159737389Y-105072239D01*
X159774067Y-105128718D01*
X159857324Y-105195097D01*
X160090216Y-105244600D01*
X160193273Y-105217823D01*
X160249752Y-105181145D01*
X160316132Y-105097889D01*
X160365635Y-104864996D01*
X160338857Y-104761939D01*
X160302179Y-104705460D01*
%TO.C,D6*%
X179227059Y-107754410D02*
X178248912Y-107546498D01*
X178199409Y-107779390D01*
X178216286Y-107929026D01*
X178289642Y-108041984D01*
X178372898Y-108108364D01*
X178549311Y-108194545D01*
X178689047Y-108224246D01*
X178885261Y-108217270D01*
X178988319Y-108190493D01*
X179101277Y-108117137D01*
X179177557Y-107987302D01*
X179227059Y-107754410D01*
X177951895Y-108943852D02*
X177991497Y-108757538D01*
X178057877Y-108674282D01*
X178114356Y-108637604D01*
X178273892Y-108574148D01*
X178470107Y-108567172D01*
X178842735Y-108646377D01*
X178925991Y-108712756D01*
X178962669Y-108769235D01*
X178989446Y-108872293D01*
X178949844Y-109058607D01*
X178883464Y-109141863D01*
X178826985Y-109178541D01*
X178723928Y-109205318D01*
X178491036Y-109155815D01*
X178407779Y-109089436D01*
X178371101Y-109032957D01*
X178344324Y-108929899D01*
X178383926Y-108743585D01*
X178450306Y-108660329D01*
X178506785Y-108623651D01*
X178609842Y-108596874D01*
%TO.C,D7*%
X197860771Y-111715128D02*
X196882624Y-111507216D01*
X196833121Y-111740108D01*
X196849998Y-111889744D01*
X196923354Y-112002702D01*
X197006610Y-112069082D01*
X197183023Y-112155263D01*
X197322759Y-112184964D01*
X197518973Y-112177988D01*
X197622031Y-112151211D01*
X197734989Y-112077855D01*
X197811269Y-111948020D01*
X197860771Y-111715128D01*
X196694513Y-112392207D02*
X196555906Y-113044305D01*
X197623158Y-112833011D01*
%TO.C,D8*%
X234255318Y-109140873D02*
X233277171Y-109348785D01*
X233326673Y-109581677D01*
X233402954Y-109711512D01*
X233515912Y-109784868D01*
X233618969Y-109811645D01*
X233815183Y-109818621D01*
X233954919Y-109788920D01*
X234131332Y-109702739D01*
X234214588Y-109636359D01*
X234287944Y-109523401D01*
X234304821Y-109373765D01*
X234255318Y-109140873D01*
X233933990Y-110377563D02*
X233867611Y-110294306D01*
X233811132Y-110257629D01*
X233708074Y-110230851D01*
X233661496Y-110240752D01*
X233578239Y-110307131D01*
X233541561Y-110363610D01*
X233514784Y-110466668D01*
X233554386Y-110652982D01*
X233620766Y-110736238D01*
X233677245Y-110772916D01*
X233780302Y-110799693D01*
X233826881Y-110789793D01*
X233910137Y-110723413D01*
X233946815Y-110666934D01*
X233973592Y-110563877D01*
X233933990Y-110377563D01*
X233960767Y-110274505D01*
X233997445Y-110218026D01*
X234080702Y-110151647D01*
X234267016Y-110112044D01*
X234370073Y-110138822D01*
X234426552Y-110175500D01*
X234492932Y-110258756D01*
X234532534Y-110445070D01*
X234505756Y-110548127D01*
X234469079Y-110604606D01*
X234385822Y-110670986D01*
X234199508Y-110710588D01*
X234096451Y-110683811D01*
X234039972Y-110647133D01*
X233973592Y-110563877D01*
%TO.C,D9*%
X252889030Y-105180155D02*
X251910883Y-105388067D01*
X251960385Y-105620959D01*
X252036666Y-105750794D01*
X252149624Y-105824150D01*
X252252681Y-105850927D01*
X252448895Y-105857903D01*
X252588631Y-105828202D01*
X252765044Y-105742021D01*
X252848300Y-105675641D01*
X252921656Y-105562683D01*
X252938533Y-105413047D01*
X252889030Y-105180155D01*
X253106842Y-106204881D02*
X253146445Y-106391195D01*
X253119667Y-106494252D01*
X253082989Y-106550731D01*
X252963055Y-106673590D01*
X252786642Y-106759771D01*
X252414014Y-106838975D01*
X252310957Y-106812198D01*
X252254478Y-106775520D01*
X252188098Y-106692264D01*
X252148496Y-106505950D01*
X252175273Y-106402892D01*
X252211951Y-106346413D01*
X252295208Y-106280034D01*
X252528100Y-106230531D01*
X252631157Y-106257308D01*
X252687636Y-106293986D01*
X252754016Y-106377243D01*
X252793618Y-106563556D01*
X252766841Y-106666614D01*
X252730163Y-106723093D01*
X252646907Y-106789472D01*
%TO.C,D10*%
X271423737Y-100753654D02*
X270445589Y-100961565D01*
X270495092Y-101194458D01*
X270571372Y-101324292D01*
X270684330Y-101397648D01*
X270787387Y-101424425D01*
X270983602Y-101431402D01*
X271123337Y-101401700D01*
X271299750Y-101315519D01*
X271383007Y-101249140D01*
X271456363Y-101136182D01*
X271473239Y-100986546D01*
X271423737Y-100753654D01*
X271740554Y-102244164D02*
X271621748Y-101685223D01*
X271681151Y-101964693D02*
X270703004Y-102172605D01*
X270822938Y-102049747D01*
X270896294Y-101936789D01*
X270923071Y-101833731D01*
X270891114Y-103057596D02*
X270910915Y-103150753D01*
X270977295Y-103234009D01*
X271033774Y-103270687D01*
X271136831Y-103297464D01*
X271333046Y-103304441D01*
X271565938Y-103254938D01*
X271742351Y-103168757D01*
X271825608Y-103102378D01*
X271862285Y-103045899D01*
X271889063Y-102942841D01*
X271869262Y-102849684D01*
X271802882Y-102766428D01*
X271746403Y-102729750D01*
X271643346Y-102702973D01*
X271447131Y-102695996D01*
X271214239Y-102745499D01*
X271037826Y-102831680D01*
X270954569Y-102898059D01*
X270917891Y-102954538D01*
X270891114Y-103057596D01*
%TO.C,D11*%
X290057449Y-96792936D02*
X289079301Y-97000847D01*
X289128804Y-97233740D01*
X289205084Y-97363574D01*
X289318042Y-97436930D01*
X289421099Y-97463707D01*
X289617314Y-97470684D01*
X289757049Y-97440982D01*
X289933462Y-97354801D01*
X290016719Y-97288422D01*
X290090075Y-97175464D01*
X290106951Y-97025828D01*
X290057449Y-96792936D01*
X290374266Y-98283446D02*
X290255460Y-97724505D01*
X290314863Y-98003975D02*
X289336716Y-98211887D01*
X289456650Y-98089029D01*
X289530006Y-97976071D01*
X289556783Y-97873013D01*
X290572278Y-99215015D02*
X290453471Y-98656074D01*
X290512874Y-98935545D02*
X289534727Y-99143456D01*
X289654661Y-99020598D01*
X289728017Y-98907640D01*
X289754794Y-98804582D01*
%TO.C,D12*%
X310752380Y-97635714D02*
X309752380Y-97635714D01*
X309752380Y-97873809D01*
X309800000Y-98016666D01*
X309895238Y-98111904D01*
X309990476Y-98159523D01*
X310180952Y-98207142D01*
X310323809Y-98207142D01*
X310514285Y-98159523D01*
X310609523Y-98111904D01*
X310704761Y-98016666D01*
X310752380Y-97873809D01*
X310752380Y-97635714D01*
X310752380Y-99159523D02*
X310752380Y-98588095D01*
X310752380Y-98873809D02*
X309752380Y-98873809D01*
X309895238Y-98778571D01*
X309990476Y-98683333D01*
X310038095Y-98588095D01*
X309847619Y-99540476D02*
X309800000Y-99588095D01*
X309752380Y-99683333D01*
X309752380Y-99921428D01*
X309800000Y-100016666D01*
X309847619Y-100064285D01*
X309942857Y-100111904D01*
X310038095Y-100111904D01*
X310180952Y-100064285D01*
X310752380Y-99492857D01*
X310752380Y-100111904D01*
%TO.C,D13*%
X330452380Y-102735714D02*
X329452380Y-102735714D01*
X329452380Y-102973809D01*
X329500000Y-103116666D01*
X329595238Y-103211904D01*
X329690476Y-103259523D01*
X329880952Y-103307142D01*
X330023809Y-103307142D01*
X330214285Y-103259523D01*
X330309523Y-103211904D01*
X330404761Y-103116666D01*
X330452380Y-102973809D01*
X330452380Y-102735714D01*
X330452380Y-104259523D02*
X330452380Y-103688095D01*
X330452380Y-103973809D02*
X329452380Y-103973809D01*
X329595238Y-103878571D01*
X329690476Y-103783333D01*
X329738095Y-103688095D01*
X329452380Y-104592857D02*
X329452380Y-105211904D01*
X329833333Y-104878571D01*
X329833333Y-105021428D01*
X329880952Y-105116666D01*
X329928571Y-105164285D01*
X330023809Y-105211904D01*
X330261904Y-105211904D01*
X330357142Y-105164285D01*
X330404761Y-105116666D01*
X330452380Y-105021428D01*
X330452380Y-104735714D01*
X330404761Y-104640476D01*
X330357142Y-104592857D01*
%TO.C,D14*%
X348417381Y-97676307D02*
X347417381Y-97676307D01*
X347417381Y-97914402D01*
X347465001Y-98057259D01*
X347560239Y-98152497D01*
X347655477Y-98200116D01*
X347845953Y-98247735D01*
X347988810Y-98247735D01*
X348179286Y-98200116D01*
X348274524Y-98152497D01*
X348369762Y-98057259D01*
X348417381Y-97914402D01*
X348417381Y-97676307D01*
X348417381Y-99200116D02*
X348417381Y-98628688D01*
X348417381Y-98914402D02*
X347417381Y-98914402D01*
X347560239Y-98819164D01*
X347655477Y-98723926D01*
X347703096Y-98628688D01*
X347750715Y-100057259D02*
X348417381Y-100057259D01*
X347369762Y-99819164D02*
X348084048Y-99581069D01*
X348084048Y-100200116D01*
%TO.C,D15*%
X75717381Y-114586307D02*
X74717381Y-114586307D01*
X74717381Y-114824402D01*
X74765001Y-114967259D01*
X74860239Y-115062497D01*
X74955477Y-115110116D01*
X75145953Y-115157735D01*
X75288810Y-115157735D01*
X75479286Y-115110116D01*
X75574524Y-115062497D01*
X75669762Y-114967259D01*
X75717381Y-114824402D01*
X75717381Y-114586307D01*
X75717381Y-116110116D02*
X75717381Y-115538688D01*
X75717381Y-115824402D02*
X74717381Y-115824402D01*
X74860239Y-115729164D01*
X74955477Y-115633926D01*
X75003096Y-115538688D01*
X74717381Y-117014878D02*
X74717381Y-116538688D01*
X75193572Y-116491069D01*
X75145953Y-116538688D01*
X75098334Y-116633926D01*
X75098334Y-116872021D01*
X75145953Y-116967259D01*
X75193572Y-117014878D01*
X75288810Y-117062497D01*
X75526905Y-117062497D01*
X75622143Y-117014878D01*
X75669762Y-116967259D01*
X75717381Y-116872021D01*
X75717381Y-116633926D01*
X75669762Y-116538688D01*
X75622143Y-116491069D01*
%TO.C,D28*%
X101713631Y-135776306D02*
X100713631Y-135776306D01*
X100713631Y-136014401D01*
X100761251Y-136157258D01*
X100856489Y-136252496D01*
X100951727Y-136300115D01*
X101142203Y-136347734D01*
X101285060Y-136347734D01*
X101475536Y-136300115D01*
X101570774Y-136252496D01*
X101666012Y-136157258D01*
X101713631Y-136014401D01*
X101713631Y-135776306D01*
X100808870Y-136728687D02*
X100761251Y-136776306D01*
X100713631Y-136871544D01*
X100713631Y-137109639D01*
X100761251Y-137204877D01*
X100808870Y-137252496D01*
X100904108Y-137300115D01*
X100999346Y-137300115D01*
X101142203Y-137252496D01*
X101713631Y-136681068D01*
X101713631Y-137300115D01*
X101142203Y-137871544D02*
X101094584Y-137776306D01*
X101046965Y-137728687D01*
X100951727Y-137681068D01*
X100904108Y-137681068D01*
X100808870Y-137728687D01*
X100761251Y-137776306D01*
X100713631Y-137871544D01*
X100713631Y-138062020D01*
X100761251Y-138157258D01*
X100808870Y-138204877D01*
X100904108Y-138252496D01*
X100951727Y-138252496D01*
X101046965Y-138204877D01*
X101094584Y-138157258D01*
X101142203Y-138062020D01*
X101142203Y-137871544D01*
X101189822Y-137776306D01*
X101237441Y-137728687D01*
X101332679Y-137681068D01*
X101523155Y-137681068D01*
X101618393Y-137728687D01*
X101666012Y-137776306D01*
X101713631Y-137871544D01*
X101713631Y-138062020D01*
X101666012Y-138157258D01*
X101618393Y-138204877D01*
X101523155Y-138252496D01*
X101332679Y-138252496D01*
X101237441Y-138204877D01*
X101189822Y-138157258D01*
X101142203Y-138062020D01*
%TO.C,D29*%
X127907380Y-135776306D02*
X126907380Y-135776306D01*
X126907380Y-136014401D01*
X126955000Y-136157258D01*
X127050238Y-136252496D01*
X127145476Y-136300115D01*
X127335952Y-136347734D01*
X127478809Y-136347734D01*
X127669285Y-136300115D01*
X127764523Y-136252496D01*
X127859761Y-136157258D01*
X127907380Y-136014401D01*
X127907380Y-135776306D01*
X127002619Y-136728687D02*
X126955000Y-136776306D01*
X126907380Y-136871544D01*
X126907380Y-137109639D01*
X126955000Y-137204877D01*
X127002619Y-137252496D01*
X127097857Y-137300115D01*
X127193095Y-137300115D01*
X127335952Y-137252496D01*
X127907380Y-136681068D01*
X127907380Y-137300115D01*
X127907380Y-137776306D02*
X127907380Y-137966782D01*
X127859761Y-138062020D01*
X127812142Y-138109639D01*
X127669285Y-138204877D01*
X127478809Y-138252496D01*
X127097857Y-138252496D01*
X127002619Y-138204877D01*
X126955000Y-138157258D01*
X126907380Y-138062020D01*
X126907380Y-137871544D01*
X126955000Y-137776306D01*
X127002619Y-137728687D01*
X127097857Y-137681068D01*
X127335952Y-137681068D01*
X127431190Y-137728687D01*
X127478809Y-137776306D01*
X127526428Y-137871544D01*
X127526428Y-138062020D01*
X127478809Y-138157258D01*
X127431190Y-138204877D01*
X127335952Y-138252496D01*
%TO.C,D30*%
X148108641Y-139607190D02*
X147130493Y-139399278D01*
X147080991Y-139632171D01*
X147097867Y-139781807D01*
X147171223Y-139894765D01*
X147254480Y-139961144D01*
X147430893Y-140047325D01*
X147570628Y-140077027D01*
X147766843Y-140070050D01*
X147869900Y-140043273D01*
X147982858Y-139969917D01*
X148059138Y-139840082D01*
X148108641Y-139607190D01*
X146942383Y-140284269D02*
X146813676Y-140889789D01*
X147255607Y-140642944D01*
X147225906Y-140782680D01*
X147252683Y-140885737D01*
X147289361Y-140942216D01*
X147372617Y-141008596D01*
X147605509Y-141058099D01*
X147708567Y-141031321D01*
X147765046Y-140994643D01*
X147831425Y-140911387D01*
X147890829Y-140631916D01*
X147864051Y-140528859D01*
X147827374Y-140472380D01*
X146684968Y-141495309D02*
X146665167Y-141588466D01*
X146691945Y-141691523D01*
X146728623Y-141748002D01*
X146811879Y-141814382D01*
X146988292Y-141900563D01*
X147221184Y-141950065D01*
X147417399Y-141943089D01*
X147520456Y-141916312D01*
X147576935Y-141879634D01*
X147643315Y-141796378D01*
X147663116Y-141703221D01*
X147636339Y-141600163D01*
X147599661Y-141543684D01*
X147516404Y-141477305D01*
X147339991Y-141391124D01*
X147107099Y-141341621D01*
X146910884Y-141348597D01*
X146807827Y-141375375D01*
X146751348Y-141412053D01*
X146684968Y-141495309D01*
%TO.C,D43*%
X166451254Y-164922127D02*
X165473106Y-164714215D01*
X165423604Y-164947108D01*
X165440480Y-165096744D01*
X165513836Y-165209702D01*
X165597093Y-165276081D01*
X165773506Y-165362262D01*
X165913241Y-165391964D01*
X166109456Y-165384987D01*
X166212513Y-165358210D01*
X166325471Y-165284854D01*
X166401751Y-165155019D01*
X166451254Y-164922127D01*
X165502139Y-166180873D02*
X166154237Y-166319481D01*
X165179014Y-165868776D02*
X165927194Y-165784392D01*
X165798486Y-166389912D01*
X165086985Y-166530775D02*
X164958277Y-167136295D01*
X165400209Y-166889450D01*
X165370507Y-167029186D01*
X165397285Y-167132243D01*
X165433963Y-167188722D01*
X165517219Y-167255102D01*
X165750111Y-167304605D01*
X165853169Y-167277827D01*
X165909648Y-167241149D01*
X165976027Y-167157893D01*
X166035431Y-166878422D01*
X166008653Y-166775365D01*
X165971975Y-166718886D01*
%TO.C,J1*%
X226257380Y-95796666D02*
X226971666Y-95796666D01*
X227114523Y-95749047D01*
X227209761Y-95653809D01*
X227257380Y-95510952D01*
X227257380Y-95415714D01*
X227257380Y-96796666D02*
X227257380Y-96225238D01*
X227257380Y-96510952D02*
X226257380Y-96510952D01*
X226400238Y-96415714D01*
X226495476Y-96320476D01*
X226543095Y-96225238D01*
%TO.C,SW1*%
X206704761Y-154066666D02*
X206752380Y-154209523D01*
X206752380Y-154447619D01*
X206704761Y-154542857D01*
X206657142Y-154590476D01*
X206561904Y-154638095D01*
X206466666Y-154638095D01*
X206371428Y-154590476D01*
X206323809Y-154542857D01*
X206276190Y-154447619D01*
X206228571Y-154257142D01*
X206180952Y-154161904D01*
X206133333Y-154114285D01*
X206038095Y-154066666D01*
X205942857Y-154066666D01*
X205847619Y-154114285D01*
X205800000Y-154161904D01*
X205752380Y-154257142D01*
X205752380Y-154495238D01*
X205800000Y-154638095D01*
X205752380Y-154971428D02*
X206752380Y-155209523D01*
X206038095Y-155400000D01*
X206752380Y-155590476D01*
X205752380Y-155828571D01*
X206752380Y-156733333D02*
X206752380Y-156161904D01*
X206752380Y-156447619D02*
X205752380Y-156447619D01*
X205895238Y-156352380D01*
X205990476Y-156257142D01*
X206038095Y-156161904D01*
%TO.C,U1*%
X208352380Y-103438095D02*
X209161904Y-103438095D01*
X209257142Y-103485714D01*
X209304761Y-103533333D01*
X209352380Y-103628571D01*
X209352380Y-103819047D01*
X209304761Y-103914285D01*
X209257142Y-103961904D01*
X209161904Y-104009523D01*
X208352380Y-104009523D01*
X209352380Y-105009523D02*
X209352380Y-104438095D01*
X209352380Y-104723809D02*
X208352380Y-104723809D01*
X208495238Y-104628571D01*
X208590476Y-104533333D01*
X208638095Y-104438095D01*
%TO.C,R4*%
X217052380Y-91433333D02*
X216576190Y-91100000D01*
X217052380Y-90861904D02*
X216052380Y-90861904D01*
X216052380Y-91242857D01*
X216100000Y-91338095D01*
X216147619Y-91385714D01*
X216242857Y-91433333D01*
X216385714Y-91433333D01*
X216480952Y-91385714D01*
X216528571Y-91338095D01*
X216576190Y-91242857D01*
X216576190Y-90861904D01*
X216385714Y-92290476D02*
X217052380Y-92290476D01*
X216004761Y-92052380D02*
X216719047Y-91814285D01*
X216719047Y-92433333D01*
%TO.C,R5*%
X200452380Y-88833333D02*
X199976190Y-88500000D01*
X200452380Y-88261904D02*
X199452380Y-88261904D01*
X199452380Y-88642857D01*
X199500000Y-88738095D01*
X199547619Y-88785714D01*
X199642857Y-88833333D01*
X199785714Y-88833333D01*
X199880952Y-88785714D01*
X199928571Y-88738095D01*
X199976190Y-88642857D01*
X199976190Y-88261904D01*
X199452380Y-89738095D02*
X199452380Y-89261904D01*
X199928571Y-89214285D01*
X199880952Y-89261904D01*
X199833333Y-89357142D01*
X199833333Y-89595238D01*
X199880952Y-89690476D01*
X199928571Y-89738095D01*
X200023809Y-89785714D01*
X200261904Y-89785714D01*
X200357142Y-89738095D01*
X200404761Y-89690476D01*
X200452380Y-89595238D01*
X200452380Y-89357142D01*
X200404761Y-89261904D01*
X200357142Y-89214285D01*
%TO.C,R6*%
X216416666Y-142952380D02*
X216750000Y-142476190D01*
X216988095Y-142952380D02*
X216988095Y-141952380D01*
X216607142Y-141952380D01*
X216511904Y-142000000D01*
X216464285Y-142047619D01*
X216416666Y-142142857D01*
X216416666Y-142285714D01*
X216464285Y-142380952D01*
X216511904Y-142428571D01*
X216607142Y-142476190D01*
X216988095Y-142476190D01*
X215559523Y-141952380D02*
X215750000Y-141952380D01*
X215845238Y-142000000D01*
X215892857Y-142047619D01*
X215988095Y-142190476D01*
X216035714Y-142380952D01*
X216035714Y-142761904D01*
X215988095Y-142857142D01*
X215940476Y-142904761D01*
X215845238Y-142952380D01*
X215654761Y-142952380D01*
X215559523Y-142904761D01*
X215511904Y-142857142D01*
X215464285Y-142761904D01*
X215464285Y-142523809D01*
X215511904Y-142428571D01*
X215559523Y-142380952D01*
X215654761Y-142333333D01*
X215845238Y-142333333D01*
X215940476Y-142380952D01*
X215988095Y-142428571D01*
X216035714Y-142523809D01*
%TO.C,D1*%
X79787382Y-96012497D02*
X78787382Y-96012497D01*
X78787382Y-96250593D01*
X78835002Y-96393450D01*
X78930240Y-96488688D01*
X79025478Y-96536307D01*
X79215954Y-96583926D01*
X79358811Y-96583926D01*
X79549287Y-96536307D01*
X79644525Y-96488688D01*
X79739763Y-96393450D01*
X79787382Y-96250593D01*
X79787382Y-96012497D01*
X79787382Y-97536307D02*
X79787382Y-96964878D01*
X79787382Y-97250593D02*
X78787382Y-97250593D01*
X78930240Y-97155354D01*
X79025478Y-97060116D01*
X79073097Y-96964878D01*
%TO.C,D49*%
X200787382Y-103036307D02*
X199787382Y-103036307D01*
X199787382Y-103274402D01*
X199835002Y-103417259D01*
X199930240Y-103512497D01*
X200025478Y-103560116D01*
X200215954Y-103607735D01*
X200358811Y-103607735D01*
X200549287Y-103560116D01*
X200644525Y-103512497D01*
X200739763Y-103417259D01*
X200787382Y-103274402D01*
X200787382Y-103036307D01*
X200120716Y-104464878D02*
X200787382Y-104464878D01*
X199739763Y-104226783D02*
X200454049Y-103988688D01*
X200454049Y-104607735D01*
X200787382Y-105036307D02*
X200787382Y-105226783D01*
X200739763Y-105322021D01*
X200692144Y-105369640D01*
X200549287Y-105464878D01*
X200358811Y-105512497D01*
X199977859Y-105512497D01*
X199882621Y-105464878D01*
X199835002Y-105417259D01*
X199787382Y-105322021D01*
X199787382Y-105131545D01*
X199835002Y-105036307D01*
X199882621Y-104988688D01*
X199977859Y-104941069D01*
X200215954Y-104941069D01*
X200311192Y-104988688D01*
X200358811Y-105036307D01*
X200406430Y-105131545D01*
X200406430Y-105322021D01*
X200358811Y-105417259D01*
X200311192Y-105464878D01*
X200215954Y-105512497D01*
%TO.C,D44*%
X204594959Y-171706303D02*
X203616811Y-171498391D01*
X203567309Y-171731284D01*
X203584185Y-171880920D01*
X203657541Y-171993878D01*
X203740798Y-172060257D01*
X203917211Y-172146438D01*
X204056946Y-172176140D01*
X204253161Y-172169163D01*
X204356218Y-172142386D01*
X204469176Y-172069030D01*
X204545456Y-171939195D01*
X204594959Y-171706303D01*
X203645844Y-172965049D02*
X204297942Y-173103657D01*
X203322719Y-172652952D02*
X204070899Y-172568568D01*
X203942191Y-173174088D01*
X203447833Y-173896618D02*
X204099931Y-174035226D01*
X203124708Y-173584521D02*
X203872888Y-173500138D01*
X203744180Y-174105657D01*
%TO.C,D46*%
X273986026Y-158637542D02*
X273007878Y-158845453D01*
X273057381Y-159078346D01*
X273133661Y-159208180D01*
X273246619Y-159281536D01*
X273349676Y-159308313D01*
X273545891Y-159315290D01*
X273685626Y-159285588D01*
X273862039Y-159199407D01*
X273945296Y-159133028D01*
X274018652Y-159020070D01*
X274035528Y-158870434D01*
X273986026Y-158637542D01*
X273630944Y-160173503D02*
X274283042Y-160034895D01*
X273208814Y-160019815D02*
X273857988Y-159638415D01*
X273986695Y-160243935D01*
X273502906Y-161174376D02*
X273463304Y-160988062D01*
X273490081Y-160885005D01*
X273526759Y-160828526D01*
X273646693Y-160705667D01*
X273823106Y-160619487D01*
X274195734Y-160540282D01*
X274298792Y-160567059D01*
X274355271Y-160603737D01*
X274421650Y-160686994D01*
X274461252Y-160873307D01*
X274434475Y-160976365D01*
X274397797Y-161032844D01*
X274314541Y-161099224D01*
X274081648Y-161148726D01*
X273978591Y-161121949D01*
X273922112Y-161085271D01*
X273855732Y-161002015D01*
X273816130Y-160815701D01*
X273842908Y-160712643D01*
X273879585Y-160656164D01*
X273962842Y-160589785D01*
%TO.C,D47*%
X298127449Y-155042934D02*
X297149301Y-155250845D01*
X297198804Y-155483738D01*
X297275084Y-155613572D01*
X297388042Y-155686928D01*
X297491099Y-155713705D01*
X297687314Y-155720682D01*
X297827049Y-155690980D01*
X298003462Y-155604799D01*
X298086719Y-155538420D01*
X298160075Y-155425462D01*
X298176951Y-155275826D01*
X298127449Y-155042934D01*
X297772367Y-156578895D02*
X298424465Y-156440287D01*
X297350237Y-156425207D02*
X297999411Y-156043807D01*
X298128118Y-156649327D01*
X297535423Y-157067405D02*
X297674031Y-157719503D01*
X298563073Y-157092386D01*
%TO.C,D45*%
X257295117Y-162185305D02*
X256316969Y-162393216D01*
X256366472Y-162626109D01*
X256442752Y-162755943D01*
X256555710Y-162829299D01*
X256658767Y-162856076D01*
X256854982Y-162863053D01*
X256994717Y-162833351D01*
X257171130Y-162747170D01*
X257254387Y-162680791D01*
X257327743Y-162567833D01*
X257344619Y-162418197D01*
X257295117Y-162185305D01*
X256940035Y-163721266D02*
X257592133Y-163582658D01*
X256517905Y-163567578D02*
X257167079Y-163186178D01*
X257295786Y-163791698D01*
X256821897Y-164768718D02*
X256722892Y-164302933D01*
X257178776Y-164157349D01*
X257142098Y-164213828D01*
X257115321Y-164316885D01*
X257164823Y-164549778D01*
X257231203Y-164633034D01*
X257287682Y-164669712D01*
X257390739Y-164696489D01*
X257623632Y-164646987D01*
X257706888Y-164580607D01*
X257743566Y-164524128D01*
X257770343Y-164421070D01*
X257720841Y-164188178D01*
X257654461Y-164104922D01*
X257597982Y-164068244D01*
%TO.C,D50*%
X201452380Y-93536306D02*
X200452380Y-93536306D01*
X200452380Y-93774401D01*
X200500000Y-93917258D01*
X200595238Y-94012496D01*
X200690476Y-94060115D01*
X200880952Y-94107734D01*
X201023809Y-94107734D01*
X201214285Y-94060115D01*
X201309523Y-94012496D01*
X201404761Y-93917258D01*
X201452380Y-93774401D01*
X201452380Y-93536306D01*
X200452380Y-95012496D02*
X200452380Y-94536306D01*
X200928571Y-94488687D01*
X200880952Y-94536306D01*
X200833333Y-94631544D01*
X200833333Y-94869639D01*
X200880952Y-94964877D01*
X200928571Y-95012496D01*
X201023809Y-95060115D01*
X201261904Y-95060115D01*
X201357142Y-95012496D01*
X201404761Y-94964877D01*
X201452380Y-94869639D01*
X201452380Y-94631544D01*
X201404761Y-94536306D01*
X201357142Y-94488687D01*
X200452380Y-95679163D02*
X200452380Y-95774401D01*
X200500000Y-95869639D01*
X200547619Y-95917258D01*
X200642857Y-95964877D01*
X200833333Y-96012496D01*
X201071428Y-96012496D01*
X201261904Y-95964877D01*
X201357142Y-95917258D01*
X201404761Y-95869639D01*
X201452380Y-95774401D01*
X201452380Y-95679163D01*
X201404761Y-95583925D01*
X201357142Y-95536306D01*
X201261904Y-95488687D01*
X201071428Y-95441068D01*
X200833333Y-95441068D01*
X200642857Y-95488687D01*
X200547619Y-95536306D01*
X200500000Y-95583925D01*
X200452380Y-95679163D01*
%TO.C,D48*%
X348416880Y-154826306D02*
X347416880Y-154826306D01*
X347416880Y-155064401D01*
X347464500Y-155207258D01*
X347559738Y-155302496D01*
X347654976Y-155350115D01*
X347845452Y-155397734D01*
X347988309Y-155397734D01*
X348178785Y-155350115D01*
X348274023Y-155302496D01*
X348369261Y-155207258D01*
X348416880Y-155064401D01*
X348416880Y-154826306D01*
X347750214Y-156254877D02*
X348416880Y-156254877D01*
X347369261Y-156016782D02*
X348083547Y-155778687D01*
X348083547Y-156397734D01*
X347845452Y-156921544D02*
X347797833Y-156826306D01*
X347750214Y-156778687D01*
X347654976Y-156731068D01*
X347607357Y-156731068D01*
X347512119Y-156778687D01*
X347464500Y-156826306D01*
X347416880Y-156921544D01*
X347416880Y-157112020D01*
X347464500Y-157207258D01*
X347512119Y-157254877D01*
X347607357Y-157302496D01*
X347654976Y-157302496D01*
X347750214Y-157254877D01*
X347797833Y-157207258D01*
X347845452Y-157112020D01*
X347845452Y-156921544D01*
X347893071Y-156826306D01*
X347940690Y-156778687D01*
X348035928Y-156731068D01*
X348226404Y-156731068D01*
X348321642Y-156778687D01*
X348369261Y-156826306D01*
X348416880Y-156921544D01*
X348416880Y-157112020D01*
X348369261Y-157207258D01*
X348321642Y-157254877D01*
X348226404Y-157302496D01*
X348035928Y-157302496D01*
X347940690Y-157254877D01*
X347893071Y-157207258D01*
X347845452Y-157112020D01*
%TO.C,C3*%
X218957142Y-91433333D02*
X219004761Y-91385714D01*
X219052380Y-91242857D01*
X219052380Y-91147619D01*
X219004761Y-91004761D01*
X218909523Y-90909523D01*
X218814285Y-90861904D01*
X218623809Y-90814285D01*
X218480952Y-90814285D01*
X218290476Y-90861904D01*
X218195238Y-90909523D01*
X218100000Y-91004761D01*
X218052380Y-91147619D01*
X218052380Y-91242857D01*
X218100000Y-91385714D01*
X218147619Y-91433333D01*
X218052380Y-91766666D02*
X218052380Y-92385714D01*
X218433333Y-92052380D01*
X218433333Y-92195238D01*
X218480952Y-92290476D01*
X218528571Y-92338095D01*
X218623809Y-92385714D01*
X218861904Y-92385714D01*
X218957142Y-92338095D01*
X219004761Y-92290476D01*
X219052380Y-92195238D01*
X219052380Y-91909523D01*
X219004761Y-91814285D01*
X218957142Y-91766666D01*
%TO.C,C8*%
X214757142Y-122933333D02*
X214804761Y-122885714D01*
X214852380Y-122742857D01*
X214852380Y-122647619D01*
X214804761Y-122504761D01*
X214709523Y-122409523D01*
X214614285Y-122361904D01*
X214423809Y-122314285D01*
X214280952Y-122314285D01*
X214090476Y-122361904D01*
X213995238Y-122409523D01*
X213900000Y-122504761D01*
X213852380Y-122647619D01*
X213852380Y-122742857D01*
X213900000Y-122885714D01*
X213947619Y-122933333D01*
X214280952Y-123504761D02*
X214233333Y-123409523D01*
X214185714Y-123361904D01*
X214090476Y-123314285D01*
X214042857Y-123314285D01*
X213947619Y-123361904D01*
X213900000Y-123409523D01*
X213852380Y-123504761D01*
X213852380Y-123695238D01*
X213900000Y-123790476D01*
X213947619Y-123838095D01*
X214042857Y-123885714D01*
X214090476Y-123885714D01*
X214185714Y-123838095D01*
X214233333Y-123790476D01*
X214280952Y-123695238D01*
X214280952Y-123504761D01*
X214328571Y-123409523D01*
X214376190Y-123361904D01*
X214471428Y-123314285D01*
X214661904Y-123314285D01*
X214757142Y-123361904D01*
X214804761Y-123409523D01*
X214852380Y-123504761D01*
X214852380Y-123695238D01*
X214804761Y-123790476D01*
X214757142Y-123838095D01*
X214661904Y-123885714D01*
X214471428Y-123885714D01*
X214376190Y-123838095D01*
X214328571Y-123790476D01*
X214280952Y-123695238D01*
%TO.C,R3*%
X205452379Y-88833333D02*
X204976189Y-88500000D01*
X205452379Y-88261904D02*
X204452379Y-88261904D01*
X204452379Y-88642857D01*
X204499999Y-88738095D01*
X204547618Y-88785714D01*
X204642856Y-88833333D01*
X204785713Y-88833333D01*
X204880951Y-88785714D01*
X204928570Y-88738095D01*
X204976189Y-88642857D01*
X204976189Y-88261904D01*
X204452379Y-89166666D02*
X204452379Y-89785714D01*
X204833332Y-89452380D01*
X204833332Y-89595238D01*
X204880951Y-89690476D01*
X204928570Y-89738095D01*
X205023808Y-89785714D01*
X205261903Y-89785714D01*
X205357141Y-89738095D01*
X205404760Y-89690476D01*
X205452379Y-89595238D01*
X205452379Y-89309523D01*
X205404760Y-89214285D01*
X205357141Y-89166666D01*
%TO.C,C13*%
X215592857Y-139607142D02*
X215640476Y-139654761D01*
X215783333Y-139702380D01*
X215878571Y-139702380D01*
X216021428Y-139654761D01*
X216116666Y-139559523D01*
X216164285Y-139464285D01*
X216211904Y-139273809D01*
X216211904Y-139130952D01*
X216164285Y-138940476D01*
X216116666Y-138845238D01*
X216021428Y-138750000D01*
X215878571Y-138702380D01*
X215783333Y-138702380D01*
X215640476Y-138750000D01*
X215592857Y-138797619D01*
X214640476Y-139702380D02*
X215211904Y-139702380D01*
X214926190Y-139702380D02*
X214926190Y-138702380D01*
X215021428Y-138845238D01*
X215116666Y-138940476D01*
X215211904Y-138988095D01*
X214307142Y-138702380D02*
X213688095Y-138702380D01*
X214021428Y-139083333D01*
X213878571Y-139083333D01*
X213783333Y-139130952D01*
X213735714Y-139178571D01*
X213688095Y-139273809D01*
X213688095Y-139511904D01*
X213735714Y-139607142D01*
X213783333Y-139654761D01*
X213878571Y-139702380D01*
X214164285Y-139702380D01*
X214259523Y-139654761D01*
X214307142Y-139607142D01*
%TO.C,C9*%
X218107142Y-133133333D02*
X218154761Y-133085714D01*
X218202380Y-132942857D01*
X218202380Y-132847619D01*
X218154761Y-132704761D01*
X218059523Y-132609523D01*
X217964285Y-132561904D01*
X217773809Y-132514285D01*
X217630952Y-132514285D01*
X217440476Y-132561904D01*
X217345238Y-132609523D01*
X217250000Y-132704761D01*
X217202380Y-132847619D01*
X217202380Y-132942857D01*
X217250000Y-133085714D01*
X217297619Y-133133333D01*
X218202380Y-133609523D02*
X218202380Y-133800000D01*
X218154761Y-133895238D01*
X218107142Y-133942857D01*
X217964285Y-134038095D01*
X217773809Y-134085714D01*
X217392857Y-134085714D01*
X217297619Y-134038095D01*
X217250000Y-133990476D01*
X217202380Y-133895238D01*
X217202380Y-133704761D01*
X217250000Y-133609523D01*
X217297619Y-133561904D01*
X217392857Y-133514285D01*
X217630952Y-133514285D01*
X217726190Y-133561904D01*
X217773809Y-133609523D01*
X217821428Y-133704761D01*
X217821428Y-133895238D01*
X217773809Y-133990476D01*
X217726190Y-134038095D01*
X217630952Y-134085714D01*
%TO.C,D40*%
X336452380Y-145785714D02*
X335452380Y-145785714D01*
X335452380Y-146023809D01*
X335500000Y-146166666D01*
X335595238Y-146261904D01*
X335690476Y-146309523D01*
X335880952Y-146357142D01*
X336023809Y-146357142D01*
X336214285Y-146309523D01*
X336309523Y-146261904D01*
X336404761Y-146166666D01*
X336452380Y-146023809D01*
X336452380Y-145785714D01*
X335785714Y-147214285D02*
X336452380Y-147214285D01*
X335404761Y-146976190D02*
X336119047Y-146738095D01*
X336119047Y-147357142D01*
X335452380Y-147928571D02*
X335452380Y-148023809D01*
X335500000Y-148119047D01*
X335547619Y-148166666D01*
X335642857Y-148214285D01*
X335833333Y-148261904D01*
X336071428Y-148261904D01*
X336261904Y-148214285D01*
X336357142Y-148166666D01*
X336404761Y-148119047D01*
X336452380Y-148023809D01*
X336452380Y-147928571D01*
X336404761Y-147833333D01*
X336357142Y-147785714D01*
X336261904Y-147738095D01*
X336071428Y-147690476D01*
X335833333Y-147690476D01*
X335642857Y-147738095D01*
X335547619Y-147785714D01*
X335500000Y-147833333D01*
X335452380Y-147928571D01*
%TO.C,U2*%
X215602381Y-130729208D02*
X216411905Y-130729208D01*
X216507143Y-130776827D01*
X216554762Y-130824446D01*
X216602381Y-130919684D01*
X216602381Y-131110160D01*
X216554762Y-131205398D01*
X216507143Y-131253017D01*
X216411905Y-131300636D01*
X215602381Y-131300636D01*
X215697620Y-131729208D02*
X215650001Y-131776827D01*
X215602381Y-131872065D01*
X215602381Y-132110160D01*
X215650001Y-132205398D01*
X215697620Y-132253017D01*
X215792858Y-132300636D01*
X215888096Y-132300636D01*
X216030953Y-132253017D01*
X216602381Y-131681589D01*
X216602381Y-132300636D01*
%TO.C,D51*%
X215252381Y-146685714D02*
X214252381Y-146685714D01*
X214252381Y-146923809D01*
X214300001Y-147066666D01*
X214395239Y-147161904D01*
X214490477Y-147209523D01*
X214680953Y-147257142D01*
X214823810Y-147257142D01*
X215014286Y-147209523D01*
X215109524Y-147161904D01*
X215204762Y-147066666D01*
X215252381Y-146923809D01*
X215252381Y-146685714D01*
X214252381Y-148161904D02*
X214252381Y-147685714D01*
X214728572Y-147638095D01*
X214680953Y-147685714D01*
X214633334Y-147780952D01*
X214633334Y-148019047D01*
X214680953Y-148114285D01*
X214728572Y-148161904D01*
X214823810Y-148209523D01*
X215061905Y-148209523D01*
X215157143Y-148161904D01*
X215204762Y-148114285D01*
X215252381Y-148019047D01*
X215252381Y-147780952D01*
X215204762Y-147685714D01*
X215157143Y-147638095D01*
X215252381Y-149161904D02*
X215252381Y-148590476D01*
X215252381Y-148876190D02*
X214252381Y-148876190D01*
X214395239Y-148780952D01*
X214490477Y-148685714D01*
X214538096Y-148590476D01*
D13*
%TO.C,D16*%
X99673751Y-120190592D02*
X99673751Y-116290592D01*
X97673751Y-120190592D02*
X97673751Y-116290592D01*
X99673751Y-120190592D02*
X97673751Y-120190592D01*
%TO.C,D17*%
X119105001Y-120190593D02*
X119105001Y-116290593D01*
X121105001Y-120190593D02*
X121105001Y-116290593D01*
X121105001Y-120190593D02*
X119105001Y-120190593D01*
%TO.C,D18*%
X138661438Y-121667982D02*
X139472294Y-117853207D01*
X140617733Y-122083806D02*
X138661438Y-121667982D01*
X140617733Y-122083806D02*
X141428589Y-118269030D01*
%TO.C,D19*%
X159251445Y-126044524D02*
X160062301Y-122229748D01*
X159251445Y-126044524D02*
X157295150Y-125628700D01*
X157295150Y-125628700D02*
X158106006Y-121813925D01*
%TO.C,D20*%
X177885156Y-130005242D02*
X175928861Y-129589418D01*
X175928861Y-129589418D02*
X176739717Y-125774643D01*
X177885156Y-130005242D02*
X178696012Y-126190466D01*
%TO.C,D21*%
X196518869Y-133965959D02*
X197329725Y-130151183D01*
X196518869Y-133965959D02*
X194562574Y-133550135D01*
X194562574Y-133550135D02*
X195373430Y-129735360D01*
%TO.C,D22*%
X242075936Y-130015637D02*
X241265080Y-126200862D01*
X240119641Y-130431461D02*
X239308785Y-126616685D01*
X242075936Y-130015637D02*
X240119641Y-130431461D01*
%TO.C,D23*%
X258753353Y-126470744D02*
X257942497Y-122655968D01*
X260709648Y-126054920D02*
X259898792Y-122240145D01*
X260709648Y-126054920D02*
X258753353Y-126470744D01*
%TO.C,D24*%
X277387065Y-122510026D02*
X276576209Y-118695250D01*
X279343360Y-122094202D02*
X277387065Y-122510026D01*
X279343360Y-122094202D02*
X278532504Y-118279427D01*
%TO.C,D25*%
X297977071Y-118133485D02*
X296020776Y-118549309D01*
X297977071Y-118133485D02*
X297166215Y-114318710D01*
X296020776Y-118549309D02*
X295209920Y-114734533D01*
%TO.C,D26*%
X317905001Y-120190592D02*
X315905001Y-120190592D01*
X317905001Y-120190592D02*
X317905001Y-116290592D01*
X315905001Y-120190592D02*
X315905001Y-116290592D01*
%TO.C,D27*%
X344098751Y-120190593D02*
X344098751Y-116290593D01*
X344098751Y-120190593D02*
X342098751Y-120190593D01*
X342098751Y-120190593D02*
X342098751Y-116290593D01*
%TO.C,D31*%
X162645150Y-146238699D02*
X163456006Y-142423924D01*
X164601445Y-146654523D02*
X165412301Y-142839747D01*
X164601445Y-146654523D02*
X162645150Y-146238699D01*
%TO.C,D32*%
X183235157Y-150615241D02*
X181278862Y-150199417D01*
X181278862Y-150199417D02*
X182089718Y-146384642D01*
X183235157Y-150615241D02*
X184046013Y-146800465D01*
%TO.C,D33*%
X201868869Y-154575959D02*
X199912574Y-154160135D01*
X201868869Y-154575959D02*
X202679725Y-150761183D01*
X199912574Y-154160135D02*
X200723430Y-150345360D01*
%TO.C,D34*%
X236715936Y-150625637D02*
X235905080Y-146810862D01*
X234759641Y-151041461D02*
X233948785Y-147226685D01*
X236715936Y-150625637D02*
X234759641Y-151041461D01*
%TO.C,D35*%
X255349648Y-146664919D02*
X253393353Y-147080743D01*
X255349648Y-146664919D02*
X254538792Y-142850144D01*
X253393353Y-147080743D02*
X252582497Y-143265967D01*
%TO.C,D36*%
X273983360Y-142704201D02*
X272027065Y-143120025D01*
X273983360Y-142704201D02*
X273172504Y-138889426D01*
X272027065Y-143120025D02*
X271216209Y-139305249D01*
%TO.C,D37*%
X290660777Y-139159307D02*
X289849921Y-135344531D01*
X292617072Y-138743483D02*
X290660777Y-139159307D01*
X292617072Y-138743483D02*
X291806216Y-134928708D01*
%TO.C,D38*%
X310545001Y-139240592D02*
X310545001Y-135340592D01*
X312545001Y-139240592D02*
X312545001Y-135340592D01*
X312545001Y-139240592D02*
X310545001Y-139240592D01*
%TO.C,D39*%
X333976251Y-145240592D02*
X331976251Y-145240592D01*
X333976251Y-145240592D02*
X333976251Y-141340592D01*
X331976251Y-145240592D02*
X331976251Y-141340592D01*
%TO.C,D42*%
X139201439Y-162267982D02*
X140012295Y-158453207D01*
X141157734Y-162683806D02*
X141968590Y-158869030D01*
X141157734Y-162683806D02*
X139201439Y-162267982D01*
%TO.C,F1*%
X205425002Y-95352657D02*
X205425002Y-94148529D01*
X207245002Y-95352657D02*
X207245002Y-94148529D01*
%TO.C,R1*%
X206497782Y-99760593D02*
X206172224Y-99760593D01*
X206497782Y-98740593D02*
X206172224Y-98740593D01*
%TO.C,D41*%
X97880001Y-158290592D02*
X97880001Y-154390592D01*
X97880001Y-158290592D02*
X95880001Y-158290592D01*
X95880001Y-158290592D02*
X95880001Y-154390592D01*
%TO.C,C1*%
X206172223Y-100740593D02*
X206497781Y-100740593D01*
X206172223Y-101760593D02*
X206497781Y-101760593D01*
%TO.C,C5*%
X208462779Y-144910000D02*
X208137221Y-144910000D01*
X208462779Y-143890000D02*
X208137221Y-143890000D01*
%TO.C,C10*%
X208837221Y-138990000D02*
X209162779Y-138990000D01*
X208837221Y-140010000D02*
X209162779Y-140010000D01*
%TO.C,C11*%
X202345002Y-128087814D02*
X202345002Y-128413372D01*
X201325002Y-128087814D02*
X201325002Y-128413372D01*
%TO.C,C12*%
X215690000Y-125762779D02*
X215690000Y-125437221D01*
X216710000Y-125762779D02*
X216710000Y-125437221D01*
%TO.C,Q1*%
X209880000Y-147040000D02*
X209880000Y-149200000D01*
X209880000Y-147040000D02*
X208950000Y-147040000D01*
X206720000Y-147040000D02*
X206720000Y-148500000D01*
X206720000Y-147040000D02*
X207650000Y-147040000D01*
%TO.C,R2*%
X206562779Y-108690000D02*
X206237221Y-108690000D01*
X206562779Y-109710000D02*
X206237221Y-109710000D01*
%TO.C,U3*%
X208500000Y-91539073D02*
X208500000Y-90539073D01*
X211500000Y-92039073D02*
X211000000Y-92039073D01*
X211500000Y-90539073D02*
X211500000Y-92039073D01*
%TO.C,C2*%
X206237221Y-107710000D02*
X206562779Y-107710000D01*
X206237221Y-106690000D02*
X206562779Y-106690000D01*
%TO.C,C4*%
X213762779Y-143890000D02*
X213437221Y-143890000D01*
X213762779Y-144910000D02*
X213437221Y-144910000D01*
%TO.C,C6*%
X208837221Y-137240000D02*
X209162779Y-137240000D01*
X208837221Y-138260000D02*
X209162779Y-138260000D01*
%TO.C,C7*%
X204345003Y-128087814D02*
X204345003Y-128413372D01*
X203325003Y-128087814D02*
X203325003Y-128413372D01*
%TO.C,D2*%
X101355001Y-101140593D02*
X99355001Y-101140593D01*
X101355001Y-101140593D02*
X101355001Y-97240593D01*
X99355001Y-101140593D02*
X99355001Y-97240593D01*
%TO.C,D3*%
X120405000Y-101140592D02*
X120405000Y-97240592D01*
X118405000Y-101140592D02*
X118405000Y-97240592D01*
X120405000Y-101140592D02*
X118405000Y-101140592D01*
%TO.C,D4*%
X139917734Y-102453806D02*
X137961439Y-102037982D01*
X137961439Y-102037982D02*
X138772295Y-98223207D01*
X139917734Y-102453806D02*
X140728590Y-98639030D01*
%TO.C,D5*%
X156595150Y-105998700D02*
X157406006Y-102183925D01*
X158551445Y-106414524D02*
X156595150Y-105998700D01*
X158551445Y-106414524D02*
X159362301Y-102599748D01*
%TO.C,D6*%
X177185157Y-110375242D02*
X175228862Y-109959418D01*
X175228862Y-109959418D02*
X176039718Y-106144643D01*
X177185157Y-110375242D02*
X177996013Y-106560466D01*
%TO.C,D7*%
X195818869Y-114335960D02*
X196629725Y-110521184D01*
X195818869Y-114335960D02*
X193862574Y-113920136D01*
X193862574Y-113920136D02*
X194673430Y-110105361D01*
%TO.C,D8*%
X233455936Y-112365638D02*
X232645080Y-108550863D01*
X231499641Y-112781462D02*
X230688785Y-108966686D01*
X233455936Y-112365638D02*
X231499641Y-112781462D01*
%TO.C,D9*%
X252089648Y-108404920D02*
X251278792Y-104590145D01*
X250133353Y-108820744D02*
X249322497Y-105005968D01*
X252089648Y-108404920D02*
X250133353Y-108820744D01*
%TO.C,D10*%
X270723360Y-104444203D02*
X269912504Y-100629428D01*
X270723360Y-104444203D02*
X268767065Y-104860027D01*
X268767065Y-104860027D02*
X267956209Y-101045251D01*
%TO.C,D11*%
X287400777Y-100899309D02*
X286589921Y-97084533D01*
X289357072Y-100483485D02*
X288546216Y-96668710D01*
X289357072Y-100483485D02*
X287400777Y-100899309D01*
%TO.C,D12*%
X309285001Y-100080593D02*
X309285001Y-96180593D01*
X307285001Y-100080593D02*
X307285001Y-96180593D01*
X309285001Y-100080593D02*
X307285001Y-100080593D01*
%TO.C,D13*%
X329000000Y-106200000D02*
X327000000Y-106200000D01*
X329000000Y-106200000D02*
X329000000Y-102300000D01*
X327000000Y-106200000D02*
X327000000Y-102300000D01*
%TO.C,D14*%
X346965001Y-101140593D02*
X344965001Y-101140593D01*
X344965001Y-101140593D02*
X344965001Y-97240593D01*
X346965001Y-101140593D02*
X346965001Y-97240593D01*
%TO.C,D15*%
X74265001Y-118050593D02*
X72265001Y-118050593D01*
X74265001Y-118050593D02*
X74265001Y-114150593D01*
X72265001Y-118050593D02*
X72265001Y-114150593D01*
%TO.C,D28*%
X98261251Y-139240592D02*
X98261251Y-135340592D01*
X100261251Y-139240592D02*
X98261251Y-139240592D01*
X100261251Y-139240592D02*
X100261251Y-135340592D01*
%TO.C,D29*%
X124455000Y-139240592D02*
X124455000Y-135340592D01*
X126455000Y-139240592D02*
X126455000Y-135340592D01*
X126455000Y-139240592D02*
X124455000Y-139240592D01*
%TO.C,D30*%
X145967733Y-142693807D02*
X144011438Y-142277983D01*
X145967733Y-142693807D02*
X146778589Y-138879031D01*
X144011438Y-142277983D02*
X144822294Y-138463208D01*
%TO.C,D43*%
X164310346Y-168008744D02*
X165121202Y-164193968D01*
X162354051Y-167592920D02*
X163164907Y-163778145D01*
X164310346Y-168008744D02*
X162354051Y-167592920D01*
%TO.C,J1*%
X223205000Y-98730000D02*
X223205000Y-96130000D01*
X225805000Y-98730000D02*
X225805000Y-97400000D01*
X223205000Y-96130000D02*
X225805000Y-96130000D01*
X225805000Y-93530000D02*
X212985000Y-93530000D01*
X212985000Y-98730000D02*
X212985000Y-93530000D01*
X225805000Y-96130000D02*
X225805000Y-93530000D01*
X224475000Y-98730000D02*
X225805000Y-98730000D01*
X223205000Y-98730000D02*
X212985000Y-98730000D01*
%TO.C,SW1*%
X210940000Y-152680000D02*
X208860000Y-152680000D01*
X207180000Y-156850000D02*
X207670000Y-157340000D01*
X210940000Y-158120000D02*
X208860000Y-158120000D01*
X207180000Y-153950000D02*
X207180000Y-156850000D01*
X207180000Y-153950000D02*
X207670000Y-153460000D01*
X212620000Y-156850000D02*
X212130000Y-157340000D01*
X212620000Y-153950000D02*
X212130000Y-153460000D01*
X212620000Y-153950000D02*
X212620000Y-156850000D01*
%TO.C,U1*%
X207980000Y-103440000D02*
X207980000Y-105600000D01*
X204820000Y-103440000D02*
X204820000Y-104900000D01*
X204820000Y-103440000D02*
X205750000Y-103440000D01*
X207980000Y-103440000D02*
X207050000Y-103440000D01*
%TO.C,R4*%
X216090000Y-89162779D02*
X216090000Y-88837221D01*
X217110000Y-89162779D02*
X217110000Y-88837221D01*
%TO.C,R5*%
X200890000Y-88837221D02*
X200890000Y-89162779D01*
X201910000Y-88837221D02*
X201910000Y-89162779D01*
%TO.C,R6*%
X213437221Y-141990000D02*
X213762779Y-141990000D01*
X213437221Y-143010000D02*
X213762779Y-143010000D01*
%TO.C,D1*%
X78335002Y-99000593D02*
X76335002Y-99000593D01*
X76335002Y-99000593D02*
X76335002Y-95100593D01*
X78335002Y-99000593D02*
X78335002Y-95100593D01*
%TO.C,D49*%
X201335002Y-102000593D02*
X201335002Y-105900593D01*
X201335002Y-102000593D02*
X203335002Y-102000593D01*
X203335002Y-102000593D02*
X203335002Y-105900593D01*
%TO.C,D44*%
X202346755Y-174153125D02*
X203157611Y-170338349D01*
X200390460Y-173737301D02*
X201201316Y-169922526D01*
X202346755Y-174153125D02*
X200390460Y-173737301D01*
%TO.C,D46*%
X273285649Y-162328091D02*
X271329354Y-162743915D01*
X273285649Y-162328091D02*
X272474793Y-158513316D01*
X271329354Y-162743915D02*
X270518498Y-158929139D01*
%TO.C,D47*%
X297427072Y-158733483D02*
X295470777Y-159149307D01*
X295470777Y-159149307D02*
X294659921Y-155334531D01*
X297427072Y-158733483D02*
X296616216Y-154918708D01*
%TO.C,D45*%
X256594740Y-165875854D02*
X254638445Y-166291678D01*
X254638445Y-166291678D02*
X253827589Y-162476902D01*
X256594740Y-165875854D02*
X255783884Y-162061079D01*
%TO.C,D50*%
X203835002Y-97000592D02*
X203835002Y-93100592D01*
X201835002Y-97000592D02*
X201835002Y-93100592D01*
X203835002Y-97000592D02*
X201835002Y-97000592D01*
%TO.C,D48*%
X346964500Y-158290592D02*
X344964500Y-158290592D01*
X344964500Y-158290592D02*
X344964500Y-154390592D01*
X346964500Y-158290592D02*
X346964500Y-154390592D01*
%TO.C,C3*%
X218090000Y-89162779D02*
X218090000Y-88837221D01*
X219110000Y-89162779D02*
X219110000Y-88837221D01*
%TO.C,C8*%
X214910000Y-125762779D02*
X214910000Y-125437221D01*
X213890000Y-125762779D02*
X213890000Y-125437221D01*
%TO.C,R3*%
X202889999Y-88837221D02*
X202889999Y-89162779D01*
X203909999Y-88837221D02*
X203909999Y-89162779D01*
%TO.C,C13*%
X213437221Y-138110000D02*
X213762779Y-138110000D01*
X213437221Y-137090000D02*
X213762779Y-137090000D01*
%TO.C,C9*%
X215690000Y-134712779D02*
X215690000Y-134387221D01*
X216710000Y-134712779D02*
X216710000Y-134387221D01*
%TO.C,D40*%
X337000000Y-145240592D02*
X337000000Y-141340592D01*
X335000000Y-145240592D02*
X335000000Y-141340592D01*
X337000000Y-145240592D02*
X335000000Y-145240592D01*
%TO.C,U2*%
X206390001Y-127881113D02*
X206840001Y-127881113D01*
X206390001Y-135101113D02*
X206840001Y-135101113D01*
X213610001Y-135101113D02*
X213160001Y-135101113D01*
X213610001Y-127881113D02*
X213160001Y-127881113D01*
X213610001Y-134651113D02*
X213610001Y-135101113D01*
X206390001Y-128331113D02*
X206390001Y-127881113D01*
X213160001Y-135101113D02*
X213160001Y-136391113D01*
X206390001Y-134651113D02*
X206390001Y-135101113D01*
X213610001Y-128331113D02*
X213610001Y-127881113D01*
%TO.C,D51*%
X211800001Y-145650000D02*
X213800001Y-145650000D01*
X213800001Y-145650000D02*
X213800001Y-149550000D01*
X211800001Y-145650000D02*
X211800001Y-149550000D01*
%TD*%
%LPC*%
D14*
%TO.C,H1*%
X66559523Y-132166666D02*
X70559523Y-133500000D01*
X66559523Y-134833333D01*
X70559523Y-136166666D02*
X66559523Y-136166666D01*
X70369047Y-137880952D02*
X70559523Y-138452380D01*
X70559523Y-139404761D01*
X70369047Y-139785714D01*
X70178571Y-139976190D01*
X69797619Y-140166666D01*
X69416666Y-140166666D01*
X69035714Y-139976190D01*
X68845238Y-139785714D01*
X68654761Y-139404761D01*
X68464285Y-138642857D01*
X68273809Y-138261904D01*
X68083333Y-138071428D01*
X67702380Y-137880952D01*
X67321428Y-137880952D01*
X66940476Y-138071428D01*
X66750000Y-138261904D01*
X66559523Y-138642857D01*
X66559523Y-139595238D01*
X66750000Y-140166666D01*
X70559523Y-141880952D02*
X66559523Y-141880952D01*
X66559523Y-144547619D02*
X66559523Y-145309523D01*
X66750000Y-145690476D01*
X67130952Y-146071428D01*
X67892857Y-146261904D01*
X69226190Y-146261904D01*
X69988095Y-146071428D01*
X70369047Y-145690476D01*
X70559523Y-145309523D01*
X70559523Y-144547619D01*
X70369047Y-144166666D01*
X69988095Y-143785714D01*
X69226190Y-143595238D01*
X67892857Y-143595238D01*
X67130952Y-143785714D01*
X66750000Y-144166666D01*
X66559523Y-144547619D01*
X70559523Y-147976190D02*
X66559523Y-147976190D01*
X70559523Y-150261904D01*
X66559523Y-150261904D01*
%TD*%
D15*
%TO.C,K_BSPC2*%
X339846251Y-105645593D03*
X316033751Y-105645593D03*
D16*
X339846251Y-90405593D03*
X316033751Y-90405593D03*
D17*
X333020001Y-97390593D03*
X322860001Y-97390593D03*
D18*
X324130001Y-94850593D03*
D15*
X327940001Y-97390593D03*
D18*
X330480001Y-92310593D03*
%TD*%
D17*
%TO.C,K_\u002C1*%
X287513991Y-135994400D03*
X277576011Y-138106782D03*
D15*
X282545001Y-137050591D03*
D18*
X278290163Y-135358240D03*
X283973305Y-131553505D03*
%TD*%
D17*
%TO.C,K_;1*%
X313485001Y-116440592D03*
X303325001Y-116440592D03*
D15*
X308405001Y-116440592D03*
D18*
X304595001Y-113900592D03*
X310945001Y-111360592D03*
%TD*%
D17*
%TO.C,K_A1*%
X116685002Y-116440593D03*
X106525002Y-116440593D03*
D15*
X111605002Y-116440593D03*
D18*
X107795002Y-113900593D03*
X114145002Y-111360593D03*
%TD*%
D17*
%TO.C,K_ALT1*%
X137613990Y-158096784D03*
X127676010Y-155984402D03*
D15*
X132645000Y-157040593D03*
D18*
X129446353Y-153763955D03*
X136185686Y-152599699D03*
%TD*%
D17*
%TO.C,K_B1*%
X198325126Y-149988936D03*
D15*
X193356136Y-148932745D03*
D17*
X188387146Y-147876554D03*
D18*
X190157489Y-145656107D03*
X196896822Y-144491851D03*
%TD*%
D15*
%TO.C,K_C1*%
X156088712Y-141011309D03*
D17*
X151119722Y-139955118D03*
X161057702Y-142067500D03*
D18*
X152890065Y-137734671D03*
X159629398Y-136570415D03*
%TD*%
D17*
%TO.C,K_CTRL1*%
X83300001Y-154540592D03*
X93460001Y-154540592D03*
D15*
X88380001Y-154540592D03*
D18*
X84570001Y-152000592D03*
X90920001Y-149460592D03*
%TD*%
D15*
%TO.C,K_D1*%
X150738712Y-120401310D03*
D17*
X145769722Y-119345119D03*
X155707702Y-121457501D03*
D18*
X147540065Y-117124672D03*
X154279398Y-115960416D03*
%TD*%
D17*
%TO.C,K_E1*%
X145069722Y-99715119D03*
D15*
X150038712Y-100771310D03*
D17*
X155007702Y-101827501D03*
D18*
X146840065Y-97494672D03*
X153579398Y-96330416D03*
%TD*%
D17*
%TO.C,K_F1*%
X164403434Y-123305837D03*
D15*
X169372424Y-124362028D03*
D17*
X174341414Y-125418219D03*
D18*
X166173777Y-121085390D03*
X172913110Y-119921134D03*
%TD*%
D15*
%TO.C,K_G1*%
X188006136Y-128322745D03*
D17*
X183037146Y-127266554D03*
X192975126Y-129378936D03*
D18*
X184807489Y-125046107D03*
X191546822Y-123881851D03*
%TD*%
D15*
%TO.C,K_H1*%
X232003865Y-128322744D03*
D17*
X236972855Y-127266553D03*
X227034875Y-129378935D03*
D18*
X227749027Y-126630393D03*
X233432169Y-122825658D03*
%TD*%
D17*
%TO.C,K_I1*%
X255682299Y-103807502D03*
X265620279Y-101695120D03*
D15*
X260651289Y-102751311D03*
D18*
X256396451Y-101058960D03*
X262079593Y-97254225D03*
%TD*%
D17*
%TO.C,K_J1*%
X245668587Y-125418219D03*
X255606567Y-123305837D03*
D15*
X250637577Y-124362028D03*
D18*
X246382739Y-122669677D03*
X252065881Y-118864942D03*
%TD*%
D15*
%TO.C,K_K1*%
X269271289Y-120401310D03*
D17*
X264302299Y-121457501D03*
X274240279Y-119345119D03*
D18*
X265016451Y-118708959D03*
X270699593Y-114904224D03*
%TD*%
D17*
%TO.C,K_L1*%
X282936010Y-117496784D03*
X292873990Y-115384402D03*
D15*
X287905000Y-116440593D03*
D18*
X283650162Y-114748242D03*
X289333304Y-110943507D03*
%TD*%
D15*
%TO.C,K_M1*%
X263911288Y-141011309D03*
D17*
X268880278Y-139955118D03*
X258942298Y-142067500D03*
D18*
X259656450Y-139318958D03*
X265339592Y-135514223D03*
%TD*%
D17*
%TO.C,K_N1*%
X250246567Y-143915836D03*
D15*
X245277577Y-144972027D03*
D17*
X240308587Y-146028218D03*
D18*
X241022739Y-143279676D03*
X246705881Y-139474941D03*
%TD*%
D15*
%TO.C,K_O1*%
X279285001Y-98790593D03*
D17*
X284253991Y-97734402D03*
X274316011Y-99846784D03*
D18*
X275030163Y-97098242D03*
X280713305Y-93293507D03*
%TD*%
D17*
%TO.C,K_P1*%
X294705001Y-96330593D03*
D15*
X299785001Y-96330593D03*
D17*
X304865001Y-96330593D03*
D18*
X295975001Y-93790593D03*
X302325001Y-91250593D03*
%TD*%
D17*
%TO.C,K_Q1*%
X105825000Y-97390592D03*
X115985000Y-97390592D03*
D15*
X110905000Y-97390592D03*
D18*
X107095000Y-94850592D03*
X113445000Y-92310592D03*
%TD*%
D17*
%TO.C,K_R1*%
X173641414Y-105788219D03*
X163703434Y-103675837D03*
D15*
X168672424Y-104732028D03*
D18*
X165473777Y-101455390D03*
X172213110Y-100291134D03*
%TD*%
D17*
%TO.C,K_S1*%
X137073989Y-117496784D03*
X127136009Y-115384402D03*
D15*
X132104999Y-116440593D03*
D18*
X128906352Y-113163955D03*
X135645685Y-111999699D03*
%TD*%
D15*
%TO.C,K_SHIFT1*%
X90761251Y-135490592D03*
D17*
X85681251Y-135490592D03*
X95841251Y-135490592D03*
D18*
X86951251Y-132950592D03*
X93301251Y-130410592D03*
%TD*%
D17*
%TO.C,K_SHIFT2*%
X319396250Y-135490592D03*
X329556250Y-135490592D03*
D15*
X324476250Y-135490592D03*
D18*
X320666250Y-132950592D03*
X327016250Y-130410592D03*
%TD*%
D17*
%TO.C,K_T1*%
X192275126Y-109748937D03*
X182337146Y-107636555D03*
D15*
X187306136Y-108692746D03*
D18*
X184107489Y-105416108D03*
X190846822Y-104251852D03*
%TD*%
D17*
%TO.C,K_TAB1*%
X85093751Y-116440593D03*
D15*
X90173751Y-116440593D03*
D17*
X95253751Y-116440593D03*
D18*
X86363751Y-113900593D03*
X92713751Y-111360593D03*
%TD*%
D15*
%TO.C,K_U1*%
X242017576Y-106712028D03*
D17*
X237048586Y-107768219D03*
X246986566Y-105655837D03*
D18*
X237762738Y-105019677D03*
X243445880Y-101214942D03*
%TD*%
D15*
%TO.C,K_V1*%
X174722424Y-144972027D03*
D17*
X169753434Y-143915836D03*
X179691414Y-146028218D03*
D18*
X171523777Y-141695389D03*
X178263110Y-140531133D03*
%TD*%
D17*
%TO.C,K_W1*%
X126436011Y-95754401D03*
X136373991Y-97866783D03*
D15*
X131405001Y-96810592D03*
D18*
X128206354Y-93533954D03*
X134945687Y-92369698D03*
%TD*%
D15*
%TO.C,K_WIN1*%
X156566598Y-160588476D03*
D17*
X161535588Y-161644667D03*
X151597608Y-159532285D03*
D18*
X153367951Y-157311838D03*
X160107284Y-156147582D03*
%TD*%
D17*
%TO.C,K_X1*%
X132486010Y-135994401D03*
D15*
X137455000Y-137050592D03*
D17*
X142423990Y-138106783D03*
D18*
X134256353Y-133773954D03*
X140995686Y-132609698D03*
%TD*%
D15*
%TO.C,K_Z1*%
X116955000Y-135490592D03*
D17*
X111875000Y-135490592D03*
X122035000Y-135490592D03*
D18*
X113145000Y-132950592D03*
X119495000Y-130410592D03*
%TD*%
D15*
%TO.C,K_ENTER1*%
X334598751Y-116440593D03*
D17*
X339678751Y-116440593D03*
X329518751Y-116440593D03*
D18*
X330788751Y-113900593D03*
X337138751Y-111360593D03*
%TD*%
D15*
%TO.C,K_.1*%
X303045001Y-135490592D03*
D17*
X297965001Y-135490592D03*
X308125001Y-135490592D03*
D18*
X299235001Y-132950592D03*
X305585001Y-130410592D03*
%TD*%
D17*
%TO.C,K_ALT2*%
X282386011Y-158096782D03*
X292323991Y-155984400D03*
D15*
X287355001Y-157040591D03*
D18*
X283100163Y-155348240D03*
X288783305Y-151543505D03*
%TD*%
D17*
%TO.C,K_B2*%
X231612855Y-147876554D03*
D15*
X226643865Y-148932745D03*
D17*
X221674875Y-149988936D03*
D18*
X222389027Y-147240394D03*
X228072169Y-143435659D03*
%TD*%
D15*
%TO.C,K_CTRL2*%
X337464500Y-154540592D03*
D17*
X342544500Y-154540592D03*
X332384500Y-154540592D03*
D18*
X333654500Y-152000592D03*
X340004500Y-149460592D03*
%TD*%
D17*
%TO.C,K_DEL1*%
X342545001Y-97390593D03*
D15*
X337465001Y-97390593D03*
D17*
X332385001Y-97390593D03*
D18*
X333655001Y-94850593D03*
X340005001Y-92310593D03*
%TD*%
D17*
%TO.C,K_ESC1*%
X96935001Y-97390593D03*
X86775001Y-97390593D03*
D15*
X91855001Y-97390593D03*
D18*
X88045001Y-94850593D03*
X94395001Y-92310593D03*
%TD*%
D17*
%TO.C,K_FN1*%
X340827501Y-135490592D03*
X350987501Y-135490592D03*
D15*
X345907501Y-135490592D03*
D18*
X342097501Y-132950592D03*
X348447501Y-130410592D03*
%TD*%
D17*
%TO.C,K_BSPC1*%
X323495001Y-97390592D03*
D15*
X318415001Y-97390592D03*
D17*
X313335001Y-97390592D03*
D18*
X314605001Y-94850592D03*
X320955001Y-92310592D03*
%TD*%
D17*
%TO.C,K_PGDN1*%
X59685000Y-114300593D03*
D15*
X64765000Y-114300593D03*
D17*
X69845000Y-114300593D03*
D18*
X60955000Y-111760593D03*
X67305000Y-109220593D03*
%TD*%
D17*
%TO.C,K_PGUP1*%
X63755002Y-95250593D03*
X73915002Y-95250593D03*
D15*
X68835002Y-95250593D03*
D18*
X65025002Y-92710593D03*
X71375002Y-90170593D03*
%TD*%
D17*
%TO.C,K_SPC1*%
X179548172Y-165473359D03*
D15*
X184517162Y-166529550D03*
D17*
X189486152Y-167585741D03*
D15*
X197879543Y-160930390D03*
D16*
X171418829Y-170886462D03*
X194710969Y-175837360D03*
D15*
X174587403Y-155979493D03*
D18*
X181318515Y-163252912D03*
X188057848Y-162088656D03*
%TD*%
D17*
%TO.C,K_SPC2*%
X232623235Y-167137378D03*
D15*
X237592225Y-166081187D03*
D17*
X242561215Y-165024996D03*
D18*
X233337387Y-164388836D03*
X239020529Y-160584101D03*
%TD*%
D15*
%TO.C,K_WIN2*%
X263213578Y-160635200D03*
D17*
X268182568Y-159579009D03*
X258244588Y-161691391D03*
D18*
X258958740Y-158942849D03*
X264641882Y-155138114D03*
%TD*%
D17*
%TO.C,K_Y1*%
X228352855Y-109616555D03*
D15*
X223383865Y-110672746D03*
D17*
X218414875Y-111728937D03*
D18*
X219129027Y-108980395D03*
X224812169Y-105175660D03*
%TD*%
D19*
%TO.C,H7*%
X275839133Y-168885953D03*
X277081381Y-168621905D03*
X278323628Y-168357857D03*
X274596886Y-169150000D03*
X273354639Y-169414048D03*
%TD*%
%TO.C,H9*%
X343227501Y-85704000D03*
X339417501Y-85704000D03*
X340687501Y-85704000D03*
X344497501Y-85704000D03*
X341957501Y-85704000D03*
%TD*%
%TO.C,H10*%
X260270000Y-85704001D03*
X261540000Y-85704001D03*
X256460000Y-85704001D03*
X257730000Y-85704001D03*
X259000000Y-85704001D03*
%TD*%
%TO.C,H12*%
X67445001Y-85703999D03*
X66175001Y-85703999D03*
X69985001Y-85703999D03*
X68715001Y-85703999D03*
X71255001Y-85703999D03*
%TD*%
%TO.C,H13*%
X79985001Y-163786591D03*
X77445001Y-163786591D03*
X81255001Y-163786591D03*
X78715001Y-163786591D03*
X76175001Y-163786591D03*
%TD*%
%TO.C,H15*%
X208730000Y-177086880D03*
X210000000Y-177086880D03*
X212540000Y-177086880D03*
X207460000Y-177086880D03*
X211270000Y-177086880D03*
%TD*%
%TO.C,H11*%
X159730000Y-85704000D03*
X161000000Y-85704000D03*
X158460000Y-85704000D03*
X162270000Y-85704000D03*
X163540000Y-85704000D03*
%TD*%
%TO.C,H14*%
X151075615Y-170415598D03*
X149833368Y-170151551D03*
X152317862Y-170679646D03*
X147348873Y-169623455D03*
X148591120Y-169887503D03*
%TD*%
%TO.C,H8*%
X333227501Y-163786591D03*
X331957501Y-163786591D03*
X334497501Y-163786591D03*
X329417501Y-163786591D03*
X330687501Y-163786591D03*
%TD*%
D16*
%TO.C,K_SHIFT3*%
X345907501Y-128505592D03*
D17*
X328921251Y-135490592D03*
D15*
X345907501Y-143745592D03*
D16*
X322095001Y-128505592D03*
D17*
X339081251Y-135490592D03*
D15*
X334001251Y-135490592D03*
X322095001Y-143745592D03*
D18*
X330191251Y-132950592D03*
X336541251Y-130410592D03*
%TD*%
D15*
%TO.C,K_SPC3*%
X175200305Y-164549191D03*
D17*
X180169295Y-165605382D03*
D16*
X192381754Y-175342270D03*
D15*
X158282904Y-152513865D03*
D16*
X155114330Y-167420834D03*
D15*
X195550328Y-160435300D03*
D17*
X170231315Y-163493000D03*
D18*
X172001658Y-161272553D03*
X178740991Y-160108297D03*
%TD*%
D17*
%TO.C,K_SPC4*%
X251878071Y-163044637D03*
X241940091Y-165157019D03*
D16*
X260007414Y-168457740D03*
X236715274Y-173408638D03*
D15*
X256838840Y-153550771D03*
X233546700Y-158501668D03*
X246909081Y-164100828D03*
D18*
X242654243Y-162408477D03*
X248337385Y-158603742D03*
%TD*%
D20*
%TO.C,D16*%
X98673751Y-119590592D03*
X98673751Y-116290592D03*
%TD*%
%TO.C,D17*%
X120105001Y-119590593D03*
X120105001Y-116290593D03*
%TD*%
D21*
%TO.C,D18*%
X139764333Y-121289006D03*
X140450441Y-118061118D03*
%TD*%
%TO.C,D19*%
X158398045Y-125249724D03*
X159084153Y-122021836D03*
%TD*%
%TO.C,D20*%
X177031756Y-129210442D03*
X177717864Y-125982554D03*
%TD*%
%TO.C,D21*%
X195665469Y-133171159D03*
X196351577Y-129943271D03*
%TD*%
D22*
%TO.C,D22*%
X240973041Y-129636661D03*
X240286933Y-126408773D03*
%TD*%
%TO.C,D23*%
X259606753Y-125675944D03*
X258920645Y-122448056D03*
%TD*%
%TO.C,D24*%
X278240465Y-121715226D03*
X277554357Y-118487338D03*
%TD*%
%TO.C,D25*%
X296874176Y-117754509D03*
X296188068Y-114526621D03*
%TD*%
D20*
%TO.C,D26*%
X316905001Y-119590592D03*
X316905001Y-116290592D03*
%TD*%
%TO.C,D27*%
X343098751Y-119590593D03*
X343098751Y-116290593D03*
%TD*%
D21*
%TO.C,D31*%
X163748045Y-145859723D03*
X164434153Y-142631835D03*
%TD*%
%TO.C,D32*%
X182381757Y-149820441D03*
X183067865Y-146592553D03*
%TD*%
%TO.C,D33*%
X201015469Y-153781159D03*
X201701577Y-150553271D03*
%TD*%
D22*
%TO.C,D34*%
X235613041Y-150246661D03*
X234926933Y-147018773D03*
%TD*%
%TO.C,D35*%
X254246753Y-146285943D03*
X253560645Y-143058055D03*
%TD*%
%TO.C,D36*%
X272880465Y-142325225D03*
X272194357Y-139097337D03*
%TD*%
%TO.C,D37*%
X291514177Y-138364507D03*
X290828069Y-135136619D03*
%TD*%
D20*
%TO.C,D38*%
X311545001Y-138640592D03*
X311545001Y-135340592D03*
%TD*%
%TO.C,D39*%
X332976251Y-144640592D03*
X332976251Y-141340592D03*
%TD*%
D21*
%TO.C,D42*%
X140304334Y-161889006D03*
X140990442Y-158661118D03*
%TD*%
D23*
%TO.C,F1*%
X206335002Y-96150593D03*
X206335002Y-93350593D03*
%TD*%
D24*
%TO.C,R1*%
X207122503Y-99250593D03*
X205547503Y-99250593D03*
%TD*%
D25*
%TO.C,USB1*%
X207110000Y-86250000D03*
X212890000Y-86250000D03*
D26*
X206775000Y-87695000D03*
X207550000Y-87695000D03*
D27*
X208250000Y-87695000D03*
X208750000Y-87695000D03*
X209250000Y-87695000D03*
X209750000Y-87695000D03*
X210250000Y-87695000D03*
X210750000Y-87695000D03*
X211250000Y-87695000D03*
X211750000Y-87695000D03*
D26*
X212450000Y-87695000D03*
X213225000Y-87695000D03*
D28*
X205680000Y-82600000D03*
D29*
X214320000Y-86780000D03*
D28*
X214320000Y-82600000D03*
D29*
X205680000Y-86780000D03*
%TD*%
D20*
%TO.C,D41*%
X96880001Y-157690592D03*
X96880001Y-154390592D03*
%TD*%
D30*
%TO.C,C1*%
X205547502Y-101250593D03*
X207122502Y-101250593D03*
%TD*%
D24*
%TO.C,C5*%
X209087500Y-144400000D03*
X207512500Y-144400000D03*
%TD*%
D30*
%TO.C,C10*%
X208212500Y-139500000D03*
X209787500Y-139500000D03*
%TD*%
D31*
%TO.C,C11*%
X201835002Y-127463093D03*
X201835002Y-129038093D03*
%TD*%
D32*
%TO.C,C12*%
X216200000Y-126387500D03*
X216200000Y-124812500D03*
%TD*%
D33*
%TO.C,Q1*%
X209250000Y-148800000D03*
X207350000Y-148800000D03*
X208300000Y-146800000D03*
%TD*%
D24*
%TO.C,R2*%
X207187500Y-109200000D03*
X205612500Y-109200000D03*
%TD*%
D34*
%TO.C,U3*%
X211000000Y-91456573D03*
X210500000Y-91456573D03*
D35*
X210000000Y-91456573D03*
D34*
X209500000Y-91456573D03*
X209000000Y-91456573D03*
X209000000Y-90621573D03*
X209500000Y-90621573D03*
D35*
X210000000Y-90621573D03*
D34*
X210500000Y-90621573D03*
X211000000Y-90621573D03*
%TD*%
D30*
%TO.C,C2*%
X205612500Y-107200000D03*
X207187500Y-107200000D03*
%TD*%
D24*
%TO.C,C4*%
X214387500Y-144400000D03*
X212812500Y-144400000D03*
%TD*%
D30*
%TO.C,C6*%
X208212500Y-137750000D03*
X209787500Y-137750000D03*
%TD*%
D31*
%TO.C,C7*%
X203835003Y-127463093D03*
X203835003Y-129038093D03*
%TD*%
D20*
%TO.C,D2*%
X100355001Y-100540593D03*
X100355001Y-97240593D03*
%TD*%
%TO.C,D3*%
X119405000Y-100540592D03*
X119405000Y-97240592D03*
%TD*%
D21*
%TO.C,D4*%
X139064334Y-101659006D03*
X139750442Y-98431118D03*
%TD*%
%TO.C,D5*%
X157698045Y-105619724D03*
X158384153Y-102391836D03*
%TD*%
%TO.C,D6*%
X176331757Y-109580442D03*
X177017865Y-106352554D03*
%TD*%
%TO.C,D7*%
X194965469Y-113541160D03*
X195651577Y-110313272D03*
%TD*%
D22*
%TO.C,D8*%
X232353041Y-111986662D03*
X231666933Y-108758774D03*
%TD*%
%TO.C,D9*%
X250986753Y-108025944D03*
X250300645Y-104798056D03*
%TD*%
%TO.C,D10*%
X269620465Y-104065227D03*
X268934357Y-100837339D03*
%TD*%
%TO.C,D11*%
X288254177Y-100104509D03*
X287568069Y-96876621D03*
%TD*%
D20*
%TO.C,D12*%
X308285001Y-99480593D03*
X308285001Y-96180593D03*
%TD*%
%TO.C,D13*%
X328000000Y-105600000D03*
X328000000Y-102300000D03*
%TD*%
%TO.C,D14*%
X345965001Y-100540593D03*
X345965001Y-97240593D03*
%TD*%
%TO.C,D15*%
X73265001Y-117450593D03*
X73265001Y-114150593D03*
%TD*%
%TO.C,D28*%
X99261251Y-138640592D03*
X99261251Y-135340592D03*
%TD*%
%TO.C,D29*%
X125455000Y-138640592D03*
X125455000Y-135340592D03*
%TD*%
D21*
%TO.C,D30*%
X145114333Y-141899007D03*
X145800441Y-138671119D03*
%TD*%
%TO.C,D43*%
X163456946Y-167213944D03*
X164143054Y-163986056D03*
%TD*%
D36*
%TO.C,J1*%
X224475000Y-97400000D03*
D37*
X224475000Y-94860000D03*
X221935000Y-97400000D03*
X221935000Y-94860000D03*
X219395000Y-97400000D03*
X219395000Y-94860000D03*
X216855000Y-97400000D03*
X216855000Y-94860000D03*
X214315000Y-97400000D03*
X214315000Y-94860000D03*
%TD*%
D38*
%TO.C,SW1*%
X208050000Y-158500000D03*
X208050000Y-152300000D03*
X211750000Y-152300000D03*
X211750000Y-158500000D03*
%TD*%
D33*
%TO.C,U1*%
X207350000Y-105200000D03*
X205450000Y-105200000D03*
X206400000Y-103200000D03*
%TD*%
D32*
%TO.C,R4*%
X216600000Y-89787500D03*
X216600000Y-88212500D03*
%TD*%
D31*
%TO.C,R5*%
X201400000Y-88212500D03*
X201400000Y-89787500D03*
%TD*%
D30*
%TO.C,R6*%
X212812500Y-142500000D03*
X214387500Y-142500000D03*
%TD*%
D20*
%TO.C,D1*%
X77335002Y-98400593D03*
X77335002Y-95100593D03*
%TD*%
D39*
%TO.C,D49*%
X202335002Y-102600593D03*
X202335002Y-105900593D03*
%TD*%
D21*
%TO.C,D44*%
X201493355Y-173358325D03*
X202179463Y-170130437D03*
%TD*%
D22*
%TO.C,D46*%
X272182754Y-161949115D03*
X271496646Y-158721227D03*
%TD*%
%TO.C,D47*%
X296324177Y-158354507D03*
X295638069Y-155126619D03*
%TD*%
%TO.C,D45*%
X255491845Y-165496878D03*
X254805737Y-162268990D03*
%TD*%
D20*
%TO.C,D50*%
X202835002Y-96400592D03*
X202835002Y-93100592D03*
%TD*%
%TO.C,D48*%
X345964500Y-157690592D03*
X345964500Y-154390592D03*
%TD*%
D32*
%TO.C,C3*%
X218600000Y-89787500D03*
X218600000Y-88212500D03*
%TD*%
%TO.C,C8*%
X214400000Y-126387500D03*
X214400000Y-124812500D03*
%TD*%
D31*
%TO.C,R3*%
X203399999Y-88212500D03*
X203399999Y-89787500D03*
%TD*%
D40*
%TO.C,H3*%
X339957502Y-73000000D03*
%TD*%
%TO.C,H4*%
X75715001Y-187040592D03*
%TD*%
D41*
%TO.C,H5*%
X75715001Y-73000000D03*
%TD*%
%TO.C,H6*%
X339957500Y-187040592D03*
%TD*%
D30*
%TO.C,C13*%
X212812500Y-137600000D03*
X214387500Y-137600000D03*
%TD*%
D32*
%TO.C,C9*%
X216200000Y-135337500D03*
X216200000Y-133762500D03*
%TD*%
D20*
%TO.C,D40*%
X336000000Y-144640592D03*
X336000000Y-141340592D03*
%TD*%
D42*
%TO.C,U2*%
X212750001Y-135653613D03*
X212250001Y-135653613D03*
X211750001Y-135653613D03*
X211250001Y-135653613D03*
X210750001Y-135653613D03*
X210250001Y-135653613D03*
X209750001Y-135653613D03*
X209250001Y-135653613D03*
X208750001Y-135653613D03*
X208250001Y-135653613D03*
X207750001Y-135653613D03*
X207250001Y-135653613D03*
D43*
X205837501Y-134241113D03*
X205837501Y-133741113D03*
X205837501Y-133241113D03*
X205837501Y-132741113D03*
X205837501Y-132241113D03*
X205837501Y-131741113D03*
X205837501Y-131241113D03*
X205837501Y-130741113D03*
X205837501Y-130241113D03*
X205837501Y-129741113D03*
X205837501Y-129241113D03*
X205837501Y-128741113D03*
D42*
X207250001Y-127328613D03*
X207750001Y-127328613D03*
X208250001Y-127328613D03*
X208750001Y-127328613D03*
X209250001Y-127328613D03*
X209750001Y-127328613D03*
X210250001Y-127328613D03*
X210750001Y-127328613D03*
X211250001Y-127328613D03*
X211750001Y-127328613D03*
X212250001Y-127328613D03*
X212750001Y-127328613D03*
D43*
X214162501Y-128741113D03*
X214162501Y-129241113D03*
X214162501Y-129741113D03*
X214162501Y-130241113D03*
X214162501Y-130741113D03*
X214162501Y-131241113D03*
X214162501Y-131741113D03*
X214162501Y-132241113D03*
X214162501Y-132741113D03*
X214162501Y-133241113D03*
X214162501Y-133741113D03*
X214162501Y-134241113D03*
%TD*%
D39*
%TO.C,D51*%
X212800001Y-146250000D03*
X212800001Y-149550000D03*
%TD*%
M02*
