G04 #@! TF.GenerationSoftware,KiCad,Pcbnew,(6.0.11-0)*
G04 #@! TF.CreationDate,2023-07-09T04:06:18+09:00*
G04 #@! TF.ProjectId,Vision,56697369-6f6e-42e6-9b69-6361645f7063,rev?*
G04 #@! TF.SameCoordinates,Original*
G04 #@! TF.FileFunction,Copper,L2,Bot*
G04 #@! TF.FilePolarity,Positive*
%FSLAX46Y46*%
G04 Gerber Fmt 4.6, Leading zero omitted, Abs format (unit mm)*
G04 Created by KiCad (PCBNEW (6.0.11-0)) date 2023-07-09 04:06:18*
%MOMM*%
%LPD*%
G01*
G04 APERTURE LIST*
G04 Aperture macros list*
%AMRoundRect*
0 Rectangle with rounded corners*
0 $1 Rounding radius*
0 $2 $3 $4 $5 $6 $7 $8 $9 X,Y pos of 4 corners*
0 Add a 4 corners polygon primitive as box body*
4,1,4,$2,$3,$4,$5,$6,$7,$8,$9,$2,$3,0*
0 Add four circle primitives for the rounded corners*
1,1,$1+$1,$2,$3*
1,1,$1+$1,$4,$5*
1,1,$1+$1,$6,$7*
1,1,$1+$1,$8,$9*
0 Add four rect primitives between the rounded corners*
20,1,$1+$1,$2,$3,$4,$5,0*
20,1,$1+$1,$4,$5,$6,$7,0*
20,1,$1+$1,$6,$7,$8,$9,0*
20,1,$1+$1,$8,$9,$2,$3,0*%
%AMRotRect*
0 Rectangle, with rotation*
0 The origin of the aperture is its center*
0 $1 length*
0 $2 width*
0 $3 Rotation angle, in degrees counterclockwise*
0 Add horizontal line*
21,1,$1,$2,0,0,$3*%
G04 Aperture macros list end*
%ADD10C,0.400000*%
G04 #@! TA.AperFunction,NonConductor*
%ADD11C,0.400000*%
G04 #@! TD*
G04 #@! TA.AperFunction,SMDPad,CuDef*
%ADD12R,0.600000X1.450000*%
G04 #@! TD*
G04 #@! TA.AperFunction,SMDPad,CuDef*
%ADD13R,0.300000X1.450000*%
G04 #@! TD*
G04 #@! TA.AperFunction,ComponentPad*
%ADD14O,1.000000X1.600000*%
G04 #@! TD*
G04 #@! TA.AperFunction,ComponentPad*
%ADD15O,1.000000X2.100000*%
G04 #@! TD*
G04 #@! TA.AperFunction,ComponentPad*
%ADD16C,2.250000*%
G04 #@! TD*
G04 #@! TA.AperFunction,SMDPad,CuDef*
%ADD17R,1.200000X0.900000*%
G04 #@! TD*
G04 #@! TA.AperFunction,SMDPad,CuDef*
%ADD18RotRect,0.900000X1.200000X78.000000*%
G04 #@! TD*
G04 #@! TA.AperFunction,SMDPad,CuDef*
%ADD19RotRect,0.900000X1.200000X102.000000*%
G04 #@! TD*
G04 #@! TA.AperFunction,SMDPad,CuDef*
%ADD20RoundRect,0.250000X0.625000X-0.375000X0.625000X0.375000X-0.625000X0.375000X-0.625000X-0.375000X0*%
G04 #@! TD*
G04 #@! TA.AperFunction,SMDPad,CuDef*
%ADD21RoundRect,0.218750X0.218750X0.256250X-0.218750X0.256250X-0.218750X-0.256250X0.218750X-0.256250X0*%
G04 #@! TD*
G04 #@! TA.AperFunction,SMDPad,CuDef*
%ADD22RoundRect,0.218750X-0.218750X-0.256250X0.218750X-0.256250X0.218750X0.256250X-0.218750X0.256250X0*%
G04 #@! TD*
G04 #@! TA.AperFunction,SMDPad,CuDef*
%ADD23RoundRect,0.218750X-0.256250X0.218750X-0.256250X-0.218750X0.256250X-0.218750X0.256250X0.218750X0*%
G04 #@! TD*
G04 #@! TA.AperFunction,SMDPad,CuDef*
%ADD24RoundRect,0.218750X0.256250X-0.218750X0.256250X0.218750X-0.256250X0.218750X-0.256250X-0.218750X0*%
G04 #@! TD*
G04 #@! TA.AperFunction,SMDPad,CuDef*
%ADD25R,0.800000X0.900000*%
G04 #@! TD*
G04 #@! TA.AperFunction,SMDPad,CuDef*
%ADD26RoundRect,0.050000X0.050000X-0.232500X0.050000X0.232500X-0.050000X0.232500X-0.050000X-0.232500X0*%
G04 #@! TD*
G04 #@! TA.AperFunction,SMDPad,CuDef*
%ADD27RoundRect,0.100000X0.100000X-0.182500X0.100000X0.182500X-0.100000X0.182500X-0.100000X-0.182500X0*%
G04 #@! TD*
G04 #@! TA.AperFunction,ComponentPad*
%ADD28R,1.700000X1.700000*%
G04 #@! TD*
G04 #@! TA.AperFunction,ComponentPad*
%ADD29O,1.700000X1.700000*%
G04 #@! TD*
G04 #@! TA.AperFunction,SMDPad,CuDef*
%ADD30R,1.100000X1.800000*%
G04 #@! TD*
G04 #@! TA.AperFunction,SMDPad,CuDef*
%ADD31C,0.750000*%
G04 #@! TD*
G04 #@! TA.AperFunction,SMDPad,CuDef*
%ADD32C,1.000000*%
G04 #@! TD*
G04 #@! TA.AperFunction,SMDPad,CuDef*
%ADD33RoundRect,0.075000X0.075000X-0.662500X0.075000X0.662500X-0.075000X0.662500X-0.075000X-0.662500X0*%
G04 #@! TD*
G04 #@! TA.AperFunction,SMDPad,CuDef*
%ADD34RoundRect,0.075000X0.662500X-0.075000X0.662500X0.075000X-0.662500X0.075000X-0.662500X-0.075000X0*%
G04 #@! TD*
G04 #@! TA.AperFunction,ViaPad*
%ADD35C,0.600000*%
G04 #@! TD*
G04 #@! TA.AperFunction,Conductor*
%ADD36C,0.381000*%
G04 #@! TD*
G04 #@! TA.AperFunction,Conductor*
%ADD37C,0.254000*%
G04 #@! TD*
G04 APERTURE END LIST*
D10*
D11*
X66559523Y-132166666D02*
X70559523Y-133500000D01*
X66559523Y-134833333D01*
X70559523Y-136166666D02*
X66559523Y-136166666D01*
X70369047Y-137880952D02*
X70559523Y-138452380D01*
X70559523Y-139404761D01*
X70369047Y-139785714D01*
X70178571Y-139976190D01*
X69797619Y-140166666D01*
X69416666Y-140166666D01*
X69035714Y-139976190D01*
X68845238Y-139785714D01*
X68654761Y-139404761D01*
X68464285Y-138642857D01*
X68273809Y-138261904D01*
X68083333Y-138071428D01*
X67702380Y-137880952D01*
X67321428Y-137880952D01*
X66940476Y-138071428D01*
X66750000Y-138261904D01*
X66559523Y-138642857D01*
X66559523Y-139595238D01*
X66750000Y-140166666D01*
X70559523Y-141880952D02*
X66559523Y-141880952D01*
X66559523Y-144547619D02*
X66559523Y-145309523D01*
X66750000Y-145690476D01*
X67130952Y-146071428D01*
X67892857Y-146261904D01*
X69226190Y-146261904D01*
X69988095Y-146071428D01*
X70369047Y-145690476D01*
X70559523Y-145309523D01*
X70559523Y-144547619D01*
X70369047Y-144166666D01*
X69988095Y-143785714D01*
X69226190Y-143595238D01*
X67892857Y-143595238D01*
X67130952Y-143785714D01*
X66750000Y-144166666D01*
X66559523Y-144547619D01*
X70559523Y-147976190D02*
X66559523Y-147976190D01*
X70559523Y-150261904D01*
X66559523Y-150261904D01*
D12*
X206775000Y-87695000D03*
X207550000Y-87695000D03*
D13*
X208250000Y-87695000D03*
X208750000Y-87695000D03*
X209250000Y-87695000D03*
X209750000Y-87695000D03*
X210250000Y-87695000D03*
X210750000Y-87695000D03*
X211250000Y-87695000D03*
X211750000Y-87695000D03*
D12*
X212450000Y-87695000D03*
X213225000Y-87695000D03*
D14*
X205680000Y-82600000D03*
D15*
X214320000Y-86780000D03*
D14*
X214320000Y-82600000D03*
D15*
X205680000Y-86780000D03*
D16*
X278290163Y-135358240D03*
X283973305Y-131553505D03*
X304595001Y-113900592D03*
X310945001Y-111360592D03*
X107795002Y-113900593D03*
X114145002Y-111360593D03*
X129446353Y-153763955D03*
X136185686Y-152599699D03*
X190157489Y-145656107D03*
X196896822Y-144491851D03*
X152890065Y-137734671D03*
X159629398Y-136570415D03*
X84570001Y-152000592D03*
X90920001Y-149460592D03*
X147540065Y-117124672D03*
X154279398Y-115960416D03*
X146840065Y-97494672D03*
X153579398Y-96330416D03*
X166173777Y-121085390D03*
X172913110Y-119921134D03*
X184807489Y-125046107D03*
X191546822Y-123881851D03*
X227749027Y-126630393D03*
X233432169Y-122825658D03*
X256396451Y-101058960D03*
X262079593Y-97254225D03*
X246382739Y-122669677D03*
X252065881Y-118864942D03*
X265016451Y-118708959D03*
X270699593Y-114904224D03*
X283650162Y-114748242D03*
X289333304Y-110943507D03*
X259656450Y-139318958D03*
X265339592Y-135514223D03*
X241022739Y-143279676D03*
X246705881Y-139474941D03*
X275030163Y-97098242D03*
X280713305Y-93293507D03*
X295850001Y-93790593D03*
X302200001Y-91250593D03*
X107095000Y-94850592D03*
X113445000Y-92310592D03*
X165473777Y-101455390D03*
X172213110Y-100291134D03*
X128906352Y-113163955D03*
X135645685Y-111999699D03*
X86951251Y-132950592D03*
X93301251Y-130410592D03*
X320666250Y-132950592D03*
X327016250Y-130410592D03*
X184107489Y-105416108D03*
X190846822Y-104251852D03*
X86363751Y-113900593D03*
X92713751Y-111360593D03*
X237762738Y-105019677D03*
X243445880Y-101214942D03*
X171523777Y-141695389D03*
X178263110Y-140531133D03*
X128206354Y-93533954D03*
X134945687Y-92369698D03*
X153367951Y-157311838D03*
X160107284Y-156147582D03*
X134256353Y-133773954D03*
X140995686Y-132609698D03*
X113145000Y-132950592D03*
X119495000Y-130410592D03*
X330788751Y-113900593D03*
X337138751Y-111360593D03*
X299235001Y-132950592D03*
X305585001Y-130410592D03*
X283100163Y-155348240D03*
X288783305Y-151543505D03*
X222389027Y-147240394D03*
X228072169Y-143435659D03*
X333654500Y-152000592D03*
X340004500Y-149460592D03*
X333655001Y-94850593D03*
X340005001Y-92310593D03*
X88045001Y-94850593D03*
X94395001Y-92310593D03*
X342097501Y-132950592D03*
X348447501Y-130410592D03*
X314605001Y-94850592D03*
X320955001Y-92310592D03*
X60955000Y-111760593D03*
X67305000Y-109220593D03*
X65025002Y-92710593D03*
X71375002Y-90170593D03*
X181318515Y-163252912D03*
X188057848Y-162088656D03*
X233337387Y-164388836D03*
X239020529Y-160584101D03*
X258958740Y-158942849D03*
X264641882Y-155138114D03*
X219129027Y-108980395D03*
X224812169Y-105175660D03*
X330191251Y-132950592D03*
X336541251Y-130410592D03*
X172001658Y-161272553D03*
X178740991Y-160108297D03*
X242654243Y-162408477D03*
X248337385Y-158603742D03*
X324130001Y-94850593D03*
X330480001Y-92310593D03*
D17*
X98673751Y-119590592D03*
X98673751Y-116290592D03*
X120105001Y-119590593D03*
X120105001Y-116290593D03*
D18*
X139764333Y-121289006D03*
X140450441Y-118061118D03*
X158398045Y-125249724D03*
X159084153Y-122021836D03*
X177031756Y-129210442D03*
X177717864Y-125982554D03*
X195665469Y-133171159D03*
X196351577Y-129943271D03*
D19*
X240973041Y-129636661D03*
X240286933Y-126408773D03*
X259606753Y-125675944D03*
X258920645Y-122448056D03*
X278240465Y-121715226D03*
X277554357Y-118487338D03*
X296874176Y-117754509D03*
X296188068Y-114526621D03*
D17*
X316905001Y-119590592D03*
X316905001Y-116290592D03*
X343098751Y-119590593D03*
X343098751Y-116290593D03*
D18*
X163748045Y-145859723D03*
X164434153Y-142631835D03*
X182381757Y-149820441D03*
X183067865Y-146592553D03*
X201015469Y-153781159D03*
X201701577Y-150553271D03*
D19*
X235613041Y-150246661D03*
X234926933Y-147018773D03*
X254246753Y-146285943D03*
X253560645Y-143058055D03*
X272880465Y-142325225D03*
X272194357Y-139097337D03*
X291514177Y-138364507D03*
X290828069Y-135136619D03*
D17*
X311545001Y-138640592D03*
X311545001Y-135340592D03*
X332976251Y-144640592D03*
X332976251Y-141340592D03*
D18*
X140304334Y-161889006D03*
X140990442Y-158661118D03*
D20*
X206335002Y-96150593D03*
X206335002Y-93350593D03*
D21*
X207122503Y-99250593D03*
X205547503Y-99250593D03*
D17*
X96880001Y-157690592D03*
X96880001Y-154390592D03*
D22*
X205547502Y-101250593D03*
X207122502Y-101250593D03*
D21*
X209087500Y-144400000D03*
X207512500Y-144400000D03*
D22*
X208212500Y-139500000D03*
X209787500Y-139500000D03*
D23*
X201835002Y-127463093D03*
X201835002Y-129038093D03*
D24*
X216200000Y-126387500D03*
X216200000Y-124812500D03*
D25*
X209250000Y-148800000D03*
X207350000Y-148800000D03*
X208300000Y-146800000D03*
D21*
X207187500Y-109200000D03*
X205612500Y-109200000D03*
D26*
X211000000Y-91456573D03*
X210500000Y-91456573D03*
D27*
X210000000Y-91456573D03*
D26*
X209500000Y-91456573D03*
X209000000Y-91456573D03*
X209000000Y-90621573D03*
X209500000Y-90621573D03*
D27*
X210000000Y-90621573D03*
D26*
X210500000Y-90621573D03*
X211000000Y-90621573D03*
D22*
X205612500Y-107200000D03*
X207187500Y-107200000D03*
D21*
X214387500Y-144400000D03*
X212812500Y-144400000D03*
D22*
X208212500Y-137750000D03*
X209787500Y-137750000D03*
D23*
X203835003Y-127463093D03*
X203835003Y-129038093D03*
D17*
X100355001Y-100540593D03*
X100355001Y-97240593D03*
X119405000Y-100540592D03*
X119405000Y-97240592D03*
D18*
X139064334Y-101659006D03*
X139750442Y-98431118D03*
X157698045Y-105619724D03*
X158384153Y-102391836D03*
X176331757Y-109580442D03*
X177017865Y-106352554D03*
X194965469Y-113541160D03*
X195651577Y-110313272D03*
D19*
X232353041Y-111986662D03*
X231666933Y-108758774D03*
X250986753Y-108025944D03*
X250300645Y-104798056D03*
X269620465Y-104065227D03*
X268934357Y-100837339D03*
X288254177Y-100104509D03*
X287568069Y-96876621D03*
D17*
X308285001Y-99480593D03*
X308285001Y-96180593D03*
X328000000Y-105600000D03*
X328000000Y-102300000D03*
X345965001Y-100540593D03*
X345965001Y-97240593D03*
X73265001Y-117450593D03*
X73265001Y-114150593D03*
X99261251Y-138640592D03*
X99261251Y-135340592D03*
X125455000Y-138640592D03*
X125455000Y-135340592D03*
D18*
X145114333Y-141899007D03*
X145800441Y-138671119D03*
X163456946Y-167213944D03*
X164143054Y-163986056D03*
D28*
X224475000Y-97400000D03*
D29*
X224475000Y-94860000D03*
X221935000Y-97400000D03*
X221935000Y-94860000D03*
X219395000Y-97400000D03*
X219395000Y-94860000D03*
X216855000Y-97400000D03*
X216855000Y-94860000D03*
X214315000Y-97400000D03*
X214315000Y-94860000D03*
D30*
X208050000Y-158500000D03*
X208050000Y-152300000D03*
X211750000Y-152300000D03*
X211750000Y-158500000D03*
D25*
X207350000Y-105200000D03*
X205450000Y-105200000D03*
X206400000Y-103200000D03*
D24*
X216600000Y-89787500D03*
X216600000Y-88212500D03*
D23*
X201400000Y-88212500D03*
X201400000Y-89787500D03*
D22*
X212812500Y-142500000D03*
X214387500Y-142500000D03*
D17*
X77335002Y-98400593D03*
X77335002Y-95100593D03*
X202335002Y-102600593D03*
X202335002Y-105900593D03*
D18*
X201493355Y-173358325D03*
X202179463Y-170130437D03*
D19*
X272182754Y-161949115D03*
X271496646Y-158721227D03*
X296324177Y-158354507D03*
X295638069Y-155126619D03*
X255491845Y-165496878D03*
X254805737Y-162268990D03*
D17*
X202835002Y-96400592D03*
X202835002Y-93100592D03*
X345964500Y-157690592D03*
X345964500Y-154390592D03*
D24*
X218600000Y-89787500D03*
X218600000Y-88212500D03*
X214400000Y-126387500D03*
X214400000Y-124812500D03*
D23*
X203399999Y-88212500D03*
X203399999Y-89787500D03*
D31*
X339957502Y-73000000D03*
X75715001Y-187040592D03*
D32*
X75715001Y-73000000D03*
X339957500Y-187040592D03*
D22*
X212812500Y-137600000D03*
X214387500Y-137600000D03*
D24*
X216200000Y-135337500D03*
X216200000Y-133762500D03*
D17*
X336000000Y-144640592D03*
X336000000Y-141340592D03*
D33*
X212750001Y-135653613D03*
X212250001Y-135653613D03*
X211750001Y-135653613D03*
X211250001Y-135653613D03*
X210750001Y-135653613D03*
X210250001Y-135653613D03*
X209750001Y-135653613D03*
X209250001Y-135653613D03*
X208750001Y-135653613D03*
X208250001Y-135653613D03*
X207750001Y-135653613D03*
X207250001Y-135653613D03*
D34*
X205837501Y-134241113D03*
X205837501Y-133741113D03*
X205837501Y-133241113D03*
X205837501Y-132741113D03*
X205837501Y-132241113D03*
X205837501Y-131741113D03*
X205837501Y-131241113D03*
X205837501Y-130741113D03*
X205837501Y-130241113D03*
X205837501Y-129741113D03*
X205837501Y-129241113D03*
X205837501Y-128741113D03*
D33*
X207250001Y-127328613D03*
X207750001Y-127328613D03*
X208250001Y-127328613D03*
X208750001Y-127328613D03*
X209250001Y-127328613D03*
X209750001Y-127328613D03*
X210250001Y-127328613D03*
X210750001Y-127328613D03*
X211250001Y-127328613D03*
X211750001Y-127328613D03*
X212250001Y-127328613D03*
X212750001Y-127328613D03*
D34*
X214162501Y-128741113D03*
X214162501Y-129241113D03*
X214162501Y-129741113D03*
X214162501Y-130241113D03*
X214162501Y-130741113D03*
X214162501Y-131241113D03*
X214162501Y-131741113D03*
X214162501Y-132241113D03*
X214162501Y-132741113D03*
X214162501Y-133241113D03*
X214162501Y-133741113D03*
X214162501Y-134241113D03*
D17*
X212800001Y-146250000D03*
X212800001Y-149550000D03*
D35*
X213225000Y-89400000D03*
X210000000Y-93250000D03*
X202100000Y-109400000D03*
X209275041Y-102424959D03*
X205550000Y-90450000D03*
X200400000Y-114300000D03*
X204400000Y-152800000D03*
X204400000Y-173349999D03*
X208100000Y-113600000D03*
X215000000Y-113600000D03*
X219300000Y-129525000D03*
X200200000Y-133200000D03*
X207549992Y-90250000D03*
X212450000Y-90250000D03*
X218375000Y-135025002D03*
X209500000Y-94099996D03*
X211250000Y-95800006D03*
X218500000Y-126400000D03*
X215900000Y-136462500D03*
X205612500Y-111050000D03*
X206000000Y-139550000D03*
X212812500Y-139550000D03*
X216500000Y-105400000D03*
X201800000Y-126100000D03*
X215650000Y-128450000D03*
X210800000Y-142687500D03*
X203400000Y-91000000D03*
X208400000Y-89200000D03*
X201400000Y-91000000D03*
X211750000Y-89199999D03*
D36*
X202399407Y-102600593D02*
X203749407Y-101250593D01*
X206335002Y-96150593D02*
X206335002Y-97464998D01*
X206335002Y-96150593D02*
X203085002Y-96150593D01*
X206335002Y-97464998D02*
X205547502Y-98252499D01*
X205547502Y-99250593D02*
X205547502Y-101250593D01*
X205547502Y-98252499D02*
X205547502Y-99250593D01*
X202335003Y-102600593D02*
X202399407Y-102600593D01*
X206400000Y-103200000D02*
X206400000Y-102103090D01*
X203749407Y-101250593D02*
X205547502Y-101250593D01*
X203085002Y-96150593D02*
X202835002Y-96400593D01*
X206400000Y-102103090D02*
X205547502Y-101250593D01*
X205200000Y-94700000D02*
X207600000Y-94700000D01*
D37*
X209250000Y-133875000D02*
X209249999Y-135653613D01*
D36*
X209787500Y-138412500D02*
X209787500Y-137750000D01*
D37*
X204091113Y-129241113D02*
X203850001Y-129000000D01*
X209250000Y-133850000D02*
X209850000Y-133250000D01*
D36*
X207187500Y-109200001D02*
X207187500Y-107200000D01*
X217400000Y-134200000D02*
X217400000Y-135989178D01*
D37*
X216178613Y-133741113D02*
X216200000Y-133762500D01*
D36*
X203400000Y-88212500D02*
X203400000Y-88300000D01*
X200400000Y-127603091D02*
X200400000Y-127369243D01*
D37*
X214162500Y-133741113D02*
X212741113Y-133741113D01*
D36*
X207350000Y-101550000D02*
X207350000Y-104369000D01*
X216200000Y-124812500D02*
X216200000Y-123800000D01*
X208100000Y-98273095D02*
X207584114Y-98788981D01*
X207122502Y-99250593D02*
X207122502Y-101250593D01*
X212812500Y-141925000D02*
X214387500Y-140350000D01*
X212812500Y-142500000D02*
X212812500Y-141925000D01*
X213225000Y-87695000D02*
X213225000Y-87925001D01*
X207350000Y-144562500D02*
X207512500Y-144400000D01*
X216200000Y-133762500D02*
X216962500Y-133762500D01*
X214300000Y-98900000D02*
X214300000Y-97415000D01*
X201835002Y-129038093D02*
X203835002Y-129038093D01*
X213315792Y-99884208D02*
X214300000Y-98900000D01*
X213225000Y-87695000D02*
X213225000Y-89400000D01*
X207350000Y-107037500D02*
X207187500Y-107200000D01*
X207584114Y-98788981D02*
X207122502Y-99250593D01*
X217400000Y-135989178D02*
X215789178Y-137600000D01*
D37*
X208049999Y-129750000D02*
X208050000Y-132675000D01*
D36*
X213315792Y-120915792D02*
X213315792Y-99884208D01*
X205550000Y-90450000D02*
X206775001Y-89225000D01*
D37*
X213187500Y-124812500D02*
X214400000Y-124812500D01*
D36*
X207512500Y-144400000D02*
X207600000Y-144400000D01*
X214387500Y-140350000D02*
X214387500Y-138175000D01*
X209787500Y-137750000D02*
X209787500Y-137624000D01*
X212812500Y-144400000D02*
X212812500Y-142500000D01*
X207350000Y-149000000D02*
X207350000Y-144562500D01*
D37*
X212250000Y-127328613D02*
X212250000Y-125750000D01*
D36*
X207600000Y-94700000D02*
X208100000Y-95200000D01*
X207350000Y-104369000D02*
X207350000Y-105200001D01*
D37*
X214162500Y-133741113D02*
X216178613Y-133741113D01*
D36*
X202835002Y-93100593D02*
X202835002Y-93931593D01*
X216200000Y-124812500D02*
X214400000Y-124812500D01*
X218600000Y-89787500D02*
X216600000Y-89787499D01*
X202835002Y-93931593D02*
X203603409Y-94700000D01*
X201835002Y-129038093D02*
X200400000Y-127603091D01*
X200400000Y-127369243D02*
X200400000Y-114300000D01*
D37*
X209250000Y-137212500D02*
X209787500Y-137750000D01*
D36*
X214300000Y-97415000D02*
X214315000Y-97400000D01*
D37*
X208050000Y-132675000D02*
X209250000Y-133875000D01*
D36*
X213612500Y-89787500D02*
X213225000Y-89400000D01*
X201400000Y-88212500D02*
X203400000Y-88212500D01*
X216962500Y-133762500D02*
X217400000Y-134200000D01*
X209787500Y-142212501D02*
X209787500Y-139500000D01*
X202835002Y-93100593D02*
X202899406Y-93100593D01*
X206775000Y-87925000D02*
X206775000Y-87695000D01*
X214387500Y-138175000D02*
X214387500Y-137600000D01*
D37*
X207541113Y-129241113D02*
X208049999Y-129750000D01*
X212741113Y-133741113D02*
X212250000Y-133250000D01*
X209249999Y-135653613D02*
X209250000Y-133850000D01*
D36*
X216600000Y-89787499D02*
X213612500Y-89787500D01*
X208100000Y-95200000D02*
X208100000Y-98273095D01*
X210000000Y-90621573D02*
X210000000Y-91456574D01*
X203400000Y-88300000D02*
X205550000Y-90450000D01*
X207122502Y-101250593D02*
X207122502Y-101322502D01*
X207600000Y-144400000D02*
X209787500Y-142212501D01*
D37*
X205837500Y-129241113D02*
X207541113Y-129241113D01*
D36*
X214925000Y-137600000D02*
X214387500Y-137600000D01*
X207122502Y-101322502D02*
X207350000Y-101550000D01*
X203603409Y-94700000D02*
X205200000Y-94700000D01*
X209787500Y-139500000D02*
X209787500Y-138412500D01*
X202899406Y-93100593D02*
X205550000Y-90450000D01*
D37*
X212250000Y-127328613D02*
X212250000Y-133250000D01*
D36*
X215789178Y-137600000D02*
X214925000Y-137600000D01*
D37*
X209249999Y-135653613D02*
X209250000Y-137212500D01*
D36*
X206775001Y-89225000D02*
X206775000Y-87695000D01*
X207350000Y-105200001D02*
X207350000Y-107037500D01*
X210000000Y-91456574D02*
X210000000Y-93250000D01*
D37*
X205837500Y-129241113D02*
X204091113Y-129241113D01*
D36*
X216200000Y-123800000D02*
X213315792Y-120915792D01*
D37*
X212250000Y-125750000D02*
X213187500Y-124812500D01*
X209850000Y-133250000D02*
X212250000Y-133250000D01*
X71375003Y-90170593D02*
X74670593Y-90170593D01*
X74670593Y-90170593D02*
X74775000Y-90275000D01*
X77335002Y-94396593D02*
X77335002Y-95100593D01*
X74677002Y-90177002D02*
X74775000Y-90275000D01*
X74677002Y-90170593D02*
X74677002Y-90177002D01*
X74775000Y-90275000D02*
X77335001Y-92835002D01*
X77335001Y-92835002D02*
X77335002Y-94396593D01*
X224800000Y-170200000D02*
X221200000Y-173800000D01*
X139590930Y-161889006D02*
X140304334Y-161889006D01*
X196800000Y-170800000D02*
X199358325Y-173358325D01*
X299300000Y-161000000D02*
X342499999Y-161000000D01*
X140304334Y-161889006D02*
X153189006Y-161889006D01*
X221200000Y-173800000D02*
X204850000Y-173799999D01*
X242847912Y-168452088D02*
X241100000Y-170200000D01*
X252536635Y-168452088D02*
X242847912Y-168452088D01*
X268634991Y-165496878D02*
X255491845Y-165496878D01*
X296654507Y-158354507D02*
X299300000Y-161000000D01*
X342499999Y-161000000D02*
X345809409Y-157690591D01*
X272182754Y-161949115D02*
X268634991Y-165496878D01*
X158513944Y-167213944D02*
X163456946Y-167213944D01*
X101189006Y-161889005D02*
X139590930Y-161889006D01*
X199358325Y-173358325D02*
X201493355Y-173358325D01*
X163456946Y-167213944D02*
X172713944Y-167213944D01*
X241100000Y-170200000D02*
X224800000Y-170200000D01*
X96880001Y-157690592D02*
X96990592Y-157690592D01*
X96990592Y-157690592D02*
X101189006Y-161889005D01*
X207750000Y-135653613D02*
X207750000Y-136796592D01*
X201493355Y-173358325D02*
X204391674Y-173358325D01*
X292729568Y-161949116D02*
X296324177Y-158354507D01*
X176300000Y-170800000D02*
X196800000Y-170800000D01*
X207750000Y-136796592D02*
X204400000Y-140146592D01*
X255491845Y-165496878D02*
X252536635Y-168452088D01*
X153189006Y-161889006D02*
X158513944Y-167213944D01*
X345809409Y-157690591D02*
X345964500Y-157690591D01*
X204850000Y-173799999D02*
X204400000Y-173349999D01*
X204400000Y-140146592D02*
X204400000Y-152375736D01*
X296324177Y-158354507D02*
X296654507Y-158354507D01*
X172713944Y-167213944D02*
X176300000Y-170800000D01*
X204391674Y-173358325D02*
X204400000Y-173349999D01*
X204400000Y-152375736D02*
X204400000Y-152800000D01*
X272182754Y-161949116D02*
X292729568Y-161949116D01*
X98673751Y-113998751D02*
X98673751Y-115586593D01*
X96035593Y-111360593D02*
X98673751Y-113998751D01*
X98673751Y-115586593D02*
X98673751Y-116290593D01*
X92713751Y-111360593D02*
X94304741Y-111360593D01*
X96015751Y-111360593D02*
X96035593Y-111360593D01*
X94304741Y-111360593D02*
X96035593Y-111360593D01*
X215424264Y-113600000D02*
X215000000Y-113600000D01*
X288254177Y-100145823D02*
X284334774Y-104065226D01*
X270333869Y-104065226D02*
X269620465Y-104065226D01*
X77400593Y-98400593D02*
X79540593Y-100540593D01*
X180292475Y-113541160D02*
X194965469Y-113541160D01*
X308285001Y-99480593D02*
X288878093Y-99480593D01*
X345965001Y-100540593D02*
X333059407Y-100540593D01*
X208100000Y-120725000D02*
X207249999Y-121575000D01*
X207250000Y-126491113D02*
X207250000Y-127328613D01*
X251012697Y-108000000D02*
X265685691Y-108000000D01*
X77335002Y-98400593D02*
X77400593Y-98400593D01*
X288254177Y-100104509D02*
X288254177Y-100145823D01*
X100355001Y-100540593D02*
X101209002Y-100540592D01*
X250986753Y-108025944D02*
X251012697Y-108000000D01*
X143025052Y-105619724D02*
X157698045Y-105619724D01*
X315280593Y-99480594D02*
X321400000Y-105600000D01*
X232353041Y-111986662D02*
X247026035Y-111986662D01*
X119405000Y-100540592D02*
X137945920Y-100540592D01*
X321400000Y-105600000D02*
X327999999Y-105600000D01*
X333059407Y-100540593D02*
X327999999Y-105600000D01*
X137945920Y-100540592D02*
X139064334Y-101659006D01*
X176331757Y-109580442D02*
X180292475Y-113541160D01*
X247026035Y-111986662D02*
X250986753Y-108025944D01*
X288878093Y-99480593D02*
X288254177Y-100104509D01*
X79540593Y-100540593D02*
X99501001Y-100540593D01*
X265685691Y-108000000D02*
X269043879Y-104641812D01*
X194965469Y-113541160D02*
X208041160Y-113541160D01*
X99501001Y-100540593D02*
X100355001Y-100540593D01*
X269043879Y-104641812D02*
X269620465Y-104065226D01*
X101209002Y-100540592D02*
X119405000Y-100540592D01*
X161658763Y-109580442D02*
X176331757Y-109580442D01*
X308285001Y-99480593D02*
X315280593Y-99480594D01*
X284334774Y-104065226D02*
X270333869Y-104065226D01*
X207249999Y-121575000D02*
X207250000Y-126491113D01*
X208100000Y-113600000D02*
X208100000Y-120725000D01*
X232353041Y-111986662D02*
X230739703Y-113600000D01*
X157698045Y-105619724D02*
X161658763Y-109580442D01*
X208041160Y-113541160D02*
X208100000Y-113600000D01*
X230739703Y-113600000D02*
X215424264Y-113600000D01*
X139064334Y-101659006D02*
X143025052Y-105619724D01*
X120105001Y-114005001D02*
X120105001Y-116290593D01*
X114145001Y-111360593D02*
X117460593Y-111360593D01*
X117460593Y-111360593D02*
X120105001Y-114005001D01*
X117447001Y-111360593D02*
X117460593Y-111360593D01*
X140450441Y-118061119D02*
X140450441Y-114750441D01*
X137699699Y-111999699D02*
X135645686Y-111999699D01*
X140450441Y-114750441D02*
X137699699Y-111999699D01*
X156360416Y-115960416D02*
X154279398Y-115960416D01*
X159084153Y-118684153D02*
X156360416Y-115960416D01*
X159084153Y-122021836D02*
X159084153Y-118684153D01*
X177717865Y-122617865D02*
X175021134Y-119921134D01*
X177717865Y-125982554D02*
X177717865Y-122617865D01*
X175021134Y-119921134D02*
X172913110Y-119921133D01*
X196351577Y-126651578D02*
X193581850Y-123881850D01*
X193581850Y-123881850D02*
X191546822Y-123881850D01*
X196351577Y-129943271D02*
X196351577Y-126651578D01*
X237925658Y-122825659D02*
X233432169Y-122825658D01*
X240286933Y-126408774D02*
X240286933Y-125186933D01*
X240286933Y-125186933D02*
X237925658Y-122825659D01*
X258920645Y-121220645D02*
X258920645Y-122448056D01*
X256564942Y-118864942D02*
X258920645Y-121220645D01*
X252065881Y-118864942D02*
X256564942Y-118864942D01*
X270699593Y-114904224D02*
X275204224Y-114904224D01*
X277554357Y-117254357D02*
X277554357Y-118487338D01*
X275204224Y-114904224D02*
X277554357Y-117254357D01*
X289333304Y-110943507D02*
X293843506Y-110943507D01*
X296188068Y-113288068D02*
X296188067Y-114526621D01*
X293843506Y-110943507D02*
X296188068Y-113288068D01*
X316905001Y-113993593D02*
X314272001Y-111360593D01*
X310945002Y-111360593D02*
X314247001Y-111360593D01*
X314272001Y-111360593D02*
X310945002Y-111360593D01*
X316905001Y-116290593D02*
X316905001Y-113993593D01*
X343098751Y-116290593D02*
X343098751Y-113993593D01*
X343098751Y-113993593D02*
X340465751Y-111360593D01*
X340465751Y-111360593D02*
X337138751Y-111360593D01*
X337138751Y-111360593D02*
X340440751Y-111360593D01*
X342244751Y-119590592D02*
X316905001Y-119590593D01*
X278240465Y-121715226D02*
X292913459Y-121715226D01*
X120105001Y-119590593D02*
X138065919Y-119590593D01*
X180921158Y-133171159D02*
X194952065Y-133171159D01*
X157684641Y-125249724D02*
X158398045Y-125249724D01*
X73265001Y-117450593D02*
X73450593Y-117450593D01*
X292913459Y-121715226D02*
X296874176Y-117754509D01*
X194952065Y-133171159D02*
X195665469Y-133171159D01*
X203050000Y-130750000D02*
X205828613Y-130750000D01*
X219599999Y-129824999D02*
X219300000Y-129525000D01*
X177031757Y-129210442D02*
X177031757Y-129281757D01*
X276052324Y-123903367D02*
X277663879Y-122291812D01*
X139764333Y-121314333D02*
X143700000Y-125250000D01*
X200171159Y-133171160D02*
X200200000Y-133200000D01*
X200200000Y-133200000D02*
X200600000Y-133200000D01*
X177031757Y-129281757D02*
X180921158Y-133171159D01*
X98673751Y-119590593D02*
X120105001Y-119590593D01*
X73450593Y-117450593D02*
X75590593Y-119590593D01*
X240973041Y-129636661D02*
X239959704Y-130649999D01*
X157442634Y-125250000D02*
X157442911Y-125249724D01*
X75590593Y-119590593D02*
X97819751Y-119590593D01*
X138065919Y-119590593D02*
X139764334Y-121289007D01*
X255646036Y-129636662D02*
X259606753Y-125675944D01*
X277663879Y-122291812D02*
X278240465Y-121715226D01*
X239959704Y-130649999D02*
X220424999Y-130649999D01*
X143700000Y-125250000D02*
X157442634Y-125250000D01*
X157442911Y-125249724D02*
X157684641Y-125249724D01*
X259606753Y-125675944D02*
X261379330Y-123903367D01*
X240973041Y-129636661D02*
X255646036Y-129636662D01*
X297254509Y-117754509D02*
X299090594Y-119590593D01*
X200600000Y-133200000D02*
X203050000Y-130750000D01*
X176318353Y-129210442D02*
X177031757Y-129210442D01*
X139764334Y-121289007D02*
X139764333Y-121314333D01*
X97819751Y-119590593D02*
X98673751Y-119590593D01*
X261379330Y-123903367D02*
X276052324Y-123903367D01*
X343098752Y-119590593D02*
X342244751Y-119590592D01*
X296874176Y-117754509D02*
X297254509Y-117754509D01*
X162358763Y-129210442D02*
X176318353Y-129210442D01*
X220424999Y-130649999D02*
X219599999Y-129824999D01*
X205828613Y-130750000D02*
X205837500Y-130741113D01*
X299090594Y-119590593D02*
X316905001Y-119590593D01*
X158398045Y-125249724D02*
X162358763Y-129210442D01*
X195665469Y-133171159D02*
X200171159Y-133171160D01*
X164434153Y-142631835D02*
X164434153Y-139334153D01*
X164434153Y-139334153D02*
X161670415Y-136570414D01*
X161670415Y-136570414D02*
X159629398Y-136570415D01*
X183067864Y-146592553D02*
X183067865Y-143267865D01*
X183067865Y-143267865D02*
X180331133Y-140531133D01*
X180331133Y-140531133D02*
X178263110Y-140531133D01*
X201701577Y-150553271D02*
X201701577Y-147201576D01*
X198991852Y-144491851D02*
X196896822Y-144491851D01*
X201701577Y-147201576D02*
X198991852Y-144491851D01*
X234926933Y-147018773D02*
X234926933Y-145826932D01*
X232535659Y-143435659D02*
X228072169Y-143435659D01*
X234926933Y-145826932D02*
X232535659Y-143435659D01*
X251174941Y-139474941D02*
X246705881Y-139474941D01*
X253560645Y-141860645D02*
X251174941Y-139474941D01*
X253560645Y-143058055D02*
X253560645Y-141860645D01*
X272194357Y-137894357D02*
X269814223Y-135514223D01*
X272194357Y-139097336D02*
X272194357Y-137894357D01*
X269814223Y-135514223D02*
X265339592Y-135514223D01*
X290828069Y-133928069D02*
X288453505Y-131553505D01*
X288453505Y-131553505D02*
X283973305Y-131553505D01*
X290828069Y-135136619D02*
X290828069Y-133928069D01*
X311545001Y-133043592D02*
X308912001Y-130410592D01*
X308912001Y-130410592D02*
X305585001Y-130410592D01*
X305585001Y-130410592D02*
X308887001Y-130410592D01*
X311545002Y-135340592D02*
X311545001Y-133043592D01*
X336541251Y-130410592D02*
X336541251Y-137925592D01*
X333126251Y-141340592D02*
X332976250Y-141340592D01*
X327016251Y-130410592D02*
X336541251Y-130410592D01*
X336541251Y-137925592D02*
X333126251Y-141340592D01*
X338975000Y-138475000D02*
X351325000Y-138475000D01*
X353350000Y-136450000D02*
X353350000Y-132000000D01*
X348447501Y-130410592D02*
X351760592Y-130410592D01*
X351325000Y-138475000D02*
X353350000Y-136450000D01*
X351760592Y-130410592D02*
X353300000Y-131950000D01*
X336150000Y-141300000D02*
X338975000Y-138475000D01*
X96880001Y-153686592D02*
X96880001Y-154390592D01*
X94222001Y-149460592D02*
X94260593Y-149460592D01*
X90920001Y-149460592D02*
X94260593Y-149460592D01*
X94260593Y-149460592D02*
X96880001Y-152080001D01*
X96880001Y-152080001D02*
X96880001Y-153686592D01*
X140990442Y-155390442D02*
X138199698Y-152599698D01*
X140990442Y-158661118D02*
X140990442Y-155390442D01*
X138199698Y-152599698D02*
X136185687Y-152599698D01*
X186077489Y-160108297D02*
X178740991Y-160108297D01*
X193269192Y-167300000D02*
X188057848Y-162088656D01*
X202200000Y-167300000D02*
X193269192Y-167300000D01*
X202179463Y-170130437D02*
X202179463Y-167320537D01*
X188057848Y-162088656D02*
X186077489Y-160108297D01*
X202179463Y-167320537D02*
X202200000Y-167300000D01*
X272880465Y-142325224D02*
X287553459Y-142325224D01*
X125455000Y-138640592D02*
X125640592Y-138640593D01*
X205700000Y-160400000D02*
X225459702Y-160400000D01*
X201015468Y-153781159D02*
X201015469Y-155715469D01*
X268919747Y-146285942D02*
X272880465Y-142325224D01*
X163748045Y-145859723D02*
X167708763Y-149820441D01*
X291514177Y-138364507D02*
X311268916Y-138364507D01*
X235613041Y-150246661D02*
X250286035Y-150246661D01*
X232229850Y-153629851D02*
X235613041Y-150246661D01*
X201318841Y-153781159D02*
X203600000Y-151500000D01*
X167708763Y-149820441D02*
X182381757Y-149820441D01*
X232078543Y-153781159D02*
X232229850Y-153629851D01*
X287553459Y-142325224D02*
X291514177Y-138364507D01*
X311268916Y-138364507D02*
X311545001Y-138640592D01*
X254246753Y-146285942D02*
X268919747Y-146285942D01*
X225459702Y-160400000D02*
X232229850Y-153629851D01*
X250286035Y-150246661D02*
X254246753Y-146285942D01*
X332976251Y-144640592D02*
X336000000Y-144640592D01*
X128899006Y-141899006D02*
X144400929Y-141899006D01*
X125640592Y-138640593D02*
X128899006Y-141899006D01*
X149075050Y-145859723D02*
X163748045Y-145859723D01*
X203600000Y-140300000D02*
X207250000Y-136650000D01*
X201015468Y-153781159D02*
X186342475Y-153781159D01*
X203600000Y-151500000D02*
X203600000Y-140300000D01*
X201015468Y-153781159D02*
X201318841Y-153781159D01*
X201015469Y-155715469D02*
X205700000Y-160400000D01*
X311545001Y-138640592D02*
X326790592Y-138640592D01*
X145114333Y-141899006D02*
X149075050Y-145859723D01*
X144400929Y-141899006D02*
X145114333Y-141899006D01*
X326790592Y-138640592D02*
X333000000Y-144850000D01*
X186342475Y-153781159D02*
X182381757Y-149820441D01*
X99261251Y-138640592D02*
X125455000Y-138640592D01*
X207250000Y-136650000D02*
X207250000Y-135653613D01*
X241000888Y-158603742D02*
X239020529Y-160584101D01*
X248337385Y-158603742D02*
X241000888Y-158603742D01*
X251140489Y-158603742D02*
X248337385Y-158603742D01*
X254805737Y-162268990D02*
X251140489Y-158603742D01*
X267913533Y-155138114D02*
X264641882Y-155138114D01*
X271496646Y-158721227D02*
X267913533Y-155138114D01*
X295638069Y-153938069D02*
X293243505Y-151543505D01*
X295638070Y-155126619D02*
X295638069Y-153938069D01*
X293243505Y-151543505D02*
X288783305Y-151543505D01*
X345964500Y-154390591D02*
X345964500Y-152093591D01*
X343331500Y-149460591D02*
X340004500Y-149460591D01*
X345964500Y-152093591D02*
X343331500Y-149460591D01*
X340004500Y-149460591D02*
X343306499Y-149460591D01*
X211750000Y-152300000D02*
X211749999Y-158500000D01*
X209899999Y-149000000D02*
X209250001Y-149000000D01*
X211750000Y-152300000D02*
X212554000Y-152300000D01*
X212800000Y-150254000D02*
X212800000Y-149550000D01*
X211750000Y-150850000D02*
X209899999Y-149000000D01*
X211750000Y-152300000D02*
X211750000Y-150850000D01*
X212554000Y-152300000D02*
X212800000Y-152054000D01*
X212800000Y-152054000D02*
X212800000Y-150254000D01*
D36*
X206335003Y-93350593D02*
X206335002Y-92264999D01*
X207550000Y-87695000D02*
X207550000Y-90249992D01*
X207549992Y-91050008D02*
X207549992Y-90250000D01*
X207550000Y-90249992D02*
X207549992Y-90250000D01*
X206335002Y-92264999D02*
X207549992Y-91050008D01*
X212450001Y-87695000D02*
X212450000Y-90250000D01*
D37*
X256241336Y-135903844D02*
X222043622Y-135903844D01*
X217380891Y-131241113D02*
X214999999Y-131241113D01*
X222043622Y-135903844D02*
X217380891Y-131241113D01*
X214999999Y-131241113D02*
X214162500Y-131241113D01*
X259656450Y-139318958D02*
X256241336Y-135903844D01*
X222422386Y-134989422D02*
X217674077Y-130241113D01*
X294373831Y-128089422D02*
X262785578Y-128089422D01*
X255885578Y-134989422D02*
X222422386Y-134989422D01*
X217674077Y-130241113D02*
X215000000Y-130241113D01*
X299235001Y-132950592D02*
X294373831Y-128089422D01*
X215000000Y-130241113D02*
X214162501Y-130241113D01*
X262785578Y-128089422D02*
X255885578Y-134989422D01*
X168467352Y-135813945D02*
X199346277Y-135813945D01*
X88076250Y-131823750D02*
X92542789Y-127357211D01*
X163981774Y-131328367D02*
X168467352Y-135813945D01*
X92542789Y-127357211D02*
X145950397Y-127357211D01*
X199346277Y-135813945D02*
X202419109Y-132741113D01*
X145950397Y-127357211D02*
X149921552Y-131328366D01*
X88076251Y-131825593D02*
X88076250Y-131823750D01*
X205837500Y-131741113D02*
X203419109Y-131741112D01*
X203419109Y-131741112D02*
X202419109Y-132741113D01*
X149921552Y-131328366D02*
X163981774Y-131328367D01*
X86951251Y-132950592D02*
X88076251Y-131825593D01*
X149732170Y-131785579D02*
X163792392Y-131785578D01*
X163792392Y-131785578D02*
X168277970Y-136271156D01*
X204958887Y-132241113D02*
X205837500Y-132241113D01*
X204916097Y-132283903D02*
X204958887Y-132241113D01*
X199535658Y-136271156D02*
X203522911Y-132283903D01*
X203522911Y-132283903D02*
X204916097Y-132283903D01*
X118281170Y-127814422D02*
X145761015Y-127814422D01*
X145761015Y-127814422D02*
X149732170Y-131785579D01*
X113145000Y-132950592D02*
X118281170Y-127814422D01*
X168277970Y-136271156D02*
X199535658Y-136271156D01*
X190157489Y-145656107D02*
X197713596Y-138100000D01*
X197713596Y-138100000D02*
X200300000Y-138100000D01*
X204158887Y-134241113D02*
X205837500Y-134241113D01*
X200300000Y-138100000D02*
X204158887Y-134241113D01*
X152890065Y-137734671D02*
X157924736Y-132700001D01*
X157924736Y-132700001D02*
X163413628Y-132700000D01*
X199914422Y-137185577D02*
X203858887Y-133241113D01*
X203858887Y-133241113D02*
X205837500Y-133241113D01*
X167899206Y-137185578D02*
X199914422Y-137185577D01*
X163413628Y-132700000D02*
X167899206Y-137185578D01*
X146139780Y-126900001D02*
X150110934Y-130871156D01*
X61550000Y-118450000D02*
X70000000Y-126900000D01*
X164171156Y-130871156D02*
X168656734Y-135356734D01*
X203272515Y-131241114D02*
X205837500Y-131241113D01*
X168656734Y-135356734D02*
X199156894Y-135356734D01*
X199156894Y-135356734D02*
X203272515Y-131241114D01*
X61550000Y-112355593D02*
X61550000Y-118450000D01*
X150110934Y-130871156D02*
X164171156Y-130871156D01*
X60955000Y-111760593D02*
X61550000Y-112355593D01*
X70000000Y-126900000D02*
X146139780Y-126900001D01*
X168088588Y-136728367D02*
X199725041Y-136728367D01*
X163603010Y-132242789D02*
X168088588Y-136728367D01*
X145571632Y-128271633D02*
X149542789Y-132242789D01*
X134256353Y-133773954D02*
X139758674Y-128271633D01*
X139778367Y-128271632D02*
X145571632Y-128271633D01*
X199725041Y-136728367D02*
X203712295Y-132741114D01*
X149542789Y-132242789D02*
X163603010Y-132242789D01*
X139758674Y-128271633D02*
X139778367Y-128271632D01*
X203712295Y-132741114D02*
X205837500Y-132741113D01*
X205837500Y-133741113D02*
X204012295Y-133741113D01*
X204012295Y-133741113D02*
X200110619Y-137642789D01*
X175576377Y-137642789D02*
X171523777Y-141695389D01*
X200110619Y-137642789D02*
X175576377Y-137642789D01*
X241022739Y-143279677D02*
X236579676Y-143279676D01*
X221854240Y-136361055D02*
X217234298Y-131741113D01*
X215000000Y-131741113D02*
X214162500Y-131741113D01*
X229661054Y-136361055D02*
X221854240Y-136361055D01*
X236579676Y-143279676D02*
X229661054Y-136361055D01*
X217234298Y-131741113D02*
X215000000Y-131741113D01*
X216941112Y-132741113D02*
X218375000Y-134175000D01*
X214162500Y-132741113D02*
X216941112Y-132741113D01*
X218375000Y-134175000D02*
X218374999Y-134600737D01*
X218374999Y-134600737D02*
X218375000Y-135025002D01*
X208700000Y-92550000D02*
X209000000Y-92250000D01*
X209780794Y-95219206D02*
X209730794Y-95219206D01*
X210250000Y-89750000D02*
X210530210Y-90030210D01*
X209000000Y-92250000D02*
X209000000Y-90450000D01*
X210530210Y-91456574D02*
X210530209Y-92426802D01*
X210792789Y-92689381D02*
X210792789Y-94207211D01*
X208700000Y-94200000D02*
X208700000Y-92550000D01*
X210530209Y-92426802D02*
X210792789Y-92689381D01*
X209000000Y-89835595D02*
X209000000Y-90950000D01*
X209250000Y-87695000D02*
X209250000Y-89585595D01*
X210792789Y-94207211D02*
X209780794Y-95219206D01*
X209750000Y-96050000D02*
X209750000Y-95250000D01*
X210530210Y-90030210D02*
X210530210Y-91590593D01*
X210750000Y-97050000D02*
X209750000Y-96050000D01*
X210250000Y-87695000D02*
X210250000Y-89750000D01*
X210750000Y-127328613D02*
X210750000Y-97050000D01*
X209730795Y-95230794D02*
X208700000Y-94200000D01*
X209250000Y-89585595D02*
X209000000Y-89835595D01*
X211250000Y-97450000D02*
X211250000Y-95800006D01*
X210750000Y-89593998D02*
X211000000Y-89843998D01*
X211000000Y-90621573D02*
X210999999Y-91456573D01*
X211000000Y-92250000D02*
X211250000Y-92500000D01*
X211249999Y-95375742D02*
X211250000Y-95800006D01*
X210999999Y-91456573D02*
X211000000Y-92250000D01*
X209457211Y-90042789D02*
X209457211Y-92439382D01*
X211000001Y-90239073D02*
X211000000Y-90621573D01*
X209457211Y-92439382D02*
X209200001Y-92696592D01*
X211250000Y-92500000D02*
X211249999Y-95375742D01*
X211250000Y-127328613D02*
X211250000Y-97450000D01*
X209750000Y-87695000D02*
X209750000Y-89750000D01*
X210750000Y-87695000D02*
X210750000Y-89593998D01*
X209200001Y-92696592D02*
X209200001Y-93799997D01*
X209750000Y-89750000D02*
X209457211Y-90042789D01*
X209200001Y-93799997D02*
X209500000Y-94099996D01*
X211000000Y-89843998D02*
X211000001Y-90239073D01*
D36*
X216200000Y-135337500D02*
X216200000Y-136162500D01*
X206000000Y-139550000D02*
X208162500Y-139550000D01*
X202335002Y-105900593D02*
X202500594Y-105900593D01*
X218487499Y-126387500D02*
X218500000Y-126400000D01*
X213900004Y-107974997D02*
X213925003Y-107974997D01*
X208162500Y-139550000D02*
X208212500Y-139500000D01*
X216199999Y-126387500D02*
X218487499Y-126387500D01*
X218499999Y-125273801D02*
X213900003Y-120673806D01*
X214400000Y-127100002D02*
X214171387Y-127328614D01*
X214400000Y-126387500D02*
X216199999Y-126387500D01*
X205600000Y-105350000D02*
X205599999Y-109187500D01*
X205599999Y-109187500D02*
X205612500Y-109199999D01*
X205837500Y-128087500D02*
X205837500Y-128697403D01*
X207119000Y-152300000D02*
X208050000Y-152300000D01*
X213925003Y-107974997D02*
X216500000Y-105400000D01*
X214400000Y-126387500D02*
X214400000Y-127100002D01*
X213900003Y-120673806D02*
X213900004Y-107974997D01*
X216187500Y-135350000D02*
X214550000Y-135349999D01*
D37*
X208750001Y-137212500D02*
X208212500Y-137750000D01*
X212750000Y-135653613D02*
X212750000Y-137537500D01*
D36*
X201800000Y-127428091D02*
X201835002Y-127463093D01*
X216200000Y-136162500D02*
X215900000Y-136462500D01*
X208050000Y-152300000D02*
X208050000Y-158499999D01*
X208212500Y-137750000D02*
X208212500Y-137687500D01*
X205612500Y-109199999D02*
X205612500Y-111012500D01*
X218500000Y-126400000D02*
X218499999Y-125273801D01*
X212812500Y-137600000D02*
X212812500Y-139550000D01*
X214162500Y-134962500D02*
X214162500Y-134284823D01*
X205612500Y-111012500D02*
X205650000Y-111050000D01*
X206000000Y-151181000D02*
X207119000Y-152300000D01*
X201835002Y-127463093D02*
X203835002Y-127463093D01*
X205450000Y-105199999D02*
X205600000Y-105350000D01*
X205213093Y-127463093D02*
X205837500Y-128087500D01*
X201800000Y-126100000D02*
X201800000Y-127428091D01*
D37*
X212750000Y-137537500D02*
X212812500Y-137600000D01*
D36*
X203800000Y-107200000D02*
X205612500Y-107200000D01*
D37*
X208750000Y-135653613D02*
X208750001Y-137212500D01*
D36*
X203835002Y-127463093D02*
X205213093Y-127463093D01*
X214171387Y-127328614D02*
X213221387Y-127328613D01*
X206000000Y-139550000D02*
X206000000Y-151181000D01*
X202500594Y-105900593D02*
X203800000Y-107200000D01*
X213221387Y-127328613D02*
X212793710Y-127328613D01*
X208212500Y-139500000D02*
X208212500Y-137750000D01*
X214550000Y-135349999D02*
X214162500Y-134962500D01*
X216200000Y-135337500D02*
X216187500Y-135350000D01*
D37*
X214162500Y-128741113D02*
X214178613Y-128725000D01*
X215358887Y-128741113D02*
X215650000Y-128450000D01*
X214162500Y-128741113D02*
X215358887Y-128741113D01*
X213600000Y-93100000D02*
X222715000Y-93100000D01*
X211792791Y-125560617D02*
X212600000Y-124753408D01*
X212600000Y-124753408D02*
X212600000Y-94100000D01*
X211769789Y-126498267D02*
X211792790Y-126475267D01*
X222715000Y-93100000D02*
X223625001Y-94010001D01*
X211792790Y-126475267D02*
X211792791Y-125560617D01*
X211750000Y-127328613D02*
X211769790Y-127308823D01*
X223625001Y-94010001D02*
X224475000Y-94860000D01*
X212600000Y-94100000D02*
X213600000Y-93100000D01*
X211769790Y-127308823D02*
X211769789Y-126498267D01*
D36*
X214320000Y-85349000D02*
X214320000Y-82600000D01*
X216600000Y-88212500D02*
X218600000Y-88212500D01*
X215167500Y-86780001D02*
X216600000Y-88212500D01*
X214320000Y-86780000D02*
X214320000Y-85349000D01*
X205680000Y-86780000D02*
X205680000Y-82600000D01*
X214320000Y-86780000D02*
X215167500Y-86780001D01*
D37*
X214849112Y-142038388D02*
X214387500Y-142500000D01*
X212800000Y-146250000D02*
X212950000Y-146250000D01*
X214387499Y-144812500D02*
X214387500Y-144400000D01*
X212950000Y-146250000D02*
X214387499Y-144812500D01*
X219075000Y-137812501D02*
X214849112Y-142038388D01*
X217087706Y-132241113D02*
X219075000Y-134228407D01*
X219075000Y-134228407D02*
X219075000Y-137812501D01*
X214387500Y-144400000D02*
X214387500Y-142500000D01*
X214162500Y-132241113D02*
X217087706Y-132241113D01*
X210000000Y-136900000D02*
X210600000Y-136900000D01*
X208300000Y-146600000D02*
X208300000Y-145187500D01*
X209750000Y-135653613D02*
X209750000Y-136650000D01*
X209549112Y-143938388D02*
X209087500Y-144400000D01*
X210800000Y-142687500D02*
X209549112Y-143938388D01*
X210799999Y-137100000D02*
X210800000Y-142687500D01*
X210600000Y-136900000D02*
X210799999Y-137100000D01*
X209750000Y-136650000D02*
X210000000Y-136900000D01*
X208300000Y-145187500D02*
X209087500Y-144400000D01*
X95985991Y-92310593D02*
X97710594Y-92310593D01*
X94395001Y-92310593D02*
X95985991Y-92310593D01*
X100355001Y-94955000D02*
X100355001Y-96536593D01*
X97697001Y-92310593D02*
X97710594Y-92310593D01*
X100355001Y-96536593D02*
X100355001Y-97240593D01*
X97710594Y-92310593D02*
X100355001Y-94955000D01*
X116810593Y-92310592D02*
X119405000Y-94905000D01*
X119405000Y-94905000D02*
X119405000Y-96536592D01*
X116747000Y-92310592D02*
X116810593Y-92310592D01*
X119405000Y-96536592D02*
X119405000Y-97240592D01*
X113445000Y-92310592D02*
X116810593Y-92310592D01*
X137054353Y-92369698D02*
X139750442Y-95065787D01*
X139750442Y-95065787D02*
X139750442Y-98431118D01*
X134945687Y-92369698D02*
X137054353Y-92369698D01*
X158384153Y-99084154D02*
X155630416Y-96330416D01*
X158384154Y-102391836D02*
X158384153Y-99084154D01*
X155630416Y-96330416D02*
X153579398Y-96330416D01*
X177017865Y-103017865D02*
X174291134Y-100291134D01*
X174291134Y-100291134D02*
X172213110Y-100291134D01*
X177017865Y-106352554D02*
X177017865Y-103017865D01*
X195651577Y-106951577D02*
X192951852Y-104251852D01*
X192951852Y-104251852D02*
X190846822Y-104251852D01*
X195651577Y-110313272D02*
X195651577Y-106951577D01*
X229275660Y-105175660D02*
X224812169Y-105175660D01*
X231666933Y-108758774D02*
X231666933Y-107566933D01*
X231666933Y-107566933D02*
X229275660Y-105175660D01*
X247914942Y-101214942D02*
X243445881Y-101214942D01*
X250300645Y-104798056D02*
X250300645Y-103600645D01*
X250300645Y-103600645D02*
X247914942Y-101214942D01*
X268934357Y-100837338D02*
X268934357Y-99634357D01*
X268934357Y-99634357D02*
X266554224Y-97254224D01*
X266554224Y-97254224D02*
X262079593Y-97254224D01*
X287568069Y-96876621D02*
X287568069Y-95699986D01*
X287568069Y-95699986D02*
X285161590Y-93293507D01*
X285161590Y-93293507D02*
X280713305Y-93293507D01*
X305652002Y-91250593D02*
X302325001Y-91250592D01*
X308285001Y-93883593D02*
X305652002Y-91250593D01*
X308285001Y-96180593D02*
X308285001Y-93883593D01*
X302325001Y-91250592D02*
X305627001Y-91250593D01*
X328000000Y-102300000D02*
X330480001Y-99819999D01*
X330480001Y-99819999D02*
X330480001Y-92310593D01*
X330480001Y-92310593D02*
X320955001Y-92310592D01*
X345965001Y-94965002D02*
X345965001Y-97240593D01*
X340005001Y-92310592D02*
X343310593Y-92310593D01*
X343310593Y-92310593D02*
X345965001Y-94965002D01*
X73265001Y-111865002D02*
X73265001Y-113446593D01*
X73265001Y-113446593D02*
X73265001Y-114150593D01*
X67305000Y-109220593D02*
X68895990Y-109220593D01*
X68895990Y-109220593D02*
X70620593Y-109220593D01*
X70607000Y-109220593D02*
X70620593Y-109220593D01*
X70620593Y-109220593D02*
X73265001Y-111865002D01*
X99261251Y-133061251D02*
X99261251Y-135340592D01*
X93301250Y-130410592D02*
X96610592Y-130410592D01*
X96610592Y-130410592D02*
X99261251Y-133061251D01*
X122810592Y-130410593D02*
X125455000Y-133055000D01*
X125455000Y-133055000D02*
X125455000Y-135340592D01*
X119495000Y-130410592D02*
X122810592Y-130410593D01*
X122797000Y-130410592D02*
X122810592Y-130410593D01*
X145800000Y-135300000D02*
X145800000Y-138670678D01*
X145800000Y-138670678D02*
X145800441Y-138671118D01*
X140995687Y-132609698D02*
X143109698Y-132609698D01*
X143109698Y-132609698D02*
X145800000Y-135300000D01*
X164143054Y-163986056D02*
X164143054Y-160183352D01*
X164143054Y-160183352D02*
X160107284Y-156147582D01*
X262971593Y-128550001D02*
X256074960Y-135446633D01*
X217527484Y-130741113D02*
X215000000Y-130741114D01*
X273833240Y-135358240D02*
X267025000Y-128550000D01*
X215000000Y-130741114D02*
X214162500Y-130741112D01*
X256074960Y-135446633D02*
X222233004Y-135446633D01*
X267025000Y-128550000D02*
X262971593Y-128550001D01*
X222233004Y-135446633D02*
X217527484Y-130741113D01*
X278290163Y-135358240D02*
X273833240Y-135358240D01*
X262406814Y-127175001D02*
X255506814Y-134075000D01*
X318375000Y-127175001D02*
X262406814Y-127175001D01*
X255506814Y-134075000D02*
X222801150Y-134075000D01*
X323693498Y-125175391D02*
X320374609Y-125175391D01*
X336321909Y-127175000D02*
X325693106Y-127175000D01*
X320374609Y-125175391D02*
X318375000Y-127175001D01*
X215000000Y-129241113D02*
X214162500Y-129241113D01*
X217967263Y-129241113D02*
X215000000Y-129241113D01*
X222801150Y-134075000D02*
X217967263Y-129241113D01*
X342097500Y-132950592D02*
X336321909Y-127175000D01*
X325693106Y-127175000D02*
X323693498Y-125175391D01*
X320666251Y-132950592D02*
X315347870Y-127632211D01*
X215000000Y-129741113D02*
X214162500Y-129741113D01*
X222611768Y-134532211D02*
X217820670Y-129741113D01*
X262596196Y-127632211D02*
X255696196Y-134532211D01*
X217820670Y-129741113D02*
X215000000Y-129741113D01*
X315347870Y-127632211D02*
X262596196Y-127632211D01*
X255696196Y-134532211D02*
X222611768Y-134532211D01*
X208750000Y-88850000D02*
X208750000Y-87695000D01*
X208400000Y-89200000D02*
X208750000Y-88850000D01*
X203400000Y-89787500D02*
X203400000Y-91000000D01*
X211800000Y-87745000D02*
X211750000Y-87695000D01*
X201400000Y-89787500D02*
X201400000Y-91000000D01*
X211750000Y-87695000D02*
X211750000Y-89199999D01*
G04 #@! TA.AperFunction,Conductor*
G36*
X212309066Y-128437920D02*
G01*
X212326701Y-128449255D01*
X212350706Y-128467674D01*
X212392572Y-128525011D01*
X212394138Y-128533995D01*
X212394897Y-128533772D01*
X212404045Y-128564926D01*
X212417584Y-128566955D01*
X212469011Y-128560184D01*
X212484155Y-128556127D01*
X212533210Y-128552912D01*
X212633194Y-128566075D01*
X212637281Y-128566613D01*
X212798501Y-128566613D01*
X212866622Y-128586615D01*
X212913115Y-128640271D01*
X212924501Y-128692613D01*
X212924501Y-128853833D01*
X212938327Y-128958852D01*
X212939314Y-128966349D01*
X212938327Y-128966479D01*
X212938327Y-129015747D01*
X212939314Y-129015877D01*
X212924501Y-129128393D01*
X212924501Y-129353833D01*
X212938327Y-129458852D01*
X212939314Y-129466349D01*
X212938327Y-129466479D01*
X212938327Y-129515747D01*
X212939314Y-129515877D01*
X212924501Y-129628393D01*
X212924501Y-129853833D01*
X212938327Y-129958852D01*
X212939314Y-129966349D01*
X212938327Y-129966479D01*
X212938327Y-130015747D01*
X212939314Y-130015877D01*
X212924501Y-130128393D01*
X212924501Y-130353833D01*
X212938327Y-130458852D01*
X212939314Y-130466349D01*
X212938327Y-130466479D01*
X212938327Y-130515747D01*
X212939314Y-130515877D01*
X212924501Y-130628393D01*
X212924501Y-130853833D01*
X212938327Y-130958852D01*
X212939314Y-130966349D01*
X212938327Y-130966479D01*
X212938327Y-131015747D01*
X212939314Y-131015877D01*
X212924501Y-131128393D01*
X212924501Y-131353833D01*
X212938327Y-131458852D01*
X212939314Y-131466349D01*
X212938327Y-131466479D01*
X212938327Y-131515747D01*
X212939314Y-131515877D01*
X212924501Y-131628393D01*
X212924501Y-131853833D01*
X212938327Y-131958852D01*
X212939314Y-131966349D01*
X212938327Y-131966479D01*
X212938327Y-132015747D01*
X212939314Y-132015877D01*
X212924501Y-132128393D01*
X212924501Y-132353833D01*
X212938327Y-132458852D01*
X212939314Y-132466349D01*
X212938327Y-132466479D01*
X212938327Y-132515747D01*
X212939314Y-132515877D01*
X212924501Y-132628393D01*
X212924501Y-132853833D01*
X212938327Y-132958852D01*
X212939314Y-132966349D01*
X212938327Y-132966479D01*
X212938327Y-133015747D01*
X212939314Y-133015877D01*
X212924501Y-133128393D01*
X212924501Y-133353833D01*
X212925039Y-133357919D01*
X212925039Y-133357920D01*
X212938202Y-133457906D01*
X212934987Y-133506963D01*
X212930929Y-133522108D01*
X212924209Y-133573153D01*
X212926420Y-133587335D01*
X212956622Y-133596008D01*
X212955341Y-133600468D01*
X212991600Y-133611115D01*
X213023440Y-133640408D01*
X213026408Y-133644275D01*
X213041857Y-133664409D01*
X213067458Y-133730629D01*
X213053194Y-133800178D01*
X213041857Y-133817817D01*
X213023441Y-133841817D01*
X212966103Y-133883684D01*
X212957119Y-133885250D01*
X212957342Y-133886009D01*
X212926188Y-133895157D01*
X212924159Y-133908696D01*
X212930930Y-133960123D01*
X212934987Y-133975267D01*
X212938202Y-134024322D01*
X212924501Y-134128393D01*
X212924501Y-134289613D01*
X212904499Y-134357734D01*
X212850843Y-134404227D01*
X212798501Y-134415613D01*
X212637281Y-134415613D01*
X212524765Y-134430426D01*
X212524635Y-134429439D01*
X212475367Y-134429439D01*
X212475237Y-134430426D01*
X212467740Y-134429439D01*
X212362721Y-134415613D01*
X212137281Y-134415613D01*
X212024765Y-134430426D01*
X212024635Y-134429439D01*
X211975367Y-134429439D01*
X211975237Y-134430426D01*
X211967740Y-134429439D01*
X211862721Y-134415613D01*
X211637281Y-134415613D01*
X211524765Y-134430426D01*
X211524635Y-134429439D01*
X211475367Y-134429439D01*
X211475237Y-134430426D01*
X211467740Y-134429439D01*
X211362721Y-134415613D01*
X211137281Y-134415613D01*
X211024765Y-134430426D01*
X211024635Y-134429439D01*
X210975367Y-134429439D01*
X210975237Y-134430426D01*
X210967740Y-134429439D01*
X210862721Y-134415613D01*
X210637281Y-134415613D01*
X210524765Y-134430426D01*
X210524635Y-134429439D01*
X210475367Y-134429439D01*
X210475237Y-134430426D01*
X210467740Y-134429439D01*
X210362721Y-134415613D01*
X210137281Y-134415613D01*
X210024765Y-134430426D01*
X210024635Y-134429439D01*
X209975367Y-134429439D01*
X209975237Y-134430426D01*
X209967740Y-134429439D01*
X209862721Y-134415613D01*
X209637281Y-134415613D01*
X209633195Y-134416151D01*
X209633194Y-134416151D01*
X209533208Y-134429314D01*
X209484151Y-134426099D01*
X209469006Y-134422041D01*
X209417961Y-134415321D01*
X209403779Y-134417532D01*
X209395106Y-134447734D01*
X209390646Y-134446453D01*
X209379999Y-134482712D01*
X209350706Y-134514552D01*
X209326704Y-134532969D01*
X209260485Y-134558570D01*
X209190936Y-134544306D01*
X209173301Y-134532971D01*
X209149296Y-134514552D01*
X209107430Y-134457215D01*
X209105864Y-134448231D01*
X209105105Y-134448454D01*
X209095957Y-134417300D01*
X209082418Y-134415271D01*
X209030991Y-134422042D01*
X209015847Y-134426099D01*
X208966792Y-134429314D01*
X208866808Y-134416151D01*
X208866807Y-134416151D01*
X208862721Y-134415613D01*
X208637281Y-134415613D01*
X208524765Y-134430426D01*
X208524635Y-134429439D01*
X208475367Y-134429439D01*
X208475237Y-134430426D01*
X208467740Y-134429439D01*
X208362721Y-134415613D01*
X208137281Y-134415613D01*
X208024765Y-134430426D01*
X208024635Y-134429439D01*
X207975367Y-134429439D01*
X207975237Y-134430426D01*
X207967740Y-134429439D01*
X207862721Y-134415613D01*
X207637281Y-134415613D01*
X207524765Y-134430426D01*
X207524635Y-134429439D01*
X207475367Y-134429439D01*
X207475237Y-134430426D01*
X207467740Y-134429439D01*
X207362721Y-134415613D01*
X207201501Y-134415613D01*
X207133380Y-134395611D01*
X207086887Y-134341955D01*
X207075501Y-134289613D01*
X207075501Y-134128393D01*
X207060688Y-134015877D01*
X207061675Y-134015747D01*
X207061675Y-133966479D01*
X207060688Y-133966349D01*
X207061675Y-133958852D01*
X207075501Y-133853833D01*
X207075501Y-133628393D01*
X207060688Y-133515877D01*
X207061675Y-133515747D01*
X207061675Y-133466479D01*
X207060688Y-133466349D01*
X207061675Y-133458852D01*
X207075501Y-133353833D01*
X207075501Y-133128393D01*
X207060688Y-133015877D01*
X207061675Y-133015747D01*
X207061675Y-132966479D01*
X207060688Y-132966349D01*
X207061675Y-132958852D01*
X207075501Y-132853833D01*
X207075501Y-132628393D01*
X207060688Y-132515877D01*
X207061675Y-132515747D01*
X207061675Y-132466479D01*
X207060688Y-132466349D01*
X207061675Y-132458852D01*
X207075501Y-132353833D01*
X207075501Y-132128393D01*
X207060688Y-132015877D01*
X207061675Y-132015747D01*
X207061675Y-131966479D01*
X207060688Y-131966349D01*
X207061675Y-131958852D01*
X207075501Y-131853833D01*
X207075501Y-131628393D01*
X207060688Y-131515877D01*
X207061675Y-131515747D01*
X207061675Y-131466479D01*
X207060688Y-131466349D01*
X207061675Y-131458852D01*
X207075501Y-131353833D01*
X207075501Y-131128393D01*
X207060688Y-131015877D01*
X207061675Y-131015747D01*
X207061675Y-130966479D01*
X207060688Y-130966349D01*
X207061675Y-130958852D01*
X207075501Y-130853833D01*
X207075501Y-130628393D01*
X207060688Y-130515877D01*
X207061675Y-130515747D01*
X207061675Y-130466479D01*
X207060688Y-130466349D01*
X207061675Y-130458852D01*
X207075501Y-130353833D01*
X207075501Y-130128393D01*
X207060688Y-130015877D01*
X207061675Y-130015747D01*
X207061675Y-129966479D01*
X207060688Y-129966349D01*
X207061675Y-129958852D01*
X207075501Y-129853833D01*
X207075501Y-129628393D01*
X207061800Y-129524320D01*
X207065015Y-129475263D01*
X207069073Y-129460118D01*
X207075793Y-129409073D01*
X207073582Y-129394891D01*
X207043380Y-129386218D01*
X207044661Y-129381758D01*
X207008402Y-129371111D01*
X206976561Y-129341817D01*
X206958145Y-129317817D01*
X206932544Y-129251597D01*
X206946808Y-129182048D01*
X206958145Y-129164409D01*
X206976561Y-129140409D01*
X207033899Y-129098542D01*
X207042883Y-129096976D01*
X207042660Y-129096217D01*
X207073814Y-129087069D01*
X207075843Y-129073530D01*
X207069072Y-129022103D01*
X207065015Y-129006959D01*
X207061800Y-128957904D01*
X207074963Y-128857920D01*
X207074963Y-128857919D01*
X207075501Y-128853833D01*
X207075501Y-128692613D01*
X207095503Y-128624492D01*
X207149159Y-128577999D01*
X207201501Y-128566613D01*
X207362721Y-128566613D01*
X207475237Y-128551800D01*
X207475367Y-128552787D01*
X207524635Y-128552787D01*
X207524765Y-128551800D01*
X207532262Y-128552787D01*
X207637281Y-128566613D01*
X207862721Y-128566613D01*
X207975237Y-128551800D01*
X207975367Y-128552787D01*
X208024635Y-128552787D01*
X208024765Y-128551800D01*
X208032262Y-128552787D01*
X208137281Y-128566613D01*
X208362721Y-128566613D01*
X208475237Y-128551800D01*
X208475367Y-128552787D01*
X208524635Y-128552787D01*
X208524765Y-128551800D01*
X208532262Y-128552787D01*
X208637281Y-128566613D01*
X208862721Y-128566613D01*
X208975237Y-128551800D01*
X208975367Y-128552787D01*
X209024635Y-128552787D01*
X209024765Y-128551800D01*
X209032262Y-128552787D01*
X209137281Y-128566613D01*
X209362721Y-128566613D01*
X209475237Y-128551800D01*
X209475367Y-128552787D01*
X209524635Y-128552787D01*
X209524765Y-128551800D01*
X209532262Y-128552787D01*
X209637281Y-128566613D01*
X209862721Y-128566613D01*
X209975237Y-128551800D01*
X209975367Y-128552787D01*
X210024635Y-128552787D01*
X210024765Y-128551800D01*
X210032262Y-128552787D01*
X210137281Y-128566613D01*
X210362721Y-128566613D01*
X210475237Y-128551800D01*
X210475367Y-128552787D01*
X210524635Y-128552787D01*
X210524765Y-128551800D01*
X210532262Y-128552787D01*
X210637281Y-128566613D01*
X210862721Y-128566613D01*
X210975237Y-128551800D01*
X210975367Y-128552787D01*
X211024635Y-128552787D01*
X211024765Y-128551800D01*
X211032262Y-128552787D01*
X211137281Y-128566613D01*
X211362721Y-128566613D01*
X211475237Y-128551800D01*
X211475367Y-128552787D01*
X211524635Y-128552787D01*
X211524765Y-128551800D01*
X211532262Y-128552787D01*
X211637281Y-128566613D01*
X211862721Y-128566613D01*
X211866808Y-128566075D01*
X211966794Y-128552912D01*
X212015851Y-128556127D01*
X212030996Y-128560185D01*
X212082041Y-128566905D01*
X212096223Y-128564694D01*
X212104896Y-128534492D01*
X212109356Y-128535773D01*
X212120003Y-128499514D01*
X212149296Y-128467674D01*
X212173298Y-128449257D01*
X212239517Y-128423656D01*
X212309066Y-128437920D01*
G37*
G04 #@! TD.AperFunction*
G04 #@! TA.AperFunction,Conductor*
G36*
X204766021Y-87020002D02*
G01*
X204812514Y-87073658D01*
X204823900Y-87126000D01*
X204823900Y-87376467D01*
X204838941Y-87514919D01*
X204898269Y-87691210D01*
X204901784Y-87697060D01*
X204901785Y-87697062D01*
X204945558Y-87769912D01*
X204994070Y-87850649D01*
X204998761Y-87855609D01*
X204998762Y-87855611D01*
X205096158Y-87958604D01*
X205121873Y-87985797D01*
X205127515Y-87989631D01*
X205212091Y-88047109D01*
X205275716Y-88090349D01*
X205282045Y-88092880D01*
X205282046Y-88092881D01*
X205442079Y-88156890D01*
X205442081Y-88156891D01*
X205448420Y-88159426D01*
X205540174Y-88174615D01*
X205625191Y-88188690D01*
X205625195Y-88188690D01*
X205631929Y-88189805D01*
X205638746Y-88189448D01*
X205638750Y-88189448D01*
X205757212Y-88183239D01*
X205817681Y-88180070D01*
X205821819Y-88178930D01*
X205891299Y-88187662D01*
X205945772Y-88233195D01*
X205967001Y-88303188D01*
X205967001Y-88464669D01*
X205967371Y-88471490D01*
X205972895Y-88522352D01*
X205976521Y-88537604D01*
X206021676Y-88658054D01*
X206030214Y-88673649D01*
X206106715Y-88775724D01*
X206119276Y-88788285D01*
X206221351Y-88864786D01*
X206236946Y-88873324D01*
X206357394Y-88918478D01*
X206372649Y-88922105D01*
X206423514Y-88927631D01*
X206430328Y-88928000D01*
X206502885Y-88928000D01*
X206518124Y-88923525D01*
X206519329Y-88922135D01*
X206521000Y-88914452D01*
X206521000Y-87567000D01*
X206541002Y-87498879D01*
X206594658Y-87452386D01*
X206647000Y-87441000D01*
X206767900Y-87441000D01*
X206836021Y-87461002D01*
X206882514Y-87514658D01*
X206893900Y-87567000D01*
X206893900Y-88453752D01*
X206894569Y-88458300D01*
X206894570Y-88458307D01*
X206902690Y-88513466D01*
X206904203Y-88523744D01*
X206908518Y-88532532D01*
X206908518Y-88532533D01*
X206951606Y-88620291D01*
X206956451Y-88630160D01*
X206963819Y-88637515D01*
X206963824Y-88637522D01*
X206966419Y-88640112D01*
X206968819Y-88644499D01*
X206969884Y-88645986D01*
X206969704Y-88646115D01*
X207000498Y-88702395D01*
X207003400Y-88729283D01*
X207003400Y-89846784D01*
X206980486Y-89919236D01*
X206967522Y-89937682D01*
X206942615Y-90001566D01*
X206912599Y-90078553D01*
X206909837Y-90085636D01*
X206908845Y-90093169D01*
X206908845Y-90093170D01*
X206896992Y-90183206D01*
X206889109Y-90243079D01*
X206895692Y-90302709D01*
X206901699Y-90357113D01*
X206906535Y-90400921D01*
X206909144Y-90408052D01*
X206909145Y-90408054D01*
X206930508Y-90466431D01*
X206961109Y-90550051D01*
X206981975Y-90581102D01*
X207003392Y-90651376D01*
X207003392Y-90771409D01*
X206983390Y-90839530D01*
X206966487Y-90860504D01*
X205959044Y-91867948D01*
X205955235Y-91871601D01*
X205909880Y-91913307D01*
X205887128Y-91950002D01*
X205880415Y-91959769D01*
X205854319Y-91994149D01*
X205848849Y-92007964D01*
X205838790Y-92027963D01*
X205830963Y-92040587D01*
X205828566Y-92048838D01*
X205818922Y-92082032D01*
X205815077Y-92093262D01*
X205799189Y-92133391D01*
X205798292Y-92141927D01*
X205798290Y-92141934D01*
X205797635Y-92148165D01*
X205793324Y-92170138D01*
X205791025Y-92178052D01*
X205791023Y-92178062D01*
X205789182Y-92184400D01*
X205788402Y-92195021D01*
X205788402Y-92229425D01*
X205787712Y-92242591D01*
X205786169Y-92257277D01*
X205759159Y-92322935D01*
X205700939Y-92363567D01*
X205670869Y-92369494D01*
X205670278Y-92369494D01*
X205595029Y-92379400D01*
X205559966Y-92384016D01*
X205559965Y-92384016D01*
X205551778Y-92385094D01*
X205404337Y-92446166D01*
X205277726Y-92543317D01*
X205272700Y-92549867D01*
X205219171Y-92619628D01*
X205180575Y-92669928D01*
X205119503Y-92817369D01*
X205103902Y-92935868D01*
X205103903Y-93765317D01*
X205104441Y-93769401D01*
X205104441Y-93769406D01*
X205111801Y-93825313D01*
X205119503Y-93883817D01*
X205180575Y-94031258D01*
X205277726Y-94157869D01*
X205284276Y-94162895D01*
X205293297Y-94169817D01*
X205404337Y-94255020D01*
X205551778Y-94316092D01*
X205670277Y-94331693D01*
X206334921Y-94331693D01*
X206999726Y-94331692D01*
X207003810Y-94331154D01*
X207003815Y-94331154D01*
X207110038Y-94317170D01*
X207110039Y-94317170D01*
X207118226Y-94316092D01*
X207265667Y-94255020D01*
X207376707Y-94169817D01*
X207385728Y-94162895D01*
X207392278Y-94157869D01*
X207489429Y-94031258D01*
X207550501Y-93883817D01*
X207566102Y-93765318D01*
X207566101Y-92935869D01*
X207560945Y-92896698D01*
X207551579Y-92825557D01*
X207551579Y-92825556D01*
X207550501Y-92817369D01*
X207489429Y-92669928D01*
X207450833Y-92619628D01*
X207397304Y-92549867D01*
X207392278Y-92543317D01*
X207265667Y-92446166D01*
X207200302Y-92419091D01*
X207145020Y-92374543D01*
X207122599Y-92307180D01*
X207140157Y-92238389D01*
X207159423Y-92213587D01*
X207925961Y-91447048D01*
X207929771Y-91443395D01*
X207968787Y-91407518D01*
X207975114Y-91401700D01*
X207997866Y-91365005D01*
X208004582Y-91355234D01*
X208025480Y-91327702D01*
X208030675Y-91320858D01*
X208036145Y-91307043D01*
X208046205Y-91287042D01*
X208049505Y-91281720D01*
X208054031Y-91274420D01*
X208066070Y-91232981D01*
X208069915Y-91221751D01*
X208082644Y-91189602D01*
X208082646Y-91189596D01*
X208085805Y-91181616D01*
X208086915Y-91171058D01*
X208087356Y-91166856D01*
X208091671Y-91144862D01*
X208093971Y-91136948D01*
X208093973Y-91136939D01*
X208095812Y-91130608D01*
X208096592Y-91119987D01*
X208096592Y-91085582D01*
X208097282Y-91072412D01*
X208100560Y-91041219D01*
X208101458Y-91032677D01*
X208100026Y-91024212D01*
X208100026Y-91024202D01*
X208098357Y-91014337D01*
X208096592Y-90993324D01*
X208096592Y-90654298D01*
X208120269Y-90580773D01*
X208124724Y-90574574D01*
X208124726Y-90574571D01*
X208129160Y-90568400D01*
X208188391Y-90421058D01*
X208210766Y-90263841D01*
X208210911Y-90250000D01*
X208210074Y-90243079D01*
X208192745Y-90099889D01*
X208191833Y-90092349D01*
X208165200Y-90021866D01*
X208159832Y-89951074D01*
X208193590Y-89888616D01*
X208255755Y-89854324D01*
X208300162Y-89852494D01*
X208302956Y-89852877D01*
X208310303Y-89854804D01*
X208392879Y-89856101D01*
X208460677Y-89877170D01*
X208506322Y-89931549D01*
X208516900Y-89982085D01*
X208516900Y-91997702D01*
X208496898Y-92065823D01*
X208479996Y-92086797D01*
X208406643Y-92160151D01*
X208397730Y-92167272D01*
X208398102Y-92167709D01*
X208391264Y-92173529D01*
X208383673Y-92178318D01*
X208377731Y-92185046D01*
X208349944Y-92216509D01*
X208344598Y-92222196D01*
X208333868Y-92232926D01*
X208331184Y-92236506D01*
X208331177Y-92236515D01*
X208328054Y-92240681D01*
X208321677Y-92248514D01*
X208292069Y-92282040D01*
X208288256Y-92290162D01*
X208285201Y-92294812D01*
X208279955Y-92303542D01*
X208277273Y-92308441D01*
X208271894Y-92315618D01*
X208268746Y-92324016D01*
X208268744Y-92324019D01*
X208256192Y-92357502D01*
X208252274Y-92366801D01*
X208233258Y-92407303D01*
X208231878Y-92416170D01*
X208230247Y-92421503D01*
X208227668Y-92431335D01*
X208226469Y-92436787D01*
X208223317Y-92445195D01*
X208222652Y-92454145D01*
X208220002Y-92489805D01*
X208218848Y-92499850D01*
X208216900Y-92512361D01*
X208216900Y-92526867D01*
X208216554Y-92536204D01*
X208213062Y-92583196D01*
X208214935Y-92591971D01*
X208215546Y-92600930D01*
X208215471Y-92600935D01*
X208216900Y-92614476D01*
X208216900Y-94131773D01*
X208215633Y-94143109D01*
X208216205Y-94143155D01*
X208215485Y-94152103D01*
X208213504Y-94160858D01*
X208214060Y-94169817D01*
X208216658Y-94211694D01*
X208216900Y-94219496D01*
X208216900Y-94234689D01*
X208218275Y-94244290D01*
X208219303Y-94254329D01*
X208222073Y-94298975D01*
X208225122Y-94307421D01*
X208226251Y-94312872D01*
X208228713Y-94322747D01*
X208230277Y-94328096D01*
X208231550Y-94336984D01*
X208235265Y-94345154D01*
X208250061Y-94377698D01*
X208253872Y-94387060D01*
X208269062Y-94429135D01*
X208274357Y-94436384D01*
X208276970Y-94441297D01*
X208282109Y-94450091D01*
X208285109Y-94454782D01*
X208288826Y-94462957D01*
X208294688Y-94469760D01*
X208318012Y-94496829D01*
X208324301Y-94504750D01*
X208328908Y-94511057D01*
X208328918Y-94511069D01*
X208331782Y-94514989D01*
X208342043Y-94525250D01*
X208348400Y-94532096D01*
X208379156Y-94567790D01*
X208386690Y-94572673D01*
X208393452Y-94578572D01*
X208393402Y-94578629D01*
X208403982Y-94587189D01*
X209229995Y-95413201D01*
X209264020Y-95475514D01*
X209266900Y-95502297D01*
X209266900Y-95981773D01*
X209265633Y-95993109D01*
X209266205Y-95993155D01*
X209265485Y-96002103D01*
X209263504Y-96010858D01*
X209266061Y-96052079D01*
X209266658Y-96061694D01*
X209266900Y-96069496D01*
X209266900Y-96084689D01*
X209267535Y-96089122D01*
X209268273Y-96094274D01*
X209269303Y-96104330D01*
X209271178Y-96134555D01*
X209272073Y-96148974D01*
X209275121Y-96157417D01*
X209276254Y-96162887D01*
X209278707Y-96172726D01*
X209280277Y-96178096D01*
X209281550Y-96186984D01*
X209285266Y-96195158D01*
X209285267Y-96195160D01*
X209300064Y-96227705D01*
X209303874Y-96237065D01*
X209319062Y-96279134D01*
X209324357Y-96286382D01*
X209326977Y-96291310D01*
X209332113Y-96300099D01*
X209335112Y-96304788D01*
X209338826Y-96312957D01*
X209344682Y-96319754D01*
X209344684Y-96319756D01*
X209348198Y-96323834D01*
X209368022Y-96346839D01*
X209374312Y-96354762D01*
X209378909Y-96361056D01*
X209378914Y-96361062D01*
X209381782Y-96364988D01*
X209392036Y-96375242D01*
X209398393Y-96382088D01*
X209429156Y-96417790D01*
X209436690Y-96422674D01*
X209443453Y-96428573D01*
X209443403Y-96428630D01*
X209453990Y-96437196D01*
X210229995Y-97213201D01*
X210264021Y-97275513D01*
X210266900Y-97302296D01*
X210266900Y-110874000D01*
X210246898Y-110942121D01*
X210193242Y-110988614D01*
X210140900Y-111000000D01*
X206378639Y-111000000D01*
X206310518Y-110979998D01*
X206264025Y-110926342D01*
X206256275Y-110904052D01*
X206255254Y-110899896D01*
X206254341Y-110892349D01*
X206198209Y-110743799D01*
X206181260Y-110719138D01*
X206159100Y-110647771D01*
X206159100Y-109991401D01*
X206179102Y-109923280D01*
X206208391Y-109891442D01*
X206208395Y-109891439D01*
X206217383Y-109884542D01*
X206283600Y-109858939D01*
X206353149Y-109873201D01*
X206392836Y-109906238D01*
X206400505Y-109915914D01*
X206510080Y-110025298D01*
X206521491Y-110034310D01*
X206653291Y-110115553D01*
X206666468Y-110121697D01*
X206813843Y-110170579D01*
X206827210Y-110173445D01*
X206916700Y-110182614D01*
X206930624Y-110178525D01*
X206931829Y-110177135D01*
X206933500Y-110169452D01*
X206933500Y-110164885D01*
X207441500Y-110164885D01*
X207445975Y-110180124D01*
X207447365Y-110181329D01*
X207454321Y-110182842D01*
X207457782Y-110182663D01*
X207549021Y-110173196D01*
X207562417Y-110170303D01*
X207709687Y-110121170D01*
X207722866Y-110114996D01*
X207854514Y-110033530D01*
X207865915Y-110024494D01*
X207975298Y-109914920D01*
X207984310Y-109903509D01*
X208065553Y-109771709D01*
X208071697Y-109758532D01*
X208120579Y-109611157D01*
X208123445Y-109597790D01*
X208132672Y-109507730D01*
X208133000Y-109501315D01*
X208133000Y-109472115D01*
X208128525Y-109456876D01*
X208127135Y-109455671D01*
X208119452Y-109454000D01*
X207459615Y-109454000D01*
X207444376Y-109458475D01*
X207443171Y-109459865D01*
X207441500Y-109467548D01*
X207441500Y-110164885D01*
X206933500Y-110164885D01*
X206933500Y-108217000D01*
X206933605Y-108217000D01*
X206932390Y-108183000D01*
X207441395Y-108183000D01*
X207442869Y-108224254D01*
X207441500Y-108230547D01*
X207441500Y-108927885D01*
X207445975Y-108943124D01*
X207447365Y-108944329D01*
X207455048Y-108946000D01*
X208114885Y-108946000D01*
X208130124Y-108941525D01*
X208131329Y-108940135D01*
X208133000Y-108932452D01*
X208133000Y-108898734D01*
X208132663Y-108892218D01*
X208123196Y-108800979D01*
X208120303Y-108787583D01*
X208071170Y-108640313D01*
X208064996Y-108627134D01*
X207983530Y-108495486D01*
X207974494Y-108484085D01*
X207864920Y-108374702D01*
X207853509Y-108365690D01*
X207758775Y-108307295D01*
X207711282Y-108254523D01*
X207699858Y-108184451D01*
X207728132Y-108119327D01*
X207758588Y-108092891D01*
X207854514Y-108033530D01*
X207865915Y-108024494D01*
X207975298Y-107914920D01*
X207984310Y-107903509D01*
X208065553Y-107771709D01*
X208071697Y-107758532D01*
X208120579Y-107611157D01*
X208123445Y-107597790D01*
X208132672Y-107507730D01*
X208133000Y-107501315D01*
X208133000Y-107472115D01*
X208128525Y-107456876D01*
X208127135Y-107455671D01*
X208119452Y-107454000D01*
X207459615Y-107454000D01*
X207444376Y-107458475D01*
X207443171Y-107459865D01*
X207441500Y-107467548D01*
X207441500Y-108183000D01*
X207441395Y-108183000D01*
X206932390Y-108183000D01*
X206932131Y-108175746D01*
X206933500Y-108169453D01*
X206933500Y-106927885D01*
X207441500Y-106927885D01*
X207445975Y-106943124D01*
X207447365Y-106944329D01*
X207455048Y-106946000D01*
X208114885Y-106946000D01*
X208130124Y-106941525D01*
X208131329Y-106940135D01*
X208133000Y-106932452D01*
X208133000Y-106898734D01*
X208132663Y-106892218D01*
X208123196Y-106800979D01*
X208120303Y-106787583D01*
X208071170Y-106640313D01*
X208064996Y-106627134D01*
X207983530Y-106495486D01*
X207974494Y-106484085D01*
X207864920Y-106374702D01*
X207847764Y-106361153D01*
X207849616Y-106358808D01*
X207811180Y-106316115D01*
X207799745Y-106246046D01*
X207828007Y-106180917D01*
X207880550Y-106143626D01*
X207988054Y-106103324D01*
X208003649Y-106094786D01*
X208105724Y-106018285D01*
X208118285Y-106005724D01*
X208194786Y-105903649D01*
X208203324Y-105888054D01*
X208248478Y-105767606D01*
X208252105Y-105752351D01*
X208257631Y-105701486D01*
X208258000Y-105694672D01*
X208258000Y-105472115D01*
X208253525Y-105456876D01*
X208252135Y-105455671D01*
X208244452Y-105454000D01*
X207622115Y-105454000D01*
X207606876Y-105458475D01*
X207605671Y-105459865D01*
X207604000Y-105467548D01*
X207604000Y-106092745D01*
X207583998Y-106160866D01*
X207530342Y-106207359D01*
X207465153Y-106218088D01*
X207458301Y-106217386D01*
X207444376Y-106221475D01*
X207443171Y-106222865D01*
X207441500Y-106230548D01*
X207441500Y-106927885D01*
X206933500Y-106927885D01*
X206933500Y-106284000D01*
X206953502Y-106215879D01*
X207007158Y-106169386D01*
X207059500Y-106158000D01*
X207077885Y-106158000D01*
X207093124Y-106153525D01*
X207094329Y-106152135D01*
X207096000Y-106144452D01*
X207096000Y-104927885D01*
X207604000Y-104927885D01*
X207608475Y-104943124D01*
X207609865Y-104944329D01*
X207617548Y-104946000D01*
X208239884Y-104946000D01*
X208255123Y-104941525D01*
X208256328Y-104940135D01*
X208257999Y-104932452D01*
X208257999Y-104705331D01*
X208257629Y-104698510D01*
X208252105Y-104647648D01*
X208248479Y-104632396D01*
X208203324Y-104511946D01*
X208194786Y-104496351D01*
X208118285Y-104394276D01*
X208105724Y-104381715D01*
X208003649Y-104305214D01*
X207988054Y-104296676D01*
X207867606Y-104251522D01*
X207852351Y-104247895D01*
X207801486Y-104242369D01*
X207794672Y-104242000D01*
X207622115Y-104242000D01*
X207606876Y-104246475D01*
X207605671Y-104247865D01*
X207604000Y-104255548D01*
X207604000Y-104927885D01*
X207096000Y-104927885D01*
X207096000Y-104260116D01*
X207091525Y-104244877D01*
X207090135Y-104243672D01*
X207082452Y-104242001D01*
X206936424Y-104242001D01*
X206874143Y-104223714D01*
X206836235Y-104250082D01*
X206711946Y-104296676D01*
X206696351Y-104305214D01*
X206594276Y-104381715D01*
X206581715Y-104394276D01*
X206505214Y-104496351D01*
X206496676Y-104511946D01*
X206451522Y-104632394D01*
X206447895Y-104647648D01*
X206447353Y-104652634D01*
X206420109Y-104718196D01*
X206361745Y-104758620D01*
X206290791Y-104761074D01*
X206229774Y-104724777D01*
X206201093Y-104664998D01*
X206200130Y-104665297D01*
X206198095Y-104658747D01*
X206197433Y-104657368D01*
X206197223Y-104655943D01*
X206195797Y-104646256D01*
X206188991Y-104632394D01*
X206148139Y-104549188D01*
X206148138Y-104549187D01*
X206143549Y-104539840D01*
X206076959Y-104473366D01*
X206067019Y-104463443D01*
X206067018Y-104463443D01*
X206059648Y-104456085D01*
X206029964Y-104441575D01*
X205961924Y-104408316D01*
X205961920Y-104408315D01*
X205953140Y-104404023D01*
X205905348Y-104397051D01*
X205888277Y-104394560D01*
X205888275Y-104394560D01*
X205883752Y-104393900D01*
X205016248Y-104393900D01*
X205011700Y-104394569D01*
X205011693Y-104394570D01*
X204955941Y-104402777D01*
X204955939Y-104402778D01*
X204946256Y-104404203D01*
X204937468Y-104408518D01*
X204937467Y-104408518D01*
X204849188Y-104451861D01*
X204849187Y-104451862D01*
X204839840Y-104456451D01*
X204756085Y-104540352D01*
X204751512Y-104549708D01*
X204751511Y-104549709D01*
X204708316Y-104638076D01*
X204708315Y-104638080D01*
X204704023Y-104646860D01*
X204693900Y-104716248D01*
X204693900Y-105683752D01*
X204694569Y-105688300D01*
X204694570Y-105688307D01*
X204702689Y-105743461D01*
X204704203Y-105753744D01*
X204708518Y-105762532D01*
X204708518Y-105762533D01*
X204749373Y-105845743D01*
X204756451Y-105860160D01*
X204840352Y-105943915D01*
X204946860Y-105995977D01*
X204956539Y-105997389D01*
X204964605Y-105999882D01*
X205023782Y-106039107D01*
X205052359Y-106104099D01*
X205053400Y-106120264D01*
X205053400Y-106418191D01*
X205033398Y-106486312D01*
X205004103Y-106518154D01*
X204983762Y-106533762D01*
X204978736Y-106540312D01*
X204978735Y-106540313D01*
X204929787Y-106604104D01*
X204872449Y-106645971D01*
X204829824Y-106653400D01*
X204078600Y-106653400D01*
X204010479Y-106633398D01*
X203989504Y-106616495D01*
X203328006Y-105954996D01*
X203293981Y-105892684D01*
X203291102Y-105865901D01*
X203291102Y-105416841D01*
X203290433Y-105412293D01*
X203290432Y-105412286D01*
X203282225Y-105356534D01*
X203282224Y-105356532D01*
X203280799Y-105346849D01*
X203244012Y-105271923D01*
X203233141Y-105249781D01*
X203233140Y-105249780D01*
X203228551Y-105240433D01*
X203186428Y-105198384D01*
X203152021Y-105164036D01*
X203152020Y-105164036D01*
X203144650Y-105156678D01*
X203135293Y-105152104D01*
X203046926Y-105108909D01*
X203046922Y-105108908D01*
X203038142Y-105104616D01*
X202990350Y-105097644D01*
X202973279Y-105095153D01*
X202973277Y-105095153D01*
X202968754Y-105094493D01*
X201701250Y-105094493D01*
X201696702Y-105095162D01*
X201696695Y-105095163D01*
X201640943Y-105103370D01*
X201640941Y-105103371D01*
X201631258Y-105104796D01*
X201622470Y-105109111D01*
X201622469Y-105109111D01*
X201534190Y-105152454D01*
X201534189Y-105152455D01*
X201524842Y-105157044D01*
X201441087Y-105240945D01*
X201436514Y-105250301D01*
X201436513Y-105250302D01*
X201393318Y-105338669D01*
X201393317Y-105338673D01*
X201389025Y-105347453D01*
X201387614Y-105357127D01*
X201379567Y-105412286D01*
X201378902Y-105416841D01*
X201378902Y-106384345D01*
X201379571Y-106388893D01*
X201379572Y-106388900D01*
X201380185Y-106393064D01*
X201389205Y-106454337D01*
X201393520Y-106463125D01*
X201393520Y-106463126D01*
X201419452Y-106515942D01*
X201441453Y-106560753D01*
X201448823Y-106568110D01*
X201514225Y-106633398D01*
X201525354Y-106644508D01*
X201534710Y-106649081D01*
X201534711Y-106649082D01*
X201623078Y-106692277D01*
X201623082Y-106692278D01*
X201631862Y-106696570D01*
X201679654Y-106703542D01*
X201696725Y-106706033D01*
X201696727Y-106706033D01*
X201701250Y-106706693D01*
X202481494Y-106706693D01*
X202549615Y-106726695D01*
X202570590Y-106743598D01*
X203402961Y-107575970D01*
X203406613Y-107579779D01*
X203448308Y-107625122D01*
X203484989Y-107647865D01*
X203494773Y-107654590D01*
X203522304Y-107675487D01*
X203522307Y-107675489D01*
X203529149Y-107680682D01*
X203537138Y-107683845D01*
X203542949Y-107686146D01*
X203562966Y-107696213D01*
X203568284Y-107699511D01*
X203568289Y-107699513D01*
X203575588Y-107704039D01*
X203583839Y-107706436D01*
X203583841Y-107706437D01*
X203617031Y-107716079D01*
X203628264Y-107719925D01*
X203668391Y-107735813D01*
X203676935Y-107736711D01*
X203676939Y-107736712D01*
X203683165Y-107737367D01*
X203705138Y-107741678D01*
X203713052Y-107743977D01*
X203713062Y-107743979D01*
X203719400Y-107745820D01*
X203727056Y-107746382D01*
X203727716Y-107746431D01*
X203727724Y-107746431D01*
X203730021Y-107746600D01*
X203764425Y-107746600D01*
X203777596Y-107747290D01*
X203817330Y-107751466D01*
X203825795Y-107750034D01*
X203825805Y-107750034D01*
X203835670Y-107748365D01*
X203856683Y-107746600D01*
X204829824Y-107746600D01*
X204897945Y-107766602D01*
X204929787Y-107795896D01*
X204983762Y-107866238D01*
X204990308Y-107871261D01*
X204990311Y-107871264D01*
X205004102Y-107881846D01*
X205045970Y-107939184D01*
X205053399Y-107981809D01*
X205053399Y-108418191D01*
X205033397Y-108486312D01*
X205004102Y-108518154D01*
X204990316Y-108528732D01*
X204990312Y-108528736D01*
X204983762Y-108533762D01*
X204891620Y-108653845D01*
X204833697Y-108793684D01*
X204832619Y-108801873D01*
X204819867Y-108898734D01*
X204818900Y-108906076D01*
X204818900Y-109493924D01*
X204833697Y-109606316D01*
X204891620Y-109746155D01*
X204983762Y-109866238D01*
X204990312Y-109871264D01*
X204990313Y-109871265D01*
X205016604Y-109891439D01*
X205058471Y-109948777D01*
X205065900Y-109991401D01*
X205065900Y-110646795D01*
X205042987Y-110719246D01*
X205030030Y-110737682D01*
X205027270Y-110744762D01*
X204976882Y-110874000D01*
X204972345Y-110885636D01*
X204971353Y-110893169D01*
X204969465Y-110900524D01*
X204967478Y-110900014D01*
X204942994Y-110955369D01*
X204883731Y-110994463D01*
X204846790Y-111000000D01*
X199626131Y-111000000D01*
X199558010Y-110979998D01*
X199511517Y-110926342D01*
X199500131Y-110873869D01*
X199500266Y-110744762D01*
X199508245Y-103084345D01*
X201378902Y-103084345D01*
X201379571Y-103088893D01*
X201379572Y-103088900D01*
X201387692Y-103144059D01*
X201389205Y-103154337D01*
X201393520Y-103163125D01*
X201393520Y-103163126D01*
X201436608Y-103250884D01*
X201441453Y-103260753D01*
X201448823Y-103268110D01*
X201517605Y-103336772D01*
X201525354Y-103344508D01*
X201534710Y-103349081D01*
X201534711Y-103349082D01*
X201623078Y-103392277D01*
X201623082Y-103392278D01*
X201631862Y-103396570D01*
X201679654Y-103403542D01*
X201696725Y-103406033D01*
X201696727Y-103406033D01*
X201701250Y-103406693D01*
X202968754Y-103406693D01*
X202973302Y-103406024D01*
X202973309Y-103406023D01*
X203029061Y-103397816D01*
X203029063Y-103397815D01*
X203038746Y-103396390D01*
X203047535Y-103392075D01*
X203135814Y-103348732D01*
X203135815Y-103348731D01*
X203145162Y-103344142D01*
X203228917Y-103260241D01*
X203276388Y-103163126D01*
X203276686Y-103162517D01*
X203276687Y-103162513D01*
X203280979Y-103153733D01*
X203287951Y-103105941D01*
X203290442Y-103088870D01*
X203290442Y-103088868D01*
X203291102Y-103084345D01*
X203291102Y-102534097D01*
X203311104Y-102465976D01*
X203328007Y-102445002D01*
X203938911Y-101834098D01*
X204001223Y-101800072D01*
X204028006Y-101797193D01*
X204764826Y-101797193D01*
X204832947Y-101817195D01*
X204864789Y-101846489D01*
X204918764Y-101916831D01*
X205038847Y-102008973D01*
X205178686Y-102066896D01*
X205291078Y-102081693D01*
X205553404Y-102081693D01*
X205621525Y-102101695D01*
X205642499Y-102118598D01*
X205797033Y-102273132D01*
X205831059Y-102335444D01*
X205825994Y-102406259D01*
X205788561Y-102455174D01*
X205789840Y-102456451D01*
X205706085Y-102540352D01*
X205701512Y-102549708D01*
X205701511Y-102549709D01*
X205658316Y-102638076D01*
X205658315Y-102638080D01*
X205654023Y-102646860D01*
X205652612Y-102656534D01*
X205644565Y-102711693D01*
X205643900Y-102716248D01*
X205643900Y-103683752D01*
X205644569Y-103688300D01*
X205644570Y-103688307D01*
X205652690Y-103743466D01*
X205654203Y-103753744D01*
X205658518Y-103762532D01*
X205658518Y-103762533D01*
X205701606Y-103850291D01*
X205706451Y-103860160D01*
X205713821Y-103867517D01*
X205782603Y-103936179D01*
X205790352Y-103943915D01*
X205799708Y-103948488D01*
X205799709Y-103948489D01*
X205888076Y-103991684D01*
X205888080Y-103991685D01*
X205896860Y-103995977D01*
X205944652Y-104002949D01*
X205961723Y-104005440D01*
X205961725Y-104005440D01*
X205966248Y-104006100D01*
X206792005Y-104006100D01*
X206854862Y-104024556D01*
X206897427Y-103996727D01*
X206903744Y-103995797D01*
X206912533Y-103991482D01*
X207000812Y-103948139D01*
X207000813Y-103948138D01*
X207010160Y-103943549D01*
X207093915Y-103859648D01*
X207141386Y-103762533D01*
X207141684Y-103761924D01*
X207141685Y-103761920D01*
X207145977Y-103753140D01*
X207152949Y-103705348D01*
X207155440Y-103688277D01*
X207155440Y-103688275D01*
X207156100Y-103683752D01*
X207156100Y-102716248D01*
X207155431Y-102711700D01*
X207155430Y-102711693D01*
X207147223Y-102655941D01*
X207147222Y-102655939D01*
X207145797Y-102646256D01*
X207141482Y-102637467D01*
X207098139Y-102549188D01*
X207098138Y-102549187D01*
X207093549Y-102539840D01*
X207009648Y-102456085D01*
X207000288Y-102451510D01*
X206999433Y-102450900D01*
X206955589Y-102395059D01*
X206946600Y-102348320D01*
X206946600Y-102215478D01*
X207376502Y-102215478D01*
X207380977Y-102230717D01*
X207382367Y-102231922D01*
X207389323Y-102233435D01*
X207392784Y-102233256D01*
X207484023Y-102223789D01*
X207497419Y-102220896D01*
X207644689Y-102171763D01*
X207657868Y-102165589D01*
X207789516Y-102084123D01*
X207800917Y-102075087D01*
X207910300Y-101965513D01*
X207919312Y-101954102D01*
X208000555Y-101822302D01*
X208006699Y-101809125D01*
X208055581Y-101661750D01*
X208058447Y-101648383D01*
X208067674Y-101558323D01*
X208068002Y-101551908D01*
X208068002Y-101522708D01*
X208063527Y-101507469D01*
X208062137Y-101506264D01*
X208054454Y-101504593D01*
X207394617Y-101504593D01*
X207379378Y-101509068D01*
X207378173Y-101510458D01*
X207376502Y-101518141D01*
X207376502Y-102215478D01*
X206946600Y-102215478D01*
X206946600Y-102118003D01*
X206946711Y-102112727D01*
X206948288Y-102075087D01*
X206949291Y-102051167D01*
X206939431Y-102009127D01*
X206937270Y-101997466D01*
X206932580Y-101963225D01*
X206932579Y-101963222D01*
X206931414Y-101954716D01*
X206925516Y-101941086D01*
X206918485Y-101919824D01*
X206917056Y-101913733D01*
X206917056Y-101913732D01*
X206915093Y-101905364D01*
X206894300Y-101867542D01*
X206889079Y-101856884D01*
X206878865Y-101833281D01*
X206868502Y-101783240D01*
X206868502Y-100267593D01*
X206868607Y-100267593D01*
X206867392Y-100233593D01*
X207376398Y-100233593D01*
X207377872Y-100274847D01*
X207376502Y-100281144D01*
X207376502Y-100978478D01*
X207380977Y-100993717D01*
X207382367Y-100994922D01*
X207390050Y-100996593D01*
X208049887Y-100996593D01*
X208065126Y-100992118D01*
X208066331Y-100990728D01*
X208068002Y-100983045D01*
X208068002Y-100949327D01*
X208067665Y-100942811D01*
X208058198Y-100851572D01*
X208055305Y-100838176D01*
X208006172Y-100690906D01*
X207999998Y-100677727D01*
X207918532Y-100546079D01*
X207909496Y-100534678D01*
X207799922Y-100425295D01*
X207788511Y-100416283D01*
X207693777Y-100357888D01*
X207646284Y-100305116D01*
X207634860Y-100235044D01*
X207663134Y-100169920D01*
X207693590Y-100143483D01*
X207789523Y-100084118D01*
X207800918Y-100075087D01*
X207910301Y-99965513D01*
X207919313Y-99954102D01*
X208000556Y-99822302D01*
X208006700Y-99809125D01*
X208055582Y-99661750D01*
X208058448Y-99648383D01*
X208067675Y-99558323D01*
X208068003Y-99551908D01*
X208068003Y-99522708D01*
X208063528Y-99507469D01*
X208062138Y-99506264D01*
X208054455Y-99504593D01*
X207394618Y-99504593D01*
X207379379Y-99509068D01*
X207378174Y-99510458D01*
X207376503Y-99518141D01*
X207376503Y-100233593D01*
X207376398Y-100233593D01*
X206867392Y-100233593D01*
X206867133Y-100226339D01*
X206868503Y-100220042D01*
X206868503Y-98978478D01*
X207376503Y-98978478D01*
X207380978Y-98993717D01*
X207382368Y-98994922D01*
X207390051Y-98996593D01*
X208049888Y-98996593D01*
X208065127Y-98992118D01*
X208066332Y-98990728D01*
X208068003Y-98983045D01*
X208068003Y-98949327D01*
X208067666Y-98942811D01*
X208058199Y-98851572D01*
X208055306Y-98838176D01*
X208006173Y-98690906D01*
X207999999Y-98677727D01*
X207918533Y-98546079D01*
X207909497Y-98534678D01*
X207799923Y-98425295D01*
X207788512Y-98416283D01*
X207656712Y-98335040D01*
X207643535Y-98328896D01*
X207496160Y-98280014D01*
X207482793Y-98277148D01*
X207393303Y-98267979D01*
X207379379Y-98272068D01*
X207378174Y-98273458D01*
X207376503Y-98281141D01*
X207376503Y-98978478D01*
X206868503Y-98978478D01*
X206868503Y-98285708D01*
X206864028Y-98270469D01*
X206862638Y-98269264D01*
X206855682Y-98267751D01*
X206852221Y-98267930D01*
X206760982Y-98277397D01*
X206747586Y-98280290D01*
X206600316Y-98329423D01*
X206580517Y-98338698D01*
X206579273Y-98336042D01*
X206523676Y-98351327D01*
X206455911Y-98330150D01*
X206410353Y-98275699D01*
X206401465Y-98205261D01*
X206436759Y-98136251D01*
X206710972Y-97862038D01*
X206714781Y-97858385D01*
X206753797Y-97822508D01*
X206760124Y-97816690D01*
X206782876Y-97779995D01*
X206789592Y-97770224D01*
X206810490Y-97742692D01*
X206815685Y-97735848D01*
X206821155Y-97722033D01*
X206831215Y-97702032D01*
X206834515Y-97696710D01*
X206839041Y-97689410D01*
X206851080Y-97647971D01*
X206854925Y-97636741D01*
X206867654Y-97604592D01*
X206867656Y-97604586D01*
X206870815Y-97596606D01*
X206872366Y-97581846D01*
X206876681Y-97559852D01*
X206878981Y-97551938D01*
X206878983Y-97551929D01*
X206880822Y-97545598D01*
X206881602Y-97534977D01*
X206881602Y-97500572D01*
X206882292Y-97487402D01*
X206885570Y-97456209D01*
X206886468Y-97447667D01*
X206885036Y-97439202D01*
X206885036Y-97439192D01*
X206883367Y-97429327D01*
X206881602Y-97408314D01*
X206881602Y-97257176D01*
X206901604Y-97189055D01*
X206955260Y-97142562D01*
X206998380Y-97131692D01*
X206999726Y-97131692D01*
X207092591Y-97119467D01*
X207110038Y-97117170D01*
X207110039Y-97117170D01*
X207118226Y-97116092D01*
X207265667Y-97055020D01*
X207392278Y-96957869D01*
X207489429Y-96831258D01*
X207550501Y-96683817D01*
X207566102Y-96565318D01*
X207566101Y-95735869D01*
X207564037Y-95720186D01*
X207551579Y-95625557D01*
X207551579Y-95625556D01*
X207550501Y-95617369D01*
X207489429Y-95469928D01*
X207392278Y-95343317D01*
X207265667Y-95246166D01*
X207118226Y-95185094D01*
X206999727Y-95169493D01*
X206335083Y-95169493D01*
X205670278Y-95169494D01*
X205666194Y-95170032D01*
X205666189Y-95170032D01*
X205559966Y-95184016D01*
X205559965Y-95184016D01*
X205551778Y-95185094D01*
X205404337Y-95246166D01*
X205277726Y-95343317D01*
X205180575Y-95469928D01*
X205164724Y-95508197D01*
X205157262Y-95526211D01*
X205112714Y-95581492D01*
X205040853Y-95603993D01*
X203543020Y-95603993D01*
X203524831Y-95602673D01*
X203473280Y-95595152D01*
X203473276Y-95595152D01*
X203468754Y-95594492D01*
X202201250Y-95594492D01*
X202196702Y-95595161D01*
X202196695Y-95595162D01*
X202140943Y-95603369D01*
X202140941Y-95603370D01*
X202131258Y-95604795D01*
X202122470Y-95609110D01*
X202122469Y-95609110D01*
X202034190Y-95652453D01*
X202034189Y-95652454D01*
X202024842Y-95657043D01*
X201941087Y-95740944D01*
X201936514Y-95750300D01*
X201936513Y-95750301D01*
X201893318Y-95838668D01*
X201893317Y-95838672D01*
X201889025Y-95847452D01*
X201887040Y-95861061D01*
X201881284Y-95900516D01*
X201878902Y-95916840D01*
X201878902Y-96884344D01*
X201879571Y-96888892D01*
X201879572Y-96888899D01*
X201887692Y-96944058D01*
X201889205Y-96954336D01*
X201893520Y-96963124D01*
X201893520Y-96963125D01*
X201936608Y-97050883D01*
X201941453Y-97060752D01*
X201948823Y-97068109D01*
X202017605Y-97136771D01*
X202025354Y-97144507D01*
X202034710Y-97149080D01*
X202034711Y-97149081D01*
X202123078Y-97192276D01*
X202123082Y-97192277D01*
X202131862Y-97196569D01*
X202179654Y-97203541D01*
X202196725Y-97206032D01*
X202196727Y-97206032D01*
X202201250Y-97206692D01*
X203468754Y-97206692D01*
X203473302Y-97206023D01*
X203473309Y-97206022D01*
X203529061Y-97197815D01*
X203529063Y-97197814D01*
X203538746Y-97196389D01*
X203553684Y-97189055D01*
X203635814Y-97148731D01*
X203635815Y-97148730D01*
X203645162Y-97144141D01*
X203728917Y-97060240D01*
X203733927Y-97049991D01*
X203776686Y-96962516D01*
X203776687Y-96962512D01*
X203780979Y-96953732D01*
X203788969Y-96898967D01*
X203790442Y-96888869D01*
X203790442Y-96888867D01*
X203791102Y-96884344D01*
X203791102Y-96823193D01*
X203811104Y-96755072D01*
X203864760Y-96708579D01*
X203917102Y-96697193D01*
X205040853Y-96697193D01*
X205108974Y-96717195D01*
X205157262Y-96774975D01*
X205180575Y-96831258D01*
X205277726Y-96957869D01*
X205404337Y-97055020D01*
X205551778Y-97116092D01*
X205615804Y-97124521D01*
X205680730Y-97153243D01*
X205719822Y-97212508D01*
X205720667Y-97283500D01*
X205688453Y-97338538D01*
X205171533Y-97855459D01*
X205167723Y-97859112D01*
X205131232Y-97892667D01*
X205122380Y-97900807D01*
X205099628Y-97937502D01*
X205092915Y-97947269D01*
X205066819Y-97981649D01*
X205061349Y-97995464D01*
X205051290Y-98015463D01*
X205043463Y-98028087D01*
X205041067Y-98036336D01*
X205031424Y-98069526D01*
X205027579Y-98080756D01*
X205014850Y-98112905D01*
X205014848Y-98112911D01*
X205011689Y-98120891D01*
X205010792Y-98129429D01*
X205010791Y-98129432D01*
X205010138Y-98135651D01*
X205005823Y-98157645D01*
X205003523Y-98165559D01*
X205003521Y-98165568D01*
X205001682Y-98171899D01*
X205000902Y-98182520D01*
X205000902Y-98216925D01*
X205000212Y-98230095D01*
X204996036Y-98269830D01*
X204997468Y-98278295D01*
X204997468Y-98278305D01*
X204999137Y-98288170D01*
X205000902Y-98309183D01*
X205000902Y-98459193D01*
X204980900Y-98527314D01*
X204951607Y-98559155D01*
X204918765Y-98584355D01*
X204913739Y-98590905D01*
X204907045Y-98599629D01*
X204826623Y-98704438D01*
X204768700Y-98844277D01*
X204767622Y-98852466D01*
X204754870Y-98949327D01*
X204753903Y-98956669D01*
X204753903Y-99544517D01*
X204768700Y-99656909D01*
X204826623Y-99796748D01*
X204918765Y-99916831D01*
X204951607Y-99942031D01*
X204993473Y-99999368D01*
X205000902Y-100041993D01*
X205000902Y-100459192D01*
X204980900Y-100527313D01*
X204951606Y-100559154D01*
X204925318Y-100579325D01*
X204925314Y-100579329D01*
X204918764Y-100584355D01*
X204913738Y-100590905D01*
X204913737Y-100590906D01*
X204864789Y-100654697D01*
X204807451Y-100696564D01*
X204764826Y-100703993D01*
X203764296Y-100703993D01*
X203759020Y-100703882D01*
X203754050Y-100703674D01*
X203697484Y-100701303D01*
X203657980Y-100710569D01*
X203655464Y-100711159D01*
X203643791Y-100713322D01*
X203609542Y-100718013D01*
X203609539Y-100718014D01*
X203601033Y-100719179D01*
X203593152Y-100722590D01*
X203593150Y-100722590D01*
X203587403Y-100725077D01*
X203566140Y-100732109D01*
X203560049Y-100733538D01*
X203560047Y-100733539D01*
X203551681Y-100735501D01*
X203544152Y-100739640D01*
X203544147Y-100739642D01*
X203513859Y-100756293D01*
X203503212Y-100761510D01*
X203463591Y-100778655D01*
X203456915Y-100784061D01*
X203452048Y-100788002D01*
X203433464Y-100800490D01*
X203420447Y-100807647D01*
X203412385Y-100814606D01*
X203388063Y-100838928D01*
X203378263Y-100847753D01*
X203347207Y-100872902D01*
X203342233Y-100879901D01*
X203342232Y-100879902D01*
X203336429Y-100888068D01*
X203322818Y-100904173D01*
X202469403Y-101757588D01*
X202407091Y-101791614D01*
X202380308Y-101794493D01*
X201701250Y-101794493D01*
X201696702Y-101795162D01*
X201696695Y-101795163D01*
X201640943Y-101803370D01*
X201640941Y-101803371D01*
X201631258Y-101804796D01*
X201622470Y-101809111D01*
X201622469Y-101809111D01*
X201534190Y-101852454D01*
X201534189Y-101852455D01*
X201524842Y-101857044D01*
X201441087Y-101940945D01*
X201436514Y-101950301D01*
X201436513Y-101950302D01*
X201393318Y-102038669D01*
X201393317Y-102038673D01*
X201389025Y-102047453D01*
X201378902Y-102116841D01*
X201378902Y-103084345D01*
X199508245Y-103084345D01*
X199518129Y-93595261D01*
X201727003Y-93595261D01*
X201727373Y-93602082D01*
X201732897Y-93652944D01*
X201736523Y-93668196D01*
X201781678Y-93788646D01*
X201790216Y-93804241D01*
X201866717Y-93906316D01*
X201879278Y-93918877D01*
X201981353Y-93995378D01*
X201996948Y-94003916D01*
X202117396Y-94049070D01*
X202132651Y-94052697D01*
X202183516Y-94058223D01*
X202190330Y-94058592D01*
X202562887Y-94058592D01*
X202578126Y-94054117D01*
X202579331Y-94052727D01*
X202581002Y-94045044D01*
X202581002Y-94040476D01*
X203089002Y-94040476D01*
X203093477Y-94055715D01*
X203094867Y-94056920D01*
X203102550Y-94058591D01*
X203479671Y-94058591D01*
X203486492Y-94058221D01*
X203537354Y-94052697D01*
X203552606Y-94049071D01*
X203673056Y-94003916D01*
X203688651Y-93995378D01*
X203790726Y-93918877D01*
X203803287Y-93906316D01*
X203879788Y-93804241D01*
X203888326Y-93788646D01*
X203933480Y-93668198D01*
X203937107Y-93652943D01*
X203942633Y-93602078D01*
X203943002Y-93595264D01*
X203943002Y-93372707D01*
X203938527Y-93357468D01*
X203937137Y-93356263D01*
X203929454Y-93354592D01*
X203107117Y-93354592D01*
X203091878Y-93359067D01*
X203090673Y-93360457D01*
X203089002Y-93368140D01*
X203089002Y-94040476D01*
X202581002Y-94040476D01*
X202581002Y-93372707D01*
X202576527Y-93357468D01*
X202575137Y-93356263D01*
X202567454Y-93354592D01*
X201745118Y-93354592D01*
X201729879Y-93359067D01*
X201728674Y-93360457D01*
X201727003Y-93368140D01*
X201727003Y-93595261D01*
X199518129Y-93595261D01*
X199518928Y-92828477D01*
X201727002Y-92828477D01*
X201731477Y-92843716D01*
X201732867Y-92844921D01*
X201740550Y-92846592D01*
X202562887Y-92846592D01*
X202578126Y-92842117D01*
X202579331Y-92840727D01*
X202581002Y-92833044D01*
X202581002Y-92828477D01*
X203089002Y-92828477D01*
X203093477Y-92843716D01*
X203094867Y-92844921D01*
X203102550Y-92846592D01*
X203924886Y-92846592D01*
X203940125Y-92842117D01*
X203941330Y-92840727D01*
X203943001Y-92833044D01*
X203943001Y-92605923D01*
X203942631Y-92599102D01*
X203937107Y-92548240D01*
X203933481Y-92532988D01*
X203888326Y-92412538D01*
X203879788Y-92396943D01*
X203803287Y-92294868D01*
X203790726Y-92282307D01*
X203688651Y-92205806D01*
X203673056Y-92197268D01*
X203552608Y-92152114D01*
X203537353Y-92148487D01*
X203486488Y-92142961D01*
X203479674Y-92142592D01*
X203107117Y-92142592D01*
X203091878Y-92147067D01*
X203090673Y-92148457D01*
X203089002Y-92156140D01*
X203089002Y-92828477D01*
X202581002Y-92828477D01*
X202581002Y-92160708D01*
X202576527Y-92145469D01*
X202575137Y-92144264D01*
X202567454Y-92142593D01*
X202190333Y-92142593D01*
X202183512Y-92142963D01*
X202132650Y-92148487D01*
X202117398Y-92152113D01*
X201996948Y-92197268D01*
X201981353Y-92205806D01*
X201879278Y-92282307D01*
X201866717Y-92294868D01*
X201790216Y-92396943D01*
X201781678Y-92412538D01*
X201736524Y-92532986D01*
X201732897Y-92548241D01*
X201727371Y-92599106D01*
X201727002Y-92605920D01*
X201727002Y-92828477D01*
X199518928Y-92828477D01*
X199520268Y-91542359D01*
X199523459Y-88479321D01*
X200417158Y-88479321D01*
X200417337Y-88482782D01*
X200426804Y-88574021D01*
X200429697Y-88587417D01*
X200478830Y-88734687D01*
X200485004Y-88747866D01*
X200566470Y-88879514D01*
X200575506Y-88890915D01*
X200685081Y-89000299D01*
X200693595Y-89007023D01*
X200734657Y-89064940D01*
X200737889Y-89135863D01*
X200715465Y-89182607D01*
X200662116Y-89252134D01*
X200641620Y-89278845D01*
X200583697Y-89418684D01*
X200582619Y-89426873D01*
X200570793Y-89516700D01*
X200568900Y-89531076D01*
X200568900Y-90043924D01*
X200583697Y-90156316D01*
X200641620Y-90296155D01*
X200646649Y-90302709D01*
X200689670Y-90358775D01*
X200733762Y-90416238D01*
X200816260Y-90479540D01*
X200858126Y-90536877D01*
X200862348Y-90607748D01*
X200842643Y-90651950D01*
X200817530Y-90687682D01*
X200814771Y-90694757D01*
X200814770Y-90694760D01*
X200772216Y-90803906D01*
X200759845Y-90835636D01*
X200758853Y-90843169D01*
X200758853Y-90843170D01*
X200750634Y-90905602D01*
X200739117Y-90993079D01*
X200756543Y-91150921D01*
X200811117Y-91300051D01*
X200815354Y-91306357D01*
X200815356Y-91306360D01*
X200851380Y-91359968D01*
X200899688Y-91431858D01*
X200905306Y-91436970D01*
X201011521Y-91533619D01*
X201011525Y-91533622D01*
X201017142Y-91538733D01*
X201023819Y-91542359D01*
X201023820Y-91542359D01*
X201150022Y-91610882D01*
X201150024Y-91610883D01*
X201156699Y-91614507D01*
X201164048Y-91616435D01*
X201302953Y-91652876D01*
X201302955Y-91652876D01*
X201310303Y-91654804D01*
X201391235Y-91656075D01*
X201461486Y-91657179D01*
X201461489Y-91657179D01*
X201469085Y-91657298D01*
X201476490Y-91655602D01*
X201476491Y-91655602D01*
X201533528Y-91642539D01*
X201623878Y-91621846D01*
X201765747Y-91550493D01*
X201794686Y-91525777D01*
X201880727Y-91452292D01*
X201880729Y-91452289D01*
X201886501Y-91447360D01*
X201979168Y-91318400D01*
X201986545Y-91300051D01*
X202035565Y-91178108D01*
X202035565Y-91178107D01*
X202038399Y-91171058D01*
X202058093Y-91032677D01*
X202060193Y-91017925D01*
X202060193Y-91017922D01*
X202060774Y-91013841D01*
X202060919Y-91000000D01*
X202060082Y-90993079D01*
X202049580Y-90906300D01*
X202041841Y-90842349D01*
X201985709Y-90693799D01*
X201956342Y-90651069D01*
X201934242Y-90583601D01*
X201952127Y-90514894D01*
X201983477Y-90479742D01*
X202066238Y-90416238D01*
X202110331Y-90358775D01*
X202153351Y-90302709D01*
X202158380Y-90296155D01*
X202216303Y-90156316D01*
X202231100Y-90043924D01*
X202231100Y-89531076D01*
X202229208Y-89516700D01*
X202217381Y-89426873D01*
X202216303Y-89418684D01*
X202158380Y-89278845D01*
X202084538Y-89182611D01*
X202058939Y-89116393D01*
X202073204Y-89046845D01*
X202106238Y-89007164D01*
X202115914Y-88999495D01*
X202225298Y-88889920D01*
X202234312Y-88878507D01*
X202292706Y-88783775D01*
X202345478Y-88736282D01*
X202415550Y-88724860D01*
X202480673Y-88753134D01*
X202507109Y-88783589D01*
X202566469Y-88879514D01*
X202575505Y-88890915D01*
X202685080Y-89000299D01*
X202693594Y-89007023D01*
X202734656Y-89064940D01*
X202737888Y-89135863D01*
X202715464Y-89182607D01*
X202662115Y-89252134D01*
X202641619Y-89278845D01*
X202583696Y-89418684D01*
X202582618Y-89426873D01*
X202570792Y-89516700D01*
X202568899Y-89531076D01*
X202568899Y-90043924D01*
X202583696Y-90156316D01*
X202641619Y-90296155D01*
X202646648Y-90302709D01*
X202689669Y-90358775D01*
X202733761Y-90416238D01*
X202816259Y-90479540D01*
X202858125Y-90536877D01*
X202862347Y-90607748D01*
X202842641Y-90651952D01*
X202829135Y-90671170D01*
X202817530Y-90687682D01*
X202814771Y-90694757D01*
X202814770Y-90694760D01*
X202772216Y-90803906D01*
X202759845Y-90835636D01*
X202758853Y-90843169D01*
X202758853Y-90843170D01*
X202750634Y-90905602D01*
X202739117Y-90993079D01*
X202756543Y-91150921D01*
X202811117Y-91300051D01*
X202815354Y-91306357D01*
X202815356Y-91306360D01*
X202851380Y-91359968D01*
X202899688Y-91431858D01*
X202905306Y-91436970D01*
X203011521Y-91533619D01*
X203011525Y-91533622D01*
X203017142Y-91538733D01*
X203023819Y-91542359D01*
X203023820Y-91542359D01*
X203150022Y-91610882D01*
X203150024Y-91610883D01*
X203156699Y-91614507D01*
X203164048Y-91616435D01*
X203302953Y-91652876D01*
X203302955Y-91652876D01*
X203310303Y-91654804D01*
X203391235Y-91656075D01*
X203461486Y-91657179D01*
X203461489Y-91657179D01*
X203469085Y-91657298D01*
X203476490Y-91655602D01*
X203476491Y-91655602D01*
X203533528Y-91642539D01*
X203623878Y-91621846D01*
X203765747Y-91550493D01*
X203794686Y-91525777D01*
X203880727Y-91452292D01*
X203880729Y-91452289D01*
X203886501Y-91447360D01*
X203979168Y-91318400D01*
X203986545Y-91300051D01*
X204035565Y-91178108D01*
X204035565Y-91178107D01*
X204038399Y-91171058D01*
X204058093Y-91032677D01*
X204060193Y-91017925D01*
X204060193Y-91017922D01*
X204060774Y-91013841D01*
X204060919Y-91000000D01*
X204060082Y-90993079D01*
X204049580Y-90906300D01*
X204041841Y-90842349D01*
X203985709Y-90693799D01*
X203956342Y-90651069D01*
X203934242Y-90583601D01*
X203952127Y-90514894D01*
X203983476Y-90479742D01*
X204066237Y-90416238D01*
X204110330Y-90358775D01*
X204153350Y-90302709D01*
X204158379Y-90296155D01*
X204216302Y-90156316D01*
X204231099Y-90043924D01*
X204231099Y-89531076D01*
X204229207Y-89516700D01*
X204217380Y-89426873D01*
X204216302Y-89418684D01*
X204158379Y-89278845D01*
X204084537Y-89182611D01*
X204058938Y-89116393D01*
X204073203Y-89046845D01*
X204106237Y-89007164D01*
X204115913Y-88999495D01*
X204225297Y-88889920D01*
X204234309Y-88878509D01*
X204315552Y-88746709D01*
X204321696Y-88733532D01*
X204370578Y-88586157D01*
X204373444Y-88572790D01*
X204382613Y-88483300D01*
X204378524Y-88469376D01*
X204377134Y-88468171D01*
X204369451Y-88466500D01*
X202416999Y-88466500D01*
X202416999Y-88466396D01*
X202375750Y-88467869D01*
X202369456Y-88466500D01*
X200435115Y-88466500D01*
X200419876Y-88470975D01*
X200418671Y-88472365D01*
X200417158Y-88479321D01*
X199523459Y-88479321D01*
X199524019Y-87941700D01*
X200417386Y-87941700D01*
X200421475Y-87955624D01*
X200422865Y-87956829D01*
X200430548Y-87958500D01*
X201127885Y-87958500D01*
X201143124Y-87954025D01*
X201144329Y-87952635D01*
X201146000Y-87944952D01*
X201146000Y-87940385D01*
X201654000Y-87940385D01*
X201658475Y-87955624D01*
X201659865Y-87956829D01*
X201667548Y-87958500D01*
X202383000Y-87958500D01*
X202383000Y-87958604D01*
X202424249Y-87957131D01*
X202430543Y-87958500D01*
X203127884Y-87958500D01*
X203143123Y-87954025D01*
X203144328Y-87952635D01*
X203145999Y-87944952D01*
X203145999Y-87940385D01*
X203653999Y-87940385D01*
X203658474Y-87955624D01*
X203659864Y-87956829D01*
X203667547Y-87958500D01*
X204364884Y-87958500D01*
X204380123Y-87954025D01*
X204381328Y-87952635D01*
X204382841Y-87945679D01*
X204382662Y-87942218D01*
X204373195Y-87850979D01*
X204370302Y-87837583D01*
X204321169Y-87690313D01*
X204314995Y-87677134D01*
X204233529Y-87545486D01*
X204224493Y-87534085D01*
X204114919Y-87424702D01*
X204103508Y-87415690D01*
X203971708Y-87334447D01*
X203958531Y-87328303D01*
X203811156Y-87279421D01*
X203797789Y-87276555D01*
X203707729Y-87267328D01*
X203701314Y-87267000D01*
X203672114Y-87267000D01*
X203656875Y-87271475D01*
X203655670Y-87272865D01*
X203653999Y-87280548D01*
X203653999Y-87940385D01*
X203145999Y-87940385D01*
X203145999Y-87285115D01*
X203141524Y-87269876D01*
X203140134Y-87268671D01*
X203132451Y-87267000D01*
X203098733Y-87267000D01*
X203092217Y-87267337D01*
X203000978Y-87276804D01*
X202987582Y-87279697D01*
X202840312Y-87328830D01*
X202827133Y-87335004D01*
X202695485Y-87416470D01*
X202684084Y-87425506D01*
X202574701Y-87535080D01*
X202565687Y-87546493D01*
X202507293Y-87641225D01*
X202454521Y-87688718D01*
X202384449Y-87700140D01*
X202319326Y-87671866D01*
X202292890Y-87641411D01*
X202233530Y-87545486D01*
X202224494Y-87534085D01*
X202114920Y-87424702D01*
X202103509Y-87415690D01*
X201971709Y-87334447D01*
X201958532Y-87328303D01*
X201811157Y-87279421D01*
X201797790Y-87276555D01*
X201707730Y-87267328D01*
X201701315Y-87267000D01*
X201672115Y-87267000D01*
X201656876Y-87271475D01*
X201655671Y-87272865D01*
X201654000Y-87280548D01*
X201654000Y-87940385D01*
X201146000Y-87940385D01*
X201146000Y-87285115D01*
X201141525Y-87269876D01*
X201140135Y-87268671D01*
X201132452Y-87267000D01*
X201098734Y-87267000D01*
X201092218Y-87267337D01*
X201000979Y-87276804D01*
X200987583Y-87279697D01*
X200840313Y-87328830D01*
X200827134Y-87335004D01*
X200695486Y-87416470D01*
X200684085Y-87425506D01*
X200574702Y-87535080D01*
X200565690Y-87546491D01*
X200484447Y-87678291D01*
X200478303Y-87691468D01*
X200429421Y-87838843D01*
X200426555Y-87852210D01*
X200417386Y-87941700D01*
X199524019Y-87941700D01*
X199524869Y-87125869D01*
X199544942Y-87057769D01*
X199598646Y-87011332D01*
X199650869Y-87000000D01*
X204697900Y-87000000D01*
X204766021Y-87020002D01*
G37*
G04 #@! TD.AperFunction*
G04 #@! TA.AperFunction,Conductor*
G36*
X220663746Y-87020001D02*
G01*
X220710239Y-87073657D01*
X220713291Y-87080934D01*
X220724086Y-87109127D01*
X220725258Y-87111542D01*
X220725260Y-87111547D01*
X220908150Y-87488459D01*
X220910442Y-87493183D01*
X221020170Y-87677134D01*
X221124604Y-87852210D01*
X221129128Y-87859795D01*
X221378522Y-88206249D01*
X221656778Y-88529979D01*
X221961837Y-88828588D01*
X221963930Y-88830311D01*
X221963936Y-88830316D01*
X222178636Y-89007023D01*
X222291438Y-89099864D01*
X222343770Y-89135863D01*
X222589057Y-89304594D01*
X222643142Y-89341799D01*
X222645506Y-89343142D01*
X222645510Y-89343144D01*
X222712963Y-89381450D01*
X223014343Y-89552601D01*
X223016798Y-89553728D01*
X223399831Y-89729579D01*
X223399837Y-89729581D01*
X223402293Y-89730709D01*
X223804119Y-89874805D01*
X224216845Y-89983821D01*
X224431188Y-90021091D01*
X224634741Y-90056485D01*
X224634744Y-90056485D01*
X224637416Y-90056950D01*
X225062717Y-90093650D01*
X225489599Y-90093650D01*
X225914900Y-90056950D01*
X225917572Y-90056485D01*
X225917575Y-90056485D01*
X225987214Y-90044376D01*
X226121127Y-90021091D01*
X226191665Y-90029127D01*
X226246662Y-90074025D01*
X226268709Y-90145478D01*
X226250252Y-99374252D01*
X226230113Y-99442333D01*
X226176365Y-99488718D01*
X226124252Y-99500000D01*
X213209100Y-99500000D01*
X213140979Y-99479998D01*
X213094486Y-99426342D01*
X213083100Y-99374000D01*
X213083100Y-98389969D01*
X213103102Y-98321848D01*
X213156758Y-98275355D01*
X213227032Y-98265251D01*
X213291612Y-98294745D01*
X213304337Y-98307471D01*
X213358218Y-98369673D01*
X213365580Y-98376883D01*
X213529434Y-98512916D01*
X213537881Y-98518831D01*
X213721756Y-98626279D01*
X213731042Y-98630729D01*
X213930001Y-98706703D01*
X213939899Y-98709579D01*
X214043250Y-98730606D01*
X214057299Y-98729410D01*
X214061000Y-98719065D01*
X214061000Y-97272000D01*
X214081002Y-97203879D01*
X214134658Y-97157386D01*
X214187000Y-97146000D01*
X214443000Y-97146000D01*
X214511121Y-97166002D01*
X214557614Y-97219658D01*
X214569000Y-97272000D01*
X214569000Y-98718517D01*
X214573064Y-98732359D01*
X214586478Y-98734393D01*
X214593184Y-98733534D01*
X214603262Y-98731392D01*
X214807255Y-98670191D01*
X214816842Y-98666433D01*
X215008095Y-98572739D01*
X215016945Y-98567464D01*
X215190328Y-98443792D01*
X215198200Y-98437139D01*
X215349052Y-98286812D01*
X215355730Y-98278965D01*
X215480003Y-98106020D01*
X215485313Y-98097183D01*
X215556164Y-97953828D01*
X215604278Y-97901621D01*
X215672979Y-97883714D01*
X215740455Y-97905793D01*
X215783546Y-97956903D01*
X215803591Y-98000383D01*
X215803594Y-98000389D01*
X215806012Y-98005633D01*
X215809345Y-98010349D01*
X215929394Y-98180215D01*
X215933945Y-98186655D01*
X216092725Y-98341331D01*
X216097529Y-98344541D01*
X216124456Y-98362533D01*
X216277033Y-98464482D01*
X216282336Y-98466760D01*
X216282339Y-98466762D01*
X216403534Y-98518831D01*
X216480698Y-98551983D01*
X216549114Y-98567464D01*
X216691261Y-98599629D01*
X216691267Y-98599630D01*
X216696898Y-98600904D01*
X216702669Y-98601131D01*
X216702671Y-98601131D01*
X216768740Y-98603727D01*
X216918393Y-98609607D01*
X217029589Y-98593485D01*
X217132044Y-98578630D01*
X217132049Y-98578629D01*
X217137765Y-98577800D01*
X217143237Y-98575942D01*
X217143239Y-98575942D01*
X217342203Y-98508402D01*
X217342205Y-98508401D01*
X217347667Y-98506547D01*
X217541069Y-98398237D01*
X217711495Y-98256495D01*
X217802693Y-98146842D01*
X217849546Y-98090507D01*
X217853237Y-98086069D01*
X217930716Y-97947720D01*
X217981452Y-97898059D01*
X218050984Y-97883711D01*
X218117235Y-97909233D01*
X218157393Y-97961883D01*
X218176770Y-98009603D01*
X218181413Y-98018794D01*
X218292694Y-98200388D01*
X218298777Y-98208699D01*
X218438213Y-98369667D01*
X218445580Y-98376883D01*
X218609434Y-98512916D01*
X218617881Y-98518831D01*
X218801756Y-98626279D01*
X218811042Y-98630729D01*
X219010001Y-98706703D01*
X219019899Y-98709579D01*
X219123250Y-98730606D01*
X219137299Y-98729410D01*
X219141000Y-98719065D01*
X219141000Y-98718517D01*
X219649000Y-98718517D01*
X219653064Y-98732359D01*
X219666478Y-98734393D01*
X219673184Y-98733534D01*
X219683262Y-98731392D01*
X219887255Y-98670191D01*
X219896842Y-98666433D01*
X220088095Y-98572739D01*
X220096945Y-98567464D01*
X220270328Y-98443792D01*
X220278200Y-98437139D01*
X220429052Y-98286812D01*
X220435730Y-98278965D01*
X220563022Y-98101819D01*
X220564147Y-98102627D01*
X220611669Y-98058876D01*
X220681607Y-98046661D01*
X220747046Y-98074197D01*
X220774870Y-98106028D01*
X220832690Y-98200383D01*
X220838777Y-98208699D01*
X220978213Y-98369667D01*
X220985580Y-98376883D01*
X221149434Y-98512916D01*
X221157881Y-98518831D01*
X221341756Y-98626279D01*
X221351042Y-98630729D01*
X221550001Y-98706703D01*
X221559899Y-98709579D01*
X221663250Y-98730606D01*
X221677299Y-98729410D01*
X221681000Y-98719065D01*
X221681000Y-97672115D01*
X221676525Y-97656876D01*
X221675135Y-97655671D01*
X221667452Y-97654000D01*
X219667115Y-97654000D01*
X219651876Y-97658475D01*
X219650671Y-97659865D01*
X219649000Y-97667548D01*
X219649000Y-98718517D01*
X219141000Y-98718517D01*
X219141000Y-97272000D01*
X219161002Y-97203879D01*
X219214658Y-97157386D01*
X219267000Y-97146000D01*
X222063000Y-97146000D01*
X222131121Y-97166002D01*
X222177614Y-97219658D01*
X222189000Y-97272000D01*
X222189000Y-98718517D01*
X222193064Y-98732359D01*
X222206478Y-98734393D01*
X222213184Y-98733534D01*
X222223262Y-98731392D01*
X222427255Y-98670191D01*
X222436842Y-98666433D01*
X222628095Y-98572739D01*
X222636945Y-98567464D01*
X222810328Y-98443792D01*
X222818200Y-98437139D01*
X222969052Y-98286812D01*
X222975730Y-98278965D01*
X223040578Y-98188719D01*
X223096572Y-98145071D01*
X223167276Y-98138625D01*
X223230240Y-98171428D01*
X223265474Y-98233064D01*
X223268900Y-98262245D01*
X223268900Y-98283752D01*
X223269569Y-98288300D01*
X223269570Y-98288307D01*
X223277690Y-98343466D01*
X223279203Y-98353744D01*
X223283518Y-98362532D01*
X223283518Y-98362533D01*
X223326606Y-98450291D01*
X223331451Y-98460160D01*
X223338821Y-98467517D01*
X223407603Y-98536179D01*
X223415352Y-98543915D01*
X223424708Y-98548488D01*
X223424709Y-98548489D01*
X223513076Y-98591684D01*
X223513080Y-98591685D01*
X223521860Y-98595977D01*
X223569652Y-98602949D01*
X223586723Y-98605440D01*
X223586725Y-98605440D01*
X223591248Y-98606100D01*
X225358752Y-98606100D01*
X225363300Y-98605431D01*
X225363307Y-98605430D01*
X225419059Y-98597223D01*
X225419061Y-98597222D01*
X225428744Y-98595797D01*
X225438708Y-98590905D01*
X225525812Y-98548139D01*
X225525813Y-98548138D01*
X225535160Y-98543549D01*
X225618915Y-98459648D01*
X225635707Y-98425295D01*
X225666684Y-98361924D01*
X225666685Y-98361920D01*
X225670977Y-98353140D01*
X225679496Y-98294745D01*
X225680440Y-98288277D01*
X225680440Y-98288275D01*
X225681100Y-98283752D01*
X225681100Y-96516248D01*
X225680431Y-96511700D01*
X225680430Y-96511693D01*
X225672223Y-96455941D01*
X225672222Y-96455939D01*
X225670797Y-96446256D01*
X225666349Y-96437196D01*
X225623139Y-96349188D01*
X225623138Y-96349187D01*
X225618549Y-96339840D01*
X225557737Y-96279134D01*
X225542019Y-96263443D01*
X225542018Y-96263443D01*
X225534648Y-96256085D01*
X225522273Y-96250036D01*
X225436924Y-96208316D01*
X225436920Y-96208315D01*
X225428140Y-96204023D01*
X225380348Y-96197051D01*
X225363277Y-96194560D01*
X225363275Y-96194560D01*
X225358752Y-96193900D01*
X225044557Y-96193900D01*
X224976436Y-96173898D01*
X224929943Y-96120242D01*
X224919839Y-96049968D01*
X224949333Y-95985388D01*
X224982991Y-95957965D01*
X224995559Y-95950927D01*
X225161069Y-95858237D01*
X225331495Y-95716495D01*
X225473237Y-95546069D01*
X225581547Y-95352667D01*
X225637359Y-95188254D01*
X225650942Y-95148239D01*
X225650942Y-95148237D01*
X225652800Y-95142765D01*
X225653629Y-95137049D01*
X225653630Y-95137044D01*
X225684074Y-94927067D01*
X225684607Y-94923393D01*
X225686267Y-94860000D01*
X225665984Y-94639264D01*
X225651298Y-94587189D01*
X225607383Y-94431480D01*
X225607382Y-94431478D01*
X225605815Y-94425921D01*
X225603238Y-94420694D01*
X225510330Y-94232296D01*
X225507775Y-94227115D01*
X225461001Y-94164476D01*
X225378600Y-94054128D01*
X225378599Y-94054127D01*
X225375147Y-94049504D01*
X225275405Y-93957303D01*
X225216613Y-93902956D01*
X225216610Y-93902954D01*
X225212373Y-93899037D01*
X225024904Y-93780753D01*
X224819018Y-93698613D01*
X224601612Y-93655368D01*
X224595838Y-93655292D01*
X224595834Y-93655292D01*
X224482915Y-93653814D01*
X224379965Y-93652467D01*
X224374268Y-93653446D01*
X224374267Y-93653446D01*
X224288416Y-93668198D01*
X224161501Y-93690006D01*
X224141226Y-93697486D01*
X224110585Y-93708790D01*
X224039752Y-93713602D01*
X223977879Y-93679673D01*
X223104849Y-92806643D01*
X223097726Y-92797728D01*
X223097289Y-92798100D01*
X223091474Y-92791267D01*
X223086682Y-92783673D01*
X223048490Y-92749943D01*
X223042804Y-92744598D01*
X223032074Y-92733868D01*
X223028494Y-92731184D01*
X223028485Y-92731177D01*
X223024319Y-92728054D01*
X223016486Y-92721677D01*
X222989687Y-92698010D01*
X222982960Y-92692069D01*
X222974838Y-92688256D01*
X222970188Y-92685201D01*
X222961458Y-92679955D01*
X222956559Y-92677273D01*
X222949382Y-92671894D01*
X222940984Y-92668746D01*
X222940981Y-92668744D01*
X222907498Y-92656192D01*
X222898199Y-92652274D01*
X222857697Y-92633258D01*
X222848830Y-92631878D01*
X222843497Y-92630247D01*
X222833665Y-92627668D01*
X222828213Y-92626469D01*
X222819805Y-92623317D01*
X222809568Y-92622556D01*
X222775195Y-92620002D01*
X222765150Y-92618848D01*
X222761456Y-92618273D01*
X222752639Y-92616900D01*
X222738133Y-92616900D01*
X222728796Y-92616554D01*
X222700832Y-92614476D01*
X222681804Y-92613062D01*
X222673029Y-92614935D01*
X222664070Y-92615546D01*
X222664065Y-92615471D01*
X222650524Y-92616900D01*
X213668227Y-92616900D01*
X213656891Y-92615633D01*
X213656845Y-92616205D01*
X213647897Y-92615485D01*
X213639142Y-92613504D01*
X213589982Y-92616554D01*
X213588306Y-92616658D01*
X213580504Y-92616900D01*
X213565311Y-92616900D01*
X213555718Y-92618274D01*
X213545670Y-92619303D01*
X213517109Y-92621075D01*
X213501026Y-92622073D01*
X213492577Y-92625123D01*
X213487098Y-92626258D01*
X213477262Y-92628710D01*
X213471901Y-92630278D01*
X213463016Y-92631550D01*
X213422292Y-92650066D01*
X213412944Y-92653871D01*
X213370866Y-92669061D01*
X213363616Y-92674357D01*
X213358702Y-92676970D01*
X213349904Y-92682112D01*
X213345218Y-92685109D01*
X213337043Y-92688826D01*
X213326385Y-92698010D01*
X213303166Y-92718017D01*
X213295241Y-92724309D01*
X213288955Y-92728901D01*
X213288950Y-92728905D01*
X213285012Y-92731782D01*
X213274758Y-92742036D01*
X213267912Y-92748393D01*
X213232210Y-92779156D01*
X213227326Y-92786690D01*
X213221427Y-92793453D01*
X213221370Y-92793403D01*
X213212804Y-92803990D01*
X212306643Y-93710151D01*
X212297728Y-93717274D01*
X212298100Y-93717711D01*
X212291267Y-93723526D01*
X212283673Y-93728318D01*
X212254638Y-93761194D01*
X212249944Y-93766509D01*
X212244598Y-93772196D01*
X212233868Y-93782926D01*
X212231184Y-93786506D01*
X212231177Y-93786515D01*
X212228054Y-93790681D01*
X212221677Y-93798514D01*
X212200686Y-93822282D01*
X212192069Y-93832040D01*
X212188256Y-93840162D01*
X212185201Y-93844812D01*
X212179955Y-93853542D01*
X212177273Y-93858441D01*
X212171894Y-93865618D01*
X212168746Y-93874016D01*
X212168744Y-93874019D01*
X212156192Y-93907502D01*
X212152274Y-93916801D01*
X212133258Y-93957303D01*
X212131878Y-93966170D01*
X212130247Y-93971503D01*
X212127668Y-93981335D01*
X212126469Y-93986787D01*
X212123317Y-93995195D01*
X212122652Y-94004145D01*
X212120002Y-94039805D01*
X212118848Y-94049850D01*
X212116900Y-94062361D01*
X212116900Y-94076867D01*
X212116554Y-94086204D01*
X212113062Y-94133196D01*
X212114935Y-94141971D01*
X212115546Y-94150930D01*
X212115471Y-94150935D01*
X212116900Y-94164476D01*
X212116900Y-95548045D01*
X212096898Y-95616166D01*
X212043242Y-95662659D01*
X211972968Y-95672763D01*
X211908388Y-95643269D01*
X211873034Y-95592583D01*
X211838393Y-95500908D01*
X211835709Y-95493805D01*
X211755259Y-95376749D01*
X211733099Y-95305382D01*
X211733100Y-93942345D01*
X211733100Y-92568227D01*
X211734367Y-92556891D01*
X211733795Y-92556845D01*
X211734515Y-92547897D01*
X211736496Y-92539142D01*
X211733342Y-92488304D01*
X211733100Y-92480503D01*
X211733100Y-92465311D01*
X211731725Y-92455710D01*
X211730697Y-92445671D01*
X211728483Y-92409987D01*
X211727927Y-92401025D01*
X211724878Y-92392579D01*
X211723749Y-92387128D01*
X211721287Y-92377253D01*
X211719723Y-92371904D01*
X211718450Y-92363016D01*
X211699938Y-92322299D01*
X211696128Y-92312940D01*
X211692735Y-92303542D01*
X211680938Y-92270865D01*
X211675643Y-92263616D01*
X211673030Y-92258703D01*
X211667891Y-92249909D01*
X211664891Y-92245218D01*
X211661174Y-92237043D01*
X211631988Y-92203171D01*
X211625699Y-92195250D01*
X211621092Y-92188943D01*
X211621082Y-92188931D01*
X211618218Y-92185011D01*
X211607958Y-92174751D01*
X211601600Y-92167904D01*
X211601055Y-92167272D01*
X211570844Y-92132210D01*
X211563310Y-92127327D01*
X211556548Y-92121428D01*
X211556598Y-92121371D01*
X211546015Y-92112808D01*
X211520005Y-92086798D01*
X211485979Y-92024486D01*
X211483100Y-91997703D01*
X211483099Y-91421883D01*
X211483100Y-90586885D01*
X211483101Y-90204385D01*
X211483101Y-90092349D01*
X211483100Y-89971633D01*
X211503102Y-89903513D01*
X211556758Y-89857020D01*
X211627031Y-89846916D01*
X211641067Y-89849757D01*
X211660303Y-89854803D01*
X211717117Y-89855695D01*
X211784914Y-89876764D01*
X211830559Y-89931142D01*
X211839559Y-90001566D01*
X211832531Y-90027448D01*
X211812606Y-90078553D01*
X211812605Y-90078556D01*
X211809845Y-90085636D01*
X211808853Y-90093169D01*
X211808853Y-90093170D01*
X211797000Y-90183206D01*
X211789117Y-90243079D01*
X211795700Y-90302709D01*
X211801707Y-90357113D01*
X211806543Y-90400921D01*
X211809152Y-90408052D01*
X211809153Y-90408054D01*
X211830516Y-90466431D01*
X211861117Y-90550051D01*
X211865354Y-90556357D01*
X211865356Y-90556360D01*
X211899888Y-90607748D01*
X211949688Y-90681858D01*
X211955306Y-90686970D01*
X212061521Y-90783619D01*
X212061525Y-90783622D01*
X212067142Y-90788733D01*
X212073819Y-90792359D01*
X212073820Y-90792359D01*
X212200022Y-90860882D01*
X212200024Y-90860883D01*
X212206699Y-90864507D01*
X212214048Y-90866435D01*
X212352953Y-90902876D01*
X212352955Y-90902876D01*
X212360303Y-90904804D01*
X212441235Y-90906075D01*
X212511486Y-90907179D01*
X212511489Y-90907179D01*
X212519085Y-90907298D01*
X212526490Y-90905602D01*
X212526491Y-90905602D01*
X212583528Y-90892539D01*
X212673878Y-90871846D01*
X212815747Y-90800493D01*
X212895156Y-90732672D01*
X212930727Y-90702292D01*
X212930729Y-90702289D01*
X212936501Y-90697360D01*
X213029168Y-90568400D01*
X213034011Y-90556354D01*
X213085565Y-90428108D01*
X213085565Y-90428107D01*
X213088399Y-90421058D01*
X213110774Y-90263841D01*
X213110919Y-90250000D01*
X213110082Y-90243079D01*
X213092753Y-90099889D01*
X213091841Y-90092349D01*
X213077472Y-90054321D01*
X215617158Y-90054321D01*
X215617337Y-90057782D01*
X215626804Y-90149021D01*
X215629697Y-90162417D01*
X215678830Y-90309687D01*
X215685004Y-90322866D01*
X215766470Y-90454514D01*
X215775506Y-90465915D01*
X215885080Y-90575298D01*
X215896491Y-90584310D01*
X216028291Y-90665553D01*
X216041468Y-90671697D01*
X216188843Y-90720579D01*
X216202210Y-90723445D01*
X216292270Y-90732672D01*
X216298685Y-90733000D01*
X216327885Y-90733000D01*
X216343124Y-90728525D01*
X216344329Y-90727135D01*
X216346000Y-90719452D01*
X216346000Y-90714885D01*
X216854000Y-90714885D01*
X216858475Y-90730124D01*
X216859865Y-90731329D01*
X216867548Y-90733000D01*
X216901266Y-90733000D01*
X216907782Y-90732663D01*
X216999021Y-90723196D01*
X217012417Y-90720303D01*
X217159687Y-90671170D01*
X217172866Y-90664996D01*
X217304514Y-90583530D01*
X217315915Y-90574494D01*
X217425298Y-90464920D01*
X217434310Y-90453509D01*
X217492705Y-90358775D01*
X217545477Y-90311282D01*
X217615549Y-90299858D01*
X217680673Y-90328132D01*
X217707109Y-90358588D01*
X217766470Y-90454514D01*
X217775506Y-90465915D01*
X217885080Y-90575298D01*
X217896491Y-90584310D01*
X218028291Y-90665553D01*
X218041468Y-90671697D01*
X218188843Y-90720579D01*
X218202210Y-90723445D01*
X218292270Y-90732672D01*
X218298685Y-90733000D01*
X218327885Y-90733000D01*
X218343124Y-90728525D01*
X218344329Y-90727135D01*
X218346000Y-90719452D01*
X218346000Y-90714885D01*
X218854000Y-90714885D01*
X218858475Y-90730124D01*
X218859865Y-90731329D01*
X218867548Y-90733000D01*
X218901266Y-90733000D01*
X218907782Y-90732663D01*
X218999021Y-90723196D01*
X219012417Y-90720303D01*
X219159687Y-90671170D01*
X219172866Y-90664996D01*
X219304514Y-90583530D01*
X219315915Y-90574494D01*
X219425298Y-90464920D01*
X219434310Y-90453509D01*
X219515553Y-90321709D01*
X219521697Y-90308532D01*
X219570579Y-90161157D01*
X219573445Y-90147790D01*
X219582614Y-90058300D01*
X219578525Y-90044376D01*
X219577135Y-90043171D01*
X219569452Y-90041500D01*
X218872115Y-90041500D01*
X218856876Y-90045975D01*
X218855671Y-90047365D01*
X218854000Y-90055048D01*
X218854000Y-90714885D01*
X218346000Y-90714885D01*
X218346000Y-90059615D01*
X218341525Y-90044376D01*
X218340135Y-90043171D01*
X218332452Y-90041500D01*
X217617000Y-90041500D01*
X217617000Y-90041395D01*
X217575746Y-90042869D01*
X217569453Y-90041500D01*
X216872115Y-90041500D01*
X216856876Y-90045975D01*
X216855671Y-90047365D01*
X216854000Y-90055048D01*
X216854000Y-90714885D01*
X216346000Y-90714885D01*
X216346000Y-90059615D01*
X216341525Y-90044376D01*
X216340135Y-90043171D01*
X216332452Y-90041500D01*
X215635115Y-90041500D01*
X215619876Y-90045975D01*
X215618671Y-90047365D01*
X215617158Y-90054321D01*
X213077472Y-90054321D01*
X213035709Y-89943799D01*
X213018760Y-89919138D01*
X212996600Y-89847771D01*
X212996601Y-88729170D01*
X213016603Y-88661049D01*
X213033423Y-88640158D01*
X213043915Y-88629648D01*
X213065174Y-88586157D01*
X213091684Y-88531924D01*
X213091685Y-88531920D01*
X213095977Y-88523140D01*
X213103996Y-88468171D01*
X213105440Y-88458277D01*
X213105440Y-88458275D01*
X213106100Y-88453752D01*
X213106100Y-87567000D01*
X213126102Y-87498879D01*
X213179758Y-87452386D01*
X213232100Y-87441000D01*
X213353000Y-87441000D01*
X213421121Y-87461002D01*
X213467614Y-87514658D01*
X213479000Y-87567000D01*
X213479000Y-88909884D01*
X213483475Y-88925123D01*
X213484865Y-88926328D01*
X213492548Y-88927999D01*
X213569669Y-88927999D01*
X213576490Y-88927629D01*
X213627352Y-88922105D01*
X213642604Y-88918479D01*
X213763054Y-88873324D01*
X213778649Y-88864786D01*
X213880724Y-88788285D01*
X213893285Y-88775724D01*
X213969786Y-88673649D01*
X213978324Y-88658054D01*
X214023478Y-88537606D01*
X214027105Y-88522351D01*
X214032631Y-88471486D01*
X214033000Y-88464672D01*
X214033000Y-88298825D01*
X214053002Y-88230704D01*
X214106658Y-88184211D01*
X214179578Y-88174517D01*
X214205506Y-88178809D01*
X214271929Y-88189805D01*
X214278746Y-88189448D01*
X214278750Y-88189448D01*
X214431790Y-88181427D01*
X214457681Y-88180070D01*
X214464254Y-88178259D01*
X214464257Y-88178259D01*
X214630428Y-88132488D01*
X214637010Y-88130675D01*
X214801548Y-88043924D01*
X214806761Y-88039519D01*
X214806765Y-88039516D01*
X214910348Y-87951980D01*
X214943619Y-87923864D01*
X214990920Y-87861998D01*
X215052449Y-87781521D01*
X215052450Y-87781520D01*
X215056595Y-87776098D01*
X215086761Y-87711407D01*
X215133678Y-87658122D01*
X215201956Y-87638661D01*
X215269916Y-87659203D01*
X215290051Y-87675561D01*
X215731995Y-88117504D01*
X215766020Y-88179817D01*
X215768900Y-88206600D01*
X215768900Y-88468924D01*
X215783697Y-88581316D01*
X215841620Y-88721155D01*
X215915462Y-88817389D01*
X215941061Y-88883607D01*
X215926796Y-88953155D01*
X215893762Y-88992836D01*
X215884086Y-89000505D01*
X215774702Y-89110080D01*
X215765690Y-89121491D01*
X215684447Y-89253291D01*
X215678303Y-89266468D01*
X215629421Y-89413843D01*
X215626555Y-89427210D01*
X215617386Y-89516700D01*
X215621475Y-89530624D01*
X215622865Y-89531829D01*
X215630548Y-89533500D01*
X217583000Y-89533500D01*
X217583000Y-89533605D01*
X217624254Y-89532131D01*
X217630547Y-89533500D01*
X219564885Y-89533500D01*
X219580124Y-89529025D01*
X219581329Y-89527635D01*
X219582842Y-89520679D01*
X219582663Y-89517218D01*
X219573196Y-89425979D01*
X219570303Y-89412583D01*
X219521170Y-89265313D01*
X219514996Y-89252134D01*
X219433530Y-89120486D01*
X219424494Y-89109085D01*
X219314919Y-88999701D01*
X219306405Y-88992977D01*
X219265343Y-88935060D01*
X219262111Y-88864137D01*
X219284535Y-88817393D01*
X219353351Y-88727709D01*
X219358380Y-88721155D01*
X219416303Y-88581316D01*
X219431100Y-88468924D01*
X219431100Y-87956076D01*
X219429636Y-87944952D01*
X219417381Y-87851873D01*
X219416303Y-87843684D01*
X219358380Y-87703845D01*
X219310473Y-87641411D01*
X219271264Y-87590312D01*
X219266238Y-87583762D01*
X219204740Y-87536573D01*
X219152709Y-87496649D01*
X219146155Y-87491620D01*
X219006316Y-87433697D01*
X218893924Y-87418900D01*
X218306076Y-87418900D01*
X218193684Y-87433697D01*
X218053845Y-87491620D01*
X218047291Y-87496649D01*
X217995261Y-87536573D01*
X217933762Y-87583762D01*
X217928736Y-87590312D01*
X217928735Y-87590313D01*
X217908561Y-87616604D01*
X217851223Y-87658471D01*
X217808599Y-87665900D01*
X217391401Y-87665900D01*
X217323280Y-87645898D01*
X217291439Y-87616604D01*
X217271265Y-87590313D01*
X217271264Y-87590312D01*
X217266238Y-87583762D01*
X217204740Y-87536573D01*
X217152709Y-87496649D01*
X217146155Y-87491620D01*
X217006316Y-87433697D01*
X216893924Y-87418900D01*
X216631599Y-87418900D01*
X216563478Y-87398898D01*
X216542504Y-87381995D01*
X216375603Y-87215094D01*
X216341577Y-87152782D01*
X216346642Y-87081967D01*
X216389189Y-87025131D01*
X216455709Y-87000320D01*
X216464692Y-86999999D01*
X220595625Y-86999999D01*
X220663746Y-87020001D01*
G37*
G04 #@! TD.AperFunction*
G04 #@! TA.AperFunction,Conductor*
G36*
X210072680Y-92628600D02*
G01*
X210097318Y-92657369D01*
X210099273Y-92655940D01*
X210103274Y-92661417D01*
X210112318Y-92676893D01*
X210115319Y-92681586D01*
X210119035Y-92689759D01*
X210124894Y-92696558D01*
X210124896Y-92696562D01*
X210148235Y-92723647D01*
X210154506Y-92731544D01*
X210161992Y-92741791D01*
X210172245Y-92752044D01*
X210178602Y-92758890D01*
X210209365Y-92794592D01*
X210216899Y-92799476D01*
X210223662Y-92805375D01*
X210223612Y-92805432D01*
X210234199Y-92813998D01*
X210272784Y-92852583D01*
X210306810Y-92914895D01*
X210309689Y-92941678D01*
X210309689Y-93713902D01*
X210289687Y-93782023D01*
X210236031Y-93828516D01*
X210165757Y-93838620D01*
X210101177Y-93809126D01*
X210079849Y-93785269D01*
X210076746Y-93780753D01*
X210030594Y-93713602D01*
X210000065Y-93669181D01*
X210000063Y-93669179D01*
X209995763Y-93662922D01*
X209988550Y-93656495D01*
X209882871Y-93562340D01*
X209877195Y-93557283D01*
X209750139Y-93490010D01*
X209699299Y-93440460D01*
X209683101Y-93378658D01*
X209683101Y-92948888D01*
X209703103Y-92880767D01*
X209720006Y-92859793D01*
X209750568Y-92829231D01*
X209759483Y-92822108D01*
X209759111Y-92821671D01*
X209765944Y-92815856D01*
X209773538Y-92811064D01*
X209807268Y-92772872D01*
X209812613Y-92767186D01*
X209823343Y-92756456D01*
X209829151Y-92748707D01*
X209835536Y-92740864D01*
X209840509Y-92735234D01*
X209865142Y-92707342D01*
X209868957Y-92699216D01*
X209872016Y-92694560D01*
X209877261Y-92685831D01*
X209879935Y-92680947D01*
X209885318Y-92673764D01*
X209887512Y-92667912D01*
X209936796Y-92618734D01*
X210006186Y-92603718D01*
X210072680Y-92628600D01*
G37*
G04 #@! TD.AperFunction*
G04 #@! TA.AperFunction,Conductor*
G36*
X213330953Y-81776102D02*
G01*
X213377446Y-81829758D01*
X213387550Y-81900032D01*
X213382934Y-81920198D01*
X213331120Y-82083538D01*
X213328570Y-82095532D01*
X213312393Y-82239761D01*
X213312000Y-82246785D01*
X213312000Y-82327885D01*
X213316475Y-82343124D01*
X213317865Y-82344329D01*
X213325548Y-82346000D01*
X214448000Y-82346000D01*
X214516121Y-82366002D01*
X214562614Y-82419658D01*
X214574000Y-82472000D01*
X214574000Y-83857924D01*
X214577973Y-83871455D01*
X214585768Y-83872575D01*
X214673427Y-83846776D01*
X214744424Y-83846731D01*
X214804174Y-83885077D01*
X214833708Y-83949639D01*
X214835002Y-83967650D01*
X214835002Y-85163283D01*
X214815000Y-85231404D01*
X214761344Y-85277897D01*
X214691070Y-85288001D01*
X214671743Y-85283648D01*
X214591308Y-85258750D01*
X214577205Y-85258544D01*
X214574000Y-85265299D01*
X214574000Y-86500000D01*
X214066000Y-86500000D01*
X214066000Y-85272076D01*
X214062027Y-85258545D01*
X214054232Y-85257425D01*
X213946479Y-85289138D01*
X213935111Y-85293731D01*
X213770846Y-85379607D01*
X213760585Y-85386321D01*
X213616127Y-85502468D01*
X213607368Y-85511046D01*
X213488222Y-85653039D01*
X213477814Y-85668240D01*
X213476651Y-85667443D01*
X213431343Y-85712483D01*
X213361925Y-85727370D01*
X213298834Y-85704805D01*
X213220435Y-85649705D01*
X213220433Y-85649704D01*
X213214218Y-85645336D01*
X213137423Y-85615395D01*
X213067707Y-85588213D01*
X213067704Y-85588212D01*
X213060627Y-85585453D01*
X213053094Y-85584461D01*
X213053093Y-85584461D01*
X212938978Y-85569438D01*
X212938977Y-85569438D01*
X212934891Y-85568900D01*
X212848666Y-85568900D01*
X212726342Y-85583703D01*
X212572132Y-85641974D01*
X212565874Y-85646275D01*
X212447880Y-85727370D01*
X212436273Y-85735347D01*
X212431221Y-85741017D01*
X212431220Y-85741018D01*
X212428816Y-85743716D01*
X212326608Y-85858432D01*
X212249469Y-86004123D01*
X212209308Y-86164009D01*
X212208445Y-86328859D01*
X212210218Y-86336244D01*
X212212220Y-86344584D01*
X212208674Y-86415492D01*
X212167356Y-86473226D01*
X212101383Y-86499457D01*
X212089702Y-86500000D01*
X207911059Y-86500000D01*
X207842938Y-86479998D01*
X207796445Y-86426342D01*
X207786341Y-86356068D01*
X207788834Y-86343413D01*
X207788840Y-86343363D01*
X207790692Y-86335991D01*
X207791555Y-86171141D01*
X207753071Y-86010844D01*
X207677462Y-85864353D01*
X207569092Y-85740127D01*
X207461782Y-85664708D01*
X207440435Y-85649705D01*
X207440433Y-85649704D01*
X207434218Y-85645336D01*
X207357423Y-85615395D01*
X207287707Y-85588213D01*
X207287704Y-85588212D01*
X207280627Y-85585453D01*
X207273094Y-85584461D01*
X207273093Y-85584461D01*
X207158978Y-85569438D01*
X207158977Y-85569438D01*
X207154891Y-85568900D01*
X207068666Y-85568900D01*
X206946342Y-85583703D01*
X206792132Y-85641974D01*
X206785874Y-85646275D01*
X206700254Y-85705120D01*
X206632785Y-85727220D01*
X206564078Y-85709335D01*
X206523940Y-85671009D01*
X206519754Y-85664708D01*
X206402603Y-85521067D01*
X206393959Y-85512363D01*
X206251144Y-85394216D01*
X206240973Y-85387356D01*
X206077924Y-85299196D01*
X206066619Y-85294444D01*
X205951308Y-85258750D01*
X205937205Y-85258544D01*
X205934000Y-85265299D01*
X205934000Y-86500000D01*
X205426000Y-86500000D01*
X205426000Y-85272076D01*
X205422027Y-85258545D01*
X205414232Y-85257425D01*
X205306479Y-85289138D01*
X205295106Y-85293733D01*
X205269376Y-85307184D01*
X205199741Y-85321018D01*
X205133680Y-85295007D01*
X205092169Y-85237411D01*
X205085002Y-85195522D01*
X205085002Y-83935614D01*
X205105004Y-83867493D01*
X205158660Y-83821000D01*
X205228934Y-83810896D01*
X205270933Y-83824779D01*
X205282077Y-83830805D01*
X205293381Y-83835556D01*
X205408692Y-83871250D01*
X205422795Y-83871456D01*
X205426000Y-83864701D01*
X205426000Y-83857924D01*
X205934000Y-83857924D01*
X205937973Y-83871455D01*
X205945768Y-83872575D01*
X206053521Y-83840862D01*
X206064889Y-83836269D01*
X206229154Y-83750393D01*
X206239415Y-83743679D01*
X206383873Y-83627532D01*
X206392632Y-83618954D01*
X206511778Y-83476961D01*
X206518708Y-83466841D01*
X206608002Y-83304415D01*
X206612834Y-83293142D01*
X206668880Y-83116462D01*
X206671430Y-83104468D01*
X206687607Y-82960239D01*
X206688000Y-82953215D01*
X206688000Y-82946657D01*
X213312000Y-82946657D01*
X213312301Y-82952805D01*
X213325812Y-83090603D01*
X213328195Y-83102638D01*
X213381767Y-83280076D01*
X213386441Y-83291416D01*
X213473460Y-83455077D01*
X213480249Y-83465294D01*
X213597397Y-83608933D01*
X213606041Y-83617637D01*
X213748856Y-83735784D01*
X213759027Y-83742644D01*
X213922076Y-83830804D01*
X213933381Y-83835556D01*
X214048692Y-83871250D01*
X214062795Y-83871456D01*
X214066000Y-83864701D01*
X214066000Y-82872115D01*
X214061525Y-82856876D01*
X214060135Y-82855671D01*
X214052452Y-82854000D01*
X213330115Y-82854000D01*
X213314876Y-82858475D01*
X213313671Y-82859865D01*
X213312000Y-82867548D01*
X213312000Y-82946657D01*
X206688000Y-82946657D01*
X206688000Y-82872115D01*
X206683525Y-82856876D01*
X206682135Y-82855671D01*
X206674452Y-82854000D01*
X205952115Y-82854000D01*
X205936876Y-82858475D01*
X205935671Y-82859865D01*
X205934000Y-82867548D01*
X205934000Y-83857924D01*
X205426000Y-83857924D01*
X205426000Y-82472000D01*
X205446002Y-82403879D01*
X205499658Y-82357386D01*
X205552000Y-82346000D01*
X206669885Y-82346000D01*
X206685124Y-82341525D01*
X206686329Y-82340135D01*
X206688000Y-82332452D01*
X206688000Y-82253343D01*
X206687699Y-82247195D01*
X206674188Y-82109397D01*
X206671806Y-82097365D01*
X206617808Y-81918519D01*
X206617267Y-81847524D01*
X206655194Y-81787507D01*
X206719548Y-81757523D01*
X206738430Y-81756100D01*
X213262832Y-81756100D01*
X213330953Y-81776102D01*
G37*
G04 #@! TD.AperFunction*
M02*
