M48
; DRILL file {KiCad (6.0.11-0)} date 2023 July 09, Sunday 00:15:19
; FORMAT={-:-/ absolute / inch / decimal}
; #@! TF.CreationDate,2023-07-09T00:15:19+09:00
; #@! TF.GenerationSoftware,Kicad,Pcbnew,(6.0.11-0)
; #@! TF.FileFunction,Plated,1,2,PTH
FMAT,2
INCH
; #@! TA.AperFunction,Plated,PTH,ViaDrill
T1C0.0157
; #@! TA.AperFunction,Plated,PTH,ComponentDrill
T2C0.0236
; #@! TA.AperFunction,Plated,PTH,ComponentDrill
T3C0.0394
; #@! TA.AperFunction,Plated,PTH,ComponentDrill
T4C0.0579
%
G90
G05
T1
X7.8819Y-5.2441
X7.8898Y-4.5
X7.9291Y-3.5827
X7.9449Y-4.9646
X7.9567Y-4.3071
X8.0079Y-3.5827
X8.0472Y-6.0157
X8.0472Y-6.8248
X8.0925Y-3.561
X8.095Y-4.372
X8.1102Y-5.4941
X8.1713Y-3.5531
X8.1929Y-4.4724
X8.2047Y-3.5118
X8.2392Y-4.0325
X8.248Y-3.7047
X8.2677Y-3.6713
X8.2992Y-5.6176
X8.3169Y-3.7717
X8.3366Y-3.5118
X8.3642Y-3.5531
X8.3784Y-5.4941
X8.3947Y-3.5197
X8.4646Y-4.4724
X8.4902Y-5.0571
X8.5Y-5.3725
X8.5236Y-4.1496
X8.5974Y-5.3159
X8.6024Y-4.9764
X8.6339Y-5.0994
T3
X8.4376Y-3.7346
X8.4376Y-3.8346
X8.5376Y-3.7346
X8.5376Y-3.8346
X8.6376Y-3.7346
X8.6376Y-3.8346
X8.7376Y-3.7346
X8.7376Y-3.8346
X8.8376Y-3.7346
X8.8376Y-3.8346
T4
X2.3998Y-4.4
X2.56Y-3.65
X2.6498Y-4.3
X2.81Y-3.55
X3.3295Y-5.9843
X3.4001Y-4.4843
X3.4233Y-5.2343
X3.4663Y-3.7343
X3.5795Y-5.8843
X3.6501Y-4.3843
X3.6733Y-5.1343
X3.7163Y-3.6343
X4.2163Y-3.7343
X4.2439Y-4.4843
X4.4545Y-5.2343
X4.4663Y-3.6343
X4.4939Y-4.3843
X4.7045Y-5.1343
X5.0475Y-3.6824
X5.0751Y-4.4553
X5.0963Y-6.0537
X5.2857Y-5.2667
X5.3128Y-3.6366
X5.3404Y-4.4094
X5.3616Y-6.0079
X5.551Y-5.2209
X5.7811Y-3.8384
X5.8087Y-4.6112
X6.0193Y-5.4226
X6.0381Y-6.1934
X6.0464Y-3.7925
X6.074Y-4.5654
X6.2846Y-5.3768
X6.3034Y-6.1475
X6.5147Y-3.9943
X6.5423Y-4.7671
X6.7529Y-5.5786
X6.7717Y-6.3493
X6.78Y-3.9485
X6.8076Y-4.7213
X7.0182Y-5.5327
X7.037Y-6.3035
X7.1385Y-6.4273
X7.2483Y-4.1502
X7.2759Y-4.9231
X7.4039Y-6.3814
X7.4865Y-5.7345
X7.5137Y-4.1044
X7.5412Y-4.8772
X7.7518Y-5.6887
X8.6271Y-4.2906
X8.7555Y-5.7969
X8.8509Y-4.1408
X8.9665Y-4.9854
X8.9792Y-5.6471
X9.1865Y-6.472
X9.1902Y-4.8357
X9.3607Y-4.1346
X9.4103Y-6.3222
X9.4891Y-5.6409
X9.5533Y-6.394
X9.5845Y-3.9848
X9.7001Y-4.8295
X9.7128Y-5.4911
X9.7771Y-6.2442
X9.9239Y-4.6797
X10.0943Y-3.9787
X10.1952Y-6.2576
X10.2227Y-5.485
X10.3181Y-3.8289
X10.419Y-6.1078
X10.4337Y-4.6736
X10.4464Y-5.3352
X10.6575Y-4.5238
X10.828Y-3.8228
X10.9563Y-5.3291
X11.0517Y-3.673
X11.1457Y-6.1161
X11.1673Y-4.5176
X11.1801Y-5.1793
X11.3694Y-5.9663
X11.3911Y-4.3679
X11.6526Y-3.6925
X11.7809Y-5.2343
X11.9026Y-3.5925
X11.9919Y-4.4843
X12.0309Y-5.1343
X12.2419Y-4.3843
X12.386Y-3.7343
X12.6247Y-5.2343
X12.636Y-3.6343
X12.761Y-3.7343
X12.8747Y-5.1343
X12.9997Y-5.2343
X13.011Y-3.6343
X13.0232Y-4.4843
X13.136Y-5.9843
X13.136Y-3.7343
X13.2497Y-5.1343
X13.2732Y-4.3843
X13.386Y-5.8843
X13.386Y-3.6343
X13.4684Y-5.2343
X13.7184Y-5.1343
T2
G00X8.0976Y-3.2402
M15
G01X8.0976Y-3.2638
M16
G05
G00X8.0976Y-3.3949
M15
G01X8.0976Y-3.4382
M16
G05
G00X8.4378Y-3.2402
M15
G01X8.4378Y-3.2638
M16
G05
G00X8.4378Y-3.3949
M15
G01X8.4378Y-3.4382
M16
G05
T0
M30
