%TF.GenerationSoftware,KiCad,Pcbnew,(6.0.10-0)*%
%TF.CreationDate,2023-02-13T03:51:17+09:00*%
%TF.ProjectId,Vision,56697369-6f6e-42e6-9b69-6361645f7063,rev?*%
%TF.SameCoordinates,Original*%
%TF.FileFunction,Soldermask,Top*%
%TF.FilePolarity,Negative*%
%FSLAX46Y46*%
G04 Gerber Fmt 4.6, Leading zero omitted, Abs format (unit mm)*
G04 Created by KiCad (PCBNEW (6.0.10-0)) date 2023-02-13 03:51:17*
%MOMM*%
%LPD*%
G01*
G04 APERTURE LIST*
G04 Aperture macros list*
%AMRoundRect*
0 Rectangle with rounded corners*
0 $1 Rounding radius*
0 $2 $3 $4 $5 $6 $7 $8 $9 X,Y pos of 4 corners*
0 Add a 4 corners polygon primitive as box body*
4,1,4,$2,$3,$4,$5,$6,$7,$8,$9,$2,$3,0*
0 Add four circle primitives for the rounded corners*
1,1,$1+$1,$2,$3*
1,1,$1+$1,$4,$5*
1,1,$1+$1,$6,$7*
1,1,$1+$1,$8,$9*
0 Add four rect primitives between the rounded corners*
20,1,$1+$1,$2,$3,$4,$5,0*
20,1,$1+$1,$4,$5,$6,$7,0*
20,1,$1+$1,$6,$7,$8,$9,0*
20,1,$1+$1,$8,$9,$2,$3,0*%
G04 Aperture macros list end*
%ADD10C,0.150000*%
%ADD11C,0.200000*%
%ADD12C,0.010000*%
%ADD13C,4.387800*%
%ADD14C,3.448000*%
%ADD15C,2.150000*%
%ADD16C,1.187400*%
%ADD17C,1.050000*%
%ADD18O,1.400000X2.000000*%
%ADD19O,1.400000X2.500000*%
%ADD20RoundRect,0.200000X0.850000X-0.850000X0.850000X0.850000X-0.850000X0.850000X-0.850000X-0.850000X0*%
%ADD21O,2.100000X2.100000*%
G04 APERTURE END LIST*
D10*
X69661666Y-143412023D02*
X69661666Y-142935833D01*
X69947380Y-143507261D02*
X68947380Y-143173928D01*
X69947380Y-142840595D01*
X69947380Y-142364404D02*
X69899761Y-142459642D01*
X69804523Y-142507261D01*
X68947380Y-142507261D01*
X69280714Y-142126309D02*
X69280714Y-141745357D01*
X68947380Y-141983452D02*
X69804523Y-141983452D01*
X69899761Y-141935833D01*
X69947380Y-141840595D01*
X69947380Y-141745357D01*
X69280714Y-140745357D02*
X69947380Y-140507261D01*
X69280714Y-140269166D01*
X69947380Y-139364404D02*
X69947380Y-139935833D01*
X69947380Y-139650119D02*
X68947380Y-139650119D01*
X69090238Y-139745357D01*
X69185476Y-139840595D01*
X69233095Y-139935833D01*
X69852142Y-138935833D02*
X69899761Y-138888214D01*
X69947380Y-138935833D01*
X69899761Y-138983452D01*
X69852142Y-138935833D01*
X69947380Y-138935833D01*
X68947380Y-138269166D02*
X68947380Y-138173928D01*
X68995000Y-138078690D01*
X69042619Y-138031071D01*
X69137857Y-137983452D01*
X69328333Y-137935833D01*
X69566428Y-137935833D01*
X69756904Y-137983452D01*
X69852142Y-138031071D01*
X69899761Y-138078690D01*
X69947380Y-138173928D01*
X69947380Y-138269166D01*
X69899761Y-138364404D01*
X69852142Y-138412023D01*
X69756904Y-138459642D01*
X69566428Y-138507261D01*
X69328333Y-138507261D01*
X69137857Y-138459642D01*
X69042619Y-138412023D01*
X68995000Y-138364404D01*
X68947380Y-138269166D01*
X69947380Y-136745357D02*
X68947380Y-136745357D01*
X69328333Y-136745357D02*
X69280714Y-136650119D01*
X69280714Y-136459642D01*
X69328333Y-136364404D01*
X69375952Y-136316785D01*
X69471190Y-136269166D01*
X69756904Y-136269166D01*
X69852142Y-136316785D01*
X69899761Y-136364404D01*
X69947380Y-136459642D01*
X69947380Y-136650119D01*
X69899761Y-136745357D01*
X69280714Y-135935833D02*
X69947380Y-135697738D01*
X69280714Y-135459642D02*
X69947380Y-135697738D01*
X70185476Y-135792976D01*
X70233095Y-135840595D01*
X70280714Y-135935833D01*
X69947380Y-134316785D02*
X68947380Y-134316785D01*
X68947380Y-133935833D01*
X68995000Y-133840595D01*
X69042619Y-133792976D01*
X69137857Y-133745357D01*
X69280714Y-133745357D01*
X69375952Y-133792976D01*
X69423571Y-133840595D01*
X69471190Y-133935833D01*
X69471190Y-134316785D01*
X69899761Y-132935833D02*
X69947380Y-133031071D01*
X69947380Y-133221547D01*
X69899761Y-133316785D01*
X69804523Y-133364404D01*
X69423571Y-133364404D01*
X69328333Y-133316785D01*
X69280714Y-133221547D01*
X69280714Y-133031071D01*
X69328333Y-132935833D01*
X69423571Y-132888214D01*
X69518809Y-132888214D01*
X69614047Y-133364404D01*
X69280714Y-132459642D02*
X70280714Y-132459642D01*
X69328333Y-132459642D02*
X69280714Y-132364404D01*
X69280714Y-132173928D01*
X69328333Y-132078690D01*
X69375952Y-132031071D01*
X69471190Y-131983452D01*
X69756904Y-131983452D01*
X69852142Y-132031071D01*
X69899761Y-132078690D01*
X69947380Y-132173928D01*
X69947380Y-132364404D01*
X69899761Y-132459642D01*
X69280714Y-131554880D02*
X70280714Y-131554880D01*
X69328333Y-131554880D02*
X69280714Y-131459642D01*
X69280714Y-131269166D01*
X69328333Y-131173928D01*
X69375952Y-131126309D01*
X69471190Y-131078690D01*
X69756904Y-131078690D01*
X69852142Y-131126309D01*
X69899761Y-131173928D01*
X69947380Y-131269166D01*
X69947380Y-131459642D01*
X69899761Y-131554880D01*
X69280714Y-130745357D02*
X69947380Y-130507261D01*
X69280714Y-130269166D02*
X69947380Y-130507261D01*
X70185476Y-130602500D01*
X70233095Y-130650119D01*
X70280714Y-130745357D01*
X68947380Y-130031071D02*
X68947380Y-129459642D01*
X69947380Y-129745357D02*
X68947380Y-129745357D01*
X69947380Y-128983452D02*
X69899761Y-129078690D01*
X69852142Y-129126309D01*
X69756904Y-129173928D01*
X69471190Y-129173928D01*
X69375952Y-129126309D01*
X69328333Y-129078690D01*
X69280714Y-128983452D01*
X69280714Y-128840595D01*
X69328333Y-128745357D01*
X69375952Y-128697738D01*
X69471190Y-128650119D01*
X69756904Y-128650119D01*
X69852142Y-128697738D01*
X69899761Y-128745357D01*
X69947380Y-128840595D01*
X69947380Y-128983452D01*
X69947380Y-127792976D02*
X69423571Y-127792976D01*
X69328333Y-127840595D01*
X69280714Y-127935833D01*
X69280714Y-128126309D01*
X69328333Y-128221547D01*
X69899761Y-127792976D02*
X69947380Y-127888214D01*
X69947380Y-128126309D01*
X69899761Y-128221547D01*
X69804523Y-128269166D01*
X69709285Y-128269166D01*
X69614047Y-128221547D01*
X69566428Y-128126309D01*
X69566428Y-127888214D01*
X69518809Y-127792976D01*
X69947380Y-126888214D02*
X68947380Y-126888214D01*
X69899761Y-126888214D02*
X69947380Y-126983452D01*
X69947380Y-127173928D01*
X69899761Y-127269166D01*
X69852142Y-127316785D01*
X69756904Y-127364404D01*
X69471190Y-127364404D01*
X69375952Y-127316785D01*
X69328333Y-127269166D01*
X69280714Y-127173928D01*
X69280714Y-126983452D01*
X69328333Y-126888214D01*
X71033571Y-143031071D02*
X71081190Y-142888214D01*
X71128809Y-142840595D01*
X71224047Y-142792976D01*
X71366904Y-142792976D01*
X71462142Y-142840595D01*
X71509761Y-142888214D01*
X71557380Y-142983452D01*
X71557380Y-143364404D01*
X70557380Y-143364404D01*
X70557380Y-143031071D01*
X70605000Y-142935833D01*
X70652619Y-142888214D01*
X70747857Y-142840595D01*
X70843095Y-142840595D01*
X70938333Y-142888214D01*
X70985952Y-142935833D01*
X71033571Y-143031071D01*
X71033571Y-143364404D01*
X71557380Y-141935833D02*
X71033571Y-141935833D01*
X70938333Y-141983452D01*
X70890714Y-142078690D01*
X70890714Y-142269166D01*
X70938333Y-142364404D01*
X71509761Y-141935833D02*
X71557380Y-142031071D01*
X71557380Y-142269166D01*
X71509761Y-142364404D01*
X71414523Y-142412023D01*
X71319285Y-142412023D01*
X71224047Y-142364404D01*
X71176428Y-142269166D01*
X71176428Y-142031071D01*
X71128809Y-141935833D01*
X71509761Y-141507261D02*
X71557380Y-141412023D01*
X71557380Y-141221547D01*
X71509761Y-141126309D01*
X71414523Y-141078690D01*
X71366904Y-141078690D01*
X71271666Y-141126309D01*
X71224047Y-141221547D01*
X71224047Y-141364404D01*
X71176428Y-141459642D01*
X71081190Y-141507261D01*
X71033571Y-141507261D01*
X70938333Y-141459642D01*
X70890714Y-141364404D01*
X70890714Y-141221547D01*
X70938333Y-141126309D01*
X71509761Y-140269166D02*
X71557380Y-140364404D01*
X71557380Y-140554880D01*
X71509761Y-140650119D01*
X71414523Y-140697738D01*
X71033571Y-140697738D01*
X70938333Y-140650119D01*
X70890714Y-140554880D01*
X70890714Y-140364404D01*
X70938333Y-140269166D01*
X71033571Y-140221547D01*
X71128809Y-140221547D01*
X71224047Y-140697738D01*
X71557380Y-139364404D02*
X70557380Y-139364404D01*
X71509761Y-139364404D02*
X71557380Y-139459642D01*
X71557380Y-139650119D01*
X71509761Y-139745357D01*
X71462142Y-139792976D01*
X71366904Y-139840595D01*
X71081190Y-139840595D01*
X70985952Y-139792976D01*
X70938333Y-139745357D01*
X70890714Y-139650119D01*
X70890714Y-139459642D01*
X70938333Y-139364404D01*
X71557380Y-137983452D02*
X71509761Y-138078690D01*
X71462142Y-138126309D01*
X71366904Y-138173928D01*
X71081190Y-138173928D01*
X70985952Y-138126309D01*
X70938333Y-138078690D01*
X70890714Y-137983452D01*
X70890714Y-137840595D01*
X70938333Y-137745357D01*
X70985952Y-137697738D01*
X71081190Y-137650119D01*
X71366904Y-137650119D01*
X71462142Y-137697738D01*
X71509761Y-137745357D01*
X71557380Y-137840595D01*
X71557380Y-137983452D01*
X70890714Y-137221547D02*
X71557380Y-137221547D01*
X70985952Y-137221547D02*
X70938333Y-137173928D01*
X70890714Y-137078690D01*
X70890714Y-136935833D01*
X70938333Y-136840595D01*
X71033571Y-136792976D01*
X71557380Y-136792976D01*
X70890714Y-135650119D02*
X71557380Y-135412023D01*
X70890714Y-135173928D01*
X71557380Y-134269166D02*
X71557380Y-134840595D01*
X71557380Y-134554880D02*
X70557380Y-134554880D01*
X70700238Y-134650119D01*
X70795476Y-134745357D01*
X70843095Y-134840595D01*
X71462142Y-133840595D02*
X71509761Y-133792976D01*
X71557380Y-133840595D01*
X71509761Y-133888214D01*
X71462142Y-133840595D01*
X71557380Y-133840595D01*
X71557380Y-132840595D02*
X71557380Y-133412023D01*
X71557380Y-133126309D02*
X70557380Y-133126309D01*
X70700238Y-133221547D01*
X70795476Y-133316785D01*
X70843095Y-133412023D01*
X71557380Y-131650119D02*
X70557380Y-131650119D01*
X70938333Y-131650119D02*
X70890714Y-131554880D01*
X70890714Y-131364404D01*
X70938333Y-131269166D01*
X70985952Y-131221547D01*
X71081190Y-131173928D01*
X71366904Y-131173928D01*
X71462142Y-131221547D01*
X71509761Y-131269166D01*
X71557380Y-131364404D01*
X71557380Y-131554880D01*
X71509761Y-131650119D01*
X70890714Y-130840595D02*
X71557380Y-130602500D01*
X70890714Y-130364404D02*
X71557380Y-130602500D01*
X71795476Y-130697738D01*
X71843095Y-130745357D01*
X71890714Y-130840595D01*
X71509761Y-129269166D02*
X71557380Y-129126309D01*
X71557380Y-128888214D01*
X71509761Y-128792976D01*
X71462142Y-128745357D01*
X71366904Y-128697738D01*
X71271666Y-128697738D01*
X71176428Y-128745357D01*
X71128809Y-128792976D01*
X71081190Y-128888214D01*
X71033571Y-129078690D01*
X70985952Y-129173928D01*
X70938333Y-129221547D01*
X70843095Y-129269166D01*
X70747857Y-129269166D01*
X70652619Y-129221547D01*
X70605000Y-129173928D01*
X70557380Y-129078690D01*
X70557380Y-128840595D01*
X70605000Y-128697738D01*
X71557380Y-127840595D02*
X71033571Y-127840595D01*
X70938333Y-127888214D01*
X70890714Y-127983452D01*
X70890714Y-128173928D01*
X70938333Y-128269166D01*
X71509761Y-127840595D02*
X71557380Y-127935833D01*
X71557380Y-128173928D01*
X71509761Y-128269166D01*
X71414523Y-128316785D01*
X71319285Y-128316785D01*
X71224047Y-128269166D01*
X71176428Y-128173928D01*
X71176428Y-127935833D01*
X71128809Y-127840595D01*
X70890714Y-127507261D02*
X70890714Y-127126309D01*
X70557380Y-127364404D02*
X71414523Y-127364404D01*
X71509761Y-127316785D01*
X71557380Y-127221547D01*
X71557380Y-127126309D01*
X70557380Y-126935833D02*
X70557380Y-126364404D01*
X71557380Y-126650119D02*
X70557380Y-126650119D01*
D11*
X66030952Y-143331904D02*
X68530952Y-142498571D01*
X66030952Y-141665238D01*
X68530952Y-140831904D02*
X66030952Y-140831904D01*
X68411904Y-139760476D02*
X68530952Y-139403333D01*
X68530952Y-138808095D01*
X68411904Y-138570000D01*
X68292857Y-138450952D01*
X68054761Y-138331904D01*
X67816666Y-138331904D01*
X67578571Y-138450952D01*
X67459523Y-138570000D01*
X67340476Y-138808095D01*
X67221428Y-139284285D01*
X67102380Y-139522380D01*
X66983333Y-139641428D01*
X66745238Y-139760476D01*
X66507142Y-139760476D01*
X66269047Y-139641428D01*
X66150000Y-139522380D01*
X66030952Y-139284285D01*
X66030952Y-138689047D01*
X66150000Y-138331904D01*
X68530952Y-137260476D02*
X66030952Y-137260476D01*
X66030952Y-135593809D02*
X66030952Y-135117619D01*
X66150000Y-134879523D01*
X66388095Y-134641428D01*
X66864285Y-134522380D01*
X67697619Y-134522380D01*
X68173809Y-134641428D01*
X68411904Y-134879523D01*
X68530952Y-135117619D01*
X68530952Y-135593809D01*
X68411904Y-135831904D01*
X68173809Y-136070000D01*
X67697619Y-136189047D01*
X66864285Y-136189047D01*
X66388095Y-136070000D01*
X66150000Y-135831904D01*
X66030952Y-135593809D01*
X68530952Y-133450952D02*
X66030952Y-133450952D01*
X68530952Y-132022380D01*
X66030952Y-132022380D01*
%TO.C,H2*%
G36*
X68097365Y-145244256D02*
G01*
X68102292Y-145256139D01*
X68103115Y-145279864D01*
X68099814Y-145318676D01*
X68092365Y-145375818D01*
X68080748Y-145454534D01*
X68073540Y-145501880D01*
X68062785Y-145569847D01*
X68052923Y-145627791D01*
X68044833Y-145670859D01*
X68039395Y-145694199D01*
X68038191Y-145696901D01*
X68024007Y-145702045D01*
X67988015Y-145713383D01*
X67934107Y-145729739D01*
X67866174Y-145749936D01*
X67788108Y-145772798D01*
X67764474Y-145779658D01*
X67673218Y-145806405D01*
X67600221Y-145829009D01*
X67539005Y-145850141D01*
X67483092Y-145872473D01*
X67426004Y-145898673D01*
X67361263Y-145931413D01*
X67282390Y-145973363D01*
X67243106Y-145994579D01*
X67153971Y-146043308D01*
X67082399Y-146084101D01*
X67022156Y-146121214D01*
X66967009Y-146158904D01*
X66910726Y-146201429D01*
X66847074Y-146253043D01*
X66771011Y-146316995D01*
X66694154Y-146382767D01*
X66632752Y-146437323D01*
X66581533Y-146486188D01*
X66535225Y-146534887D01*
X66488558Y-146588944D01*
X66436258Y-146653884D01*
X66377808Y-146729064D01*
X66316611Y-146809116D01*
X66268208Y-146874784D01*
X66228635Y-146932496D01*
X66193926Y-146988679D01*
X66160116Y-147049758D01*
X66123240Y-147122162D01*
X66079333Y-147212318D01*
X66078191Y-147214688D01*
X66036091Y-147302683D01*
X66003465Y-147373324D01*
X65977954Y-147433232D01*
X65957196Y-147489028D01*
X65938830Y-147547333D01*
X65920495Y-147614767D01*
X65899830Y-147697950D01*
X65887278Y-147750051D01*
X65865310Y-147842282D01*
X65848680Y-147915475D01*
X65836497Y-147976273D01*
X65827869Y-148031317D01*
X65821906Y-148087249D01*
X65817715Y-148150710D01*
X65814405Y-148228342D01*
X65811477Y-148314752D01*
X65802079Y-148602597D01*
X65851718Y-148875746D01*
X65868900Y-148968780D01*
X65883752Y-149043241D01*
X65898229Y-149105814D01*
X65914287Y-149163182D01*
X65933881Y-149222030D01*
X65958967Y-149289041D01*
X65991501Y-149370902D01*
X66009863Y-149416263D01*
X66047123Y-149507217D01*
X66078275Y-149580064D01*
X66106672Y-149641048D01*
X66135665Y-149696414D01*
X66168609Y-149752408D01*
X66208856Y-149815275D01*
X66259758Y-149891260D01*
X66284080Y-149927059D01*
X66341496Y-150010727D01*
X66388986Y-150077559D01*
X66431252Y-150133100D01*
X66472995Y-150182895D01*
X66518917Y-150232490D01*
X66573720Y-150287428D01*
X66642104Y-150353257D01*
X66659290Y-150369611D01*
X66733086Y-150439165D01*
X66793861Y-150494449D01*
X66847560Y-150540036D01*
X66900131Y-150580497D01*
X66957519Y-150620407D01*
X67025673Y-150664337D01*
X67110537Y-150716861D01*
X67112129Y-150717837D01*
X67196146Y-150768932D01*
X67264313Y-150808948D01*
X67323169Y-150840988D01*
X67379252Y-150868158D01*
X67439101Y-150893563D01*
X67509253Y-150920308D01*
X67596246Y-150951498D01*
X67626814Y-150962258D01*
X67707330Y-150990794D01*
X67779329Y-151016788D01*
X67838972Y-151038816D01*
X67882419Y-151055453D01*
X67905833Y-151065274D01*
X67908626Y-151066872D01*
X67913460Y-151082639D01*
X67919801Y-151119397D01*
X67927067Y-151171693D01*
X67934680Y-151234073D01*
X67942060Y-151301084D01*
X67948627Y-151367273D01*
X67953801Y-151427184D01*
X67957003Y-151475364D01*
X67957653Y-151506361D01*
X67956253Y-151514940D01*
X67941984Y-151513292D01*
X67905682Y-151504849D01*
X67850903Y-151490562D01*
X67781205Y-151471380D01*
X67700143Y-151448252D01*
X67633772Y-151428814D01*
X67535334Y-151399539D01*
X67456651Y-151375393D01*
X67391967Y-151353997D01*
X67335524Y-151332974D01*
X67281568Y-151309943D01*
X67224342Y-151282528D01*
X67158091Y-151248349D01*
X67077057Y-151205029D01*
X67027658Y-151178365D01*
X66936585Y-151128966D01*
X66863622Y-151088449D01*
X66803569Y-151053247D01*
X66751230Y-151019796D01*
X66701406Y-150984530D01*
X66648898Y-150943885D01*
X66588510Y-150894295D01*
X66515043Y-150832195D01*
X66482375Y-150804371D01*
X66402354Y-150735905D01*
X66338379Y-150680009D01*
X66286033Y-150632046D01*
X66240901Y-150587375D01*
X66198567Y-150541356D01*
X66154614Y-150489352D01*
X66104628Y-150426721D01*
X66044192Y-150348826D01*
X66024751Y-150323590D01*
X65961341Y-150240967D01*
X65910993Y-150174068D01*
X65870417Y-150117531D01*
X65836317Y-150065993D01*
X65805403Y-150014091D01*
X65774382Y-149956464D01*
X65739960Y-149887749D01*
X65698845Y-149802584D01*
X65677813Y-149758577D01*
X65534052Y-149457468D01*
X65379140Y-148814684D01*
X65371038Y-148467105D01*
X65362935Y-148119526D01*
X65422714Y-147804335D01*
X65482492Y-147489143D01*
X65609356Y-147182703D01*
X65649087Y-147087134D01*
X65681744Y-147010585D01*
X65710309Y-146947567D01*
X65737763Y-146892586D01*
X65767087Y-146840150D01*
X65801261Y-146784769D01*
X65843267Y-146720951D01*
X65896085Y-146643202D01*
X65925469Y-146600321D01*
X65984973Y-146513877D01*
X66033580Y-146444747D01*
X66075399Y-146388118D01*
X66114539Y-146339176D01*
X66155110Y-146293107D01*
X66201222Y-146245099D01*
X66256983Y-146190338D01*
X66326505Y-146124010D01*
X66355846Y-146096228D01*
X66432092Y-146024361D01*
X66494208Y-145967025D01*
X66547293Y-145920313D01*
X66596445Y-145880320D01*
X66646763Y-145843138D01*
X66703346Y-145804861D01*
X66771292Y-145761582D01*
X66855700Y-145709395D01*
X66880913Y-145693922D01*
X66968354Y-145640420D01*
X67038887Y-145598057D01*
X67097981Y-145564233D01*
X67151105Y-145536349D01*
X67203729Y-145511807D01*
X67261322Y-145488008D01*
X67329354Y-145462353D01*
X67413295Y-145432243D01*
X67484715Y-145407029D01*
X67579927Y-145374306D01*
X67674135Y-145343443D01*
X67762121Y-145316038D01*
X67838667Y-145293688D01*
X67898554Y-145277990D01*
X67924895Y-145272322D01*
X67982104Y-145261681D01*
X68032151Y-145252023D01*
X68067103Y-145244892D01*
X68075290Y-145243042D01*
X68088357Y-145240972D01*
X68097365Y-145244256D01*
G37*
D12*
X68097365Y-145244256D02*
X68102292Y-145256139D01*
X68103115Y-145279864D01*
X68099814Y-145318676D01*
X68092365Y-145375818D01*
X68080748Y-145454534D01*
X68073540Y-145501880D01*
X68062785Y-145569847D01*
X68052923Y-145627791D01*
X68044833Y-145670859D01*
X68039395Y-145694199D01*
X68038191Y-145696901D01*
X68024007Y-145702045D01*
X67988015Y-145713383D01*
X67934107Y-145729739D01*
X67866174Y-145749936D01*
X67788108Y-145772798D01*
X67764474Y-145779658D01*
X67673218Y-145806405D01*
X67600221Y-145829009D01*
X67539005Y-145850141D01*
X67483092Y-145872473D01*
X67426004Y-145898673D01*
X67361263Y-145931413D01*
X67282390Y-145973363D01*
X67243106Y-145994579D01*
X67153971Y-146043308D01*
X67082399Y-146084101D01*
X67022156Y-146121214D01*
X66967009Y-146158904D01*
X66910726Y-146201429D01*
X66847074Y-146253043D01*
X66771011Y-146316995D01*
X66694154Y-146382767D01*
X66632752Y-146437323D01*
X66581533Y-146486188D01*
X66535225Y-146534887D01*
X66488558Y-146588944D01*
X66436258Y-146653884D01*
X66377808Y-146729064D01*
X66316611Y-146809116D01*
X66268208Y-146874784D01*
X66228635Y-146932496D01*
X66193926Y-146988679D01*
X66160116Y-147049758D01*
X66123240Y-147122162D01*
X66079333Y-147212318D01*
X66078191Y-147214688D01*
X66036091Y-147302683D01*
X66003465Y-147373324D01*
X65977954Y-147433232D01*
X65957196Y-147489028D01*
X65938830Y-147547333D01*
X65920495Y-147614767D01*
X65899830Y-147697950D01*
X65887278Y-147750051D01*
X65865310Y-147842282D01*
X65848680Y-147915475D01*
X65836497Y-147976273D01*
X65827869Y-148031317D01*
X65821906Y-148087249D01*
X65817715Y-148150710D01*
X65814405Y-148228342D01*
X65811477Y-148314752D01*
X65802079Y-148602597D01*
X65851718Y-148875746D01*
X65868900Y-148968780D01*
X65883752Y-149043241D01*
X65898229Y-149105814D01*
X65914287Y-149163182D01*
X65933881Y-149222030D01*
X65958967Y-149289041D01*
X65991501Y-149370902D01*
X66009863Y-149416263D01*
X66047123Y-149507217D01*
X66078275Y-149580064D01*
X66106672Y-149641048D01*
X66135665Y-149696414D01*
X66168609Y-149752408D01*
X66208856Y-149815275D01*
X66259758Y-149891260D01*
X66284080Y-149927059D01*
X66341496Y-150010727D01*
X66388986Y-150077559D01*
X66431252Y-150133100D01*
X66472995Y-150182895D01*
X66518917Y-150232490D01*
X66573720Y-150287428D01*
X66642104Y-150353257D01*
X66659290Y-150369611D01*
X66733086Y-150439165D01*
X66793861Y-150494449D01*
X66847560Y-150540036D01*
X66900131Y-150580497D01*
X66957519Y-150620407D01*
X67025673Y-150664337D01*
X67110537Y-150716861D01*
X67112129Y-150717837D01*
X67196146Y-150768932D01*
X67264313Y-150808948D01*
X67323169Y-150840988D01*
X67379252Y-150868158D01*
X67439101Y-150893563D01*
X67509253Y-150920308D01*
X67596246Y-150951498D01*
X67626814Y-150962258D01*
X67707330Y-150990794D01*
X67779329Y-151016788D01*
X67838972Y-151038816D01*
X67882419Y-151055453D01*
X67905833Y-151065274D01*
X67908626Y-151066872D01*
X67913460Y-151082639D01*
X67919801Y-151119397D01*
X67927067Y-151171693D01*
X67934680Y-151234073D01*
X67942060Y-151301084D01*
X67948627Y-151367273D01*
X67953801Y-151427184D01*
X67957003Y-151475364D01*
X67957653Y-151506361D01*
X67956253Y-151514940D01*
X67941984Y-151513292D01*
X67905682Y-151504849D01*
X67850903Y-151490562D01*
X67781205Y-151471380D01*
X67700143Y-151448252D01*
X67633772Y-151428814D01*
X67535334Y-151399539D01*
X67456651Y-151375393D01*
X67391967Y-151353997D01*
X67335524Y-151332974D01*
X67281568Y-151309943D01*
X67224342Y-151282528D01*
X67158091Y-151248349D01*
X67077057Y-151205029D01*
X67027658Y-151178365D01*
X66936585Y-151128966D01*
X66863622Y-151088449D01*
X66803569Y-151053247D01*
X66751230Y-151019796D01*
X66701406Y-150984530D01*
X66648898Y-150943885D01*
X66588510Y-150894295D01*
X66515043Y-150832195D01*
X66482375Y-150804371D01*
X66402354Y-150735905D01*
X66338379Y-150680009D01*
X66286033Y-150632046D01*
X66240901Y-150587375D01*
X66198567Y-150541356D01*
X66154614Y-150489352D01*
X66104628Y-150426721D01*
X66044192Y-150348826D01*
X66024751Y-150323590D01*
X65961341Y-150240967D01*
X65910993Y-150174068D01*
X65870417Y-150117531D01*
X65836317Y-150065993D01*
X65805403Y-150014091D01*
X65774382Y-149956464D01*
X65739960Y-149887749D01*
X65698845Y-149802584D01*
X65677813Y-149758577D01*
X65534052Y-149457468D01*
X65379140Y-148814684D01*
X65371038Y-148467105D01*
X65362935Y-148119526D01*
X65422714Y-147804335D01*
X65482492Y-147489143D01*
X65609356Y-147182703D01*
X65649087Y-147087134D01*
X65681744Y-147010585D01*
X65710309Y-146947567D01*
X65737763Y-146892586D01*
X65767087Y-146840150D01*
X65801261Y-146784769D01*
X65843267Y-146720951D01*
X65896085Y-146643202D01*
X65925469Y-146600321D01*
X65984973Y-146513877D01*
X66033580Y-146444747D01*
X66075399Y-146388118D01*
X66114539Y-146339176D01*
X66155110Y-146293107D01*
X66201222Y-146245099D01*
X66256983Y-146190338D01*
X66326505Y-146124010D01*
X66355846Y-146096228D01*
X66432092Y-146024361D01*
X66494208Y-145967025D01*
X66547293Y-145920313D01*
X66596445Y-145880320D01*
X66646763Y-145843138D01*
X66703346Y-145804861D01*
X66771292Y-145761582D01*
X66855700Y-145709395D01*
X66880913Y-145693922D01*
X66968354Y-145640420D01*
X67038887Y-145598057D01*
X67097981Y-145564233D01*
X67151105Y-145536349D01*
X67203729Y-145511807D01*
X67261322Y-145488008D01*
X67329354Y-145462353D01*
X67413295Y-145432243D01*
X67484715Y-145407029D01*
X67579927Y-145374306D01*
X67674135Y-145343443D01*
X67762121Y-145316038D01*
X67838667Y-145293688D01*
X67898554Y-145277990D01*
X67924895Y-145272322D01*
X67982104Y-145261681D01*
X68032151Y-145252023D01*
X68067103Y-145244892D01*
X68075290Y-145243042D01*
X68088357Y-145240972D01*
X68097365Y-145244256D01*
G36*
X68535141Y-144593014D02*
G01*
X68537292Y-144618794D01*
X68537996Y-144663924D01*
X68537155Y-144724725D01*
X68536183Y-144758112D01*
X68533806Y-144870418D01*
X68534158Y-144988743D01*
X68537397Y-145114711D01*
X68543684Y-145249942D01*
X68553176Y-145396060D01*
X68566033Y-145554686D01*
X68582414Y-145727442D01*
X68602477Y-145915952D01*
X68626382Y-146121837D01*
X68654288Y-146346719D01*
X68686354Y-146592221D01*
X68722738Y-146859964D01*
X68763599Y-147151572D01*
X68786319Y-147310737D01*
X68819176Y-147541691D01*
X68848025Y-147749067D01*
X68873210Y-147935667D01*
X68895075Y-148104293D01*
X68913965Y-148257746D01*
X68930223Y-148398829D01*
X68944193Y-148530344D01*
X68956219Y-148655092D01*
X68966644Y-148775876D01*
X68967547Y-148787037D01*
X68973939Y-148881069D01*
X68979756Y-148994457D01*
X68984866Y-149121571D01*
X68989139Y-149256779D01*
X68992443Y-149394451D01*
X68994646Y-149528956D01*
X68995617Y-149654664D01*
X68995225Y-149765943D01*
X68993338Y-149857164D01*
X68992838Y-149870789D01*
X68981000Y-150117049D01*
X68965375Y-150358983D01*
X68946264Y-150594539D01*
X68923965Y-150821664D01*
X68898778Y-151038308D01*
X68871004Y-151242417D01*
X68840941Y-151431940D01*
X68808890Y-151604824D01*
X68775150Y-151759019D01*
X68740020Y-151892472D01*
X68703800Y-152003130D01*
X68669808Y-152082972D01*
X68632322Y-152149428D01*
X68596934Y-152191824D01*
X68560949Y-152212404D01*
X68521674Y-152213414D01*
X68514979Y-152211928D01*
X68476634Y-152189123D01*
X68438823Y-152141017D01*
X68401727Y-152069040D01*
X68365530Y-151974626D01*
X68330412Y-151859207D01*
X68296557Y-151724215D01*
X68264146Y-151571082D01*
X68233361Y-151401241D01*
X68204386Y-151216124D01*
X68177401Y-151017163D01*
X68152588Y-150805791D01*
X68130131Y-150583439D01*
X68110211Y-150351541D01*
X68093011Y-150111529D01*
X68078711Y-149864834D01*
X68067496Y-149612890D01*
X68059546Y-149357128D01*
X68055044Y-149098981D01*
X68054172Y-148839881D01*
X68056634Y-148607473D01*
X68064093Y-148301897D01*
X68075858Y-148006736D01*
X68092364Y-147716589D01*
X68114047Y-147426051D01*
X68141345Y-147129719D01*
X68174693Y-146822189D01*
X68214528Y-146498058D01*
X68246105Y-146261315D01*
X68262257Y-146146957D01*
X68280826Y-146021295D01*
X68301351Y-145887034D01*
X68323368Y-145746878D01*
X68346416Y-145603532D01*
X68370033Y-145459699D01*
X68393757Y-145318086D01*
X68417125Y-145181396D01*
X68439676Y-145052333D01*
X68460947Y-144933602D01*
X68480476Y-144827908D01*
X68497801Y-144737955D01*
X68512460Y-144666448D01*
X68523990Y-144616091D01*
X68531643Y-144590263D01*
X68535141Y-144593014D01*
G37*
X68535141Y-144593014D02*
X68537292Y-144618794D01*
X68537996Y-144663924D01*
X68537155Y-144724725D01*
X68536183Y-144758112D01*
X68533806Y-144870418D01*
X68534158Y-144988743D01*
X68537397Y-145114711D01*
X68543684Y-145249942D01*
X68553176Y-145396060D01*
X68566033Y-145554686D01*
X68582414Y-145727442D01*
X68602477Y-145915952D01*
X68626382Y-146121837D01*
X68654288Y-146346719D01*
X68686354Y-146592221D01*
X68722738Y-146859964D01*
X68763599Y-147151572D01*
X68786319Y-147310737D01*
X68819176Y-147541691D01*
X68848025Y-147749067D01*
X68873210Y-147935667D01*
X68895075Y-148104293D01*
X68913965Y-148257746D01*
X68930223Y-148398829D01*
X68944193Y-148530344D01*
X68956219Y-148655092D01*
X68966644Y-148775876D01*
X68967547Y-148787037D01*
X68973939Y-148881069D01*
X68979756Y-148994457D01*
X68984866Y-149121571D01*
X68989139Y-149256779D01*
X68992443Y-149394451D01*
X68994646Y-149528956D01*
X68995617Y-149654664D01*
X68995225Y-149765943D01*
X68993338Y-149857164D01*
X68992838Y-149870789D01*
X68981000Y-150117049D01*
X68965375Y-150358983D01*
X68946264Y-150594539D01*
X68923965Y-150821664D01*
X68898778Y-151038308D01*
X68871004Y-151242417D01*
X68840941Y-151431940D01*
X68808890Y-151604824D01*
X68775150Y-151759019D01*
X68740020Y-151892472D01*
X68703800Y-152003130D01*
X68669808Y-152082972D01*
X68632322Y-152149428D01*
X68596934Y-152191824D01*
X68560949Y-152212404D01*
X68521674Y-152213414D01*
X68514979Y-152211928D01*
X68476634Y-152189123D01*
X68438823Y-152141017D01*
X68401727Y-152069040D01*
X68365530Y-151974626D01*
X68330412Y-151859207D01*
X68296557Y-151724215D01*
X68264146Y-151571082D01*
X68233361Y-151401241D01*
X68204386Y-151216124D01*
X68177401Y-151017163D01*
X68152588Y-150805791D01*
X68130131Y-150583439D01*
X68110211Y-150351541D01*
X68093011Y-150111529D01*
X68078711Y-149864834D01*
X68067496Y-149612890D01*
X68059546Y-149357128D01*
X68055044Y-149098981D01*
X68054172Y-148839881D01*
X68056634Y-148607473D01*
X68064093Y-148301897D01*
X68075858Y-148006736D01*
X68092364Y-147716589D01*
X68114047Y-147426051D01*
X68141345Y-147129719D01*
X68174693Y-146822189D01*
X68214528Y-146498058D01*
X68246105Y-146261315D01*
X68262257Y-146146957D01*
X68280826Y-146021295D01*
X68301351Y-145887034D01*
X68323368Y-145746878D01*
X68346416Y-145603532D01*
X68370033Y-145459699D01*
X68393757Y-145318086D01*
X68417125Y-145181396D01*
X68439676Y-145052333D01*
X68460947Y-144933602D01*
X68480476Y-144827908D01*
X68497801Y-144737955D01*
X68512460Y-144666448D01*
X68523990Y-144616091D01*
X68531643Y-144590263D01*
X68535141Y-144593014D01*
G36*
X68858339Y-145231554D02*
G01*
X68894865Y-145237462D01*
X68950410Y-145247453D01*
X69021394Y-145260868D01*
X69104234Y-145277049D01*
X69175897Y-145291392D01*
X69502369Y-145357401D01*
X69803548Y-145488552D01*
X69898476Y-145530090D01*
X69974633Y-145564337D01*
X70037574Y-145594426D01*
X70092855Y-145623493D01*
X70146029Y-145654673D01*
X70202651Y-145691101D01*
X70268275Y-145735912D01*
X70348457Y-145792241D01*
X70375458Y-145811343D01*
X70459474Y-145871025D01*
X70526816Y-145919866D01*
X70582124Y-145961964D01*
X70630034Y-146001413D01*
X70675187Y-146042312D01*
X70722219Y-146088756D01*
X70775769Y-146144841D01*
X70840476Y-146214664D01*
X70876384Y-146253743D01*
X70947674Y-146331638D01*
X71004483Y-146394868D01*
X71050492Y-146448390D01*
X71089378Y-146497163D01*
X71124821Y-146546145D01*
X71160499Y-146600295D01*
X71200091Y-146664571D01*
X71247276Y-146743931D01*
X71274847Y-146790783D01*
X71327189Y-146880093D01*
X71368515Y-146952023D01*
X71401395Y-147012222D01*
X71428397Y-147066336D01*
X71452092Y-147120013D01*
X71475050Y-147178902D01*
X71499840Y-147248649D01*
X71529033Y-147334903D01*
X71547191Y-147389307D01*
X71651267Y-147701549D01*
X71689473Y-148030853D01*
X71699997Y-148123037D01*
X71709310Y-148207442D01*
X71716999Y-148280105D01*
X71722654Y-148337060D01*
X71725863Y-148374343D01*
X71726423Y-148386894D01*
X71724772Y-148407470D01*
X71720829Y-148450507D01*
X71714993Y-148511869D01*
X71707658Y-148587415D01*
X71699221Y-148673007D01*
X71694353Y-148721882D01*
X71663538Y-149030134D01*
X71563064Y-149347209D01*
X71531712Y-149445745D01*
X71505923Y-149524492D01*
X71483221Y-149589128D01*
X71461128Y-149645332D01*
X71437167Y-149698786D01*
X71408862Y-149755166D01*
X71373735Y-149820154D01*
X71329309Y-149899427D01*
X71298430Y-149953971D01*
X71246624Y-150045018D01*
X71204172Y-150117915D01*
X71167372Y-150177846D01*
X71132522Y-150229994D01*
X71095922Y-150279542D01*
X71053870Y-150331673D01*
X71002665Y-150391572D01*
X70938606Y-150464421D01*
X70914448Y-150491697D01*
X70844753Y-150570018D01*
X70787773Y-150632679D01*
X70738752Y-150684039D01*
X70692934Y-150728455D01*
X70645563Y-150770286D01*
X70591884Y-150813888D01*
X70527142Y-150863620D01*
X70446579Y-150923840D01*
X70426925Y-150938434D01*
X70343404Y-151000248D01*
X70275894Y-151049267D01*
X70219015Y-151088661D01*
X70167386Y-151121598D01*
X70115628Y-151151246D01*
X70058359Y-151180775D01*
X69990199Y-151213352D01*
X69905768Y-151252146D01*
X69855143Y-151275149D01*
X69748707Y-151322885D01*
X69660467Y-151360907D01*
X69584657Y-151391365D01*
X69515514Y-151416411D01*
X69447272Y-151438196D01*
X69374168Y-151458872D01*
X69335567Y-151469058D01*
X69263844Y-151487321D01*
X69201745Y-151502488D01*
X69153614Y-151513551D01*
X69123790Y-151519500D01*
X69116066Y-151520027D01*
X69115014Y-151504235D01*
X69117073Y-151467409D01*
X69121610Y-151414986D01*
X69127991Y-151352407D01*
X69135584Y-151285110D01*
X69143755Y-151218533D01*
X69151871Y-151158116D01*
X69159299Y-151109297D01*
X69165406Y-151077515D01*
X69168664Y-151068200D01*
X69184725Y-151060146D01*
X69222116Y-151045043D01*
X69276834Y-151024393D01*
X69344877Y-150999699D01*
X69422242Y-150972464D01*
X69440504Y-150966146D01*
X69530957Y-150934543D01*
X69603883Y-150907611D01*
X69665880Y-150882255D01*
X69723548Y-150855383D01*
X69783486Y-150823900D01*
X69852292Y-150784713D01*
X69936566Y-150734728D01*
X69945277Y-150729509D01*
X70030714Y-150677817D01*
X70099249Y-150634691D01*
X70156792Y-150595671D01*
X70209253Y-150556299D01*
X70262541Y-150512114D01*
X70322566Y-150458658D01*
X70395236Y-150391471D01*
X70403628Y-150383637D01*
X70477371Y-150314203D01*
X70536052Y-150257016D01*
X70584518Y-150206477D01*
X70627619Y-150156989D01*
X70670203Y-150102955D01*
X70717120Y-150038777D01*
X70773217Y-149958858D01*
X70779741Y-149949465D01*
X70836739Y-149866648D01*
X70881666Y-149798923D01*
X70918136Y-149739730D01*
X70949765Y-149682507D01*
X70980165Y-149620695D01*
X71012952Y-149547732D01*
X71051740Y-149457058D01*
X71054125Y-149451412D01*
X71091159Y-149363117D01*
X71119868Y-149292089D01*
X71142236Y-149231773D01*
X71160249Y-149175618D01*
X71175891Y-149117071D01*
X71191148Y-149049577D01*
X71208005Y-148966585D01*
X71220692Y-148901579D01*
X71276431Y-148614158D01*
X71267241Y-148326737D01*
X71263985Y-148230334D01*
X71260578Y-148153931D01*
X71256146Y-148090801D01*
X71249811Y-148034215D01*
X71240697Y-147977448D01*
X71227928Y-147913771D01*
X71210628Y-147836458D01*
X71194103Y-147765263D01*
X71171745Y-147670720D01*
X71152766Y-147595436D01*
X71134790Y-147532583D01*
X71115442Y-147475332D01*
X71092346Y-147416853D01*
X71063126Y-147350318D01*
X71025408Y-147268897D01*
X71010149Y-147236446D01*
X70967749Y-147147442D01*
X70931879Y-147075525D01*
X70898711Y-147014377D01*
X70864419Y-146957680D01*
X70825175Y-146899115D01*
X70777151Y-146832365D01*
X70716519Y-146751111D01*
X70714553Y-146748499D01*
X70653251Y-146667758D01*
X70602618Y-146603365D01*
X70557675Y-146549989D01*
X70513447Y-146502296D01*
X70464957Y-146454953D01*
X70407227Y-146402626D01*
X70335282Y-146339984D01*
X70325385Y-146331458D01*
X70249052Y-146266375D01*
X70185770Y-146214483D01*
X70129253Y-146171415D01*
X70073214Y-146132803D01*
X70011365Y-146094281D01*
X69937419Y-146051481D01*
X69860562Y-146008588D01*
X69773857Y-145960978D01*
X69703742Y-145923842D01*
X69643603Y-145894373D01*
X69586827Y-145869764D01*
X69526797Y-145847209D01*
X69456901Y-145823902D01*
X69370523Y-145797034D01*
X69340337Y-145787839D01*
X69253101Y-145761878D01*
X69168187Y-145737604D01*
X69091212Y-145716548D01*
X69027790Y-145700240D01*
X68983536Y-145690212D01*
X68979505Y-145689453D01*
X68887652Y-145672806D01*
X68863531Y-145454102D01*
X68855766Y-145380789D01*
X68849652Y-145317312D01*
X68845575Y-145268188D01*
X68843921Y-145237931D01*
X68844417Y-145230390D01*
X68858339Y-145231554D01*
G37*
X68858339Y-145231554D02*
X68894865Y-145237462D01*
X68950410Y-145247453D01*
X69021394Y-145260868D01*
X69104234Y-145277049D01*
X69175897Y-145291392D01*
X69502369Y-145357401D01*
X69803548Y-145488552D01*
X69898476Y-145530090D01*
X69974633Y-145564337D01*
X70037574Y-145594426D01*
X70092855Y-145623493D01*
X70146029Y-145654673D01*
X70202651Y-145691101D01*
X70268275Y-145735912D01*
X70348457Y-145792241D01*
X70375458Y-145811343D01*
X70459474Y-145871025D01*
X70526816Y-145919866D01*
X70582124Y-145961964D01*
X70630034Y-146001413D01*
X70675187Y-146042312D01*
X70722219Y-146088756D01*
X70775769Y-146144841D01*
X70840476Y-146214664D01*
X70876384Y-146253743D01*
X70947674Y-146331638D01*
X71004483Y-146394868D01*
X71050492Y-146448390D01*
X71089378Y-146497163D01*
X71124821Y-146546145D01*
X71160499Y-146600295D01*
X71200091Y-146664571D01*
X71247276Y-146743931D01*
X71274847Y-146790783D01*
X71327189Y-146880093D01*
X71368515Y-146952023D01*
X71401395Y-147012222D01*
X71428397Y-147066336D01*
X71452092Y-147120013D01*
X71475050Y-147178902D01*
X71499840Y-147248649D01*
X71529033Y-147334903D01*
X71547191Y-147389307D01*
X71651267Y-147701549D01*
X71689473Y-148030853D01*
X71699997Y-148123037D01*
X71709310Y-148207442D01*
X71716999Y-148280105D01*
X71722654Y-148337060D01*
X71725863Y-148374343D01*
X71726423Y-148386894D01*
X71724772Y-148407470D01*
X71720829Y-148450507D01*
X71714993Y-148511869D01*
X71707658Y-148587415D01*
X71699221Y-148673007D01*
X71694353Y-148721882D01*
X71663538Y-149030134D01*
X71563064Y-149347209D01*
X71531712Y-149445745D01*
X71505923Y-149524492D01*
X71483221Y-149589128D01*
X71461128Y-149645332D01*
X71437167Y-149698786D01*
X71408862Y-149755166D01*
X71373735Y-149820154D01*
X71329309Y-149899427D01*
X71298430Y-149953971D01*
X71246624Y-150045018D01*
X71204172Y-150117915D01*
X71167372Y-150177846D01*
X71132522Y-150229994D01*
X71095922Y-150279542D01*
X71053870Y-150331673D01*
X71002665Y-150391572D01*
X70938606Y-150464421D01*
X70914448Y-150491697D01*
X70844753Y-150570018D01*
X70787773Y-150632679D01*
X70738752Y-150684039D01*
X70692934Y-150728455D01*
X70645563Y-150770286D01*
X70591884Y-150813888D01*
X70527142Y-150863620D01*
X70446579Y-150923840D01*
X70426925Y-150938434D01*
X70343404Y-151000248D01*
X70275894Y-151049267D01*
X70219015Y-151088661D01*
X70167386Y-151121598D01*
X70115628Y-151151246D01*
X70058359Y-151180775D01*
X69990199Y-151213352D01*
X69905768Y-151252146D01*
X69855143Y-151275149D01*
X69748707Y-151322885D01*
X69660467Y-151360907D01*
X69584657Y-151391365D01*
X69515514Y-151416411D01*
X69447272Y-151438196D01*
X69374168Y-151458872D01*
X69335567Y-151469058D01*
X69263844Y-151487321D01*
X69201745Y-151502488D01*
X69153614Y-151513551D01*
X69123790Y-151519500D01*
X69116066Y-151520027D01*
X69115014Y-151504235D01*
X69117073Y-151467409D01*
X69121610Y-151414986D01*
X69127991Y-151352407D01*
X69135584Y-151285110D01*
X69143755Y-151218533D01*
X69151871Y-151158116D01*
X69159299Y-151109297D01*
X69165406Y-151077515D01*
X69168664Y-151068200D01*
X69184725Y-151060146D01*
X69222116Y-151045043D01*
X69276834Y-151024393D01*
X69344877Y-150999699D01*
X69422242Y-150972464D01*
X69440504Y-150966146D01*
X69530957Y-150934543D01*
X69603883Y-150907611D01*
X69665880Y-150882255D01*
X69723548Y-150855383D01*
X69783486Y-150823900D01*
X69852292Y-150784713D01*
X69936566Y-150734728D01*
X69945277Y-150729509D01*
X70030714Y-150677817D01*
X70099249Y-150634691D01*
X70156792Y-150595671D01*
X70209253Y-150556299D01*
X70262541Y-150512114D01*
X70322566Y-150458658D01*
X70395236Y-150391471D01*
X70403628Y-150383637D01*
X70477371Y-150314203D01*
X70536052Y-150257016D01*
X70584518Y-150206477D01*
X70627619Y-150156989D01*
X70670203Y-150102955D01*
X70717120Y-150038777D01*
X70773217Y-149958858D01*
X70779741Y-149949465D01*
X70836739Y-149866648D01*
X70881666Y-149798923D01*
X70918136Y-149739730D01*
X70949765Y-149682507D01*
X70980165Y-149620695D01*
X71012952Y-149547732D01*
X71051740Y-149457058D01*
X71054125Y-149451412D01*
X71091159Y-149363117D01*
X71119868Y-149292089D01*
X71142236Y-149231773D01*
X71160249Y-149175618D01*
X71175891Y-149117071D01*
X71191148Y-149049577D01*
X71208005Y-148966585D01*
X71220692Y-148901579D01*
X71276431Y-148614158D01*
X71267241Y-148326737D01*
X71263985Y-148230334D01*
X71260578Y-148153931D01*
X71256146Y-148090801D01*
X71249811Y-148034215D01*
X71240697Y-147977448D01*
X71227928Y-147913771D01*
X71210628Y-147836458D01*
X71194103Y-147765263D01*
X71171745Y-147670720D01*
X71152766Y-147595436D01*
X71134790Y-147532583D01*
X71115442Y-147475332D01*
X71092346Y-147416853D01*
X71063126Y-147350318D01*
X71025408Y-147268897D01*
X71010149Y-147236446D01*
X70967749Y-147147442D01*
X70931879Y-147075525D01*
X70898711Y-147014377D01*
X70864419Y-146957680D01*
X70825175Y-146899115D01*
X70777151Y-146832365D01*
X70716519Y-146751111D01*
X70714553Y-146748499D01*
X70653251Y-146667758D01*
X70602618Y-146603365D01*
X70557675Y-146549989D01*
X70513447Y-146502296D01*
X70464957Y-146454953D01*
X70407227Y-146402626D01*
X70335282Y-146339984D01*
X70325385Y-146331458D01*
X70249052Y-146266375D01*
X70185770Y-146214483D01*
X70129253Y-146171415D01*
X70073214Y-146132803D01*
X70011365Y-146094281D01*
X69937419Y-146051481D01*
X69860562Y-146008588D01*
X69773857Y-145960978D01*
X69703742Y-145923842D01*
X69643603Y-145894373D01*
X69586827Y-145869764D01*
X69526797Y-145847209D01*
X69456901Y-145823902D01*
X69370523Y-145797034D01*
X69340337Y-145787839D01*
X69253101Y-145761878D01*
X69168187Y-145737604D01*
X69091212Y-145716548D01*
X69027790Y-145700240D01*
X68983536Y-145690212D01*
X68979505Y-145689453D01*
X68887652Y-145672806D01*
X68863531Y-145454102D01*
X68855766Y-145380789D01*
X68849652Y-145317312D01*
X68845575Y-145268188D01*
X68843921Y-145237931D01*
X68844417Y-145230390D01*
X68858339Y-145231554D01*
%TD*%
D13*
%TO.C,K_BSPC2*%
X339846251Y-105645593D03*
X316033751Y-105645593D03*
D14*
X339846251Y-90405593D03*
X316033751Y-90405593D03*
D15*
X333020001Y-97390593D03*
X322860001Y-97390593D03*
D13*
X327940001Y-97390593D03*
%TD*%
D15*
%TO.C,K_\u002C1*%
X287513991Y-135994400D03*
X277576011Y-138106782D03*
D13*
X282545001Y-137050591D03*
%TD*%
D15*
%TO.C,K_;1*%
X313485001Y-116440592D03*
X303325001Y-116440592D03*
D13*
X308405001Y-116440592D03*
%TD*%
D15*
%TO.C,K_A1*%
X116685002Y-116440593D03*
X106525002Y-116440593D03*
D13*
X111605002Y-116440593D03*
%TD*%
D15*
%TO.C,K_ALT1*%
X137613990Y-158096784D03*
X127676010Y-155984402D03*
D13*
X132645000Y-157040593D03*
%TD*%
D15*
%TO.C,K_B1*%
X198325126Y-149988936D03*
D13*
X193356136Y-148932745D03*
D15*
X188387146Y-147876554D03*
%TD*%
D13*
%TO.C,K_C1*%
X156088712Y-141011309D03*
D15*
X151119722Y-139955118D03*
X161057702Y-142067500D03*
%TD*%
%TO.C,K_CTRL1*%
X83300001Y-154540592D03*
X93460001Y-154540592D03*
D13*
X88380001Y-154540592D03*
%TD*%
%TO.C,K_D1*%
X150738712Y-120401310D03*
D15*
X145769722Y-119345119D03*
X155707702Y-121457501D03*
%TD*%
%TO.C,K_E1*%
X145069722Y-99715119D03*
D13*
X150038712Y-100771310D03*
D15*
X155007702Y-101827501D03*
%TD*%
%TO.C,K_F1*%
X164403434Y-123305837D03*
D13*
X169372424Y-124362028D03*
D15*
X174341414Y-125418219D03*
%TD*%
D13*
%TO.C,K_G1*%
X188006136Y-128322745D03*
D15*
X183037146Y-127266554D03*
X192975126Y-129378936D03*
%TD*%
D13*
%TO.C,K_H1*%
X232003865Y-128322744D03*
D15*
X236972855Y-127266553D03*
X227034875Y-129378935D03*
%TD*%
%TO.C,K_I1*%
X255682299Y-103807502D03*
X265620279Y-101695120D03*
D13*
X260651289Y-102751311D03*
%TD*%
D15*
%TO.C,K_J1*%
X245668587Y-125418219D03*
X255606567Y-123305837D03*
D13*
X250637577Y-124362028D03*
%TD*%
%TO.C,K_K1*%
X269271289Y-120401310D03*
D15*
X264302299Y-121457501D03*
X274240279Y-119345119D03*
%TD*%
%TO.C,K_L1*%
X282936010Y-117496784D03*
X292873990Y-115384402D03*
D13*
X287905000Y-116440593D03*
%TD*%
%TO.C,K_M1*%
X263911288Y-141011309D03*
D15*
X268880278Y-139955118D03*
X258942298Y-142067500D03*
%TD*%
%TO.C,K_N1*%
X250246567Y-143915836D03*
D13*
X245277577Y-144972027D03*
D15*
X240308587Y-146028218D03*
%TD*%
D13*
%TO.C,K_O1*%
X279285001Y-98790593D03*
D15*
X284253991Y-97734402D03*
X274316011Y-99846784D03*
%TD*%
%TO.C,K_P1*%
X294705001Y-96330593D03*
D13*
X299785001Y-96330593D03*
D15*
X304865001Y-96330593D03*
%TD*%
%TO.C,K_Q1*%
X105825000Y-97390592D03*
X115985000Y-97390592D03*
D13*
X110905000Y-97390592D03*
%TD*%
D15*
%TO.C,K_R1*%
X173641414Y-105788219D03*
X163703434Y-103675837D03*
D13*
X168672424Y-104732028D03*
%TD*%
D15*
%TO.C,K_S1*%
X137073989Y-117496784D03*
X127136009Y-115384402D03*
D13*
X132104999Y-116440593D03*
%TD*%
%TO.C,K_SHIFT1*%
X90761251Y-135490592D03*
D15*
X85681251Y-135490592D03*
X95841251Y-135490592D03*
%TD*%
%TO.C,K_SHIFT2*%
X319396250Y-135490592D03*
X329556250Y-135490592D03*
D13*
X324476250Y-135490592D03*
%TD*%
D15*
%TO.C,K_T1*%
X192275126Y-109748937D03*
X182337146Y-107636555D03*
D13*
X187306136Y-108692746D03*
%TD*%
D15*
%TO.C,K_TAB1*%
X85093751Y-116440593D03*
D13*
X90173751Y-116440593D03*
D15*
X95253751Y-116440593D03*
%TD*%
D13*
%TO.C,K_U1*%
X242017576Y-106712028D03*
D15*
X237048586Y-107768219D03*
X246986566Y-105655837D03*
%TD*%
D13*
%TO.C,K_V1*%
X174722424Y-144972027D03*
D15*
X169753434Y-143915836D03*
X179691414Y-146028218D03*
%TD*%
%TO.C,K_W1*%
X126436011Y-95754401D03*
X136373991Y-97866783D03*
D13*
X131405001Y-96810592D03*
%TD*%
%TO.C,K_WIN1*%
X156566598Y-160588476D03*
D15*
X161535588Y-161644667D03*
X151597608Y-159532285D03*
%TD*%
%TO.C,K_X1*%
X132486010Y-135994401D03*
D13*
X137455000Y-137050592D03*
D15*
X142423990Y-138106783D03*
%TD*%
D13*
%TO.C,K_Z1*%
X116955000Y-135490592D03*
D15*
X111875000Y-135490592D03*
X122035000Y-135490592D03*
%TD*%
D13*
%TO.C,K_ENTER1*%
X334598751Y-116440593D03*
D15*
X339678751Y-116440593D03*
X329518751Y-116440593D03*
%TD*%
D13*
%TO.C,K_.1*%
X303045001Y-135490592D03*
D15*
X297965001Y-135490592D03*
X308125001Y-135490592D03*
%TD*%
%TO.C,K_ALT2*%
X282386011Y-158096782D03*
X292323991Y-155984400D03*
D13*
X287355001Y-157040591D03*
%TD*%
D15*
%TO.C,K_B2*%
X231612855Y-147876554D03*
D13*
X226643865Y-148932745D03*
D15*
X221674875Y-149988936D03*
%TD*%
D13*
%TO.C,K_CTRL2*%
X337464500Y-154540592D03*
D15*
X342544500Y-154540592D03*
X332384500Y-154540592D03*
%TD*%
%TO.C,K_DEL1*%
X342545001Y-97390593D03*
D13*
X337465001Y-97390593D03*
D15*
X332385001Y-97390593D03*
%TD*%
%TO.C,K_ESC1*%
X96935001Y-97390593D03*
X86775001Y-97390593D03*
D13*
X91855001Y-97390593D03*
%TD*%
D15*
%TO.C,K_FN1*%
X340827501Y-135490592D03*
X350987501Y-135490592D03*
D13*
X345907501Y-135490592D03*
%TD*%
D15*
%TO.C,K_BSPC1*%
X323495001Y-97390592D03*
D13*
X318415001Y-97390592D03*
D15*
X313335001Y-97390592D03*
%TD*%
%TO.C,K_PGDN1*%
X59685000Y-114300593D03*
D13*
X64765000Y-114300593D03*
D15*
X69845000Y-114300593D03*
%TD*%
%TO.C,K_PGUP1*%
X63755002Y-95250593D03*
X73915002Y-95250593D03*
D13*
X68835002Y-95250593D03*
%TD*%
D15*
%TO.C,K_SPC1*%
X179548172Y-165473359D03*
D13*
X184517162Y-166529550D03*
D15*
X189486152Y-167585741D03*
D13*
X197879543Y-160930390D03*
D14*
X171418829Y-170886462D03*
X194710969Y-175837360D03*
D13*
X174587403Y-155979493D03*
%TD*%
D15*
%TO.C,K_SPC2*%
X232623235Y-167137378D03*
D13*
X237592225Y-166081187D03*
D15*
X242561215Y-165024996D03*
%TD*%
D13*
%TO.C,K_WIN2*%
X263213578Y-160635200D03*
D15*
X268182568Y-159579009D03*
X258244588Y-161691391D03*
%TD*%
%TO.C,K_Y1*%
X228352855Y-109616555D03*
D13*
X223383865Y-110672746D03*
D15*
X218414875Y-111728937D03*
%TD*%
D16*
%TO.C,H7*%
X275839133Y-168885953D03*
X277081381Y-168621905D03*
X278323628Y-168357857D03*
X274596886Y-169150000D03*
X273354639Y-169414048D03*
%TD*%
%TO.C,H9*%
X343227501Y-85704000D03*
X339417501Y-85704000D03*
X340687501Y-85704000D03*
X344497501Y-85704000D03*
X341957501Y-85704000D03*
%TD*%
%TO.C,H10*%
X260270000Y-85704001D03*
X261540000Y-85704001D03*
X256460000Y-85704001D03*
X257730000Y-85704001D03*
X259000000Y-85704001D03*
%TD*%
%TO.C,H12*%
X67445001Y-85703999D03*
X66175001Y-85703999D03*
X69985001Y-85703999D03*
X68715001Y-85703999D03*
X71255001Y-85703999D03*
%TD*%
%TO.C,H13*%
X79985001Y-163786591D03*
X77445001Y-163786591D03*
X81255001Y-163786591D03*
X78715001Y-163786591D03*
X76175001Y-163786591D03*
%TD*%
%TO.C,H15*%
X208730000Y-177086880D03*
X210000000Y-177086880D03*
X212540000Y-177086880D03*
X207460000Y-177086880D03*
X211270000Y-177086880D03*
%TD*%
%TO.C,H11*%
X159730000Y-85704000D03*
X161000000Y-85704000D03*
X158460000Y-85704000D03*
X162270000Y-85704000D03*
X163540000Y-85704000D03*
%TD*%
%TO.C,H14*%
X151075615Y-170415598D03*
X149833368Y-170151551D03*
X152317862Y-170679646D03*
X147348873Y-169623455D03*
X148591120Y-169887503D03*
%TD*%
%TO.C,H8*%
X333227501Y-163786591D03*
X331957501Y-163786591D03*
X334497501Y-163786591D03*
X329417501Y-163786591D03*
X330687501Y-163786591D03*
%TD*%
D14*
%TO.C,K_SHIFT3*%
X345907501Y-128505592D03*
D15*
X328921251Y-135490592D03*
D13*
X345907501Y-143745592D03*
D14*
X322095001Y-128505592D03*
D15*
X339081251Y-135490592D03*
D13*
X334001251Y-135490592D03*
X322095001Y-143745592D03*
%TD*%
%TO.C,K_SPC3*%
X175200305Y-164549191D03*
D15*
X180169295Y-165605382D03*
D14*
X192381754Y-175342270D03*
D13*
X158282904Y-152513865D03*
D14*
X155114330Y-167420834D03*
D13*
X195550328Y-160435300D03*
D15*
X170231315Y-163493000D03*
%TD*%
%TO.C,K_SPC4*%
X251878071Y-163044637D03*
X241940091Y-165157019D03*
D14*
X260007414Y-168457740D03*
X236715274Y-173408638D03*
D13*
X256838840Y-153550771D03*
X233546700Y-158501668D03*
X246909081Y-164100828D03*
%TD*%
D17*
%TO.C,USB1*%
X207110000Y-86250000D03*
X212890000Y-86250000D03*
D18*
X205680000Y-82600000D03*
D19*
X214320000Y-86780000D03*
D18*
X214320000Y-82600000D03*
D19*
X205680000Y-86780000D03*
%TD*%
D20*
%TO.C,J1*%
X224475000Y-97400000D03*
D21*
X224475000Y-94860000D03*
X221935000Y-97400000D03*
X221935000Y-94860000D03*
X219395000Y-97400000D03*
X219395000Y-94860000D03*
X216855000Y-97400000D03*
X216855000Y-94860000D03*
X214315000Y-97400000D03*
X214315000Y-94860000D03*
%TD*%
M02*
