%TF.GenerationSoftware,KiCad,Pcbnew,(6.0.11-0)*%
%TF.CreationDate,2023-07-09T18:52:18+09:00*%
%TF.ProjectId,Vision,56697369-6f6e-42e6-9b69-6361645f7063,rev?*%
%TF.SameCoordinates,Original*%
%TF.FileFunction,Drillmap*%
%TF.FilePolarity,Positive*%
%FSLAX45Y45*%
G04 Gerber Fmt 4.5, Leading zero omitted, Abs format (unit mm)*
G04 Created by KiCad (PCBNEW (6.0.11-0)) date 2023-07-09 18:52:18*
%MOMM*%
%LPD*%
G01*
G04 APERTURE LIST*
%ADD10C,0.200000*%
%ADD11C,0.065000*%
%ADD12C,0.078740*%
%ADD13C,0.175000*%
%ADD14C,0.304800*%
%ADD15C,0.398780*%
G04 APERTURE END LIST*
D10*
X19025195Y-8621564D02*
G75*
G03*
X18927981Y-8545000I-97215J-23436D01*
G01*
X23072019Y-8544999D02*
G75*
G03*
X22974804Y-8621563I1J-100001D01*
G01*
X5771500Y-17004060D02*
G75*
G03*
X5571500Y-17204059I0J-200000D01*
G01*
X35495751Y-17204059D02*
G75*
G03*
X35295750Y-17004059I-200001J-1D01*
G01*
X23743702Y-17734088D02*
X21400000Y-17734088D01*
X8271500Y-17004059D02*
X10371500Y-17004059D01*
X6571500Y-8445000D02*
X6571500Y-7900000D01*
X21400000Y-17734090D02*
G75*
G03*
X21300000Y-17834088I0J-100000D01*
G01*
X16400000Y-8445000D02*
G75*
G03*
X16500000Y-8545000I100000J0D01*
G01*
X34495750Y-8445000D02*
G75*
G03*
X34595750Y-8545000I100000J0D01*
G01*
X14605403Y-16960300D02*
X11998774Y-16406244D01*
X27961847Y-16839724D02*
G75*
G03*
X27882639Y-16937542I20793J-97816D01*
G01*
X23072019Y-8545000D02*
X25500000Y-8545000D01*
X25695750Y-17704060D02*
G75*
G03*
X25495750Y-17904059I0J-200000D01*
G01*
X31114000Y-8909543D02*
G75*
G03*
X31114000Y-8909543I-175000J0D01*
G01*
X30280124Y-8545002D02*
G75*
G03*
X30232965Y-8556818I-4J-99998D01*
G01*
X35395750Y-16404059D02*
X33595750Y-16404059D01*
X16500000Y-7800000D02*
G75*
G03*
X16400000Y-7900000I0J-100000D01*
G01*
X8171501Y-16904059D02*
G75*
G03*
X8271500Y-17004059I99999J-1D01*
G01*
X20016787Y-8544998D02*
G75*
G03*
X19919573Y-8621563I3J-100003D01*
G01*
X20500000Y-8140000D02*
G75*
G03*
X20400000Y-8240000I0J-100000D01*
G01*
X27882641Y-17604059D02*
G75*
G03*
X27982639Y-17704059I99999J-1D01*
G01*
X27780428Y-8621563D02*
G75*
G03*
X28674804Y-8621563I447188J107808D01*
G01*
X29808536Y-8556816D02*
G75*
G03*
X29761376Y-8545000I-47156J-88184D01*
G01*
X10771500Y-17704059D02*
X14584611Y-17704059D01*
X25600000Y-7900000D02*
G75*
G03*
X25500000Y-7800000I-100000J0D01*
G01*
X5771500Y-17004059D02*
X7471500Y-17004059D01*
X30695750Y-17004059D02*
X32795750Y-17004059D01*
X11198493Y-15754059D02*
G75*
G03*
X11198493Y-15754059I-110000J0D01*
G01*
X5571500Y-7600000D02*
X5571500Y-7000000D01*
X30280124Y-8545000D02*
X33795750Y-8545000D01*
X35195750Y-7300000D02*
G75*
G03*
X35195750Y-7300000I-200000J0D01*
G01*
X15800000Y-7900000D02*
G75*
G03*
X15700000Y-7800000I-100000J0D01*
G01*
X15271501Y-17604059D02*
G75*
G03*
X15371500Y-17704059I99999J-1D01*
G01*
X25695750Y-17704059D02*
X27195750Y-17704059D01*
X27882639Y-16937542D02*
X27882639Y-17604059D01*
X6271500Y-7300000D02*
G75*
G03*
X6271500Y-7300000I-200000J0D01*
G01*
X20016787Y-8545000D02*
X20300000Y-8545000D01*
X17110000Y-8895000D02*
G75*
G03*
X17110000Y-8895000I-110000J0D01*
G01*
X5771500Y-6800000D02*
G75*
G03*
X5571500Y-7000000I0J-200000D01*
G01*
X35495750Y-17204059D02*
X35495750Y-19004059D01*
X17071501Y-17904059D02*
G75*
G03*
X16871500Y-17704059I-200001J-1D01*
G01*
X7171500Y-8445000D02*
G75*
G03*
X7271500Y-8545000I100000J0D01*
G01*
X15271500Y-17225373D02*
X15271500Y-17604059D01*
X11558714Y-16392243D02*
G75*
G03*
X11605874Y-16404059I47156J88183D01*
G01*
X27780425Y-8621564D02*
G75*
G03*
X27683213Y-8545000I-97215J-23436D01*
G01*
X10571500Y-17204059D02*
X10571500Y-17504059D01*
X21400000Y-18204059D02*
X25295750Y-18204059D01*
X35495750Y-9066476D02*
X35495750Y-16304059D01*
X32895751Y-16504059D02*
G75*
G03*
X32795750Y-16404059I-100001J-1D01*
G01*
X20700000Y-18104059D02*
X20700000Y-17834088D01*
X25500000Y-8545000D02*
G75*
G03*
X25600000Y-8445000I0J100000D01*
G01*
X25495750Y-18004059D02*
X25495750Y-17904059D01*
X30495750Y-17504059D02*
X30495750Y-17204059D01*
X25295750Y-18204060D02*
G75*
G03*
X25495750Y-18004059I0J200000D01*
G01*
X28772019Y-8544999D02*
G75*
G03*
X28674804Y-8621563I1J-100001D01*
G01*
X19025196Y-8621563D02*
G75*
G03*
X19919573Y-8621563I447188J107808D01*
G01*
X7271500Y-8545000D02*
X11087126Y-8545000D01*
X16282084Y-9468195D02*
G75*
G03*
X16282084Y-9468195I-175000J0D01*
G01*
X14684605Y-17058115D02*
G75*
G03*
X14605403Y-16960300I-99995J5D01*
G01*
X33495750Y-16504059D02*
X33495750Y-16904059D01*
X25600000Y-8445000D02*
X25600000Y-7900000D01*
X30695750Y-17004060D02*
G75*
G03*
X30495750Y-17204059I0J-200000D01*
G01*
X17271500Y-18204059D02*
X20600000Y-18204059D01*
X35250750Y-9803755D02*
G75*
G03*
X35250750Y-9803755I-110000J0D01*
G01*
X35395750Y-16404060D02*
G75*
G03*
X35495750Y-16304059I0J100000D01*
G01*
X31363720Y-15754059D02*
G75*
G03*
X31363720Y-15754059I-110000J0D01*
G01*
X20600000Y-17734088D02*
X18256298Y-17734088D01*
X14316787Y-8545007D02*
G75*
G03*
X14219572Y-8621563I-7J-99993D01*
G01*
X21600000Y-8445000D02*
G75*
G03*
X21700000Y-8545000I100000J0D01*
G01*
X11087126Y-16404059D02*
X8271500Y-16404059D01*
X29808535Y-8556818D02*
G75*
G03*
X30232965Y-8556818I212215J396818D01*
G01*
X15700000Y-7800000D02*
X7271500Y-7800000D01*
X27174959Y-17006986D02*
X23764493Y-17731903D01*
X5655429Y-8967775D02*
G75*
G03*
X6028688Y-8621563I-73929J454020D01*
G01*
X35295750Y-19204060D02*
G75*
G03*
X35495750Y-19004059I0J200000D01*
G01*
X11134285Y-8556818D02*
G75*
G03*
X11558715Y-8556818I212215J396818D01*
G01*
X21600000Y-8240000D02*
G75*
G03*
X21500000Y-8140000I-100000J0D01*
G01*
X13325196Y-8621563D02*
G75*
G03*
X14219572Y-8621563I447188J107809D01*
G01*
X28772019Y-8545000D02*
X29761376Y-8545000D01*
X5571501Y-19004059D02*
G75*
G03*
X5771500Y-19204059I199999J-1D01*
G01*
X34595750Y-8545000D02*
X34941347Y-8545000D01*
X14684611Y-17604059D02*
X14684611Y-17058115D01*
X6125903Y-8545000D02*
X6471500Y-8545000D01*
X33795750Y-8545000D02*
G75*
G03*
X33895750Y-8445000I0J100000D01*
G01*
X33595750Y-16404060D02*
G75*
G03*
X33495750Y-16504059I0J-100000D01*
G01*
X14316787Y-8545000D02*
X15700000Y-8545000D01*
X11087126Y-16404057D02*
G75*
G03*
X11134285Y-16392241I4J99997D01*
G01*
X11605874Y-8545000D02*
X13227981Y-8545000D01*
X30295750Y-17704060D02*
G75*
G03*
X30495750Y-17504059I0J200000D01*
G01*
X30232965Y-16392241D02*
G75*
G03*
X29722339Y-16452235I-212215J-396819D01*
G01*
X21600000Y-8240000D02*
X21600000Y-8445000D01*
X7471500Y-17004060D02*
G75*
G03*
X7571500Y-16904059I0J100000D01*
G01*
X5571500Y-19004059D02*
X5571500Y-17204059D01*
X5655429Y-8967780D02*
G75*
G03*
X5571500Y-9066476I16071J-98700D01*
G01*
X5771500Y-6800000D02*
X35295750Y-6800000D01*
X25110000Y-8895000D02*
G75*
G03*
X25110000Y-8895000I-110000J0D01*
G01*
X7271500Y-7800000D02*
G75*
G03*
X7171500Y-7900000I0J-100000D01*
G01*
X7471500Y-16404059D02*
X5671500Y-16404059D01*
X26300000Y-8545000D02*
X27683213Y-8545000D01*
X8171500Y-16504059D02*
X8171500Y-16904059D01*
X7171500Y-7900000D02*
X7171500Y-8445000D01*
X35295750Y-7800000D02*
G75*
G03*
X35495750Y-7600000I0J200000D01*
G01*
X10313000Y-8914059D02*
G75*
G03*
X10313000Y-8914059I-175000J0D01*
G01*
X23743702Y-17734089D02*
G75*
G03*
X23764493Y-17731903I-2J99999D01*
G01*
X17071500Y-17904059D02*
X17071500Y-18004059D01*
X30232964Y-16392243D02*
G75*
G03*
X30280124Y-16404059I47156J88183D01*
G01*
X17071501Y-18004059D02*
G75*
G03*
X17271500Y-18204059I199999J-1D01*
G01*
X5571500Y-16304059D02*
X5571500Y-9066476D01*
X13325195Y-8621564D02*
G75*
G03*
X13227981Y-8545000I-97215J-23436D01*
G01*
X22080432Y-8621562D02*
G75*
G03*
X21983213Y-8545000I-97222J-23448D01*
G01*
X11134284Y-8556820D02*
G75*
G03*
X11087126Y-8545000I-47154J-88151D01*
G01*
X20500000Y-8140000D02*
X21500000Y-8140000D01*
X16400000Y-7900000D02*
X16400000Y-8445000D01*
X33795750Y-7800000D02*
X26300000Y-7800000D01*
X11558715Y-16392241D02*
G75*
G03*
X11134285Y-16392241I-212215J-396818D01*
G01*
X33895750Y-8445000D02*
X33895750Y-7900000D01*
X35295750Y-19204059D02*
X5771500Y-19204059D01*
X6471500Y-7800000D02*
X5771500Y-7800000D01*
X11977983Y-16404059D02*
X11605874Y-16404059D01*
X15371500Y-17704059D02*
X16871500Y-17704059D01*
X27195750Y-17704060D02*
G75*
G03*
X27295750Y-17604059I0J100000D01*
G01*
X25136916Y-9666195D02*
G75*
G03*
X25136916Y-9666195I-175000J0D01*
G01*
X29676816Y-16475201D02*
G75*
G03*
X29722339Y-16452235I-20796J97821D01*
G01*
X5571501Y-16304059D02*
G75*
G03*
X5671500Y-16404059I99999J-1D01*
G01*
X33595750Y-17004059D02*
X35295750Y-17004059D01*
X21300000Y-17834088D02*
X21300000Y-18104059D01*
X35495753Y-9066476D02*
G75*
G03*
X35411821Y-8967775I-99993J6D01*
G01*
X5571500Y-7600000D02*
G75*
G03*
X5771500Y-7800000I200000J0D01*
G01*
X6471500Y-8545000D02*
G75*
G03*
X6571500Y-8445000I0J100000D01*
G01*
X7571501Y-16504059D02*
G75*
G03*
X7471500Y-16404059I-100001J-1D01*
G01*
X26200000Y-8445000D02*
G75*
G03*
X26300000Y-8545000I100000J0D01*
G01*
X27295750Y-17604059D02*
X27295750Y-17104801D01*
X35038565Y-8621563D02*
G75*
G03*
X35411822Y-8967776I447185J107803D01*
G01*
X35038565Y-8621563D02*
G75*
G03*
X34941347Y-8545000I-97215J-23437D01*
G01*
X18235507Y-17731903D02*
G75*
G03*
X18256298Y-17734088I20793J97843D01*
G01*
X32895750Y-16904059D02*
X32895750Y-16504059D01*
X7571500Y-16904059D02*
X7571500Y-16504059D01*
X21110000Y-17084088D02*
G75*
G03*
X21110000Y-17084088I-110000J0D01*
G01*
X15800000Y-8445000D02*
X15800000Y-7900000D01*
X27295749Y-17104801D02*
G75*
G03*
X27174959Y-17006986I-99999J1D01*
G01*
X21700000Y-8545000D02*
X21983213Y-8545000D01*
X10571501Y-17204059D02*
G75*
G03*
X10371500Y-17004059I-200001J-1D01*
G01*
X15700000Y-8545000D02*
G75*
G03*
X15800000Y-8445000I0J100000D01*
G01*
X6571500Y-7900000D02*
G75*
G03*
X6471500Y-7800000I-100000J0D01*
G01*
X29676816Y-16475200D02*
X27961847Y-16839728D01*
X32795750Y-17004060D02*
G75*
G03*
X32895750Y-16904059I0J100000D01*
G01*
X14584611Y-17704062D02*
G75*
G03*
X14684611Y-17604059I-2J100002D01*
G01*
X6271500Y-18704059D02*
G75*
G03*
X6271500Y-18704059I-200000J0D01*
G01*
X35495750Y-7000000D02*
G75*
G03*
X35295750Y-6800000I-200000J0D01*
G01*
X6036501Y-12903755D02*
G75*
G03*
X6036501Y-12903755I-110000J0D01*
G01*
X11998774Y-16406244D02*
G75*
G03*
X11977983Y-16404059I-20794J-97876D01*
G01*
X18235507Y-17731903D02*
X15392291Y-17127559D01*
X20300000Y-8545000D02*
G75*
G03*
X20400000Y-8445000I0J100000D01*
G01*
X11605874Y-8545001D02*
G75*
G03*
X11558715Y-8556818I6J-100029D01*
G01*
X21300001Y-18104059D02*
G75*
G03*
X21400000Y-18204059I99999J-1D01*
G01*
X8271500Y-16404060D02*
G75*
G03*
X8171500Y-16504059I0J-100000D01*
G01*
X16500000Y-8545000D02*
X18927981Y-8545000D01*
X15392292Y-17127555D02*
G75*
G03*
X15271500Y-17225373I-20792J-97815D01*
G01*
X34495750Y-7900000D02*
X34495750Y-8445000D01*
X34595750Y-7800000D02*
G75*
G03*
X34495750Y-7900000I0J-100000D01*
G01*
X22080428Y-8621563D02*
G75*
G03*
X22974804Y-8621563I447188J107808D01*
G01*
X20600000Y-18204060D02*
G75*
G03*
X20700000Y-18104059I0J100000D01*
G01*
X26300000Y-7800000D02*
G75*
G03*
X26200000Y-7900000I0J-100000D01*
G01*
X10571501Y-17504059D02*
G75*
G03*
X10771500Y-17704059I199999J-1D01*
G01*
X20700002Y-17834088D02*
G75*
G03*
X20600000Y-17734088I-100002J-2D01*
G01*
X33895750Y-7900000D02*
G75*
G03*
X33795750Y-7800000I-100000J0D01*
G01*
X6125903Y-8545003D02*
G75*
G03*
X6028688Y-8621563I-3J-99997D01*
G01*
X26200000Y-7900000D02*
X26200000Y-8445000D01*
X35295750Y-7800000D02*
X34595750Y-7800000D01*
X35495750Y-7000000D02*
X35495750Y-7600000D01*
X35195750Y-18704059D02*
G75*
G03*
X35195750Y-18704059I-200000J0D01*
G01*
X25500000Y-7800000D02*
X16500000Y-7800000D01*
X32795750Y-16404059D02*
X30280124Y-16404059D01*
X27982639Y-17704059D02*
X30295750Y-17704059D01*
X33495751Y-16904059D02*
G75*
G03*
X33595750Y-17004059I99999J-1D01*
G01*
X20400000Y-8445000D02*
X20400000Y-8240000D01*
D11*
X20678500Y-8587500D02*
X20743500Y-8652500D01*
X20743500Y-8587500D02*
X20678500Y-8652500D01*
X21256500Y-8587500D02*
X21321500Y-8652500D01*
X21321500Y-8587500D02*
X21256500Y-8652500D01*
D12*
X6656870Y-8570400D02*
G75*
G03*
X6656870Y-8570400I-39370J0D01*
G01*
X6783870Y-8570400D02*
G75*
G03*
X6783870Y-8570400I-39370J0D01*
G01*
X6910870Y-8570400D02*
G75*
G03*
X6910870Y-8570400I-39370J0D01*
G01*
X7037870Y-8570400D02*
G75*
G03*
X7037870Y-8570400I-39370J0D01*
G01*
X7164870Y-8570400D02*
G75*
G03*
X7164870Y-8570400I-39370J0D01*
G01*
X7656870Y-16378659D02*
G75*
G03*
X7656870Y-16378659I-39370J0D01*
G01*
X7783870Y-16378659D02*
G75*
G03*
X7783870Y-16378659I-39370J0D01*
G01*
X7910870Y-16378659D02*
G75*
G03*
X7910870Y-16378659I-39370J0D01*
G01*
X8037870Y-16378659D02*
G75*
G03*
X8037870Y-16378659I-39370J0D01*
G01*
X8164870Y-16378659D02*
G75*
G03*
X8164870Y-16378659I-39370J0D01*
G01*
X14774257Y-16962346D02*
G75*
G03*
X14774257Y-16962346I-39370J0D01*
G01*
X14898482Y-16988750D02*
G75*
G03*
X14898482Y-16988750I-39370J0D01*
G01*
X15022707Y-17015155D02*
G75*
G03*
X15022707Y-17015155I-39370J0D01*
G01*
X15146931Y-17041560D02*
G75*
G03*
X15146931Y-17041560I-39370J0D01*
G01*
X15271156Y-17067965D02*
G75*
G03*
X15271156Y-17067965I-39370J0D01*
G01*
X15885370Y-8570400D02*
G75*
G03*
X15885370Y-8570400I-39370J0D01*
G01*
X16012370Y-8570400D02*
G75*
G03*
X16012370Y-8570400I-39370J0D01*
G01*
X16139370Y-8570400D02*
G75*
G03*
X16139370Y-8570400I-39370J0D01*
G01*
X16266370Y-8570400D02*
G75*
G03*
X16266370Y-8570400I-39370J0D01*
G01*
X16393370Y-8570400D02*
G75*
G03*
X16393370Y-8570400I-39370J0D01*
G01*
X20785370Y-17708688D02*
G75*
G03*
X20785370Y-17708688I-39370J0D01*
G01*
X20912370Y-17708688D02*
G75*
G03*
X20912370Y-17708688I-39370J0D01*
G01*
X21039370Y-17708688D02*
G75*
G03*
X21039370Y-17708688I-39370J0D01*
G01*
X21166370Y-17708688D02*
G75*
G03*
X21166370Y-17708688I-39370J0D01*
G01*
X21293370Y-17708688D02*
G75*
G03*
X21293370Y-17708688I-39370J0D01*
G01*
X25685370Y-8570400D02*
G75*
G03*
X25685370Y-8570400I-39370J0D01*
G01*
X25812370Y-8570400D02*
G75*
G03*
X25812370Y-8570400I-39370J0D01*
G01*
X25939370Y-8570400D02*
G75*
G03*
X25939370Y-8570400I-39370J0D01*
G01*
X26066370Y-8570400D02*
G75*
G03*
X26066370Y-8570400I-39370J0D01*
G01*
X26193370Y-8570400D02*
G75*
G03*
X26193370Y-8570400I-39370J0D01*
G01*
X27374834Y-16941405D02*
G75*
G03*
X27374834Y-16941405I-39370J0D01*
G01*
X27499059Y-16915000D02*
G75*
G03*
X27499059Y-16915000I-39370J0D01*
G01*
X27623283Y-16888595D02*
G75*
G03*
X27623283Y-16888595I-39370J0D01*
G01*
X27747508Y-16862191D02*
G75*
G03*
X27747508Y-16862191I-39370J0D01*
G01*
X27871733Y-16835786D02*
G75*
G03*
X27871733Y-16835786I-39370J0D01*
G01*
X32981120Y-16378659D02*
G75*
G03*
X32981120Y-16378659I-39370J0D01*
G01*
X33108120Y-16378659D02*
G75*
G03*
X33108120Y-16378659I-39370J0D01*
G01*
X33235120Y-16378659D02*
G75*
G03*
X33235120Y-16378659I-39370J0D01*
G01*
X33362120Y-16378659D02*
G75*
G03*
X33362120Y-16378659I-39370J0D01*
G01*
X33489120Y-16378659D02*
G75*
G03*
X33489120Y-16378659I-39370J0D01*
G01*
X33981120Y-8570400D02*
G75*
G03*
X33981120Y-8570400I-39370J0D01*
G01*
X34108120Y-8570400D02*
G75*
G03*
X34108120Y-8570400I-39370J0D01*
G01*
X34235120Y-8570400D02*
G75*
G03*
X34235120Y-8570400I-39370J0D01*
G01*
X34362120Y-8570400D02*
G75*
G03*
X34362120Y-8570400I-39370J0D01*
G01*
X34489120Y-8570400D02*
G75*
G03*
X34489120Y-8570400I-39370J0D01*
G01*
D13*
X5968500Y-11342559D02*
X5968500Y-11517559D01*
X5881000Y-11430059D02*
X6056000Y-11430059D01*
X6375500Y-9437559D02*
X6375500Y-9612559D01*
X6288000Y-9525059D02*
X6463000Y-9525059D01*
X6984500Y-11342559D02*
X6984500Y-11517559D01*
X6897000Y-11430059D02*
X7072000Y-11430059D01*
X7391500Y-9437559D02*
X7391500Y-9612559D01*
X7304000Y-9525059D02*
X7479000Y-9525059D01*
X8330000Y-15366559D02*
X8330000Y-15541559D01*
X8242500Y-15454059D02*
X8417500Y-15454059D01*
X8509375Y-11556559D02*
X8509375Y-11731559D01*
X8421875Y-11644059D02*
X8596875Y-11644059D01*
X8568125Y-13461559D02*
X8568125Y-13636559D01*
X8480625Y-13549059D02*
X8655625Y-13549059D01*
X8677500Y-9651559D02*
X8677500Y-9826559D01*
X8590000Y-9739059D02*
X8765000Y-9739059D01*
X9346000Y-15366559D02*
X9346000Y-15541559D01*
X9258500Y-15454059D02*
X9433500Y-15454059D01*
X9525375Y-11556559D02*
X9525375Y-11731559D01*
X9437875Y-11644059D02*
X9612875Y-11644059D01*
X9584125Y-13461559D02*
X9584125Y-13636559D01*
X9496625Y-13549059D02*
X9671625Y-13549059D01*
X9693500Y-9651559D02*
X9693500Y-9826559D01*
X9606000Y-9739059D02*
X9781000Y-9739059D01*
X10582500Y-9651559D02*
X10582500Y-9826559D01*
X10495000Y-9739059D02*
X10670000Y-9739059D01*
X10652500Y-11556559D02*
X10652500Y-11731559D01*
X10565000Y-11644059D02*
X10740000Y-11644059D01*
X11187500Y-13461559D02*
X11187500Y-13636559D01*
X11100000Y-13549059D02*
X11275000Y-13549059D01*
X11598500Y-9651559D02*
X11598500Y-9826559D01*
X11511000Y-9739059D02*
X11686000Y-9739059D01*
X11668500Y-11556559D02*
X11668500Y-11731559D01*
X11581000Y-11644059D02*
X11756000Y-11644059D01*
X12203500Y-13461559D02*
X12203500Y-13636559D01*
X12116000Y-13549059D02*
X12291000Y-13549059D01*
X12643601Y-9487940D02*
X12643601Y-9662940D01*
X12556101Y-9575440D02*
X12731101Y-9575440D01*
X12713601Y-11450940D02*
X12713601Y-11625940D01*
X12626101Y-11538440D02*
X12801101Y-11538440D01*
X12767601Y-15510940D02*
X12767601Y-15685940D01*
X12680101Y-15598440D02*
X12855101Y-15598440D01*
X13248601Y-13511940D02*
X13248601Y-13686940D01*
X13161101Y-13599440D02*
X13336101Y-13599440D01*
X13637399Y-9699178D02*
X13637399Y-9874178D01*
X13549899Y-9786678D02*
X13724899Y-9786678D01*
X13707399Y-11662178D02*
X13707399Y-11837178D01*
X13619899Y-11749678D02*
X13794899Y-11749678D01*
X13761399Y-15722178D02*
X13761399Y-15897178D01*
X13673899Y-15809678D02*
X13848899Y-15809678D01*
X14242399Y-13723178D02*
X14242399Y-13898178D01*
X14154899Y-13810678D02*
X14329899Y-13810678D01*
X14506972Y-9884012D02*
X14506972Y-10059012D01*
X14419472Y-9971512D02*
X14594472Y-9971512D01*
X14576972Y-11847012D02*
X14576972Y-12022012D01*
X14489472Y-11934512D02*
X14664472Y-11934512D01*
X15111972Y-13908012D02*
X15111972Y-14083012D01*
X15024472Y-13995512D02*
X15199472Y-13995512D01*
X15159761Y-15865728D02*
X15159761Y-16040728D01*
X15072261Y-15953228D02*
X15247261Y-15953228D01*
X15500770Y-10095250D02*
X15500770Y-10270250D01*
X15413270Y-10182750D02*
X15588270Y-10182750D01*
X15570770Y-12058250D02*
X15570770Y-12233250D01*
X15483270Y-12145750D02*
X15658270Y-12145750D01*
X16105770Y-14119250D02*
X16105770Y-14294250D01*
X16018270Y-14206750D02*
X16193270Y-14206750D01*
X16153559Y-16076967D02*
X16153559Y-16251967D01*
X16066059Y-16164467D02*
X16241059Y-16164467D01*
X16370343Y-10280084D02*
X16370343Y-10455084D01*
X16282843Y-10367584D02*
X16457843Y-10367584D01*
X16440343Y-12243084D02*
X16440343Y-12418084D01*
X16352843Y-12330584D02*
X16527843Y-12330584D01*
X16975343Y-14304084D02*
X16975343Y-14479084D01*
X16887843Y-14391584D02*
X17062843Y-14391584D01*
X17023132Y-16261800D02*
X17023132Y-16436800D01*
X16935632Y-16349300D02*
X17110632Y-16349300D01*
X17364141Y-10491322D02*
X17364141Y-10666322D01*
X17276641Y-10578822D02*
X17451641Y-10578822D01*
X17434141Y-12454322D02*
X17434141Y-12629322D01*
X17346641Y-12541822D02*
X17521641Y-12541822D01*
X17954817Y-16459836D02*
X17954817Y-16634836D01*
X17867317Y-16547336D02*
X18042317Y-16547336D01*
X17969141Y-14515322D02*
X17969141Y-14690322D01*
X17881641Y-14602822D02*
X18056641Y-14602822D01*
X18016930Y-16473038D02*
X18016930Y-16648038D01*
X17929430Y-16560538D02*
X18104430Y-16560538D01*
X18233715Y-10676156D02*
X18233715Y-10851156D01*
X18146215Y-10763656D02*
X18321215Y-10763656D01*
X18303715Y-12639155D02*
X18303715Y-12814155D01*
X18216215Y-12726655D02*
X18391215Y-12726655D01*
X18838715Y-14700155D02*
X18838715Y-14875155D01*
X18751215Y-14787655D02*
X18926215Y-14787655D01*
X18948615Y-16671074D02*
X18948615Y-16846074D01*
X18861115Y-16758574D02*
X19036115Y-16758574D01*
X19227513Y-10887394D02*
X19227513Y-11062394D01*
X19140013Y-10974894D02*
X19315013Y-10974894D01*
X19297513Y-12850394D02*
X19297513Y-13025394D01*
X19210013Y-12937894D02*
X19385013Y-12937894D01*
X19832513Y-14911394D02*
X19832513Y-15086394D01*
X19745013Y-14998894D02*
X19920013Y-14998894D01*
X21841488Y-11085394D02*
X21841488Y-11260394D01*
X21753988Y-11172894D02*
X21928988Y-11172894D01*
X22167488Y-14911394D02*
X22167488Y-15086394D01*
X22079988Y-14998894D02*
X22254988Y-14998894D01*
X22703487Y-12850393D02*
X22703487Y-13025393D01*
X22615987Y-12937893D02*
X22790987Y-12937893D01*
X22835285Y-10874156D02*
X22835285Y-11049156D01*
X22747785Y-10961656D02*
X22922785Y-10961656D01*
X23161285Y-14700155D02*
X23161285Y-14875155D01*
X23073785Y-14787655D02*
X23248785Y-14787655D01*
X23262323Y-16626238D02*
X23262323Y-16801238D01*
X23174823Y-16713738D02*
X23349823Y-16713738D01*
X23697285Y-12639155D02*
X23697285Y-12814155D01*
X23609785Y-12726655D02*
X23784785Y-12726655D01*
X23704859Y-10689322D02*
X23704859Y-10864322D01*
X23617359Y-10776822D02*
X23792359Y-10776822D01*
X24030859Y-14515322D02*
X24030859Y-14690322D01*
X23943359Y-14602822D02*
X24118359Y-14602822D01*
X24194009Y-16428202D02*
X24194009Y-16603202D01*
X24106509Y-16515702D02*
X24281509Y-16515702D01*
X24256121Y-16415000D02*
X24256121Y-16590000D01*
X24168621Y-16502500D02*
X24343621Y-16502500D01*
X24566859Y-12454322D02*
X24566859Y-12629322D01*
X24479359Y-12541822D02*
X24654359Y-12541822D01*
X24698657Y-10478084D02*
X24698657Y-10653084D01*
X24611157Y-10565584D02*
X24786157Y-10565584D01*
X25024657Y-14304084D02*
X25024657Y-14479084D01*
X24937157Y-14391584D02*
X25112157Y-14391584D01*
X25187807Y-16216964D02*
X25187807Y-16391964D01*
X25100307Y-16304464D02*
X25275307Y-16304464D01*
X25560657Y-12243084D02*
X25560657Y-12418084D01*
X25473157Y-12330584D02*
X25648157Y-12330584D01*
X25568230Y-10293250D02*
X25568230Y-10468250D01*
X25480730Y-10380750D02*
X25655730Y-10380750D01*
X25824459Y-16081639D02*
X25824459Y-16256639D01*
X25736959Y-16169139D02*
X25911959Y-16169139D01*
X25894230Y-14119250D02*
X25894230Y-14294250D01*
X25806730Y-14206750D02*
X25981730Y-14206750D01*
X26430230Y-12058250D02*
X26430230Y-12233250D01*
X26342730Y-12145750D02*
X26517730Y-12145750D01*
X26562028Y-10082012D02*
X26562028Y-10257012D01*
X26474528Y-10169512D02*
X26649528Y-10169512D01*
X26818257Y-15870401D02*
X26818257Y-16045401D01*
X26730757Y-15957901D02*
X26905757Y-15957901D01*
X26888028Y-13908012D02*
X26888028Y-14083012D01*
X26800528Y-13995512D02*
X26975528Y-13995512D01*
X27424028Y-11847012D02*
X27424028Y-12022012D01*
X27336528Y-11934512D02*
X27511528Y-11934512D01*
X27431601Y-9897178D02*
X27431601Y-10072178D01*
X27344101Y-9984678D02*
X27519101Y-9984678D01*
X27757601Y-13723178D02*
X27757601Y-13898178D01*
X27670101Y-13810678D02*
X27845101Y-13810678D01*
X28238601Y-15722178D02*
X28238601Y-15897178D01*
X28151101Y-15809678D02*
X28326101Y-15809678D01*
X28293601Y-11662178D02*
X28293601Y-11837178D01*
X28206101Y-11749678D02*
X28381101Y-11749678D01*
X28425399Y-9685940D02*
X28425399Y-9860940D01*
X28337899Y-9773440D02*
X28512899Y-9773440D01*
X28751399Y-13511940D02*
X28751399Y-13686940D01*
X28663899Y-13599440D02*
X28838899Y-13599440D01*
X29232399Y-15510940D02*
X29232399Y-15685940D01*
X29144899Y-15598440D02*
X29319899Y-15598440D01*
X29287399Y-11450940D02*
X29287399Y-11625940D01*
X29199899Y-11538440D02*
X29374899Y-11538440D01*
X29458000Y-9545559D02*
X29458000Y-9720559D01*
X29370500Y-9633059D02*
X29545500Y-9633059D01*
X29796500Y-13461559D02*
X29796500Y-13636559D01*
X29709000Y-13549059D02*
X29884000Y-13549059D01*
X30332500Y-11556559D02*
X30332500Y-11731559D01*
X30245000Y-11644059D02*
X30420000Y-11644059D01*
X30474000Y-9545559D02*
X30474000Y-9720559D01*
X30386500Y-9633059D02*
X30561500Y-9633059D01*
X30812500Y-13461559D02*
X30812500Y-13636559D01*
X30725000Y-13549059D02*
X30900000Y-13549059D01*
X31333500Y-9651559D02*
X31333500Y-9826559D01*
X31246000Y-9739059D02*
X31421000Y-9739059D01*
X31348500Y-11556559D02*
X31348500Y-11731559D01*
X31261000Y-11644059D02*
X31436000Y-11644059D01*
X31939625Y-13461559D02*
X31939625Y-13636559D01*
X31852125Y-13549059D02*
X32027125Y-13549059D01*
X32286000Y-9651559D02*
X32286000Y-9826559D01*
X32198500Y-9739059D02*
X32373500Y-9739059D01*
X32349500Y-9651559D02*
X32349500Y-9826559D01*
X32262000Y-9739059D02*
X32437000Y-9739059D01*
X32892125Y-13461559D02*
X32892125Y-13636559D01*
X32804625Y-13549059D02*
X32979625Y-13549059D01*
X32951875Y-11556559D02*
X32951875Y-11731559D01*
X32864375Y-11644059D02*
X33039375Y-11644059D01*
X32955625Y-13461559D02*
X32955625Y-13636559D01*
X32868125Y-13549059D02*
X33043125Y-13549059D01*
X33238450Y-15366559D02*
X33238450Y-15541559D01*
X33150950Y-15454059D02*
X33325950Y-15454059D01*
X33238500Y-9651559D02*
X33238500Y-9826559D01*
X33151000Y-9739059D02*
X33326000Y-9739059D01*
X33302000Y-9651559D02*
X33302000Y-9826559D01*
X33214500Y-9739059D02*
X33389500Y-9739059D01*
X33908125Y-13461559D02*
X33908125Y-13636559D01*
X33820625Y-13549059D02*
X33995625Y-13549059D01*
X33967875Y-11556559D02*
X33967875Y-11731559D01*
X33880375Y-11644059D02*
X34055375Y-11644059D01*
X34082750Y-13461559D02*
X34082750Y-13636559D01*
X33995250Y-13549059D02*
X34170250Y-13549059D01*
X34254450Y-15366559D02*
X34254450Y-15541559D01*
X34166950Y-15454059D02*
X34341950Y-15454059D01*
X34254500Y-9651559D02*
X34254500Y-9826559D01*
X34167000Y-9739059D02*
X34342000Y-9739059D01*
X35098750Y-13461559D02*
X35098750Y-13636559D01*
X35011250Y-13549059D02*
X35186250Y-13549059D01*
D14*
X15619197Y-16849848D02*
X15619197Y-16634319D01*
X15403669Y-16634319D01*
X15403669Y-16849848D01*
X15619197Y-16849848D01*
X17249647Y-17196410D02*
X17249647Y-16980882D01*
X17034119Y-16980882D01*
X17034119Y-17196410D01*
X17249647Y-17196410D01*
X19345940Y-17641991D02*
X19345940Y-17426463D01*
X19130411Y-17426463D01*
X19130411Y-17641991D01*
X19345940Y-17641991D01*
X19578861Y-17691500D02*
X19578861Y-17475972D01*
X19363333Y-17475972D01*
X19363333Y-17691500D01*
X19578861Y-17691500D01*
X23779291Y-17448628D02*
X23779291Y-17233100D01*
X23563763Y-17233100D01*
X23563763Y-17448628D01*
X23779291Y-17448628D01*
X26108505Y-16953538D02*
X26108505Y-16738010D01*
X25892977Y-16738010D01*
X25892977Y-16953538D01*
X26108505Y-16953538D01*
X31711139Y-9148323D02*
X31711139Y-8932795D01*
X31495611Y-8932795D01*
X31495611Y-9148323D01*
X31711139Y-9148323D01*
X32317264Y-12958323D02*
X32317264Y-12742795D01*
X32101736Y-12742795D01*
X32101736Y-12958323D01*
X32317264Y-12958323D01*
X34092389Y-9148323D02*
X34092389Y-8932795D01*
X33876861Y-8932795D01*
X33876861Y-9148323D01*
X34092389Y-9148323D01*
X34698514Y-12958323D02*
X34698514Y-12742795D01*
X34482986Y-12742795D01*
X34482986Y-12958323D01*
X34698514Y-12958323D01*
D15*
X6476500Y-11629449D02*
X6675890Y-11430059D01*
X6476500Y-11230669D01*
X6277110Y-11430059D01*
X6476500Y-11629449D01*
X6883500Y-9724449D02*
X7082890Y-9525059D01*
X6883500Y-9325669D01*
X6684110Y-9525059D01*
X6883500Y-9724449D01*
X8838000Y-15653449D02*
X9037390Y-15454059D01*
X8838000Y-15254669D01*
X8638610Y-15454059D01*
X8838000Y-15653449D01*
X9017375Y-11843449D02*
X9216765Y-11644059D01*
X9017375Y-11444669D01*
X8817985Y-11644059D01*
X9017375Y-11843449D01*
X9076125Y-13748449D02*
X9275515Y-13549059D01*
X9076125Y-13349669D01*
X8876735Y-13549059D01*
X9076125Y-13748449D01*
X9185500Y-9938449D02*
X9384890Y-9739059D01*
X9185500Y-9539669D01*
X8986110Y-9739059D01*
X9185500Y-9938449D01*
X11090500Y-9938449D02*
X11289890Y-9739059D01*
X11090500Y-9539669D01*
X10891110Y-9739059D01*
X11090500Y-9938449D01*
X11160500Y-11843449D02*
X11359890Y-11644059D01*
X11160500Y-11444669D01*
X10961110Y-11644059D01*
X11160500Y-11843449D01*
X11695500Y-13748449D02*
X11894890Y-13549059D01*
X11695500Y-13349669D01*
X11496110Y-13549059D01*
X11695500Y-13748449D01*
X13140500Y-9880449D02*
X13339890Y-9681059D01*
X13140500Y-9481669D01*
X12941110Y-9681059D01*
X13140500Y-9880449D01*
X13210500Y-11843449D02*
X13409890Y-11644059D01*
X13210500Y-11444669D01*
X13011110Y-11644059D01*
X13210500Y-11843449D01*
X13264500Y-15903449D02*
X13463890Y-15704059D01*
X13264500Y-15504669D01*
X13065110Y-15704059D01*
X13264500Y-15903449D01*
X13745500Y-13904449D02*
X13944890Y-13705059D01*
X13745500Y-13505669D01*
X13546110Y-13705059D01*
X13745500Y-13904449D01*
X15003871Y-10276521D02*
X15203261Y-10077131D01*
X15003871Y-9877741D01*
X14804481Y-10077131D01*
X15003871Y-10276521D01*
X15073871Y-12239521D02*
X15273261Y-12040131D01*
X15073871Y-11840741D01*
X14874481Y-12040131D01*
X15073871Y-12239521D01*
X15608871Y-14300521D02*
X15808261Y-14101131D01*
X15608871Y-13901741D01*
X15409481Y-14101131D01*
X15608871Y-14300521D01*
X15656660Y-16258238D02*
X15856050Y-16058848D01*
X15656660Y-15859458D01*
X15457270Y-16058848D01*
X15656660Y-16258238D01*
X15828290Y-15450776D02*
X16027680Y-15251386D01*
X15828290Y-15051996D01*
X15628900Y-15251386D01*
X15828290Y-15450776D01*
X16867242Y-10672593D02*
X17066632Y-10473203D01*
X16867242Y-10273813D01*
X16667852Y-10473203D01*
X16867242Y-10672593D01*
X16937242Y-12635593D02*
X17136632Y-12436203D01*
X16937242Y-12236813D01*
X16737852Y-12436203D01*
X16937242Y-12635593D01*
X17458740Y-15797339D02*
X17658130Y-15597949D01*
X17458740Y-15398559D01*
X17259350Y-15597949D01*
X17458740Y-15797339D01*
X17472242Y-14696593D02*
X17671632Y-14497203D01*
X17472242Y-14297813D01*
X17272852Y-14497203D01*
X17472242Y-14696593D01*
X17520031Y-16654309D02*
X17719421Y-16454919D01*
X17520031Y-16255529D01*
X17320641Y-16454919D01*
X17520031Y-16654309D01*
X18451716Y-16852345D02*
X18651106Y-16652955D01*
X18451716Y-16453565D01*
X18252326Y-16652955D01*
X18451716Y-16852345D01*
X18730614Y-11068665D02*
X18930004Y-10869275D01*
X18730614Y-10669885D01*
X18531224Y-10869275D01*
X18730614Y-11068665D01*
X18800614Y-13031664D02*
X19000004Y-12832274D01*
X18800614Y-12632884D01*
X18601224Y-12832274D01*
X18800614Y-13031664D01*
X19335614Y-15092664D02*
X19535004Y-14893274D01*
X19335614Y-14693884D01*
X19136224Y-14893274D01*
X19335614Y-15092664D01*
X19555033Y-16242920D02*
X19754423Y-16043530D01*
X19555033Y-15844140D01*
X19355643Y-16043530D01*
X19555033Y-16242920D01*
X19787954Y-16292429D02*
X19987344Y-16093039D01*
X19787954Y-15893649D01*
X19588564Y-16093039D01*
X19787954Y-16292429D01*
X22338387Y-11266665D02*
X22537776Y-11067275D01*
X22338387Y-10867885D01*
X22138997Y-11067275D01*
X22338387Y-11266665D01*
X22664386Y-15092664D02*
X22863776Y-14893274D01*
X22664386Y-14693884D01*
X22464996Y-14893274D01*
X22664386Y-15092664D01*
X23200386Y-13031664D02*
X23399776Y-12832274D01*
X23200386Y-12632884D01*
X23000996Y-12832274D01*
X23200386Y-13031664D01*
X23354670Y-16049557D02*
X23554060Y-15850167D01*
X23354670Y-15650777D01*
X23155280Y-15850167D01*
X23354670Y-16049557D01*
X23759222Y-16807509D02*
X23958612Y-16608119D01*
X23759222Y-16408729D01*
X23559832Y-16608119D01*
X23759222Y-16807509D01*
X24201758Y-10870593D02*
X24401148Y-10671203D01*
X24201758Y-10471813D01*
X24002368Y-10671203D01*
X24201758Y-10870593D01*
X24527758Y-14696593D02*
X24727148Y-14497203D01*
X24527758Y-14297813D01*
X24328368Y-14497203D01*
X24527758Y-14696593D01*
X24690908Y-16609473D02*
X24890298Y-16410083D01*
X24690908Y-16210693D01*
X24491518Y-16410083D01*
X24690908Y-16609473D01*
X25063758Y-12635593D02*
X25263148Y-12436203D01*
X25063758Y-12236813D01*
X24864368Y-12436203D01*
X25063758Y-12635593D01*
X25683884Y-15554467D02*
X25883274Y-15355077D01*
X25683884Y-15155687D01*
X25484494Y-15355077D01*
X25683884Y-15554467D01*
X26065129Y-10474521D02*
X26264519Y-10275131D01*
X26065129Y-10075741D01*
X25865739Y-10275131D01*
X26065129Y-10474521D01*
X26321358Y-16262910D02*
X26520748Y-16063520D01*
X26321358Y-15864130D01*
X26121968Y-16063520D01*
X26321358Y-16262910D01*
X26391129Y-14300521D02*
X26590519Y-14101131D01*
X26391129Y-13901741D01*
X26191739Y-14101131D01*
X26391129Y-14300521D01*
X26927129Y-12239521D02*
X27126519Y-12040131D01*
X26927129Y-11840741D01*
X26727739Y-12040131D01*
X26927129Y-12239521D01*
X27928500Y-10078449D02*
X28127890Y-9879059D01*
X27928500Y-9679669D01*
X27729110Y-9879059D01*
X27928500Y-10078449D01*
X28254500Y-13904449D02*
X28453890Y-13705059D01*
X28254500Y-13505669D01*
X28055110Y-13705059D01*
X28254500Y-13904449D01*
X28735500Y-15903449D02*
X28934890Y-15704059D01*
X28735500Y-15504669D01*
X28536110Y-15704059D01*
X28735500Y-15903449D01*
X28790500Y-11843449D02*
X28989890Y-11644059D01*
X28790500Y-11444669D01*
X28591110Y-11644059D01*
X28790500Y-11843449D01*
X29966000Y-9832449D02*
X30165390Y-9633059D01*
X29966000Y-9433669D01*
X29766610Y-9633059D01*
X29966000Y-9832449D01*
X30304500Y-13748449D02*
X30503890Y-13549059D01*
X30304500Y-13349669D01*
X30105110Y-13549059D01*
X30304500Y-13748449D01*
X30840500Y-11843449D02*
X31039890Y-11644059D01*
X30840500Y-11444669D01*
X30641110Y-11644059D01*
X30840500Y-11843449D01*
X31603375Y-10763949D02*
X31802765Y-10564559D01*
X31603375Y-10365169D01*
X31403985Y-10564559D01*
X31603375Y-10763949D01*
X31841500Y-9938449D02*
X32040890Y-9739059D01*
X31841500Y-9539669D01*
X31642110Y-9739059D01*
X31841500Y-9938449D01*
X32209500Y-14573949D02*
X32408890Y-14374559D01*
X32209500Y-14175169D01*
X32010110Y-14374559D01*
X32209500Y-14573949D01*
X32447625Y-13748449D02*
X32647015Y-13549059D01*
X32447625Y-13349669D01*
X32248235Y-13549059D01*
X32447625Y-13748449D01*
X32794000Y-9938449D02*
X32993390Y-9739059D01*
X32794000Y-9539669D01*
X32594610Y-9739059D01*
X32794000Y-9938449D01*
X33400125Y-13748449D02*
X33599515Y-13549059D01*
X33400125Y-13349669D01*
X33200735Y-13549059D01*
X33400125Y-13748449D01*
X33459875Y-11843449D02*
X33659265Y-11644059D01*
X33459875Y-11444669D01*
X33260485Y-11644059D01*
X33459875Y-11843449D01*
X33746450Y-15653449D02*
X33945840Y-15454059D01*
X33746450Y-15254669D01*
X33547060Y-15454059D01*
X33746450Y-15653449D01*
X33746500Y-9938449D02*
X33945890Y-9739059D01*
X33746500Y-9539669D01*
X33547110Y-9739059D01*
X33746500Y-9938449D01*
X33984625Y-10763949D02*
X34184015Y-10564559D01*
X33984625Y-10365169D01*
X33785235Y-10564559D01*
X33984625Y-10763949D01*
X34590750Y-13748449D02*
X34790140Y-13549059D01*
X34590750Y-13349669D01*
X34391360Y-13549059D01*
X34590750Y-13748449D01*
X34590750Y-14573949D02*
X34790140Y-14374559D01*
X34590750Y-14175169D01*
X34391360Y-14374559D01*
X34590750Y-14573949D01*
D10*
X5819119Y-19524535D02*
X5819119Y-19324535D01*
X5866738Y-19324535D01*
X5895310Y-19334059D01*
X5914357Y-19353107D01*
X5923881Y-19372154D01*
X5933405Y-19410250D01*
X5933405Y-19438821D01*
X5923881Y-19476916D01*
X5914357Y-19495964D01*
X5895310Y-19515012D01*
X5866738Y-19524535D01*
X5819119Y-19524535D01*
X6019119Y-19524535D02*
X6019119Y-19391202D01*
X6019119Y-19429297D02*
X6028643Y-19410250D01*
X6038167Y-19400726D01*
X6057214Y-19391202D01*
X6076262Y-19391202D01*
X6142929Y-19524535D02*
X6142929Y-19391202D01*
X6142929Y-19324535D02*
X6133405Y-19334059D01*
X6142929Y-19343583D01*
X6152452Y-19334059D01*
X6142929Y-19324535D01*
X6142929Y-19343583D01*
X6266738Y-19524535D02*
X6247690Y-19515012D01*
X6238167Y-19495964D01*
X6238167Y-19324535D01*
X6371500Y-19524535D02*
X6352452Y-19515012D01*
X6342929Y-19495964D01*
X6342929Y-19324535D01*
X6600071Y-19524535D02*
X6600071Y-19324535D01*
X6666738Y-19467393D01*
X6733405Y-19324535D01*
X6733405Y-19524535D01*
X6914357Y-19524535D02*
X6914357Y-19419773D01*
X6904833Y-19400726D01*
X6885786Y-19391202D01*
X6847690Y-19391202D01*
X6828643Y-19400726D01*
X6914357Y-19515012D02*
X6895310Y-19524535D01*
X6847690Y-19524535D01*
X6828643Y-19515012D01*
X6819119Y-19495964D01*
X6819119Y-19476916D01*
X6828643Y-19457869D01*
X6847690Y-19448345D01*
X6895310Y-19448345D01*
X6914357Y-19438821D01*
X7009595Y-19391202D02*
X7009595Y-19591202D01*
X7009595Y-19400726D02*
X7028643Y-19391202D01*
X7066738Y-19391202D01*
X7085786Y-19400726D01*
X7095310Y-19410250D01*
X7104833Y-19429297D01*
X7104833Y-19486440D01*
X7095310Y-19505488D01*
X7085786Y-19515012D01*
X7066738Y-19524535D01*
X7028643Y-19524535D01*
X7009595Y-19515012D01*
X7190548Y-19505488D02*
X7200071Y-19515012D01*
X7190548Y-19524535D01*
X7181024Y-19515012D01*
X7190548Y-19505488D01*
X7190548Y-19524535D01*
X7190548Y-19400726D02*
X7200071Y-19410250D01*
X7190548Y-19419773D01*
X7181024Y-19410250D01*
X7190548Y-19400726D01*
X7190548Y-19419773D01*
D11*
X5496500Y-19821559D02*
X5561500Y-19886559D01*
X5561500Y-19821559D02*
X5496500Y-19886559D01*
D10*
X5857214Y-19744535D02*
X5876262Y-19744535D01*
X5895310Y-19754059D01*
X5904833Y-19763583D01*
X5914357Y-19782631D01*
X5923881Y-19820726D01*
X5923881Y-19868345D01*
X5914357Y-19906440D01*
X5904833Y-19925488D01*
X5895310Y-19935012D01*
X5876262Y-19944535D01*
X5857214Y-19944535D01*
X5838167Y-19935012D01*
X5828643Y-19925488D01*
X5819119Y-19906440D01*
X5809595Y-19868345D01*
X5809595Y-19820726D01*
X5819119Y-19782631D01*
X5828643Y-19763583D01*
X5838167Y-19754059D01*
X5857214Y-19744535D01*
X6009595Y-19925488D02*
X6019119Y-19935012D01*
X6009595Y-19944535D01*
X6000071Y-19935012D01*
X6009595Y-19925488D01*
X6009595Y-19944535D01*
X6190548Y-19744535D02*
X6152452Y-19744535D01*
X6133405Y-19754059D01*
X6123881Y-19763583D01*
X6104833Y-19792154D01*
X6095310Y-19830250D01*
X6095310Y-19906440D01*
X6104833Y-19925488D01*
X6114357Y-19935012D01*
X6133405Y-19944535D01*
X6171500Y-19944535D01*
X6190548Y-19935012D01*
X6200071Y-19925488D01*
X6209595Y-19906440D01*
X6209595Y-19858821D01*
X6200071Y-19839773D01*
X6190548Y-19830250D01*
X6171500Y-19820726D01*
X6133405Y-19820726D01*
X6114357Y-19830250D01*
X6104833Y-19839773D01*
X6095310Y-19858821D01*
X6390548Y-19744535D02*
X6295310Y-19744535D01*
X6285786Y-19839773D01*
X6295310Y-19830250D01*
X6314357Y-19820726D01*
X6361976Y-19820726D01*
X6381024Y-19830250D01*
X6390548Y-19839773D01*
X6400071Y-19858821D01*
X6400071Y-19906440D01*
X6390548Y-19925488D01*
X6381024Y-19935012D01*
X6361976Y-19944535D01*
X6314357Y-19944535D01*
X6295310Y-19935012D01*
X6285786Y-19925488D01*
X6523881Y-19744535D02*
X6542929Y-19744535D01*
X6561976Y-19754059D01*
X6571500Y-19763583D01*
X6581024Y-19782631D01*
X6590548Y-19820726D01*
X6590548Y-19868345D01*
X6581024Y-19906440D01*
X6571500Y-19925488D01*
X6561976Y-19935012D01*
X6542929Y-19944535D01*
X6523881Y-19944535D01*
X6504833Y-19935012D01*
X6495310Y-19925488D01*
X6485786Y-19906440D01*
X6476262Y-19868345D01*
X6476262Y-19820726D01*
X6485786Y-19782631D01*
X6495310Y-19763583D01*
X6504833Y-19754059D01*
X6523881Y-19744535D01*
X6676262Y-19944535D02*
X6676262Y-19811202D01*
X6676262Y-19830250D02*
X6685786Y-19820726D01*
X6704833Y-19811202D01*
X6733405Y-19811202D01*
X6752452Y-19820726D01*
X6761976Y-19839773D01*
X6761976Y-19944535D01*
X6761976Y-19839773D02*
X6771500Y-19820726D01*
X6790548Y-19811202D01*
X6819119Y-19811202D01*
X6838167Y-19820726D01*
X6847690Y-19839773D01*
X6847690Y-19944535D01*
X6942929Y-19944535D02*
X6942929Y-19811202D01*
X6942929Y-19830250D02*
X6952452Y-19820726D01*
X6971500Y-19811202D01*
X7000071Y-19811202D01*
X7019119Y-19820726D01*
X7028643Y-19839773D01*
X7028643Y-19944535D01*
X7028643Y-19839773D02*
X7038167Y-19820726D01*
X7057214Y-19811202D01*
X7085786Y-19811202D01*
X7104833Y-19820726D01*
X7114357Y-19839773D01*
X7114357Y-19944535D01*
X7504833Y-19735012D02*
X7333405Y-19992154D01*
X7761976Y-19744535D02*
X7781024Y-19744535D01*
X7800071Y-19754059D01*
X7809595Y-19763583D01*
X7819119Y-19782631D01*
X7828643Y-19820726D01*
X7828643Y-19868345D01*
X7819119Y-19906440D01*
X7809595Y-19925488D01*
X7800071Y-19935012D01*
X7781024Y-19944535D01*
X7761976Y-19944535D01*
X7742929Y-19935012D01*
X7733405Y-19925488D01*
X7723881Y-19906440D01*
X7714357Y-19868345D01*
X7714357Y-19820726D01*
X7723881Y-19782631D01*
X7733405Y-19763583D01*
X7742929Y-19754059D01*
X7761976Y-19744535D01*
X7914357Y-19925488D02*
X7923881Y-19935012D01*
X7914357Y-19944535D01*
X7904833Y-19935012D01*
X7914357Y-19925488D01*
X7914357Y-19944535D01*
X8047690Y-19744535D02*
X8066738Y-19744535D01*
X8085786Y-19754059D01*
X8095310Y-19763583D01*
X8104833Y-19782631D01*
X8114357Y-19820726D01*
X8114357Y-19868345D01*
X8104833Y-19906440D01*
X8095310Y-19925488D01*
X8085786Y-19935012D01*
X8066738Y-19944535D01*
X8047690Y-19944535D01*
X8028643Y-19935012D01*
X8019119Y-19925488D01*
X8009595Y-19906440D01*
X8000071Y-19868345D01*
X8000071Y-19820726D01*
X8009595Y-19782631D01*
X8019119Y-19763583D01*
X8028643Y-19754059D01*
X8047690Y-19744535D01*
X8190548Y-19763583D02*
X8200071Y-19754059D01*
X8219119Y-19744535D01*
X8266738Y-19744535D01*
X8285786Y-19754059D01*
X8295310Y-19763583D01*
X8304833Y-19782631D01*
X8304833Y-19801678D01*
X8295310Y-19830250D01*
X8181024Y-19944535D01*
X8304833Y-19944535D01*
X8485786Y-19744535D02*
X8390548Y-19744535D01*
X8381024Y-19839773D01*
X8390548Y-19830250D01*
X8409595Y-19820726D01*
X8457214Y-19820726D01*
X8476262Y-19830250D01*
X8485786Y-19839773D01*
X8495310Y-19858821D01*
X8495310Y-19906440D01*
X8485786Y-19925488D01*
X8476262Y-19935012D01*
X8457214Y-19944535D01*
X8409595Y-19944535D01*
X8390548Y-19935012D01*
X8381024Y-19925488D01*
X8666738Y-19744535D02*
X8628643Y-19744535D01*
X8609595Y-19754059D01*
X8600072Y-19763583D01*
X8581024Y-19792154D01*
X8571500Y-19830250D01*
X8571500Y-19906440D01*
X8581024Y-19925488D01*
X8590548Y-19935012D01*
X8609595Y-19944535D01*
X8647691Y-19944535D01*
X8666738Y-19935012D01*
X8676262Y-19925488D01*
X8685786Y-19906440D01*
X8685786Y-19858821D01*
X8676262Y-19839773D01*
X8666738Y-19830250D01*
X8647691Y-19820726D01*
X8609595Y-19820726D01*
X8590548Y-19830250D01*
X8581024Y-19839773D01*
X8571500Y-19858821D01*
X8761976Y-19744535D02*
X8761976Y-19782631D01*
X8838167Y-19744535D02*
X8838167Y-19782631D01*
X9133405Y-20020726D02*
X9123881Y-20011202D01*
X9104833Y-19982631D01*
X9095310Y-19963583D01*
X9085786Y-19935012D01*
X9076262Y-19887393D01*
X9076262Y-19849297D01*
X9085786Y-19801678D01*
X9095310Y-19773107D01*
X9104833Y-19754059D01*
X9123881Y-19725488D01*
X9133405Y-19715964D01*
X9200072Y-19763583D02*
X9209595Y-19754059D01*
X9228643Y-19744535D01*
X9276262Y-19744535D01*
X9295310Y-19754059D01*
X9304833Y-19763583D01*
X9314357Y-19782631D01*
X9314357Y-19801678D01*
X9304833Y-19830250D01*
X9190548Y-19944535D01*
X9314357Y-19944535D01*
X9552452Y-19944535D02*
X9552452Y-19744535D01*
X9638167Y-19944535D02*
X9638167Y-19839773D01*
X9628643Y-19820726D01*
X9609595Y-19811202D01*
X9581024Y-19811202D01*
X9561976Y-19820726D01*
X9552452Y-19830250D01*
X9761976Y-19944535D02*
X9742929Y-19935012D01*
X9733405Y-19925488D01*
X9723881Y-19906440D01*
X9723881Y-19849297D01*
X9733405Y-19830250D01*
X9742929Y-19820726D01*
X9761976Y-19811202D01*
X9790548Y-19811202D01*
X9809595Y-19820726D01*
X9819119Y-19830250D01*
X9828643Y-19849297D01*
X9828643Y-19906440D01*
X9819119Y-19925488D01*
X9809595Y-19935012D01*
X9790548Y-19944535D01*
X9761976Y-19944535D01*
X9942929Y-19944535D02*
X9923881Y-19935012D01*
X9914357Y-19915964D01*
X9914357Y-19744535D01*
X10095310Y-19935012D02*
X10076262Y-19944535D01*
X10038167Y-19944535D01*
X10019119Y-19935012D01*
X10009595Y-19915964D01*
X10009595Y-19839773D01*
X10019119Y-19820726D01*
X10038167Y-19811202D01*
X10076262Y-19811202D01*
X10095310Y-19820726D01*
X10104833Y-19839773D01*
X10104833Y-19858821D01*
X10009595Y-19877869D01*
X10181024Y-19935012D02*
X10200072Y-19944535D01*
X10238167Y-19944535D01*
X10257214Y-19935012D01*
X10266738Y-19915964D01*
X10266738Y-19906440D01*
X10257214Y-19887393D01*
X10238167Y-19877869D01*
X10209595Y-19877869D01*
X10190548Y-19868345D01*
X10181024Y-19849297D01*
X10181024Y-19839773D01*
X10190548Y-19820726D01*
X10209595Y-19811202D01*
X10238167Y-19811202D01*
X10257214Y-19820726D01*
X10333405Y-20020726D02*
X10342929Y-20011202D01*
X10361976Y-19982631D01*
X10371500Y-19963583D01*
X10381024Y-19935012D01*
X10390548Y-19887393D01*
X10390548Y-19849297D01*
X10381024Y-19801678D01*
X10371500Y-19773107D01*
X10361976Y-19754059D01*
X10342929Y-19725488D01*
X10333405Y-19715964D01*
X10695310Y-20020726D02*
X10685786Y-20011202D01*
X10666738Y-19982631D01*
X10657214Y-19963583D01*
X10647691Y-19935012D01*
X10638167Y-19887393D01*
X10638167Y-19849297D01*
X10647691Y-19801678D01*
X10657214Y-19773107D01*
X10666738Y-19754059D01*
X10685786Y-19725488D01*
X10695310Y-19715964D01*
X10771500Y-19811202D02*
X10771500Y-19944535D01*
X10771500Y-19830250D02*
X10781024Y-19820726D01*
X10800072Y-19811202D01*
X10828643Y-19811202D01*
X10847691Y-19820726D01*
X10857214Y-19839773D01*
X10857214Y-19944535D01*
X10981024Y-19944535D02*
X10961976Y-19935012D01*
X10952452Y-19925488D01*
X10942929Y-19906440D01*
X10942929Y-19849297D01*
X10952452Y-19830250D01*
X10961976Y-19820726D01*
X10981024Y-19811202D01*
X11009595Y-19811202D01*
X11028643Y-19820726D01*
X11038167Y-19830250D01*
X11047691Y-19849297D01*
X11047691Y-19906440D01*
X11038167Y-19925488D01*
X11028643Y-19935012D01*
X11009595Y-19944535D01*
X10981024Y-19944535D01*
X11104833Y-19811202D02*
X11181024Y-19811202D01*
X11133405Y-19744535D02*
X11133405Y-19915964D01*
X11142929Y-19935012D01*
X11161976Y-19944535D01*
X11181024Y-19944535D01*
X11400071Y-19811202D02*
X11400071Y-20011202D01*
X11400071Y-19820726D02*
X11419119Y-19811202D01*
X11457214Y-19811202D01*
X11476262Y-19820726D01*
X11485786Y-19830250D01*
X11495310Y-19849297D01*
X11495310Y-19906440D01*
X11485786Y-19925488D01*
X11476262Y-19935012D01*
X11457214Y-19944535D01*
X11419119Y-19944535D01*
X11400071Y-19935012D01*
X11609595Y-19944535D02*
X11590548Y-19935012D01*
X11581024Y-19915964D01*
X11581024Y-19744535D01*
X11771500Y-19944535D02*
X11771500Y-19839773D01*
X11761976Y-19820726D01*
X11742929Y-19811202D01*
X11704833Y-19811202D01*
X11685786Y-19820726D01*
X11771500Y-19935012D02*
X11752452Y-19944535D01*
X11704833Y-19944535D01*
X11685786Y-19935012D01*
X11676262Y-19915964D01*
X11676262Y-19896916D01*
X11685786Y-19877869D01*
X11704833Y-19868345D01*
X11752452Y-19868345D01*
X11771500Y-19858821D01*
X11838167Y-19811202D02*
X11914357Y-19811202D01*
X11866738Y-19744535D02*
X11866738Y-19915964D01*
X11876262Y-19935012D01*
X11895310Y-19944535D01*
X11914357Y-19944535D01*
X12057214Y-19935012D02*
X12038167Y-19944535D01*
X12000071Y-19944535D01*
X11981024Y-19935012D01*
X11971500Y-19915964D01*
X11971500Y-19839773D01*
X11981024Y-19820726D01*
X12000071Y-19811202D01*
X12038167Y-19811202D01*
X12057214Y-19820726D01*
X12066738Y-19839773D01*
X12066738Y-19858821D01*
X11971500Y-19877869D01*
X12238167Y-19944535D02*
X12238167Y-19744535D01*
X12238167Y-19935012D02*
X12219119Y-19944535D01*
X12181024Y-19944535D01*
X12161976Y-19935012D01*
X12152452Y-19925488D01*
X12142929Y-19906440D01*
X12142929Y-19849297D01*
X12152452Y-19830250D01*
X12161976Y-19820726D01*
X12181024Y-19811202D01*
X12219119Y-19811202D01*
X12238167Y-19820726D01*
X12314357Y-20020726D02*
X12323881Y-20011202D01*
X12342929Y-19982631D01*
X12352452Y-19963583D01*
X12361976Y-19935012D01*
X12371500Y-19887393D01*
X12371500Y-19849297D01*
X12361976Y-19801678D01*
X12352452Y-19773107D01*
X12342929Y-19754059D01*
X12323881Y-19725488D01*
X12314357Y-19715964D01*
D12*
X5561500Y-20118059D02*
G75*
G03*
X5561500Y-20118059I-39370J0D01*
G01*
D10*
X5857214Y-20008535D02*
X5876262Y-20008535D01*
X5895310Y-20018059D01*
X5904833Y-20027583D01*
X5914357Y-20046631D01*
X5923881Y-20084726D01*
X5923881Y-20132345D01*
X5914357Y-20170440D01*
X5904833Y-20189488D01*
X5895310Y-20199012D01*
X5876262Y-20208535D01*
X5857214Y-20208535D01*
X5838167Y-20199012D01*
X5828643Y-20189488D01*
X5819119Y-20170440D01*
X5809595Y-20132345D01*
X5809595Y-20084726D01*
X5819119Y-20046631D01*
X5828643Y-20027583D01*
X5838167Y-20018059D01*
X5857214Y-20008535D01*
X6009595Y-20189488D02*
X6019119Y-20199012D01*
X6009595Y-20208535D01*
X6000071Y-20199012D01*
X6009595Y-20189488D01*
X6009595Y-20208535D01*
X6085786Y-20008535D02*
X6219119Y-20008535D01*
X6133405Y-20208535D01*
X6323881Y-20094250D02*
X6304833Y-20084726D01*
X6295310Y-20075202D01*
X6285786Y-20056154D01*
X6285786Y-20046631D01*
X6295310Y-20027583D01*
X6304833Y-20018059D01*
X6323881Y-20008535D01*
X6361976Y-20008535D01*
X6381024Y-20018059D01*
X6390548Y-20027583D01*
X6400071Y-20046631D01*
X6400071Y-20056154D01*
X6390548Y-20075202D01*
X6381024Y-20084726D01*
X6361976Y-20094250D01*
X6323881Y-20094250D01*
X6304833Y-20103773D01*
X6295310Y-20113297D01*
X6285786Y-20132345D01*
X6285786Y-20170440D01*
X6295310Y-20189488D01*
X6304833Y-20199012D01*
X6323881Y-20208535D01*
X6361976Y-20208535D01*
X6381024Y-20199012D01*
X6390548Y-20189488D01*
X6400071Y-20170440D01*
X6400071Y-20132345D01*
X6390548Y-20113297D01*
X6381024Y-20103773D01*
X6361976Y-20094250D01*
X6466738Y-20008535D02*
X6600071Y-20008535D01*
X6514357Y-20208535D01*
X6676262Y-20208535D02*
X6676262Y-20075202D01*
X6676262Y-20094250D02*
X6685786Y-20084726D01*
X6704833Y-20075202D01*
X6733405Y-20075202D01*
X6752452Y-20084726D01*
X6761976Y-20103773D01*
X6761976Y-20208535D01*
X6761976Y-20103773D02*
X6771500Y-20084726D01*
X6790548Y-20075202D01*
X6819119Y-20075202D01*
X6838167Y-20084726D01*
X6847690Y-20103773D01*
X6847690Y-20208535D01*
X6942929Y-20208535D02*
X6942929Y-20075202D01*
X6942929Y-20094250D02*
X6952452Y-20084726D01*
X6971500Y-20075202D01*
X7000071Y-20075202D01*
X7019119Y-20084726D01*
X7028643Y-20103773D01*
X7028643Y-20208535D01*
X7028643Y-20103773D02*
X7038167Y-20084726D01*
X7057214Y-20075202D01*
X7085786Y-20075202D01*
X7104833Y-20084726D01*
X7114357Y-20103773D01*
X7114357Y-20208535D01*
X7504833Y-19999012D02*
X7333405Y-20256154D01*
X7761976Y-20008535D02*
X7781024Y-20008535D01*
X7800071Y-20018059D01*
X7809595Y-20027583D01*
X7819119Y-20046631D01*
X7828643Y-20084726D01*
X7828643Y-20132345D01*
X7819119Y-20170440D01*
X7809595Y-20189488D01*
X7800071Y-20199012D01*
X7781024Y-20208535D01*
X7761976Y-20208535D01*
X7742929Y-20199012D01*
X7733405Y-20189488D01*
X7723881Y-20170440D01*
X7714357Y-20132345D01*
X7714357Y-20084726D01*
X7723881Y-20046631D01*
X7733405Y-20027583D01*
X7742929Y-20018059D01*
X7761976Y-20008535D01*
X7914357Y-20189488D02*
X7923881Y-20199012D01*
X7914357Y-20208535D01*
X7904833Y-20199012D01*
X7914357Y-20189488D01*
X7914357Y-20208535D01*
X8047690Y-20008535D02*
X8066738Y-20008535D01*
X8085786Y-20018059D01*
X8095310Y-20027583D01*
X8104833Y-20046631D01*
X8114357Y-20084726D01*
X8114357Y-20132345D01*
X8104833Y-20170440D01*
X8095310Y-20189488D01*
X8085786Y-20199012D01*
X8066738Y-20208535D01*
X8047690Y-20208535D01*
X8028643Y-20199012D01*
X8019119Y-20189488D01*
X8009595Y-20170440D01*
X8000071Y-20132345D01*
X8000071Y-20084726D01*
X8009595Y-20046631D01*
X8019119Y-20027583D01*
X8028643Y-20018059D01*
X8047690Y-20008535D01*
X8181024Y-20008535D02*
X8304833Y-20008535D01*
X8238167Y-20084726D01*
X8266738Y-20084726D01*
X8285786Y-20094250D01*
X8295310Y-20103773D01*
X8304833Y-20122821D01*
X8304833Y-20170440D01*
X8295310Y-20189488D01*
X8285786Y-20199012D01*
X8266738Y-20208535D01*
X8209595Y-20208535D01*
X8190548Y-20199012D01*
X8181024Y-20189488D01*
X8495310Y-20208535D02*
X8381024Y-20208535D01*
X8438167Y-20208535D02*
X8438167Y-20008535D01*
X8419119Y-20037107D01*
X8400072Y-20056154D01*
X8381024Y-20065678D01*
X8619119Y-20008535D02*
X8638167Y-20008535D01*
X8657214Y-20018059D01*
X8666738Y-20027583D01*
X8676262Y-20046631D01*
X8685786Y-20084726D01*
X8685786Y-20132345D01*
X8676262Y-20170440D01*
X8666738Y-20189488D01*
X8657214Y-20199012D01*
X8638167Y-20208535D01*
X8619119Y-20208535D01*
X8600072Y-20199012D01*
X8590548Y-20189488D01*
X8581024Y-20170440D01*
X8571500Y-20132345D01*
X8571500Y-20084726D01*
X8581024Y-20046631D01*
X8590548Y-20027583D01*
X8600072Y-20018059D01*
X8619119Y-20008535D01*
X8761976Y-20008535D02*
X8761976Y-20046631D01*
X8838167Y-20008535D02*
X8838167Y-20046631D01*
X9133405Y-20284726D02*
X9123881Y-20275202D01*
X9104833Y-20246631D01*
X9095310Y-20227583D01*
X9085786Y-20199012D01*
X9076262Y-20151393D01*
X9076262Y-20113297D01*
X9085786Y-20065678D01*
X9095310Y-20037107D01*
X9104833Y-20018059D01*
X9123881Y-19989488D01*
X9133405Y-19979964D01*
X9295310Y-20075202D02*
X9295310Y-20208535D01*
X9247691Y-19999012D02*
X9200072Y-20141869D01*
X9323881Y-20141869D01*
X9495310Y-20008535D02*
X9400072Y-20008535D01*
X9390548Y-20103773D01*
X9400072Y-20094250D01*
X9419119Y-20084726D01*
X9466738Y-20084726D01*
X9485786Y-20094250D01*
X9495310Y-20103773D01*
X9504833Y-20122821D01*
X9504833Y-20170440D01*
X9495310Y-20189488D01*
X9485786Y-20199012D01*
X9466738Y-20208535D01*
X9419119Y-20208535D01*
X9400072Y-20199012D01*
X9390548Y-20189488D01*
X9742929Y-20208535D02*
X9742929Y-20008535D01*
X9828643Y-20208535D02*
X9828643Y-20103773D01*
X9819119Y-20084726D01*
X9800072Y-20075202D01*
X9771500Y-20075202D01*
X9752452Y-20084726D01*
X9742929Y-20094250D01*
X9952452Y-20208535D02*
X9933405Y-20199012D01*
X9923881Y-20189488D01*
X9914357Y-20170440D01*
X9914357Y-20113297D01*
X9923881Y-20094250D01*
X9933405Y-20084726D01*
X9952452Y-20075202D01*
X9981024Y-20075202D01*
X10000072Y-20084726D01*
X10009595Y-20094250D01*
X10019119Y-20113297D01*
X10019119Y-20170440D01*
X10009595Y-20189488D01*
X10000072Y-20199012D01*
X9981024Y-20208535D01*
X9952452Y-20208535D01*
X10133405Y-20208535D02*
X10114357Y-20199012D01*
X10104833Y-20179964D01*
X10104833Y-20008535D01*
X10285786Y-20199012D02*
X10266738Y-20208535D01*
X10228643Y-20208535D01*
X10209595Y-20199012D01*
X10200072Y-20179964D01*
X10200072Y-20103773D01*
X10209595Y-20084726D01*
X10228643Y-20075202D01*
X10266738Y-20075202D01*
X10285786Y-20084726D01*
X10295310Y-20103773D01*
X10295310Y-20122821D01*
X10200072Y-20141869D01*
X10371500Y-20199012D02*
X10390548Y-20208535D01*
X10428643Y-20208535D01*
X10447691Y-20199012D01*
X10457214Y-20179964D01*
X10457214Y-20170440D01*
X10447691Y-20151393D01*
X10428643Y-20141869D01*
X10400072Y-20141869D01*
X10381024Y-20132345D01*
X10371500Y-20113297D01*
X10371500Y-20103773D01*
X10381024Y-20084726D01*
X10400072Y-20075202D01*
X10428643Y-20075202D01*
X10447691Y-20084726D01*
X10523881Y-20284726D02*
X10533405Y-20275202D01*
X10552452Y-20246631D01*
X10561976Y-20227583D01*
X10571500Y-20199012D01*
X10581024Y-20151393D01*
X10581024Y-20113297D01*
X10571500Y-20065678D01*
X10561976Y-20037107D01*
X10552452Y-20018059D01*
X10533405Y-19989488D01*
X10523881Y-19979964D01*
X10885786Y-20284726D02*
X10876262Y-20275202D01*
X10857214Y-20246631D01*
X10847691Y-20227583D01*
X10838167Y-20199012D01*
X10828643Y-20151393D01*
X10828643Y-20113297D01*
X10838167Y-20065678D01*
X10847691Y-20037107D01*
X10857214Y-20018059D01*
X10876262Y-19989488D01*
X10885786Y-19979964D01*
X10961976Y-20075202D02*
X10961976Y-20208535D01*
X10961976Y-20094250D02*
X10971500Y-20084726D01*
X10990548Y-20075202D01*
X11019119Y-20075202D01*
X11038167Y-20084726D01*
X11047691Y-20103773D01*
X11047691Y-20208535D01*
X11171500Y-20208535D02*
X11152452Y-20199012D01*
X11142929Y-20189488D01*
X11133405Y-20170440D01*
X11133405Y-20113297D01*
X11142929Y-20094250D01*
X11152452Y-20084726D01*
X11171500Y-20075202D01*
X11200071Y-20075202D01*
X11219119Y-20084726D01*
X11228643Y-20094250D01*
X11238167Y-20113297D01*
X11238167Y-20170440D01*
X11228643Y-20189488D01*
X11219119Y-20199012D01*
X11200071Y-20208535D01*
X11171500Y-20208535D01*
X11295310Y-20075202D02*
X11371500Y-20075202D01*
X11323881Y-20008535D02*
X11323881Y-20179964D01*
X11333405Y-20199012D01*
X11352452Y-20208535D01*
X11371500Y-20208535D01*
X11590548Y-20075202D02*
X11590548Y-20275202D01*
X11590548Y-20084726D02*
X11609595Y-20075202D01*
X11647690Y-20075202D01*
X11666738Y-20084726D01*
X11676262Y-20094250D01*
X11685786Y-20113297D01*
X11685786Y-20170440D01*
X11676262Y-20189488D01*
X11666738Y-20199012D01*
X11647690Y-20208535D01*
X11609595Y-20208535D01*
X11590548Y-20199012D01*
X11800071Y-20208535D02*
X11781024Y-20199012D01*
X11771500Y-20179964D01*
X11771500Y-20008535D01*
X11961976Y-20208535D02*
X11961976Y-20103773D01*
X11952452Y-20084726D01*
X11933405Y-20075202D01*
X11895310Y-20075202D01*
X11876262Y-20084726D01*
X11961976Y-20199012D02*
X11942929Y-20208535D01*
X11895310Y-20208535D01*
X11876262Y-20199012D01*
X11866738Y-20179964D01*
X11866738Y-20160916D01*
X11876262Y-20141869D01*
X11895310Y-20132345D01*
X11942929Y-20132345D01*
X11961976Y-20122821D01*
X12028643Y-20075202D02*
X12104833Y-20075202D01*
X12057214Y-20008535D02*
X12057214Y-20179964D01*
X12066738Y-20199012D01*
X12085786Y-20208535D01*
X12104833Y-20208535D01*
X12247690Y-20199012D02*
X12228643Y-20208535D01*
X12190548Y-20208535D01*
X12171500Y-20199012D01*
X12161976Y-20179964D01*
X12161976Y-20103773D01*
X12171500Y-20084726D01*
X12190548Y-20075202D01*
X12228643Y-20075202D01*
X12247690Y-20084726D01*
X12257214Y-20103773D01*
X12257214Y-20122821D01*
X12161976Y-20141869D01*
X12428643Y-20208535D02*
X12428643Y-20008535D01*
X12428643Y-20199012D02*
X12409595Y-20208535D01*
X12371500Y-20208535D01*
X12352452Y-20199012D01*
X12342929Y-20189488D01*
X12333405Y-20170440D01*
X12333405Y-20113297D01*
X12342929Y-20094250D01*
X12352452Y-20084726D01*
X12371500Y-20075202D01*
X12409595Y-20075202D01*
X12428643Y-20084726D01*
X12504833Y-20284726D02*
X12514357Y-20275202D01*
X12533405Y-20246631D01*
X12542929Y-20227583D01*
X12552452Y-20199012D01*
X12561976Y-20151393D01*
X12561976Y-20113297D01*
X12552452Y-20065678D01*
X12542929Y-20037107D01*
X12533405Y-20018059D01*
X12514357Y-19989488D01*
X12504833Y-19979964D01*
D13*
X5474000Y-20294559D02*
X5474000Y-20469559D01*
X5386500Y-20382059D02*
X5561500Y-20382059D01*
D10*
X5923881Y-20472535D02*
X5809595Y-20472535D01*
X5866738Y-20472535D02*
X5866738Y-20272535D01*
X5847690Y-20301107D01*
X5828643Y-20320154D01*
X5809595Y-20329678D01*
X6009595Y-20453488D02*
X6019119Y-20463012D01*
X6009595Y-20472535D01*
X6000071Y-20463012D01*
X6009595Y-20453488D01*
X6009595Y-20472535D01*
X6085786Y-20272535D02*
X6219119Y-20272535D01*
X6133405Y-20472535D01*
X6390548Y-20272535D02*
X6295310Y-20272535D01*
X6285786Y-20367773D01*
X6295310Y-20358250D01*
X6314357Y-20348726D01*
X6361976Y-20348726D01*
X6381024Y-20358250D01*
X6390548Y-20367773D01*
X6400071Y-20386821D01*
X6400071Y-20434440D01*
X6390548Y-20453488D01*
X6381024Y-20463012D01*
X6361976Y-20472535D01*
X6314357Y-20472535D01*
X6295310Y-20463012D01*
X6285786Y-20453488D01*
X6523881Y-20272535D02*
X6542929Y-20272535D01*
X6561976Y-20282059D01*
X6571500Y-20291583D01*
X6581024Y-20310631D01*
X6590548Y-20348726D01*
X6590548Y-20396345D01*
X6581024Y-20434440D01*
X6571500Y-20453488D01*
X6561976Y-20463012D01*
X6542929Y-20472535D01*
X6523881Y-20472535D01*
X6504833Y-20463012D01*
X6495310Y-20453488D01*
X6485786Y-20434440D01*
X6476262Y-20396345D01*
X6476262Y-20348726D01*
X6485786Y-20310631D01*
X6495310Y-20291583D01*
X6504833Y-20282059D01*
X6523881Y-20272535D01*
X6676262Y-20472535D02*
X6676262Y-20339202D01*
X6676262Y-20358250D02*
X6685786Y-20348726D01*
X6704833Y-20339202D01*
X6733405Y-20339202D01*
X6752452Y-20348726D01*
X6761976Y-20367773D01*
X6761976Y-20472535D01*
X6761976Y-20367773D02*
X6771500Y-20348726D01*
X6790548Y-20339202D01*
X6819119Y-20339202D01*
X6838167Y-20348726D01*
X6847690Y-20367773D01*
X6847690Y-20472535D01*
X6942929Y-20472535D02*
X6942929Y-20339202D01*
X6942929Y-20358250D02*
X6952452Y-20348726D01*
X6971500Y-20339202D01*
X7000071Y-20339202D01*
X7019119Y-20348726D01*
X7028643Y-20367773D01*
X7028643Y-20472535D01*
X7028643Y-20367773D02*
X7038167Y-20348726D01*
X7057214Y-20339202D01*
X7085786Y-20339202D01*
X7104833Y-20348726D01*
X7114357Y-20367773D01*
X7114357Y-20472535D01*
X7504833Y-20263012D02*
X7333405Y-20520154D01*
X7761976Y-20272535D02*
X7781024Y-20272535D01*
X7800071Y-20282059D01*
X7809595Y-20291583D01*
X7819119Y-20310631D01*
X7828643Y-20348726D01*
X7828643Y-20396345D01*
X7819119Y-20434440D01*
X7809595Y-20453488D01*
X7800071Y-20463012D01*
X7781024Y-20472535D01*
X7761976Y-20472535D01*
X7742929Y-20463012D01*
X7733405Y-20453488D01*
X7723881Y-20434440D01*
X7714357Y-20396345D01*
X7714357Y-20348726D01*
X7723881Y-20310631D01*
X7733405Y-20291583D01*
X7742929Y-20282059D01*
X7761976Y-20272535D01*
X7914357Y-20453488D02*
X7923881Y-20463012D01*
X7914357Y-20472535D01*
X7904833Y-20463012D01*
X7914357Y-20453488D01*
X7914357Y-20472535D01*
X8047690Y-20272535D02*
X8066738Y-20272535D01*
X8085786Y-20282059D01*
X8095310Y-20291583D01*
X8104833Y-20310631D01*
X8114357Y-20348726D01*
X8114357Y-20396345D01*
X8104833Y-20434440D01*
X8095310Y-20453488D01*
X8085786Y-20463012D01*
X8066738Y-20472535D01*
X8047690Y-20472535D01*
X8028643Y-20463012D01*
X8019119Y-20453488D01*
X8009595Y-20434440D01*
X8000071Y-20396345D01*
X8000071Y-20348726D01*
X8009595Y-20310631D01*
X8019119Y-20291583D01*
X8028643Y-20282059D01*
X8047690Y-20272535D01*
X8285786Y-20272535D02*
X8247690Y-20272535D01*
X8228643Y-20282059D01*
X8219119Y-20291583D01*
X8200071Y-20320154D01*
X8190548Y-20358250D01*
X8190548Y-20434440D01*
X8200071Y-20453488D01*
X8209595Y-20463012D01*
X8228643Y-20472535D01*
X8266738Y-20472535D01*
X8285786Y-20463012D01*
X8295310Y-20453488D01*
X8304833Y-20434440D01*
X8304833Y-20386821D01*
X8295310Y-20367773D01*
X8285786Y-20358250D01*
X8266738Y-20348726D01*
X8228643Y-20348726D01*
X8209595Y-20358250D01*
X8200071Y-20367773D01*
X8190548Y-20386821D01*
X8419119Y-20358250D02*
X8400072Y-20348726D01*
X8390548Y-20339202D01*
X8381024Y-20320154D01*
X8381024Y-20310631D01*
X8390548Y-20291583D01*
X8400072Y-20282059D01*
X8419119Y-20272535D01*
X8457214Y-20272535D01*
X8476262Y-20282059D01*
X8485786Y-20291583D01*
X8495310Y-20310631D01*
X8495310Y-20320154D01*
X8485786Y-20339202D01*
X8476262Y-20348726D01*
X8457214Y-20358250D01*
X8419119Y-20358250D01*
X8400072Y-20367773D01*
X8390548Y-20377297D01*
X8381024Y-20396345D01*
X8381024Y-20434440D01*
X8390548Y-20453488D01*
X8400072Y-20463012D01*
X8419119Y-20472535D01*
X8457214Y-20472535D01*
X8476262Y-20463012D01*
X8485786Y-20453488D01*
X8495310Y-20434440D01*
X8495310Y-20396345D01*
X8485786Y-20377297D01*
X8476262Y-20367773D01*
X8457214Y-20358250D01*
X8590548Y-20472535D02*
X8628643Y-20472535D01*
X8647691Y-20463012D01*
X8657214Y-20453488D01*
X8676262Y-20424916D01*
X8685786Y-20386821D01*
X8685786Y-20310631D01*
X8676262Y-20291583D01*
X8666738Y-20282059D01*
X8647691Y-20272535D01*
X8609595Y-20272535D01*
X8590548Y-20282059D01*
X8581024Y-20291583D01*
X8571500Y-20310631D01*
X8571500Y-20358250D01*
X8581024Y-20377297D01*
X8590548Y-20386821D01*
X8609595Y-20396345D01*
X8647691Y-20396345D01*
X8666738Y-20386821D01*
X8676262Y-20377297D01*
X8685786Y-20358250D01*
X8761976Y-20272535D02*
X8761976Y-20310631D01*
X8838167Y-20272535D02*
X8838167Y-20310631D01*
X9133405Y-20548726D02*
X9123881Y-20539202D01*
X9104833Y-20510631D01*
X9095310Y-20491583D01*
X9085786Y-20463012D01*
X9076262Y-20415393D01*
X9076262Y-20377297D01*
X9085786Y-20329678D01*
X9095310Y-20301107D01*
X9104833Y-20282059D01*
X9123881Y-20253488D01*
X9133405Y-20243964D01*
X9314357Y-20472535D02*
X9200072Y-20472535D01*
X9257214Y-20472535D02*
X9257214Y-20272535D01*
X9238167Y-20301107D01*
X9219119Y-20320154D01*
X9200072Y-20329678D01*
X9438167Y-20272535D02*
X9457214Y-20272535D01*
X9476262Y-20282059D01*
X9485786Y-20291583D01*
X9495310Y-20310631D01*
X9504833Y-20348726D01*
X9504833Y-20396345D01*
X9495310Y-20434440D01*
X9485786Y-20453488D01*
X9476262Y-20463012D01*
X9457214Y-20472535D01*
X9438167Y-20472535D01*
X9419119Y-20463012D01*
X9409595Y-20453488D01*
X9400072Y-20434440D01*
X9390548Y-20396345D01*
X9390548Y-20348726D01*
X9400072Y-20310631D01*
X9409595Y-20291583D01*
X9419119Y-20282059D01*
X9438167Y-20272535D01*
X9676262Y-20339202D02*
X9676262Y-20472535D01*
X9628643Y-20263012D02*
X9581024Y-20405869D01*
X9704833Y-20405869D01*
X9933405Y-20472535D02*
X9933405Y-20272535D01*
X10019119Y-20472535D02*
X10019119Y-20367773D01*
X10009595Y-20348726D01*
X9990548Y-20339202D01*
X9961976Y-20339202D01*
X9942929Y-20348726D01*
X9933405Y-20358250D01*
X10142929Y-20472535D02*
X10123881Y-20463012D01*
X10114357Y-20453488D01*
X10104833Y-20434440D01*
X10104833Y-20377297D01*
X10114357Y-20358250D01*
X10123881Y-20348726D01*
X10142929Y-20339202D01*
X10171500Y-20339202D01*
X10190548Y-20348726D01*
X10200072Y-20358250D01*
X10209595Y-20377297D01*
X10209595Y-20434440D01*
X10200072Y-20453488D01*
X10190548Y-20463012D01*
X10171500Y-20472535D01*
X10142929Y-20472535D01*
X10323881Y-20472535D02*
X10304833Y-20463012D01*
X10295310Y-20443964D01*
X10295310Y-20272535D01*
X10476262Y-20463012D02*
X10457214Y-20472535D01*
X10419119Y-20472535D01*
X10400072Y-20463012D01*
X10390548Y-20443964D01*
X10390548Y-20367773D01*
X10400072Y-20348726D01*
X10419119Y-20339202D01*
X10457214Y-20339202D01*
X10476262Y-20348726D01*
X10485786Y-20367773D01*
X10485786Y-20386821D01*
X10390548Y-20405869D01*
X10561976Y-20463012D02*
X10581024Y-20472535D01*
X10619119Y-20472535D01*
X10638167Y-20463012D01*
X10647691Y-20443964D01*
X10647691Y-20434440D01*
X10638167Y-20415393D01*
X10619119Y-20405869D01*
X10590548Y-20405869D01*
X10571500Y-20396345D01*
X10561976Y-20377297D01*
X10561976Y-20367773D01*
X10571500Y-20348726D01*
X10590548Y-20339202D01*
X10619119Y-20339202D01*
X10638167Y-20348726D01*
X10714357Y-20548726D02*
X10723881Y-20539202D01*
X10742929Y-20510631D01*
X10752452Y-20491583D01*
X10761976Y-20463012D01*
X10771500Y-20415393D01*
X10771500Y-20377297D01*
X10761976Y-20329678D01*
X10752452Y-20301107D01*
X10742929Y-20282059D01*
X10723881Y-20253488D01*
X10714357Y-20243964D01*
X11076262Y-20548726D02*
X11066738Y-20539202D01*
X11047691Y-20510631D01*
X11038167Y-20491583D01*
X11028643Y-20463012D01*
X11019119Y-20415393D01*
X11019119Y-20377297D01*
X11028643Y-20329678D01*
X11038167Y-20301107D01*
X11047691Y-20282059D01*
X11066738Y-20253488D01*
X11076262Y-20243964D01*
X11152452Y-20339202D02*
X11152452Y-20472535D01*
X11152452Y-20358250D02*
X11161976Y-20348726D01*
X11181024Y-20339202D01*
X11209595Y-20339202D01*
X11228643Y-20348726D01*
X11238167Y-20367773D01*
X11238167Y-20472535D01*
X11361976Y-20472535D02*
X11342929Y-20463012D01*
X11333405Y-20453488D01*
X11323881Y-20434440D01*
X11323881Y-20377297D01*
X11333405Y-20358250D01*
X11342929Y-20348726D01*
X11361976Y-20339202D01*
X11390548Y-20339202D01*
X11409595Y-20348726D01*
X11419119Y-20358250D01*
X11428643Y-20377297D01*
X11428643Y-20434440D01*
X11419119Y-20453488D01*
X11409595Y-20463012D01*
X11390548Y-20472535D01*
X11361976Y-20472535D01*
X11485786Y-20339202D02*
X11561976Y-20339202D01*
X11514357Y-20272535D02*
X11514357Y-20443964D01*
X11523881Y-20463012D01*
X11542929Y-20472535D01*
X11561976Y-20472535D01*
X11781024Y-20339202D02*
X11781024Y-20539202D01*
X11781024Y-20348726D02*
X11800071Y-20339202D01*
X11838167Y-20339202D01*
X11857214Y-20348726D01*
X11866738Y-20358250D01*
X11876262Y-20377297D01*
X11876262Y-20434440D01*
X11866738Y-20453488D01*
X11857214Y-20463012D01*
X11838167Y-20472535D01*
X11800071Y-20472535D01*
X11781024Y-20463012D01*
X11990548Y-20472535D02*
X11971500Y-20463012D01*
X11961976Y-20443964D01*
X11961976Y-20272535D01*
X12152452Y-20472535D02*
X12152452Y-20367773D01*
X12142929Y-20348726D01*
X12123881Y-20339202D01*
X12085786Y-20339202D01*
X12066738Y-20348726D01*
X12152452Y-20463012D02*
X12133405Y-20472535D01*
X12085786Y-20472535D01*
X12066738Y-20463012D01*
X12057214Y-20443964D01*
X12057214Y-20424916D01*
X12066738Y-20405869D01*
X12085786Y-20396345D01*
X12133405Y-20396345D01*
X12152452Y-20386821D01*
X12219119Y-20339202D02*
X12295310Y-20339202D01*
X12247690Y-20272535D02*
X12247690Y-20443964D01*
X12257214Y-20463012D01*
X12276262Y-20472535D01*
X12295310Y-20472535D01*
X12438167Y-20463012D02*
X12419119Y-20472535D01*
X12381024Y-20472535D01*
X12361976Y-20463012D01*
X12352452Y-20443964D01*
X12352452Y-20367773D01*
X12361976Y-20348726D01*
X12381024Y-20339202D01*
X12419119Y-20339202D01*
X12438167Y-20348726D01*
X12447690Y-20367773D01*
X12447690Y-20386821D01*
X12352452Y-20405869D01*
X12619119Y-20472535D02*
X12619119Y-20272535D01*
X12619119Y-20463012D02*
X12600071Y-20472535D01*
X12561976Y-20472535D01*
X12542929Y-20463012D01*
X12533405Y-20453488D01*
X12523881Y-20434440D01*
X12523881Y-20377297D01*
X12533405Y-20358250D01*
X12542929Y-20348726D01*
X12561976Y-20339202D01*
X12600071Y-20339202D01*
X12619119Y-20348726D01*
X12695310Y-20548726D02*
X12704833Y-20539202D01*
X12723881Y-20510631D01*
X12733405Y-20491583D01*
X12742929Y-20463012D01*
X12752452Y-20415393D01*
X12752452Y-20377297D01*
X12742929Y-20329678D01*
X12733405Y-20301107D01*
X12723881Y-20282059D01*
X12704833Y-20253488D01*
X12695310Y-20243964D01*
X5532212Y-20747771D02*
X5532212Y-20606348D01*
X5390789Y-20606348D01*
X5390789Y-20747771D01*
X5532212Y-20747771D01*
X5800071Y-20567535D02*
X5923881Y-20567535D01*
X5857214Y-20643726D01*
X5885786Y-20643726D01*
X5904833Y-20653250D01*
X5914357Y-20662773D01*
X5923881Y-20681821D01*
X5923881Y-20729440D01*
X5914357Y-20748488D01*
X5904833Y-20758012D01*
X5885786Y-20767535D01*
X5828643Y-20767535D01*
X5809595Y-20758012D01*
X5800071Y-20748488D01*
X6009595Y-20748488D02*
X6019119Y-20758012D01*
X6009595Y-20767535D01*
X6000071Y-20758012D01*
X6009595Y-20748488D01*
X6009595Y-20767535D01*
X6142929Y-20567535D02*
X6161976Y-20567535D01*
X6181024Y-20577059D01*
X6190548Y-20586583D01*
X6200071Y-20605631D01*
X6209595Y-20643726D01*
X6209595Y-20691345D01*
X6200071Y-20729440D01*
X6190548Y-20748488D01*
X6181024Y-20758012D01*
X6161976Y-20767535D01*
X6142929Y-20767535D01*
X6123881Y-20758012D01*
X6114357Y-20748488D01*
X6104833Y-20729440D01*
X6095310Y-20691345D01*
X6095310Y-20643726D01*
X6104833Y-20605631D01*
X6114357Y-20586583D01*
X6123881Y-20577059D01*
X6142929Y-20567535D01*
X6381024Y-20634202D02*
X6381024Y-20767535D01*
X6333405Y-20558012D02*
X6285786Y-20700869D01*
X6409595Y-20700869D01*
X6514357Y-20653250D02*
X6495310Y-20643726D01*
X6485786Y-20634202D01*
X6476262Y-20615154D01*
X6476262Y-20605631D01*
X6485786Y-20586583D01*
X6495310Y-20577059D01*
X6514357Y-20567535D01*
X6552452Y-20567535D01*
X6571500Y-20577059D01*
X6581024Y-20586583D01*
X6590548Y-20605631D01*
X6590548Y-20615154D01*
X6581024Y-20634202D01*
X6571500Y-20643726D01*
X6552452Y-20653250D01*
X6514357Y-20653250D01*
X6495310Y-20662773D01*
X6485786Y-20672297D01*
X6476262Y-20691345D01*
X6476262Y-20729440D01*
X6485786Y-20748488D01*
X6495310Y-20758012D01*
X6514357Y-20767535D01*
X6552452Y-20767535D01*
X6571500Y-20758012D01*
X6581024Y-20748488D01*
X6590548Y-20729440D01*
X6590548Y-20691345D01*
X6581024Y-20672297D01*
X6571500Y-20662773D01*
X6552452Y-20653250D01*
X6676262Y-20767535D02*
X6676262Y-20634202D01*
X6676262Y-20653250D02*
X6685786Y-20643726D01*
X6704833Y-20634202D01*
X6733405Y-20634202D01*
X6752452Y-20643726D01*
X6761976Y-20662773D01*
X6761976Y-20767535D01*
X6761976Y-20662773D02*
X6771500Y-20643726D01*
X6790548Y-20634202D01*
X6819119Y-20634202D01*
X6838167Y-20643726D01*
X6847690Y-20662773D01*
X6847690Y-20767535D01*
X6942929Y-20767535D02*
X6942929Y-20634202D01*
X6942929Y-20653250D02*
X6952452Y-20643726D01*
X6971500Y-20634202D01*
X7000071Y-20634202D01*
X7019119Y-20643726D01*
X7028643Y-20662773D01*
X7028643Y-20767535D01*
X7028643Y-20662773D02*
X7038167Y-20643726D01*
X7057214Y-20634202D01*
X7085786Y-20634202D01*
X7104833Y-20643726D01*
X7114357Y-20662773D01*
X7114357Y-20767535D01*
X7504833Y-20558012D02*
X7333405Y-20815154D01*
X7761976Y-20567535D02*
X7781024Y-20567535D01*
X7800071Y-20577059D01*
X7809595Y-20586583D01*
X7819119Y-20605631D01*
X7828643Y-20643726D01*
X7828643Y-20691345D01*
X7819119Y-20729440D01*
X7809595Y-20748488D01*
X7800071Y-20758012D01*
X7781024Y-20767535D01*
X7761976Y-20767535D01*
X7742929Y-20758012D01*
X7733405Y-20748488D01*
X7723881Y-20729440D01*
X7714357Y-20691345D01*
X7714357Y-20643726D01*
X7723881Y-20605631D01*
X7733405Y-20586583D01*
X7742929Y-20577059D01*
X7761976Y-20567535D01*
X7914357Y-20748488D02*
X7923881Y-20758012D01*
X7914357Y-20767535D01*
X7904833Y-20758012D01*
X7914357Y-20748488D01*
X7914357Y-20767535D01*
X8114357Y-20767535D02*
X8000071Y-20767535D01*
X8057214Y-20767535D02*
X8057214Y-20567535D01*
X8038167Y-20596107D01*
X8019119Y-20615154D01*
X8000071Y-20624678D01*
X8190548Y-20586583D02*
X8200071Y-20577059D01*
X8219119Y-20567535D01*
X8266738Y-20567535D01*
X8285786Y-20577059D01*
X8295310Y-20586583D01*
X8304833Y-20605631D01*
X8304833Y-20624678D01*
X8295310Y-20653250D01*
X8181024Y-20767535D01*
X8304833Y-20767535D01*
X8428643Y-20567535D02*
X8447691Y-20567535D01*
X8466738Y-20577059D01*
X8476262Y-20586583D01*
X8485786Y-20605631D01*
X8495310Y-20643726D01*
X8495310Y-20691345D01*
X8485786Y-20729440D01*
X8476262Y-20748488D01*
X8466738Y-20758012D01*
X8447691Y-20767535D01*
X8428643Y-20767535D01*
X8409595Y-20758012D01*
X8400072Y-20748488D01*
X8390548Y-20729440D01*
X8381024Y-20691345D01*
X8381024Y-20643726D01*
X8390548Y-20605631D01*
X8400072Y-20586583D01*
X8409595Y-20577059D01*
X8428643Y-20567535D01*
X8619119Y-20567535D02*
X8638167Y-20567535D01*
X8657214Y-20577059D01*
X8666738Y-20586583D01*
X8676262Y-20605631D01*
X8685786Y-20643726D01*
X8685786Y-20691345D01*
X8676262Y-20729440D01*
X8666738Y-20748488D01*
X8657214Y-20758012D01*
X8638167Y-20767535D01*
X8619119Y-20767535D01*
X8600072Y-20758012D01*
X8590548Y-20748488D01*
X8581024Y-20729440D01*
X8571500Y-20691345D01*
X8571500Y-20643726D01*
X8581024Y-20605631D01*
X8590548Y-20586583D01*
X8600072Y-20577059D01*
X8619119Y-20567535D01*
X8761976Y-20567535D02*
X8761976Y-20605631D01*
X8838167Y-20567535D02*
X8838167Y-20605631D01*
X9133405Y-20843726D02*
X9123881Y-20834202D01*
X9104833Y-20805631D01*
X9095310Y-20786583D01*
X9085786Y-20758012D01*
X9076262Y-20710393D01*
X9076262Y-20672297D01*
X9085786Y-20624678D01*
X9095310Y-20596107D01*
X9104833Y-20577059D01*
X9123881Y-20548488D01*
X9133405Y-20538964D01*
X9314357Y-20767535D02*
X9200072Y-20767535D01*
X9257214Y-20767535D02*
X9257214Y-20567535D01*
X9238167Y-20596107D01*
X9219119Y-20615154D01*
X9200072Y-20624678D01*
X9438167Y-20567535D02*
X9457214Y-20567535D01*
X9476262Y-20577059D01*
X9485786Y-20586583D01*
X9495310Y-20605631D01*
X9504833Y-20643726D01*
X9504833Y-20691345D01*
X9495310Y-20729440D01*
X9485786Y-20748488D01*
X9476262Y-20758012D01*
X9457214Y-20767535D01*
X9438167Y-20767535D01*
X9419119Y-20758012D01*
X9409595Y-20748488D01*
X9400072Y-20729440D01*
X9390548Y-20691345D01*
X9390548Y-20643726D01*
X9400072Y-20605631D01*
X9409595Y-20586583D01*
X9419119Y-20577059D01*
X9438167Y-20567535D01*
X9742929Y-20767535D02*
X9742929Y-20567535D01*
X9828643Y-20767535D02*
X9828643Y-20662773D01*
X9819119Y-20643726D01*
X9800072Y-20634202D01*
X9771500Y-20634202D01*
X9752452Y-20643726D01*
X9742929Y-20653250D01*
X9952452Y-20767535D02*
X9933405Y-20758012D01*
X9923881Y-20748488D01*
X9914357Y-20729440D01*
X9914357Y-20672297D01*
X9923881Y-20653250D01*
X9933405Y-20643726D01*
X9952452Y-20634202D01*
X9981024Y-20634202D01*
X10000072Y-20643726D01*
X10009595Y-20653250D01*
X10019119Y-20672297D01*
X10019119Y-20729440D01*
X10009595Y-20748488D01*
X10000072Y-20758012D01*
X9981024Y-20767535D01*
X9952452Y-20767535D01*
X10133405Y-20767535D02*
X10114357Y-20758012D01*
X10104833Y-20738964D01*
X10104833Y-20567535D01*
X10285786Y-20758012D02*
X10266738Y-20767535D01*
X10228643Y-20767535D01*
X10209595Y-20758012D01*
X10200072Y-20738964D01*
X10200072Y-20662773D01*
X10209595Y-20643726D01*
X10228643Y-20634202D01*
X10266738Y-20634202D01*
X10285786Y-20643726D01*
X10295310Y-20662773D01*
X10295310Y-20681821D01*
X10200072Y-20700869D01*
X10371500Y-20758012D02*
X10390548Y-20767535D01*
X10428643Y-20767535D01*
X10447691Y-20758012D01*
X10457214Y-20738964D01*
X10457214Y-20729440D01*
X10447691Y-20710393D01*
X10428643Y-20700869D01*
X10400072Y-20700869D01*
X10381024Y-20691345D01*
X10371500Y-20672297D01*
X10371500Y-20662773D01*
X10381024Y-20643726D01*
X10400072Y-20634202D01*
X10428643Y-20634202D01*
X10447691Y-20643726D01*
X10523881Y-20843726D02*
X10533405Y-20834202D01*
X10552452Y-20805631D01*
X10561976Y-20786583D01*
X10571500Y-20758012D01*
X10581024Y-20710393D01*
X10581024Y-20672297D01*
X10571500Y-20624678D01*
X10561976Y-20596107D01*
X10552452Y-20577059D01*
X10533405Y-20548488D01*
X10523881Y-20538964D01*
X10885786Y-20843726D02*
X10876262Y-20834202D01*
X10857214Y-20805631D01*
X10847691Y-20786583D01*
X10838167Y-20758012D01*
X10828643Y-20710393D01*
X10828643Y-20672297D01*
X10838167Y-20624678D01*
X10847691Y-20596107D01*
X10857214Y-20577059D01*
X10876262Y-20548488D01*
X10885786Y-20538964D01*
X10961976Y-20634202D02*
X10961976Y-20767535D01*
X10961976Y-20653250D02*
X10971500Y-20643726D01*
X10990548Y-20634202D01*
X11019119Y-20634202D01*
X11038167Y-20643726D01*
X11047691Y-20662773D01*
X11047691Y-20767535D01*
X11171500Y-20767535D02*
X11152452Y-20758012D01*
X11142929Y-20748488D01*
X11133405Y-20729440D01*
X11133405Y-20672297D01*
X11142929Y-20653250D01*
X11152452Y-20643726D01*
X11171500Y-20634202D01*
X11200071Y-20634202D01*
X11219119Y-20643726D01*
X11228643Y-20653250D01*
X11238167Y-20672297D01*
X11238167Y-20729440D01*
X11228643Y-20748488D01*
X11219119Y-20758012D01*
X11200071Y-20767535D01*
X11171500Y-20767535D01*
X11295310Y-20634202D02*
X11371500Y-20634202D01*
X11323881Y-20567535D02*
X11323881Y-20738964D01*
X11333405Y-20758012D01*
X11352452Y-20767535D01*
X11371500Y-20767535D01*
X11590548Y-20634202D02*
X11590548Y-20834202D01*
X11590548Y-20643726D02*
X11609595Y-20634202D01*
X11647690Y-20634202D01*
X11666738Y-20643726D01*
X11676262Y-20653250D01*
X11685786Y-20672297D01*
X11685786Y-20729440D01*
X11676262Y-20748488D01*
X11666738Y-20758012D01*
X11647690Y-20767535D01*
X11609595Y-20767535D01*
X11590548Y-20758012D01*
X11800071Y-20767535D02*
X11781024Y-20758012D01*
X11771500Y-20738964D01*
X11771500Y-20567535D01*
X11961976Y-20767535D02*
X11961976Y-20662773D01*
X11952452Y-20643726D01*
X11933405Y-20634202D01*
X11895310Y-20634202D01*
X11876262Y-20643726D01*
X11961976Y-20758012D02*
X11942929Y-20767535D01*
X11895310Y-20767535D01*
X11876262Y-20758012D01*
X11866738Y-20738964D01*
X11866738Y-20719916D01*
X11876262Y-20700869D01*
X11895310Y-20691345D01*
X11942929Y-20691345D01*
X11961976Y-20681821D01*
X12028643Y-20634202D02*
X12104833Y-20634202D01*
X12057214Y-20567535D02*
X12057214Y-20738964D01*
X12066738Y-20758012D01*
X12085786Y-20767535D01*
X12104833Y-20767535D01*
X12247690Y-20758012D02*
X12228643Y-20767535D01*
X12190548Y-20767535D01*
X12171500Y-20758012D01*
X12161976Y-20738964D01*
X12161976Y-20662773D01*
X12171500Y-20643726D01*
X12190548Y-20634202D01*
X12228643Y-20634202D01*
X12247690Y-20643726D01*
X12257214Y-20662773D01*
X12257214Y-20681821D01*
X12161976Y-20700869D01*
X12428643Y-20767535D02*
X12428643Y-20567535D01*
X12428643Y-20758012D02*
X12409595Y-20767535D01*
X12371500Y-20767535D01*
X12352452Y-20758012D01*
X12342929Y-20748488D01*
X12333405Y-20729440D01*
X12333405Y-20672297D01*
X12342929Y-20653250D01*
X12352452Y-20643726D01*
X12371500Y-20634202D01*
X12409595Y-20634202D01*
X12428643Y-20643726D01*
X12504833Y-20843726D02*
X12514357Y-20834202D01*
X12533405Y-20805631D01*
X12542929Y-20786583D01*
X12552452Y-20758012D01*
X12561976Y-20710393D01*
X12561976Y-20672297D01*
X12552452Y-20624678D01*
X12542929Y-20596107D01*
X12533405Y-20577059D01*
X12514357Y-20548488D01*
X12504833Y-20538964D01*
X5461500Y-21097059D02*
X5561500Y-20997059D01*
X5461500Y-20897059D01*
X5361500Y-20997059D01*
X5461500Y-21097059D01*
X5800071Y-20887535D02*
X5923881Y-20887535D01*
X5857214Y-20963726D01*
X5885786Y-20963726D01*
X5904833Y-20973250D01*
X5914357Y-20982773D01*
X5923881Y-21001821D01*
X5923881Y-21049440D01*
X5914357Y-21068488D01*
X5904833Y-21078012D01*
X5885786Y-21087535D01*
X5828643Y-21087535D01*
X5809595Y-21078012D01*
X5800071Y-21068488D01*
X6009595Y-21068488D02*
X6019119Y-21078012D01*
X6009595Y-21087535D01*
X6000071Y-21078012D01*
X6009595Y-21068488D01*
X6009595Y-21087535D01*
X6114357Y-21087535D02*
X6152452Y-21087535D01*
X6171500Y-21078012D01*
X6181024Y-21068488D01*
X6200071Y-21039916D01*
X6209595Y-21001821D01*
X6209595Y-20925631D01*
X6200071Y-20906583D01*
X6190548Y-20897059D01*
X6171500Y-20887535D01*
X6133405Y-20887535D01*
X6114357Y-20897059D01*
X6104833Y-20906583D01*
X6095310Y-20925631D01*
X6095310Y-20973250D01*
X6104833Y-20992297D01*
X6114357Y-21001821D01*
X6133405Y-21011345D01*
X6171500Y-21011345D01*
X6190548Y-21001821D01*
X6200071Y-20992297D01*
X6209595Y-20973250D01*
X6323881Y-20973250D02*
X6304833Y-20963726D01*
X6295310Y-20954202D01*
X6285786Y-20935154D01*
X6285786Y-20925631D01*
X6295310Y-20906583D01*
X6304833Y-20897059D01*
X6323881Y-20887535D01*
X6361976Y-20887535D01*
X6381024Y-20897059D01*
X6390548Y-20906583D01*
X6400071Y-20925631D01*
X6400071Y-20935154D01*
X6390548Y-20954202D01*
X6381024Y-20963726D01*
X6361976Y-20973250D01*
X6323881Y-20973250D01*
X6304833Y-20982773D01*
X6295310Y-20992297D01*
X6285786Y-21011345D01*
X6285786Y-21049440D01*
X6295310Y-21068488D01*
X6304833Y-21078012D01*
X6323881Y-21087535D01*
X6361976Y-21087535D01*
X6381024Y-21078012D01*
X6390548Y-21068488D01*
X6400071Y-21049440D01*
X6400071Y-21011345D01*
X6390548Y-20992297D01*
X6381024Y-20982773D01*
X6361976Y-20973250D01*
X6514357Y-20973250D02*
X6495310Y-20963726D01*
X6485786Y-20954202D01*
X6476262Y-20935154D01*
X6476262Y-20925631D01*
X6485786Y-20906583D01*
X6495310Y-20897059D01*
X6514357Y-20887535D01*
X6552452Y-20887535D01*
X6571500Y-20897059D01*
X6581024Y-20906583D01*
X6590548Y-20925631D01*
X6590548Y-20935154D01*
X6581024Y-20954202D01*
X6571500Y-20963726D01*
X6552452Y-20973250D01*
X6514357Y-20973250D01*
X6495310Y-20982773D01*
X6485786Y-20992297D01*
X6476262Y-21011345D01*
X6476262Y-21049440D01*
X6485786Y-21068488D01*
X6495310Y-21078012D01*
X6514357Y-21087535D01*
X6552452Y-21087535D01*
X6571500Y-21078012D01*
X6581024Y-21068488D01*
X6590548Y-21049440D01*
X6590548Y-21011345D01*
X6581024Y-20992297D01*
X6571500Y-20982773D01*
X6552452Y-20973250D01*
X6676262Y-21087535D02*
X6676262Y-20954202D01*
X6676262Y-20973250D02*
X6685786Y-20963726D01*
X6704833Y-20954202D01*
X6733405Y-20954202D01*
X6752452Y-20963726D01*
X6761976Y-20982773D01*
X6761976Y-21087535D01*
X6761976Y-20982773D02*
X6771500Y-20963726D01*
X6790548Y-20954202D01*
X6819119Y-20954202D01*
X6838167Y-20963726D01*
X6847690Y-20982773D01*
X6847690Y-21087535D01*
X6942929Y-21087535D02*
X6942929Y-20954202D01*
X6942929Y-20973250D02*
X6952452Y-20963726D01*
X6971500Y-20954202D01*
X7000071Y-20954202D01*
X7019119Y-20963726D01*
X7028643Y-20982773D01*
X7028643Y-21087535D01*
X7028643Y-20982773D02*
X7038167Y-20963726D01*
X7057214Y-20954202D01*
X7085786Y-20954202D01*
X7104833Y-20963726D01*
X7114357Y-20982773D01*
X7114357Y-21087535D01*
X7504833Y-20878012D02*
X7333405Y-21135154D01*
X7761976Y-20887535D02*
X7781024Y-20887535D01*
X7800071Y-20897059D01*
X7809595Y-20906583D01*
X7819119Y-20925631D01*
X7828643Y-20963726D01*
X7828643Y-21011345D01*
X7819119Y-21049440D01*
X7809595Y-21068488D01*
X7800071Y-21078012D01*
X7781024Y-21087535D01*
X7761976Y-21087535D01*
X7742929Y-21078012D01*
X7733405Y-21068488D01*
X7723881Y-21049440D01*
X7714357Y-21011345D01*
X7714357Y-20963726D01*
X7723881Y-20925631D01*
X7733405Y-20906583D01*
X7742929Y-20897059D01*
X7761976Y-20887535D01*
X7914357Y-21068488D02*
X7923881Y-21078012D01*
X7914357Y-21087535D01*
X7904833Y-21078012D01*
X7914357Y-21068488D01*
X7914357Y-21087535D01*
X8114357Y-21087535D02*
X8000071Y-21087535D01*
X8057214Y-21087535D02*
X8057214Y-20887535D01*
X8038167Y-20916107D01*
X8019119Y-20935154D01*
X8000071Y-20944678D01*
X8295310Y-20887535D02*
X8200071Y-20887535D01*
X8190548Y-20982773D01*
X8200071Y-20973250D01*
X8219119Y-20963726D01*
X8266738Y-20963726D01*
X8285786Y-20973250D01*
X8295310Y-20982773D01*
X8304833Y-21001821D01*
X8304833Y-21049440D01*
X8295310Y-21068488D01*
X8285786Y-21078012D01*
X8266738Y-21087535D01*
X8219119Y-21087535D01*
X8200071Y-21078012D01*
X8190548Y-21068488D01*
X8371500Y-20887535D02*
X8504833Y-20887535D01*
X8419119Y-21087535D01*
X8619119Y-20887535D02*
X8638167Y-20887535D01*
X8657214Y-20897059D01*
X8666738Y-20906583D01*
X8676262Y-20925631D01*
X8685786Y-20963726D01*
X8685786Y-21011345D01*
X8676262Y-21049440D01*
X8666738Y-21068488D01*
X8657214Y-21078012D01*
X8638167Y-21087535D01*
X8619119Y-21087535D01*
X8600072Y-21078012D01*
X8590548Y-21068488D01*
X8581024Y-21049440D01*
X8571500Y-21011345D01*
X8571500Y-20963726D01*
X8581024Y-20925631D01*
X8590548Y-20906583D01*
X8600072Y-20897059D01*
X8619119Y-20887535D01*
X8761976Y-20887535D02*
X8761976Y-20925631D01*
X8838167Y-20887535D02*
X8838167Y-20925631D01*
X9133405Y-21163726D02*
X9123881Y-21154202D01*
X9104833Y-21125631D01*
X9095310Y-21106583D01*
X9085786Y-21078012D01*
X9076262Y-21030393D01*
X9076262Y-20992297D01*
X9085786Y-20944678D01*
X9095310Y-20916107D01*
X9104833Y-20897059D01*
X9123881Y-20868488D01*
X9133405Y-20858964D01*
X9295310Y-20887535D02*
X9257214Y-20887535D01*
X9238167Y-20897059D01*
X9228643Y-20906583D01*
X9209595Y-20935154D01*
X9200072Y-20973250D01*
X9200072Y-21049440D01*
X9209595Y-21068488D01*
X9219119Y-21078012D01*
X9238167Y-21087535D01*
X9276262Y-21087535D01*
X9295310Y-21078012D01*
X9304833Y-21068488D01*
X9314357Y-21049440D01*
X9314357Y-21001821D01*
X9304833Y-20982773D01*
X9295310Y-20973250D01*
X9276262Y-20963726D01*
X9238167Y-20963726D01*
X9219119Y-20973250D01*
X9209595Y-20982773D01*
X9200072Y-21001821D01*
X9390548Y-20906583D02*
X9400072Y-20897059D01*
X9419119Y-20887535D01*
X9466738Y-20887535D01*
X9485786Y-20897059D01*
X9495310Y-20906583D01*
X9504833Y-20925631D01*
X9504833Y-20944678D01*
X9495310Y-20973250D01*
X9381024Y-21087535D01*
X9504833Y-21087535D01*
X9742929Y-21087535D02*
X9742929Y-20887535D01*
X9828643Y-21087535D02*
X9828643Y-20982773D01*
X9819119Y-20963726D01*
X9800072Y-20954202D01*
X9771500Y-20954202D01*
X9752452Y-20963726D01*
X9742929Y-20973250D01*
X9952452Y-21087535D02*
X9933405Y-21078012D01*
X9923881Y-21068488D01*
X9914357Y-21049440D01*
X9914357Y-20992297D01*
X9923881Y-20973250D01*
X9933405Y-20963726D01*
X9952452Y-20954202D01*
X9981024Y-20954202D01*
X10000072Y-20963726D01*
X10009595Y-20973250D01*
X10019119Y-20992297D01*
X10019119Y-21049440D01*
X10009595Y-21068488D01*
X10000072Y-21078012D01*
X9981024Y-21087535D01*
X9952452Y-21087535D01*
X10133405Y-21087535D02*
X10114357Y-21078012D01*
X10104833Y-21058964D01*
X10104833Y-20887535D01*
X10285786Y-21078012D02*
X10266738Y-21087535D01*
X10228643Y-21087535D01*
X10209595Y-21078012D01*
X10200072Y-21058964D01*
X10200072Y-20982773D01*
X10209595Y-20963726D01*
X10228643Y-20954202D01*
X10266738Y-20954202D01*
X10285786Y-20963726D01*
X10295310Y-20982773D01*
X10295310Y-21001821D01*
X10200072Y-21020869D01*
X10371500Y-21078012D02*
X10390548Y-21087535D01*
X10428643Y-21087535D01*
X10447691Y-21078012D01*
X10457214Y-21058964D01*
X10457214Y-21049440D01*
X10447691Y-21030393D01*
X10428643Y-21020869D01*
X10400072Y-21020869D01*
X10381024Y-21011345D01*
X10371500Y-20992297D01*
X10371500Y-20982773D01*
X10381024Y-20963726D01*
X10400072Y-20954202D01*
X10428643Y-20954202D01*
X10447691Y-20963726D01*
X10523881Y-21163726D02*
X10533405Y-21154202D01*
X10552452Y-21125631D01*
X10561976Y-21106583D01*
X10571500Y-21078012D01*
X10581024Y-21030393D01*
X10581024Y-20992297D01*
X10571500Y-20944678D01*
X10561976Y-20916107D01*
X10552452Y-20897059D01*
X10533405Y-20868488D01*
X10523881Y-20858964D01*
X10885786Y-21163726D02*
X10876262Y-21154202D01*
X10857214Y-21125631D01*
X10847691Y-21106583D01*
X10838167Y-21078012D01*
X10828643Y-21030393D01*
X10828643Y-20992297D01*
X10838167Y-20944678D01*
X10847691Y-20916107D01*
X10857214Y-20897059D01*
X10876262Y-20868488D01*
X10885786Y-20858964D01*
X10961976Y-20954202D02*
X10961976Y-21087535D01*
X10961976Y-20973250D02*
X10971500Y-20963726D01*
X10990548Y-20954202D01*
X11019119Y-20954202D01*
X11038167Y-20963726D01*
X11047691Y-20982773D01*
X11047691Y-21087535D01*
X11171500Y-21087535D02*
X11152452Y-21078012D01*
X11142929Y-21068488D01*
X11133405Y-21049440D01*
X11133405Y-20992297D01*
X11142929Y-20973250D01*
X11152452Y-20963726D01*
X11171500Y-20954202D01*
X11200071Y-20954202D01*
X11219119Y-20963726D01*
X11228643Y-20973250D01*
X11238167Y-20992297D01*
X11238167Y-21049440D01*
X11228643Y-21068488D01*
X11219119Y-21078012D01*
X11200071Y-21087535D01*
X11171500Y-21087535D01*
X11295310Y-20954202D02*
X11371500Y-20954202D01*
X11323881Y-20887535D02*
X11323881Y-21058964D01*
X11333405Y-21078012D01*
X11352452Y-21087535D01*
X11371500Y-21087535D01*
X11590548Y-20954202D02*
X11590548Y-21154202D01*
X11590548Y-20963726D02*
X11609595Y-20954202D01*
X11647690Y-20954202D01*
X11666738Y-20963726D01*
X11676262Y-20973250D01*
X11685786Y-20992297D01*
X11685786Y-21049440D01*
X11676262Y-21068488D01*
X11666738Y-21078012D01*
X11647690Y-21087535D01*
X11609595Y-21087535D01*
X11590548Y-21078012D01*
X11800071Y-21087535D02*
X11781024Y-21078012D01*
X11771500Y-21058964D01*
X11771500Y-20887535D01*
X11961976Y-21087535D02*
X11961976Y-20982773D01*
X11952452Y-20963726D01*
X11933405Y-20954202D01*
X11895310Y-20954202D01*
X11876262Y-20963726D01*
X11961976Y-21078012D02*
X11942929Y-21087535D01*
X11895310Y-21087535D01*
X11876262Y-21078012D01*
X11866738Y-21058964D01*
X11866738Y-21039916D01*
X11876262Y-21020869D01*
X11895310Y-21011345D01*
X11942929Y-21011345D01*
X11961976Y-21001821D01*
X12028643Y-20954202D02*
X12104833Y-20954202D01*
X12057214Y-20887535D02*
X12057214Y-21058964D01*
X12066738Y-21078012D01*
X12085786Y-21087535D01*
X12104833Y-21087535D01*
X12247690Y-21078012D02*
X12228643Y-21087535D01*
X12190548Y-21087535D01*
X12171500Y-21078012D01*
X12161976Y-21058964D01*
X12161976Y-20982773D01*
X12171500Y-20963726D01*
X12190548Y-20954202D01*
X12228643Y-20954202D01*
X12247690Y-20963726D01*
X12257214Y-20982773D01*
X12257214Y-21001821D01*
X12161976Y-21020869D01*
X12428643Y-21087535D02*
X12428643Y-20887535D01*
X12428643Y-21078012D02*
X12409595Y-21087535D01*
X12371500Y-21087535D01*
X12352452Y-21078012D01*
X12342929Y-21068488D01*
X12333405Y-21049440D01*
X12333405Y-20992297D01*
X12342929Y-20973250D01*
X12352452Y-20963726D01*
X12371500Y-20954202D01*
X12409595Y-20954202D01*
X12428643Y-20963726D01*
X12504833Y-21163726D02*
X12514357Y-21154202D01*
X12533405Y-21125631D01*
X12542929Y-21106583D01*
X12552452Y-21078012D01*
X12561976Y-21030393D01*
X12561976Y-20992297D01*
X12552452Y-20944678D01*
X12542929Y-20916107D01*
X12533405Y-20897059D01*
X12514357Y-20868488D01*
X12504833Y-20858964D01*
M02*
