M48
; DRILL file {KiCad (6.0.11-0)} date 2023 July 09, Sunday 05:49:14
; FORMAT={-:-/ absolute / inch / decimal}
; #@! TF.CreationDate,2023-07-09T05:49:14+09:00
; #@! TF.GenerationSoftware,Kicad,Pcbnew,(6.0.11-0)
; #@! TF.FileFunction,NonPlated,1,2,NPTH
FMAT,2
INCH
; #@! TA.AperFunction,NonPlated,NPTH,ComponentDrill
T1C0.0256
; #@! TA.AperFunction,NonPlated,NPTH,ComponentDrill
T2C0.0310
; #@! TA.AperFunction,NonPlated,NPTH,ComponentDrill
T3C0.0689
; #@! TA.AperFunction,NonPlated,NPTH,ComponentDrill
T4C0.1200
; #@! TA.AperFunction,NonPlated,NPTH,ComponentDrill
T5C0.1570
%
G90
G05
T1
X8.1539Y-3.3937
X8.3815Y-3.3937
T2
X2.6053Y-3.3742
X2.6553Y-3.3742
X2.7053Y-3.3742
X2.7553Y-3.3742
X2.8053Y-3.3742
X2.999Y-6.4483
X3.049Y-6.4483
X3.099Y-6.4483
X3.149Y-6.4483
X3.199Y-6.4483
X5.8011Y-6.6781
X5.85Y-6.6885
X5.899Y-6.6989
X5.9479Y-6.7093
X5.9968Y-6.7197
X6.2386Y-3.3742
X6.2886Y-3.3742
X6.3386Y-3.3742
X6.3886Y-3.3742
X6.4386Y-3.3742
X8.1677Y-6.9719
X8.2177Y-6.9719
X8.2677Y-6.9719
X8.3177Y-6.9719
X8.3677Y-6.9719
X10.0969Y-3.3742
X10.1469Y-3.3742
X10.1969Y-3.3742
X10.2469Y-3.3742
X10.2969Y-3.3742
X10.762Y-6.6698
X10.8109Y-6.6594
X10.8598Y-6.6491
X10.9087Y-6.6387
X10.9576Y-6.6283
X12.9692Y-6.4483
X13.0192Y-6.4483
X13.0692Y-6.4483
X13.1192Y-6.4483
X13.1692Y-6.4483
X13.3629Y-3.3742
X13.4129Y-3.3742
X13.4629Y-3.3742
X13.5129Y-3.3742
X13.5629Y-3.3742
T3
X2.3498Y-4.5
X2.51Y-3.75
X2.7498Y-4.5
X2.91Y-3.75
X3.2795Y-6.0843
X3.3501Y-4.5843
X3.3733Y-5.3343
X3.4163Y-3.8343
X3.6795Y-6.0843
X3.7501Y-4.5843
X3.7733Y-5.3343
X3.8163Y-3.8343
X4.1663Y-3.8343
X4.1939Y-4.5843
X4.4045Y-5.3343
X4.5663Y-3.8343
X4.5939Y-4.5843
X4.8045Y-5.3343
X4.9778Y-3.7699
X5.0054Y-4.5427
X5.0266Y-6.1411
X5.216Y-5.3541
X5.3691Y-3.853
X5.3966Y-4.6259
X5.4179Y-6.2243
X5.6072Y-5.4373
X5.7114Y-3.9258
X5.739Y-4.6986
X5.9496Y-5.51
X5.9684Y-6.2808
X6.1027Y-4.009
X6.1302Y-4.7818
X6.3409Y-5.5932
X6.3597Y-6.364
X6.445Y-4.0817
X6.4726Y-4.8546
X6.6832Y-5.666
X6.702Y-6.4367
X6.8363Y-4.1649
X6.8638Y-4.9377
X7.0688Y-6.5147
X7.0745Y-5.7491
X7.0933Y-6.5199
X7.1786Y-4.2377
X7.2062Y-5.0105
X7.4168Y-5.8219
X7.4601Y-6.5979
X7.5699Y-4.3208
X7.5974Y-5.0937
X7.8081Y-5.9051
X8.599Y-4.3988
X8.7274Y-5.9051
X8.9384Y-5.0937
X8.9903Y-4.3156
X9.1186Y-5.8219
X9.1584Y-6.5802
X9.3296Y-5.0105
X9.3326Y-4.2428
X9.461Y-5.7491
X9.5252Y-6.5022
X9.5497Y-6.497
X9.672Y-4.9377
X9.7239Y-4.1597
X9.8522Y-5.666
X9.9165Y-6.4191
X10.0633Y-4.8546
X10.0662Y-4.0869
X10.1671Y-6.3658
X10.1946Y-5.5932
X10.4056Y-4.7818
X10.4575Y-4.0037
X10.5584Y-6.2826
X10.5858Y-5.51
X10.7969Y-4.6986
X10.7998Y-3.931
X10.9282Y-5.4373
X11.1176Y-6.2243
X11.1392Y-4.6259
X11.1911Y-3.8478
X11.3194Y-5.3541
X11.5088Y-6.1411
X11.5305Y-4.5427
X11.5976Y-3.7925
X11.7309Y-5.3343
X11.9419Y-4.5843
X11.9976Y-3.7925
X12.1309Y-5.3343
X12.336Y-3.8343
X12.3419Y-4.5843
X12.5747Y-5.3343
X12.711Y-3.8343
X12.736Y-3.8343
X12.9497Y-5.3343
X12.9732Y-4.5843
X12.9747Y-5.3343
X13.086Y-6.0843
X13.086Y-3.8343
X13.111Y-3.8343
X13.3497Y-5.3343
X13.3732Y-4.5843
X13.4184Y-5.3343
X13.486Y-6.0843
X13.486Y-3.8343
X13.8184Y-5.3343
T4
X6.1069Y-6.5914
X6.7488Y-6.7278
X7.5741Y-6.9032
X7.6658Y-6.9227
X9.3195Y-6.8271
X10.2365Y-6.6322
X12.4423Y-3.5593
X12.6809Y-5.0593
X13.3798Y-3.5593
X13.6184Y-5.0593
T5
X2.5498Y-4.5
X2.71Y-3.75
X3.4795Y-6.0843
X3.5501Y-4.5843
X3.5733Y-5.3343
X3.6163Y-3.8343
X4.3663Y-3.8343
X4.3939Y-4.5843
X4.6045Y-5.3343
X5.1734Y-3.8114
X5.201Y-4.5843
X5.2222Y-6.1827
X5.4116Y-5.3957
X5.907Y-3.9674
X5.9346Y-4.7402
X6.1452Y-5.5516
X6.164Y-6.3224
X6.2316Y-6.0045
X6.6406Y-4.1233
X6.6682Y-4.8961
X6.8735Y-6.1409
X6.8788Y-5.7076
X6.8976Y-6.4783
X7.2645Y-6.5563
X7.3743Y-4.2792
X7.4018Y-5.0521
X7.6124Y-5.8635
X7.6988Y-6.3164
X7.7905Y-6.3358
X8.7946Y-4.3572
X8.923Y-5.8635
X9.134Y-5.0521
X9.1948Y-6.2402
X9.354Y-6.5386
X9.5283Y-4.2013
X9.6566Y-5.7076
X9.7208Y-6.4607
X9.8676Y-4.8961
X10.1118Y-6.0453
X10.2619Y-4.0453
X10.3627Y-6.3242
X10.3902Y-5.5516
X10.6012Y-4.7402
X10.9955Y-3.8894
X11.1238Y-5.3957
X11.3132Y-6.1827
X11.3348Y-4.5843
X11.7976Y-3.7925
X11.9309Y-5.3343
X12.1419Y-4.5843
X12.4423Y-4.1593
X12.536Y-3.8343
X12.6809Y-5.6593
X12.7747Y-5.3343
X12.911Y-3.8343
X13.1497Y-5.3343
X13.1732Y-4.5843
X13.286Y-6.0843
X13.286Y-3.8343
X13.3798Y-4.1593
X13.6184Y-5.3343
X13.6184Y-5.6593
T0
M30
